# Rhino

o object_1
v -1.3478837013244629 0 -4.4930334091186523
v -1.3478837013244629 0 -1.4767835140228271
v -1.3478837013244629 2.0789999961853027 -4.4930334091186523
v -1.3478837013244629 2.0789999961853027 -1.4767835140228271
v 2.8087804317474365 0 -1.4767835140228271
v 2.8087804317474365 2.0789999961853027 -1.4767835140228271
v 2.8087804317474365 0 -4.4930334091186523
v 2.8087804317474365 2.0789999961853027 -4.4930334091186523
f 2 4 3 1
f 5 6 4 2
f 7 8 6 5
f 1 3 8 7
f 3 4 6 8
f 2 1 7 5
o object_2
v -2.9607834815979004 0 -23.608737945556641
v -2.9607834815979004 0 -19.19078254699707
v -2.9607834815979004 2.0789999961853027 -23.608737945556641
v -2.9607834815979004 2.0789999961853027 -19.19078254699707
v 2.6055805683135986 0 -19.19078254699707
v 2.6055805683135986 2.0789999961853027 -19.19078254699707
v 2.6055805683135986 0 -23.608737945556641
v 2.6055805683135986 2.0789999961853027 -23.608737945556641
f 10 12 11 9
f 13 14 12 10
f 15 16 14 13
f 9 11 16 15
f 11 12 14 16
f 10 9 15 13
