# Rhino

o object_1
v -0.35883057117462158 8.4833803176879883 -10.441727638244629
v -0.35883057117462158 8.4833803176879883 -8.765528678894043
v -0.35883057117462158 12.344380378723145 -10.441727638244629
v -0.35883057117462158 12.344380378723145 -8.765528678894043
v 2.6055805683135986 8.4833803176879883 -8.765528678894043
v 2.6055805683135986 12.344380378723145 -8.765528678894043
v 2.6055805683135986 8.4833803176879883 -10.441727638244629
v 2.6055805683135986 12.344380378723145 -10.441727638244629
f 2 4 3 1
f 5 6 4 2
f 7 8 6 5
f 1 3 8 7
f 3 4 6 8
f 2 1 7 5
o object_2
v -0.35883057117462158 8.4833803176879883 -12.117927551269531
v -0.35883057117462158 8.4833803176879883 -10.441727638244629
v -0.35883057117462158 12.344380378723145 -12.117927551269531
v -0.35883057117462158 12.344380378723145 -10.441727638244629
v 2.6055805683135986 8.4833803176879883 -10.441727638244629
v 2.6055805683135986 12.344380378723145 -10.441727638244629
v 2.6055805683135986 8.4833803176879883 -12.117927551269531
v 2.6055805683135986 12.344380378723145 -12.117927551269531
f 10 12 11 9
f 13 14 12 10
f 15 16 14 13
f 9 11 16 15
f 11 12 14 16
f 10 9 15 13
o object_3
v -0.35883057117462158 5.7100934982299805 -10.441727638244629
v -0.35883057117462158 5.7100934982299805 -8.765528678894043
v -0.35883057117462158 8.48309326171875 -10.441727638244629
v -0.35883057117462158 8.48309326171875 -8.765528678894043
v 2.6055805683135986 5.7100934982299805 -8.765528678894043
v 2.6055805683135986 8.48309326171875 -8.765528678894043
v 2.6055805683135986 5.7100934982299805 -10.441727638244629
v 2.6055805683135986 8.48309326171875 -10.441727638244629
f 18 20 19 17
f 21 22 20 18
f 23 24 22 21
f 17 19 24 23
f 19 20 22 24
f 18 17 23 21
o object_4
v -0.35883057117462158 5.7100934982299805 -12.117927551269531
v -0.35883057117462158 5.7100934982299805 -10.441727638244629
v -0.35883057117462158 8.48309326171875 -12.117927551269531
v -0.35883057117462158 8.48309326171875 -10.441727638244629
v 2.6055805683135986 5.7100934982299805 -10.441727638244629
v 2.6055805683135986 8.48309326171875 -10.441727638244629
v 2.6055805683135986 5.7100934982299805 -12.117927551269531
v 2.6055805683135986 8.48309326171875 -12.117927551269531
f 26 28 27 25
f 29 30 28 26
f 31 32 30 29
f 25 27 32 31
f 27 28 30 32
f 26 25 31 29
o object_5
v -1.3588305711746216 2.0785393714904785 -14.772828102111816
v -1.3588305711746216 2.0785393714904785 -12.96802806854248
v -1.3588305711746216 5.7105393409729004 -14.772828102111816
v -1.3588305711746216 5.7105393409729004 -12.96802806854248
v 0.21736942231655121 2.0785393714904785 -12.96802806854248
v 0.21736942231655121 5.7105393409729004 -12.96802806854248
v 0.21736942231655121 2.0785393714904785 -14.772828102111816
v 0.21736942231655121 5.7105393409729004 -14.772828102111816
f 34 36 35 33
f 37 38 36 34
f 39 40 38 37
f 33 35 40 39
f 35 36 38 40
f 34 33 39 37
o object_6
v -2.9607834815979004 0 -14.772828102111816
v -2.9607834815979004 0 -12.96802806854248
v -2.9607834815979004 2.0789999961853027 -14.772828102111816
v -2.9607834815979004 2.0789999961853027 -12.96802806854248
v 0.21736942231655121 0 -12.96802806854248
v 0.21736942231655121 2.0789999961853027 -12.96802806854248
v 0.21736942231655121 0 -14.772828102111816
v 0.21736942231655121 2.0789999961853027 -14.772828102111816
f 42 44 43 41
f 45 46 44 42
f 47 48 46 45
f 41 43 48 47
f 43 44 46 48
f 42 41 47 45
