# Rhino

o object_1
v -2.9607834815979004 8.4833803176879883 -12.96802806854248
v -2.9607834815979004 8.4833803176879883 -13.96802806854248
v -2.9607834815979004 12.344380378723145 -12.96802806854248
v -2.9607834815979004 12.344380378723145 -13.96802806854248
v -0.35883057117462158 8.4833803176879883 -13.96802806854248
v -0.35883057117462158 12.344380378723145 -13.96802806854248
v -0.35883057117462158 8.4833803176879883 -6.9154276847839355
v -0.35883057117462158 12.344380378723145 -6.9154276847839355
v -1.3588305711746216 8.4833803176879883 -6.9154276847839355
v -1.3588305711746216 12.344380378723145 -6.9154276847839355
v -1.3588305711746216 8.4833803176879883 -4.4930334091186523
v -1.3588305711746216 12.344380378723145 -4.4930334091186523
v -2.9607834815979004 8.4833803176879883 -4.4930334091186523
v -2.9607834815979004 12.344380378723145 -4.4930334091186523
v -2.9607834815979004 8.4833803176879883 -7.7630276679992676
v -2.9607834815979004 12.344380378723145 -7.7630276679992676
v -1.3588305711746216 8.4833803176879883 -7.7630276679992676
v -1.3588305711746216 12.344380378723145 -7.7630276679992676
v -1.3588305711746216 8.4833803176879883 -12.96802806854248
v -1.3588305711746216 12.344380378723145 -12.96802806854248
f 4 3 20 18 16 14 12 10 8 6
f 9 11 13 15 17 19 1 2 5 7
f 2 1 3 4
f 5 2 4 6
f 7 5 6 8
f 9 7 8 10
f 11 9 10 12
f 13 11 12 14
f 15 13 14 16
f 17 15 16 18
f 19 17 18 20
f 1 19 20 3
o object_2
v -2.9607834815979004 5.7100934982299805 -12.96802806854248
v -2.9607834815979004 5.7100934982299805 -13.96802806854248
v -2.9607834815979004 8.48309326171875 -12.96802806854248
v -2.9607834815979004 8.48309326171875 -13.96802806854248
v -0.35883057117462158 5.7100934982299805 -13.96802806854248
v -0.35883057117462158 8.48309326171875 -13.96802806854248
v -0.35883057117462158 5.7100934982299805 -6.9154276847839355
v -0.35883057117462158 8.48309326171875 -6.9154276847839355
v -1.3588305711746216 5.7100934982299805 -6.9154276847839355
v -1.3588305711746216 8.48309326171875 -6.9154276847839355
v -1.3588305711746216 5.7100934982299805 -4.4930334091186523
v -1.3588305711746216 8.48309326171875 -4.4930334091186523
v -2.9607834815979004 5.7100934982299805 -4.4930334091186523
v -2.9607834815979004 8.48309326171875 -4.4930334091186523
v -2.9607834815979004 5.7100934982299805 -7.7630276679992676
v -2.9607834815979004 8.48309326171875 -7.7630276679992676
v -1.3588305711746216 5.7100934982299805 -7.7630276679992676
v -1.3588305711746216 8.48309326171875 -7.7630276679992676
v -1.3588305711746216 5.7100934982299805 -12.96802806854248
v -1.3588305711746216 8.48309326171875 -12.96802806854248
f 24 23 40 38 36 34 32 30 28 26
f 29 31 33 35 37 39 21 22 25 27
f 22 21 23 24
f 25 22 24 26
f 27 25 26 28
f 29 27 28 30
f 31 29 30 32
f 33 31 32 34
f 35 33 34 36
f 37 35 36 38
f 39 37 38 40
f 21 39 40 23
o object_3
v -2.9607834815979004 2.0785393714904785 -14.772828102111816
v -2.9607834815979004 2.0785393714904785 -12.96802806854248
v -2.9607834815979004 5.7105393409729004 -14.772828102111816
v -2.9607834815979004 5.7105393409729004 -12.96802806854248
v -1.3588305711746216 2.0785393714904785 -12.96802806854248
v -1.3588305711746216 5.7105393409729004 -12.96802806854248
v -1.3588305711746216 2.0785393714904785 -14.772828102111816
v -1.3588305711746216 5.7105393409729004 -14.772828102111816
f 42 44 43 41
f 45 46 44 42
f 47 48 46 45
f 41 43 48 47
f 43 44 46 48
f 42 41 47 45
o object_4
v -2.9607834815979004 2.0785393714904785 -7.7630276679992676
v -2.9607834815979004 2.0785393714904785 -4.4930334091186523
v -2.9607834815979004 5.7105393409729004 -7.7630276679992676
v -2.9607834815979004 5.7105393409729004 -4.4930334091186523
v -1.3588305711746216 2.0785393714904785 -4.4930334091186523
v -1.3588305711746216 5.7105393409729004 -4.4930334091186523
v -1.3588305711746216 2.0785393714904785 -7.7630276679992676
v -1.3588305711746216 5.7105393409729004 -7.7630276679992676
f 50 52 51 49
f 53 54 52 50
f 55 56 54 53
f 49 51 56 55
f 51 52 54 56
f 50 49 55 53
