# Rhino

o object_1
v -1.3588305759429933 10.523380920410156 -6.4630281784057617
v -1.3588305759429933 10.523380920410156 -5.5370277236938481
v -1.3588305759429933 8.4833810211181646 -5.5370277236938481
v -1.3588305759429933 8.4833810211181646 -6.4630281784057617
l 1 2 3 4 1
o object_2
v 0.97958061447143563 8.4833810211181646 -8.7655283340454098
v 0.97958061447143563 10.523380920410156 -8.7655283340454098
v 1.7055806316375732 10.523380920410156 -8.7655283340454098
v 1.705580631637573 8.4833810211181646 -8.7655283340454098
l 5 6 7 8 5
o object_3
v 1.7055806316375732 10.523380920410156 -12.117927777099609
v 0.97958061447143563 10.523380920410156 -12.117927777099609
v 0.97958061447143341 8.4833810211181646 -12.117927777099609
v 1.7055806316375732 8.4833810211181646 -12.117927777099609
l 9 10 11 12 9
o object_4
v -1.697783578491211 8.4833810211181646 -13.968027639770508
v -1.697783578491211 10.523380920410156 -13.968027639770508
v -2.6237837425231936 10.523380920410156 -13.968027639770508
v -2.6237837425231945 8.4833810211181646 -13.968027639770508
l 13 14 15 16 13
o object_5
v -1.3588305759429933 7.7500932220458987 -6.4630281784057617
v -1.3588305759429933 7.7500932220458987 -5.5370277236938481
v -1.3588305759429933 5.7100933227539068 -5.5370277236938481
v -1.3588305759429933 5.7100933227539068 -6.4630281784057617
l 17 18 19 20 17
o object_6
v 0.97958061447143563 5.7100933227539068 -8.7655283340454098
v 0.97958061447143563 7.7500932220458987 -8.7655283340454098
v 1.7055806316375732 7.7500932220458987 -8.7655283340454098
v 1.705580631637573 5.7100933227539068 -8.7655283340454098
l 21 22 23 24 21
o object_7
v 1.7055806316375732 7.7500932220458987 -12.117927777099609
v 0.97958061447143563 7.7500932220458987 -12.117927777099609
v 0.97958061447143341 5.7100933227539068 -12.117927777099609
v 1.7055806316375732 5.7100933227539068 -12.117927777099609
l 25 26 27 28 25
o object_8
v -1.697783578491211 5.7100933227539068 -13.968027639770508
v -1.697783578491211 7.7500932220458987 -13.968027639770508
v -2.6237837425231936 7.7500932220458987 -13.968027639770508
v -2.6237837425231945 5.7100933227539068 -13.968027639770508
l 29 30 31 32 29
o object_9
v -1.3588305759429933 4.1185393066406251 -14.233427719116211
v -1.3588305759429933 4.1185393066406251 -13.507427847290039
v -1.3588305759429933 2.0785394073486327 -13.507427847290039
v -1.3588305759429933 2.0785394073486327 -14.233427719116211
l 33 34 35 36 33
o object_10
v 0.61736943855285653 1.7285394046783449 -12.968028213500977
v 0.61736943855285653 0 -12.968028213500977
v 1.8173694477081299 0 -12.968028213500977
v 1.8173694477081299 1.7285394046783449 -12.968028213500977
l 37 38 39 40 37
o object_11
v -1.0610305847167969 1.7285394046783449 -12.968028213500977
v -1.0610305847167965 0 -12.968028213500977
v -0.33503056755065919 0 -12.968028213500977
v -0.33503056755065919 1.7285394046783449 -12.968028213500977
l 41 42 43 44 41
