# Rhino

o object_1
v -1.3588305759429931 1.8277416837834521 -4.2755350290298457
v -1.3588305759429931 1.8277416837834521 -3.0755350198745717
v -1.3588305759429933 0 -3.0755350198745735
v -1.3588305759429933 0 -4.2755350290298466
l 1 2 3 4 1
o object_2
v -2.6237837425231927 1.7609209171884892 -4.4930335990905732
v -1.6977835784912103 1.7609209171884892 -4.4930335990905732
v -1.6977835784912103 -0.00046059265136744187 -4.4930335990905732
v -2.6228273877520092 -0.00046059265136744187 -4.4930335990905732
l 5 6 7 8 5
o object_3
v 1.294351989841461 1.5208253150504008 -19.190783267211916
v 2.2976519413948058 1.5208253150504008 -19.190783267211916
v 2.2976519413948058 0.057875285939492122 -19.190783267211916
v 1.294351989841461 0.057875285939492122 -19.190783267211916
l 9 10 11 12 9
o object_4
v -2.6237837425231927 1.7609209171884892 -7.7630278976440401
v -1.6977835784912103 1.7609209171884892 -7.7630278976440401
v -1.6977835784912103 -0.00046059265136744187 -7.7630278976440401
v -2.6228273877520092 -0.00046059265136744187 -7.7630278976440401
l 13 14 15 16 13
o object_5
v -1.6977835784912128 5.7100933227539077 -7.7630278976440419
v -1.6977835784912128 7.7500932220458996 -7.7630278976440419
v -2.6237837425231954 7.7500932220458996 -7.7630278976440419
v -2.6237837425231962 5.7100933227539077 -7.7630278976440419
l 17 18 19 20 17
o object_6
v -2.6237837425231936 4.1185393066406251 -7.7630278976440401
v -1.697783578491211 4.1185393066406251 -7.7630278976440401
v -1.6977835784912108 2.0785394073486327 -7.7630278976440401
v -2.6228273877520096 2.0785394073486327 -7.7630278976440401
l 21 22 23 24 21
o object_7
v -1.6977835784912128 8.4833810211181664 -12.968028213500979
v -1.6977835784912128 10.523380920410158 -12.968028213500979
v -2.6237837425231954 10.523380920410158 -12.968028213500979
v -2.6237837425231962 8.4833810211181664 -12.968028213500979
l 25 26 27 28 25
o object_8
v -1.6977835784912128 5.7100933227539077 -12.968028213500979
v -1.6977835784912128 7.7500932220458996 -12.968028213500979
v -2.6237837425231954 7.7500932220458996 -12.968028213500979
v -2.6237837425231962 5.7100933227539077 -12.968028213500979
l 29 30 31 32 29
o object_9
v -1.3588305759429931 1.8277416837834521 -6.6930333251953122
v -1.3588305759429931 1.8277416837834521 -5.4930333160400382
v -1.3588305759429933 0 -5.49303331604004
v -1.3588305759429933 0 -6.6930333251953131
l 33 34 35 36 33
o object_10
v -2.6559838119506836 2.1441287178039552 -4.4930335990905768
v -2.6559838119506836 5.1258121261596683 -4.4930335990905768
v -1.6526837150573732 5.1258121261596683 -4.4930335990905768
v -1.6526837150573732 2.1441287178039552 -4.4930335990905768
l 37 38 39 40 37
o object_11
v 0.61736943855285653 3.8075394046783453 -12.968028213500977
v 0.61736943855285653 2.0790000000000002 -12.968028213500977
v 1.8173694477081299 2.0789999999999997 -12.968028213500977
v 1.8173694477081299 3.8075394046783453 -12.968028213500977
l 41 42 43 44 41
o object_12
v -1.3588305759429933 10.523380920410156 -6.4630281784057617
v -1.3588305759429933 10.523380920410156 -5.5370277236938481
v -1.3588305759429933 8.4833810211181646 -5.5370277236938481
v -1.3588305759429933 8.4833810211181646 -6.4630281784057617
l 45 46 47 48 45
o object_13
v 0.97958061447143563 8.4833810211181646 -8.7655283340454098
v 0.97958061447143563 10.523380920410156 -8.7655283340454098
v 1.7055806316375732 10.523380920410156 -8.7655283340454098
v 1.705580631637573 8.4833810211181646 -8.7655283340454098
l 49 50 51 52 49
o object_14
v 1.7055806316375732 10.523380920410156 -12.117927777099609
v 0.97958061447143563 10.523380920410156 -12.117927777099609
v 0.97958061447143341 8.4833810211181646 -12.117927777099609
v 1.7055806316375732 8.4833810211181646 -12.117927777099609
l 53 54 55 56 53
o object_15
v -1.697783578491211 8.4833810211181646 -13.968027639770508
v -1.697783578491211 10.523380920410156 -13.968027639770508
v -2.6237837425231936 10.523380920410156 -13.968027639770508
v -2.6237837425231945 8.4833810211181646 -13.968027639770508
l 57 58 59 60 57
o object_16
v -1.3588305759429933 7.7500932220458987 -6.4630281784057617
v -1.3588305759429933 7.7500932220458987 -5.5370277236938481
v -1.3588305759429933 5.7100933227539068 -5.5370277236938481
v -1.3588305759429933 5.7100933227539068 -6.4630281784057617
l 61 62 63 64 61
o object_17
v 0.97958061447143563 5.7100933227539068 -8.7655283340454098
v 0.97958061447143563 7.7500932220458987 -8.7655283340454098
v 1.7055806316375732 7.7500932220458987 -8.7655283340454098
v 1.705580631637573 5.7100933227539068 -8.7655283340454098
l 65 66 67 68 65
o object_18
v 1.7055806316375732 7.7500932220458987 -12.117927777099609
v 0.97958061447143563 7.7500932220458987 -12.117927777099609
v 0.97958061447143341 5.7100933227539068 -12.117927777099609
v 1.7055806316375732 5.7100933227539068 -12.117927777099609
l 69 70 71 72 69
o object_19
v -1.697783578491211 5.7100933227539068 -13.968027639770508
v -1.697783578491211 7.7500932220458987 -13.968027639770508
v -2.6237837425231936 7.7500932220458987 -13.968027639770508
v -2.6237837425231945 5.7100933227539068 -13.968027639770508
l 73 74 75 76 73
o object_20
v -1.3588305759429933 4.1785394233703617 -6.6930333251953131
v -1.3588305759429933 4.1785394233703617 -5.4930333160400391
v -1.3588305759429933 2.0785394073486327 -5.49303331604004
v -1.3588305759429933 2.0785394073486327 -6.6930333251953131
l 77 78 79 80 77
o object_21
v -1.3588305759429933 4.1185393066406251 -14.233427719116211
v -1.3588305759429933 4.1185393066406251 -13.507427847290039
v -1.3588305759429933 2.0785394073486327 -13.507427847290039
v -1.3588305759429933 2.0785394073486327 -14.233427719116211
l 81 82 83 84 81
o object_22
v -2.6237837425231936 4.1185393066406251 -12.968028213500977
v -1.697783578491211 4.1185393066406251 -12.968028213500977
v -1.6977835784912108 2.0785394073486327 -12.968028213500977
v -2.6228273877520096 2.0785394073486327 -12.968028213500977
l 85 86 87 88 85
o object_23
v 0.61736943855285653 1.7285394046783449 -12.968028213500977
v 0.61736943855285653 0 -12.968028213500977
v 1.8173694477081299 0 -12.968028213500977
v 1.8173694477081299 1.7285394046783449 -12.968028213500977
l 89 90 91 92 89
o object_24
v -1.0610305847167969 1.7285394046783449 -12.968028213500977
v -1.0610305847167965 0 -12.968028213500977
v -0.33503056755065919 0 -12.968028213500977
v -0.33503056755065919 1.7285394046783449 -12.968028213500977
l 93 94 95 96 93
