# Rhino

o object_1
v -2.6237837425231927 1.7609209171884892 -4.4930335990905732
v -1.6977835784912103 1.7609209171884892 -4.4930335990905732
v -1.6977835784912103 -0.00046059265136744187 -4.4930335990905732
v -2.6228273877520092 -0.00046059265136744187 -4.4930335990905732
l 1 2 3 4 1
o object_2
v 1.294351989841461 1.5208253150504008 -19.190783267211916
v 2.2976519413948058 1.5208253150504008 -19.190783267211916
v 2.2976519413948058 0.057875285939492122 -19.190783267211916
v 1.294351989841461 0.057875285939492122 -19.190783267211916
l 5 6 7 8 5
o object_3
v -2.6559838119506836 2.1441287178039552 -4.4930335990905768
v -2.6559838119506836 5.1258121261596683 -4.4930335990905768
v -1.6526837150573732 5.1258121261596683 -4.4930335990905768
v -1.6526837150573732 2.1441287178039552 -4.4930335990905768
l 9 10 11 12 9
