# Rhino

o object_1
v 2.6055805683135986 2.0785393714904785 -19.19078254699707
v 2.6055805683135986 2.0785393714904785 -12.96802806854248
v 2.6055805683135986 5.7105393409729004 -19.19078254699707
v 2.6055805683135986 5.7105393409729004 -12.96802806854248
v 0.21736942231655121 2.0785393714904785 -12.96802806854248
v 0.21736942231655121 5.7105393409729004 -12.96802806854248
v 0.21736942231655121 2.0785393714904785 -14.772828102111816
v 0.21736942231655121 5.7105393409729004 -14.772828102111816
v -2.9607834815979004 2.0785393714904785 -14.772828102111816
v -2.9607834815979004 5.7105393409729004 -14.772828102111816
v -2.9607834815979004 2.0785393714904785 -19.19078254699707
v -2.9607834815979004 5.7105393409729004 -19.19078254699707
f 10 8 6 4 3 12
f 7 9 11 1 2 5
f 2 1 3 4
f 5 2 4 6
f 7 5 6 8
f 9 7 8 10
f 11 9 10 12
f 1 11 12 3
