# Rhino

o object_1
v -1.3588305711746216 0 -7.7630276679992676
v -1.3588305711746216 0 -12.96802806854248
v -1.3588305711746216 2.0789999961853027 -7.7630276679992676
v -1.3588305711746216 2.0789999961853027 -12.96802806854248
v 2.6055805683135986 0 -12.96802806854248
v 2.6055805683135986 2.0789999961853027 -12.96802806854248
v 2.6055805683135986 0 -4.4930334091186523
v 2.6055805683135986 2.0789999961853027 -4.4930334091186523
v -2.9607834815979004 0 -4.4930334091186523
v -2.9607834815979004 2.0789999961853027 -4.4930334091186523
v -2.9607834815979004 0 -7.7630276679992676
v -2.9607834815979004 2.0789999961853027 -7.7630276679992676
f 3 12 10 8 6 4
f 11 1 2 5 7 9
f 2 1 3 4
f 5 2 4 6
f 7 5 6 8
f 9 7 8 10
f 11 9 10 12
f 1 11 12 3
o object_2
v -1.3588305711746216 2.0785393714904785 -12.96802806854248
v -1.3588305711746216 2.0785393714904785 -4.4930334091186523
v -1.3588305711746216 5.7105393409729004 -12.96802806854248
v -1.3588305711746216 5.7105393409729004 -4.4930334091186523
v 2.6055805683135986 2.0785393714904785 -4.4930334091186523
v 2.6055805683135986 5.7105393409729004 -4.4930334091186523
v 2.6055805683135986 2.0785393714904785 -12.96802806854248
v 2.6055805683135986 5.7105393409729004 -12.96802806854248
f 14 16 15 13
f 17 18 16 14
f 19 20 18 17
f 13 15 20 19
f 15 16 18 20
f 14 13 19 17
