# Rhino

o object_1
v -2.6237837425231931 4.1185393066406251 -14.772828515624999
v -1.6977835784912105 4.1185393066406251 -14.772828515624999
v -1.6977835784912103 2.0785394073486327 -14.772828515624999
v -2.6228273877520092 2.0785394073486327 -14.772828515624999
l 1 2 3 4 1
o object_2
v -2.6237837425231927 1.7609209171884892 -7.7630278976440401
v -1.6977835784912103 1.7609209171884892 -7.7630278976440401
v -1.6977835784912103 -0.00046059265136744187 -7.7630278976440401
v -2.6228273877520092 -0.00046059265136744187 -7.7630278976440401
l 5 6 7 8 5
o object_3
v -1.6977835784912128 5.7100933227539077 -7.7630278976440419
v -1.6977835784912128 7.7500932220458996 -7.7630278976440419
v -2.6237837425231954 7.7500932220458996 -7.7630278976440419
v -2.6237837425231962 5.7100933227539077 -7.7630278976440419
l 9 10 11 12 9
o object_4
v -2.6237837425231936 4.1185393066406251 -7.7630278976440401
v -1.697783578491211 4.1185393066406251 -7.7630278976440401
v -1.6977835784912108 2.0785394073486327 -7.7630278976440401
v -2.6228273877520096 2.0785394073486327 -7.7630278976440401
l 13 14 15 16 13
o object_5
v -1.6977835784912128 8.4833810211181664 -12.968028213500979
v -1.6977835784912128 10.523380920410158 -12.968028213500979
v -2.6237837425231954 10.523380920410158 -12.968028213500979
v -2.6237837425231962 8.4833810211181664 -12.968028213500979
l 17 18 19 20 17
o object_6
v -1.6977835784912128 5.7100933227539077 -12.968028213500979
v -1.6977835784912128 7.7500932220458996 -12.968028213500979
v -2.6237837425231954 7.7500932220458996 -12.968028213500979
v -2.6237837425231962 5.7100933227539077 -12.968028213500979
l 21 22 23 24 21
o object_7
v -1.3588305759429931 1.8277416837834521 -6.6930333251953122
v -1.3588305759429931 1.8277416837834521 -5.4930333160400382
v -1.3588305759429933 0 -5.49303331604004
v -1.3588305759429933 0 -6.6930333251953131
l 25 26 27 28 25
o object_8
v 0.61736943855285653 3.8075394046783453 -12.968028213500977
v 0.61736943855285653 2.0790000000000002 -12.968028213500977
v 1.8173694477081299 2.0789999999999997 -12.968028213500977
v 1.8173694477081299 3.8075394046783453 -12.968028213500977
l 29 30 31 32 29
o object_9
v -1.3588305759429933 4.1785394233703617 -6.6930333251953131
v -1.3588305759429933 4.1785394233703617 -5.4930333160400391
v -1.3588305759429933 2.0785394073486327 -5.49303331604004
v -1.3588305759429933 2.0785394073486327 -6.6930333251953131
l 33 34 35 36 33
o object_10
v -2.6237837425231936 4.1185393066406251 -12.968028213500977
v -1.697783578491211 4.1185393066406251 -12.968028213500977
v -1.6977835784912108 2.0785394073486327 -12.968028213500977
v -2.6228273877520096 2.0785394073486327 -12.968028213500977
l 37 38 39 40 37
