# Rhino

o object_1
v -1.3588305711746216 0 -7.7630276679992676
v -1.3588305711746216 0 -12.96802806854248
v -1.3588305711746216 2.0789999961853027 -7.7630276679992676
v -1.3588305711746216 2.0789999961853027 -12.96802806854248
v 2.6055805683135986 0 -12.96802806854248
v 2.6055805683135986 2.0789999961853027 -12.96802806854248
v 2.6055805683135986 0 -4.4930334091186523
v 2.6055805683135986 2.0789999961853027 -4.4930334091186523
v -2.9607834815979004 0 -4.4930334091186523
v -2.9607834815979004 2.0789999961853027 -4.4930334091186523
v -2.9607834815979004 0 -7.7630276679992676
v -2.9607834815979004 2.0789999961853027 -7.7630276679992676
f 3 12 10 8 6 4
f 11 1 2 5 7 9
f 2 1 3 4
f 5 2 4 6
f 7 5 6 8
f 9 7 8 10
f 11 9 10 12
f 1 11 12 3
o object_2
v -2.9607834815979004 0 -12.96802806854248
v -2.9607834815979004 0 -7.7630276679992676
v -2.9607834815979004 2.0789999961853027 -12.96802806854248
v -2.9607834815979004 2.0789999961853027 -7.7630276679992676
v -1.3588305711746216 2.0785393714904785 -7.7630276679992676
v -1.3588305711746216 -0.00046059265150688589 -7.7630276679992676
v -1.3588305711746216 -0.00046059265150688589 -12.96802806854248
v -1.3588305711746216 2.0785393714904785 -12.96802806854248
f 14 16 15 13
f 16 14 18 17
f 19 20 17 18
f 20 19 13 15
f 15 16 17 20
f 14 13 19 18
o object_3
v -2.9607834815979004 8.4833803176879883 -12.96802806854248
v -2.9607834815979004 8.4833803176879883 -7.7630276679992676
v -2.9607834815979004 12.344380378723145 -12.96802806854248
v -2.9607834815979004 12.344380378723145 -7.7630276679992676
v -1.3588305711746216 8.4833803176879883 -7.7630276679992676
v -1.3588305711746216 12.344380378723145 -7.7630276679992676
v -1.3588305711746216 8.4833803176879883 -12.96802806854248
v -1.3588305711746216 12.344380378723145 -12.96802806854248
f 22 24 23 21
f 25 26 24 22
f 27 28 26 25
f 21 23 28 27
f 23 24 26 28
f 22 21 27 25
o object_4
v -0.35883057117462158 8.4833803176879883 -6.9154276847839355
v -0.35883057117462158 8.4833803176879883 -8.7659883499145508
v -0.35883057117462158 12.344380378723145 -6.9154276847839355
v -0.35883057117462158 12.344380378723145 -8.7659883499145508
v 2.6055805683135986 8.4833803176879883 -8.765528678894043
v 2.6055805683135986 12.344380378723145 -8.765528678894043
v 2.6055805683135986 8.4833803176879883 -4.4930334091186523
v 2.6055805683135986 12.344380378723145 -4.4930334091186523
v -1.3588305711746216 8.4833803176879883 -4.4930334091186523
v -1.3588305711746216 12.344380378723145 -4.4930334091186523
v -1.3588305711746216 8.4833803176879883 -6.9154276847839355
v -1.3588305711746216 12.344380378723145 -6.9154276847839355
f 31 40 38 36 34 32
f 39 29 30 33 35 37
f 30 29 31 32
f 33 30 32 34
f 35 33 34 36
f 37 35 36 38
f 39 37 38 40
f 29 39 40 31
o object_5
v -0.35883057117462158 8.4833803176879883 -10.441727638244629
v -0.35883057117462158 8.4833803176879883 -8.765528678894043
v -0.35883057117462158 12.344380378723145 -10.441727638244629
v -0.35883057117462158 12.344380378723145 -8.765528678894043
v 2.6055805683135986 8.4833803176879883 -8.765528678894043
v 2.6055805683135986 12.344380378723145 -8.765528678894043
v 2.6055805683135986 8.4833803176879883 -10.441727638244629
v 2.6055805683135986 12.344380378723145 -10.441727638244629
f 42 44 43 41
f 45 46 44 42
f 47 48 46 45
f 41 43 48 47
f 43 44 46 48
f 42 41 47 45
o object_6
v -0.35883057117462158 8.4833803176879883 -12.117927551269531
v -0.35883057117462158 8.4833803176879883 -10.441727638244629
v -0.35883057117462158 12.344380378723145 -12.117927551269531
v -0.35883057117462158 12.344380378723145 -10.441727638244629
v 2.6055805683135986 8.4833803176879883 -10.441727638244629
v 2.6055805683135986 12.344380378723145 -10.441727638244629
v 2.6055805683135986 8.4833803176879883 -12.117927551269531
v 2.6055805683135986 12.344380378723145 -12.117927551269531
f 50 52 51 49
f 53 54 52 50
f 55 56 54 53
f 49 51 56 55
f 51 52 54 56
f 50 49 55 53
o object_7
v -0.35883057117462158 8.4833803176879883 -12.117927551269531
v -0.35883057117462158 8.4833803176879883 -13.96802806854248
v -0.35883057117462158 12.344380378723145 -12.117927551269531
v -0.35883057117462158 12.344380378723145 -13.96802806854248
v -2.9607834815979004 8.4833803176879883 -13.96802806854248
v -2.9607834815979004 12.344380378723145 -13.96802806854248
v -2.9607834815979004 8.4833803176879883 -19.19078254699707
v -2.9607834815979004 12.344380378723145 -19.19078254699707
v 2.6055805683135986 8.4833803176879883 -19.19078254699707
v 2.6055805683135986 12.344380378723145 -19.19078254699707
v 2.6055805683135986 8.4833803176879883 -12.117927551269531
v 2.6055805683135986 12.344380378723145 -12.117927551269531
f 62 60 59 68 66 64
f 58 61 63 65 67 57
f 58 57 59 60
f 61 58 60 62
f 63 61 62 64
f 65 63 64 66
f 67 65 66 68
f 57 67 68 59
o object_8
v -2.9607834815979004 8.4833803176879883 -12.96802806854248
v -2.9607834815979004 8.4833803176879883 -13.96802806854248
v -2.9607834815979004 12.344380378723145 -12.96802806854248
v -2.9607834815979004 12.344380378723145 -13.96802806854248
v -0.35883057117462158 8.4833803176879883 -13.96802806854248
v -0.35883057117462158 12.344380378723145 -13.96802806854248
v -0.35883057117462158 8.4833803176879883 -6.9154276847839355
v -0.35883057117462158 12.344380378723145 -6.9154276847839355
v -1.3588305711746216 8.4833803176879883 -6.9154276847839355
v -1.3588305711746216 12.344380378723145 -6.9154276847839355
v -1.3588305711746216 8.4833803176879883 -4.4930334091186523
v -1.3588305711746216 12.344380378723145 -4.4930334091186523
v -2.9607834815979004 8.4833803176879883 -4.4930334091186523
v -2.9607834815979004 12.344380378723145 -4.4930334091186523
v -2.9607834815979004 8.4833803176879883 -7.7630276679992676
v -2.9607834815979004 12.344380378723145 -7.7630276679992676
v -1.3588305711746216 8.4833803176879883 -7.7630276679992676
v -1.3588305711746216 12.344380378723145 -7.7630276679992676
v -1.3588305711746216 8.4833803176879883 -12.96802806854248
v -1.3588305711746216 12.344380378723145 -12.96802806854248
f 72 71 88 86 84 82 80 78 76 74
f 77 79 81 83 85 87 69 70 73 75
f 70 69 71 72
f 73 70 72 74
f 75 73 74 76
f 77 75 76 78
f 79 77 78 80
f 81 79 80 82
f 83 81 82 84
f 85 83 84 86
f 87 85 86 88
f 69 87 88 71
o object_9
v -0.35883057117462158 5.7100934982299805 -6.9154276847839355
v -0.35883057117462158 5.7100934982299805 -8.7659883499145508
v -0.35883057117462158 8.48309326171875 -6.9154276847839355
v -0.35883057117462158 8.48309326171875 -8.7659883499145508
v 2.6055805683135986 5.7100934982299805 -8.765528678894043
v 2.6055805683135986 8.48309326171875 -8.765528678894043
v 2.6055805683135986 5.7100934982299805 -4.4930334091186523
v 2.6055805683135986 8.48309326171875 -4.4930334091186523
v -1.3588305711746216 5.7100934982299805 -4.4930334091186523
v -1.3588305711746216 8.48309326171875 -4.4930334091186523
v -1.3588305711746216 5.7100934982299805 -6.9154276847839355
v -1.3588305711746216 8.48309326171875 -6.9154276847839355
f 91 100 98 96 94 92
f 99 89 90 93 95 97
f 90 89 91 92
f 93 90 92 94
f 95 93 94 96
f 97 95 96 98
f 99 97 98 100
f 89 99 100 91
o object_10
v -0.35883057117462158 5.7100934982299805 -10.441727638244629
v -0.35883057117462158 5.7100934982299805 -8.765528678894043
v -0.35883057117462158 8.48309326171875 -10.441727638244629
v -0.35883057117462158 8.48309326171875 -8.765528678894043
v 2.6055805683135986 5.7100934982299805 -8.765528678894043
v 2.6055805683135986 8.48309326171875 -8.765528678894043
v 2.6055805683135986 5.7100934982299805 -10.441727638244629
v 2.6055805683135986 8.48309326171875 -10.441727638244629
f 102 104 103 101
f 105 106 104 102
f 107 108 106 105
f 101 103 108 107
f 103 104 106 108
f 102 101 107 105
o object_11
v -0.35883057117462158 5.7100934982299805 -12.117927551269531
v -0.35883057117462158 5.7100934982299805 -10.441727638244629
v -0.35883057117462158 8.48309326171875 -12.117927551269531
v -0.35883057117462158 8.48309326171875 -10.441727638244629
v 2.6055805683135986 5.7100934982299805 -10.441727638244629
v 2.6055805683135986 8.48309326171875 -10.441727638244629
v 2.6055805683135986 5.7100934982299805 -12.117927551269531
v 2.6055805683135986 8.48309326171875 -12.117927551269531
f 110 112 111 109
f 113 114 112 110
f 115 116 114 113
f 109 111 116 115
f 111 112 114 116
f 110 109 115 113
o object_12
v -0.35883057117462158 5.7100934982299805 -12.117927551269531
v -0.35883057117462158 5.7100934982299805 -13.96802806854248
v -0.35883057117462158 8.48309326171875 -12.117927551269531
v -0.35883057117462158 8.48309326171875 -13.96802806854248
v -2.9607834815979004 5.7100934982299805 -13.96802806854248
v -2.9607834815979004 8.48309326171875 -13.96802806854248
v -2.9607834815979004 5.7100934982299805 -19.19078254699707
v -2.9607834815979004 8.48309326171875 -19.19078254699707
v 2.6055805683135986 5.7100934982299805 -19.19078254699707
v 2.6055805683135986 8.48309326171875 -19.19078254699707
v 2.6055805683135986 5.7100934982299805 -12.117927551269531
v 2.6055805683135986 8.48309326171875 -12.117927551269531
f 122 120 119 128 126 124
f 118 121 123 125 127 117
f 118 117 119 120
f 121 118 120 122
f 123 121 122 124
f 125 123 124 126
f 127 125 126 128
f 117 127 128 119
o object_13
v -2.9607834815979004 5.7100934982299805 -12.96802806854248
v -2.9607834815979004 5.7100934982299805 -13.96802806854248
v -2.9607834815979004 8.48309326171875 -12.96802806854248
v -2.9607834815979004 8.48309326171875 -13.96802806854248
v -0.35883057117462158 5.7100934982299805 -13.96802806854248
v -0.35883057117462158 8.48309326171875 -13.96802806854248
v -0.35883057117462158 5.7100934982299805 -6.9154276847839355
v -0.35883057117462158 8.48309326171875 -6.9154276847839355
v -1.3588305711746216 5.7100934982299805 -6.9154276847839355
v -1.3588305711746216 8.48309326171875 -6.9154276847839355
v -1.3588305711746216 5.7100934982299805 -4.4930334091186523
v -1.3588305711746216 8.48309326171875 -4.4930334091186523
v -2.9607834815979004 5.7100934982299805 -4.4930334091186523
v -2.9607834815979004 8.48309326171875 -4.4930334091186523
v -2.9607834815979004 5.7100934982299805 -7.7630276679992676
v -2.9607834815979004 8.48309326171875 -7.7630276679992676
v -1.3588305711746216 5.7100934982299805 -7.7630276679992676
v -1.3588305711746216 8.48309326171875 -7.7630276679992676
v -1.3588305711746216 5.7100934982299805 -12.96802806854248
v -1.3588305711746216 8.48309326171875 -12.96802806854248
f 132 131 148 146 144 142 140 138 136 134
f 137 139 141 143 145 147 129 130 133 135
f 130 129 131 132
f 133 130 132 134
f 135 133 134 136
f 137 135 136 138
f 139 137 138 140
f 141 139 140 142
f 143 141 142 144
f 145 143 144 146
f 147 145 146 148
f 129 147 148 131
o object_14
v -2.9607834815979004 5.7100934982299805 -12.96802806854248
v -2.9607834815979004 5.7100934982299805 -7.7630276679992676
v -2.9607834815979004 8.48309326171875 -12.96802806854248
v -2.9607834815979004 8.48309326171875 -7.7630276679992676
v -1.3588305711746216 5.7100934982299805 -7.7630276679992676
v -1.3588305711746216 8.48309326171875 -7.7630276679992676
v -1.3588305711746216 5.7100934982299805 -12.96802806854248
v -1.3588305711746216 8.48309326171875 -12.96802806854248
f 150 152 151 149
f 153 154 152 150
f 155 156 154 153
f 149 151 156 155
f 151 152 154 156
f 150 149 155 153
o object_15
v 2.6055805683135986 2.0785393714904785 -19.19078254699707
v 2.6055805683135986 2.0785393714904785 -12.96802806854248
v 2.6055805683135986 5.7105393409729004 -19.19078254699707
v 2.6055805683135986 5.7105393409729004 -12.96802806854248
v 0.21736942231655121 2.0785393714904785 -12.96802806854248
v 0.21736942231655121 5.7105393409729004 -12.96802806854248
v 0.21736942231655121 2.0785393714904785 -14.772828102111816
v 0.21736942231655121 5.7105393409729004 -14.772828102111816
v -2.9607834815979004 2.0785393714904785 -14.772828102111816
v -2.9607834815979004 5.7105393409729004 -14.772828102111816
v -2.9607834815979004 2.0785393714904785 -19.19078254699707
v -2.9607834815979004 5.7105393409729004 -19.19078254699707
f 166 164 162 160 159 168
f 163 165 167 157 158 161
f 158 157 159 160
f 161 158 160 162
f 163 161 162 164
f 165 163 164 166
f 167 165 166 168
f 157 167 168 159
o object_16
v -2.9607834815979004 2.0785393714904785 -14.772828102111816
v -2.9607834815979004 2.0785393714904785 -12.96802806854248
v -2.9607834815979004 5.7105393409729004 -14.772828102111816
v -2.9607834815979004 5.7105393409729004 -12.96802806854248
v -1.3588305711746216 2.0785393714904785 -12.96802806854248
v -1.3588305711746216 5.7105393409729004 -12.96802806854248
v -1.3588305711746216 2.0785393714904785 -14.772828102111816
v -1.3588305711746216 5.7105393409729004 -14.772828102111816
f 170 172 171 169
f 173 174 172 170
f 175 176 174 173
f 169 171 176 175
f 171 172 174 176
f 170 169 175 173
o object_17
v -1.3588305711746216 2.0785393714904785 -14.772828102111816
v -1.3588305711746216 2.0785393714904785 -12.96802806854248
v -1.3588305711746216 5.7105393409729004 -14.772828102111816
v -1.3588305711746216 5.7105393409729004 -12.96802806854248
v 0.21736942231655121 2.0785393714904785 -12.96802806854248
v 0.21736942231655121 5.7105393409729004 -12.96802806854248
v 0.21736942231655121 2.0785393714904785 -14.772828102111816
v 0.21736942231655121 5.7105393409729004 -14.772828102111816
f 178 180 179 177
f 181 182 180 178
f 183 184 182 181
f 177 179 184 183
f 179 180 182 184
f 178 177 183 181
o object_18
v -1.3588305711746216 2.0785393714904785 -12.96802806854248
v -1.3588305711746216 2.0785393714904785 -4.4930334091186523
v -1.3588305711746216 5.7105393409729004 -12.96802806854248
v -1.3588305711746216 5.7105393409729004 -4.4930334091186523
v 2.6055805683135986 2.0785393714904785 -4.4930334091186523
v 2.6055805683135986 5.7105393409729004 -4.4930334091186523
v 2.6055805683135986 2.0785393714904785 -12.96802806854248
v 2.6055805683135986 5.7105393409729004 -12.96802806854248
f 186 188 187 185
f 189 190 188 186
f 191 192 190 189
f 185 187 192 191
f 187 188 190 192
f 186 185 191 189
o object_19
v -2.9607834815979004 2.0785393714904785 -7.7630276679992676
v -2.9607834815979004 2.0785393714904785 -4.4930334091186523
v -2.9607834815979004 5.7105393409729004 -7.7630276679992676
v -2.9607834815979004 5.7105393409729004 -4.4930334091186523
v -1.3588305711746216 2.0785393714904785 -4.4930334091186523
v -1.3588305711746216 5.7105393409729004 -4.4930334091186523
v -1.3588305711746216 2.0785393714904785 -7.7630276679992676
v -1.3588305711746216 5.7105393409729004 -7.7630276679992676
f 194 196 195 193
f 197 198 196 194
f 199 200 198 197
f 193 195 200 199
f 195 196 198 200
f 194 193 199 197
o object_20
v -2.9607834815979004 2.0785393714904785 -12.96802806854248
v -2.9607834815979004 2.0785393714904785 -7.7630276679992676
v -2.9607834815979004 5.7105393409729004 -12.96802806854248
v -2.9607834815979004 5.7105393409729004 -7.7630276679992676
v -1.3588305711746216 2.0785393714904785 -7.7630276679992676
v -1.3588305711746216 5.7105393409729004 -7.7630276679992676
v -1.3588305711746216 2.0785393714904785 -12.96802806854248
v -1.3588305711746216 5.7105393409729004 -12.96802806854248
f 202 204 203 201
f 205 206 204 202
f 207 208 206 205
f 201 203 208 207
f 203 204 206 208
f 202 201 207 205
o object_21
v 0.21736942231655121 0 -14.772828102111816
v -2.9607834815979004 0 -14.772828102111816
v 0.21736942231655121 2.0789999961853027 -14.772828102111816
v -2.9607834815979004 2.0789999961853027 -14.772828102111816
v -2.9607834815979004 0 -19.19078254699707
v -2.9607834815979004 2.0789999961853027 -19.19078254699707
v 2.6055805683135986 0 -19.19078254699707
v 2.6055805683135986 2.0789999961853027 -19.19078254699707
v 2.6055805683135986 0 -12.96802806854248
v 2.6055805683135986 2.0789999961853027 -12.96802806854248
v 0.21736942231655121 0 -12.96802806854248
v 0.21736942231655121 2.0789999961853027 -12.96802806854248
f 212 211 220 218 216 214
f 209 210 213 215 217 219
f 210 209 211 212
f 213 210 212 214
f 215 213 214 216
f 217 215 216 218
f 219 217 218 220
f 209 219 220 211
o object_22
v -2.9607834815979004 0 -14.772828102111816
v -2.9607834815979004 0 -12.96802806854248
v -2.9607834815979004 2.0789999961853027 -14.772828102111816
v -2.9607834815979004 2.0789999961853027 -12.96802806854248
v 0.21736942231655121 0 -12.96802806854248
v 0.21736942231655121 2.0789999961853027 -12.96802806854248
v 0.21736942231655121 0 -14.772828102111816
v 0.21736942231655121 2.0789999961853027 -14.772828102111816
f 222 224 223 221
f 225 226 224 222
f 227 228 226 225
f 221 223 228 227
f 223 224 226 228
f 222 221 227 225
