# Rhino

o object_1
v -2.9607834815979004 2.0789999961853027 -4.4930334091186523
v -2.9607834815979004 2.0789999961853027 -2.8580365180969238
v -2.9607834815979004 5.7109999656677246 -4.4930334091186523
v -2.9607834815979004 5.7109999656677246 -2.8580365180969238
v -1.3588305711746216 2.0789999961853027 -2.8580365180969238
v -1.3588305711746216 5.7109999656677246 -2.8580365180969238
v -1.3588305711746216 2.0789999961853027 -4.4930334091186523
v -1.3588305711746216 5.7109999656677246 -4.4930334091186523
f 2 4 3 1
f 5 6 4 2
f 7 8 6 5
f 1 3 8 7
f 3 4 6 8
f 2 1 7 5
o object_2
v -2.9607834815979004 0 -4.4930334091186523
v -2.9607834815979004 0 -2.8580365180969238
v -2.9607834815979004 2.0789999961853027 -4.4930334091186523
v -2.9607834815979004 2.0789999961853027 -2.8580365180969238
v -1.3588305711746216 0 -2.8580365180969238
v -1.3588305711746216 2.0789999961853027 -2.8580365180969238
v -1.3588305711746216 0 -4.4930334091186523
v -1.3588305711746216 2.0789999961853027 -4.4930334091186523
f 10 12 11 9
f 13 14 12 10
f 15 16 14 13
f 9 11 16 15
f 11 12 14 16
f 10 9 15 13
o object_3
v -2.9607834815979004 8.4840002059936523 -12.96802806854248
v -2.9607834815979004 8.4840002059936523 -7.7630276679992676
v -2.9607834815979004 12.345000267028809 -12.96802806854248
v -2.9607834815979004 12.345000267028809 -7.7630276679992676
v -1.3588305711746216 8.4840002059936523 -7.7630276679992676
v -1.3588305711746216 12.345000267028809 -7.7630276679992676
v -1.3588305711746216 8.4840002059936523 -12.96802806854248
v -1.3588305711746216 12.345000267028809 -12.96802806854248
f 18 20 19 17
f 21 22 20 18
f 23 24 22 21
f 17 19 24 23
f 19 20 22 24
f 18 17 23 21
o object_4
v -2.9607834815979004 5.7109999656677246 -12.96802806854248
v -2.9607834815979004 5.7109999656677246 -7.7630276679992676
v -2.9607834815979004 8.4840002059936523 -12.96802806854248
v -2.9607834815979004 8.4840002059936523 -7.7630276679992676
v -1.3588305711746216 5.7109999656677246 -7.7630276679992676
v -1.3588305711746216 8.4840002059936523 -7.7630276679992676
v -1.3588305711746216 5.7109999656677246 -12.96802806854248
v -1.3588305711746216 8.4840002059936523 -12.96802806854248
f 26 28 27 25
f 29 30 28 26
f 31 32 30 29
f 25 27 32 31
f 27 28 30 32
f 26 25 31 29
o object_5
v -2.9607834815979004 2.0789999961853027 -12.96802806854248
v -2.9607834815979004 2.0789999961853027 -7.7630276679992676
v -2.9607834815979004 5.7109999656677246 -12.96802806854248
v -2.9607834815979004 5.7109999656677246 -7.7630276679992676
v -1.3588305711746216 2.0789999961853027 -7.7630276679992676
v -1.3588305711746216 5.7109999656677246 -7.7630276679992676
v -1.3588305711746216 2.0789999961853027 -12.96802806854248
v -1.3588305711746216 5.7109999656677246 -12.96802806854248
f 34 36 35 33
f 37 38 36 34
f 39 40 38 37
f 33 35 40 39
f 35 36 38 40
f 34 33 39 37
o object_6
v -2.9607834815979004 0 -12.96802806854248
v -2.9607834815979004 0 -7.7630276679992676
v -2.9607834815979004 2.0789999961853027 -12.96802806854248
v -2.9607834815979004 2.0789999961853027 -7.7630276679992676
v -1.3588305711746216 0 -7.7630276679992676
v -1.3588305711746216 2.0789999961853027 -7.7630276679992676
v -1.3588305711746216 0 -12.96802806854248
v -1.3588305711746216 2.0789999961853027 -12.96802806854248
f 42 44 43 41
f 45 46 44 42
f 47 48 46 45
f 41 43 48 47
f 43 44 46 48
f 42 41 47 45
