# Rhino

o object_1
v -2.9607834815979004 0 -4.4930334091186523
v -2.9607834815979004 0 -2.8580365180969238
v -2.9607834815979004 2.0789999961853027 -4.4930334091186523
v -2.9607834815979004 2.0789999961853027 -2.8580365180969238
v -1.3588305711746216 0 -2.8580365180969238
v -1.3588305711746216 2.0789999961853027 -2.8580365180969238
v -1.3588305711746216 0 -4.4930334091186523
v -1.3588305711746216 2.0789999961853027 -4.4930334091186523
f 2 4 3 1
f 5 6 4 2
f 7 8 6 5
f 1 3 8 7
f 3 4 6 8
f 2 1 7 5
