# Rhino

o object_1
v 1.2943519535064698 8.9439174453735362 -19.190783267211916
v 1.2943519535064698 11.114407635498047 -19.190783267211916
v 2.2976519050598148 11.114407635498047 -19.190783267211916
v 2.2976519050598148 8.9439174453735362 -19.190783267211916
l 1 2 3 4 1
o object_2
v -2.6559838119506836 11.114407635498047 -19.190783267211916
v -1.6526838603973391 11.114407635498047 -19.190783267211916
v -1.6526838603973391 8.8688150527954104 -19.190783267211916
v -2.6559838119506836 8.8688150527954104 -19.190783267211916
l 5 6 7 8 5
o object_3
v 1.3064161880493164 8.7833801513671883 -4.4930335990905768
v 1.3064161880493164 10.580462319946289 -4.4930335990905768
v 1.427916184616089 10.621857467651367 -4.4930335990905768
v 1.5527598724365235 10.651689367675782 -4.4930335990905768
v 1.6798492080688476 10.669692919921875 -4.4930335990905768
v 1.8080662364959719 10.675712319946289 -4.4930335990905768
v 1.9362832649230959 10.669692919921875 -4.4930335990905768
v 2.0633724552154544 10.651689367675782 -4.4930335990905768
v 2.1882161430358886 10.621857467651367 -4.4930335990905768
v 2.3097161396026613 10.580462319946289 -4.4930335990905768
v 2.3097161396026613 8.7833801513671883 -4.4930335990905768
l 9 10 11 12 13 14 15 16 17 18 19 9
o object_4
v -0.67478373928070068 8.7833801513671883 -4.4930335990905768
v -0.67478373928070068 10.580462319946289 -4.4930335990905768
v -0.55328374271392822 10.621857467651367 -4.4930335990905768
v -0.42844005489349368 10.651689367675782 -4.4930335990905768
v -0.30135079193115238 10.669692919921875 -4.4930335990905768
v -0.17313374533653261 10.675712319946289 -4.4930335990905768
v -0.044916703283786774 10.669692919921875 -4.4930335990905768
v 0.082172582387924201 10.651689367675782 -4.4930335990905768
v 0.20701625204086305 10.621857467651367 -4.4930335990905768
v 0.32851624860763551 10.580462319946289 -4.4930335990905768
v 0.32851624860763551 8.7833801513671883 -4.4930335990905768
l 20 21 22 23 24 25 26 27 28 29 30 20
o object_5
v -2.6559838119506836 8.7833801513671883 -4.4930335990905768
v -2.6559838119506836 10.580462319946289 -4.4930335990905768
v -2.5344839607238772 10.621857467651367 -4.4930335990905768
v -2.4096401275634767 10.651689367675782 -4.4930335990905768
v -2.2825509372711181 10.669692919921875 -4.4930335990905768
v -2.1543339088439941 10.675712319946289 -4.4930335990905768
v -2.0261167350769043 10.669692919921875 -4.4930335990905768
v -1.8990275447845459 10.651689367675782 -4.4930335990905768
v -1.7741838569641115 10.621857467651367 -4.4930335990905768
v -1.6526838603973391 10.580462319946289 -4.4930335990905768
v -1.6526838603973391 8.7833801513671883 -4.4930335990905768
l 31 32 33 34 35 36 37 38 39 40 41 31
o object_6
v 1.2943519535064698 8.017246682739259 -19.190783267211916
v 2.2976519050598148 8.017246682739259 -19.190783267211916
v 2.2976519050598148 6.1706303283691408 -19.190783267211916
v 1.2943519535064698 6.1706303283691408 -19.190783267211916
l 42 43 44 45 42
o object_7
v -2.6559838119506836 7.9421442901611332 -19.190783267211916
v -1.6526838603973391 7.9421442901611332 -19.190783267211916
v -1.6526838603973391 6.0955279357910159 -19.190783267211916
v -2.6559838119506836 6.0955279357910159 -19.190783267211916
l 46 47 48 49 46
o object_8
v 1.3064161880493164 6.010093034362793 -4.4930335990905768
v 1.3064161880493164 8.017246682739259 -4.4930335990905768
v 2.3097161396026613 8.017246682739259 -4.4930335990905768
v 2.3097161396026613 6.010093034362793 -4.4930335990905768
l 50 51 52 53 50
o object_9
v -0.67478373928070068 6.010093034362793 -4.4930335990905768
v -0.67478373928070068 7.9421442901611332 -4.4930335990905768
v 0.32851624860763551 7.9421442901611332 -4.4930335990905768
v 0.32851624860763551 6.010093034362793 -4.4930335990905768
l 54 55 56 57 54
o object_10
v -2.6559838119506836 6.010093034362793 -4.4930335990905768
v -2.6559838119506836 7.9421442901611332 -4.4930335990905768
v -1.6526838603973391 7.9421442901611332 -4.4930335990905768
v -1.6526838603973391 6.010093034362793 -4.4930335990905768
l 58 59 60 61 58
o object_11
v 1.3064161880493164 2.1441287178039552 -4.4930335990905768
v 1.3064161880493164 4.9162621261596682 -4.4930335990905768
v 1.427916184616089 4.9576578552246096 -4.4930335990905768
v 1.5527598724365235 4.9874885925292975 -4.4930335990905768
v 1.679849062728882 5.0054933074951178 -4.4930335990905768
v 1.8080662364959719 5.0115121261596682 -4.4930335990905768
v 1.9362832649230959 5.0054933074951178 -4.4930335990905768
v 2.0633724552154544 4.9874885925292975 -4.4930335990905768
v 2.1882161430358886 4.9576578552246096 -4.4930335990905768
v 2.3097161396026613 4.9162621261596682 -4.4930335990905768
v 2.3097161396026613 2.1441287178039552 -4.4930335990905768
l 62 63 64 65 66 67 68 69 70 71 72 62
o object_12
v -0.67478373928070068 2.1441287178039552 -4.4930335990905768
v -0.67478373928070068 4.9162621261596682 -4.4930335990905768
v -0.55328374271392822 4.9576578552246096 -4.4930335990905768
v -0.42844005489349368 4.9874885925292975 -4.4930335990905768
v -0.30135079193115238 5.0054933074951178 -4.4930335990905768
v -0.17313374533653261 5.0115121261596682 -4.4930335990905768
v -0.044916703283786774 5.0054933074951178 -4.4930335990905768
v 0.082172582387924201 4.9874885925292975 -4.4930335990905768
v 0.20701625204086305 4.9576578552246096 -4.4930335990905768
v 0.32851624860763551 4.9162621261596682 -4.4930335990905768
v 0.32851624860763551 2.1441287178039552 -4.4930335990905768
l 73 74 75 76 77 78 79 80 81 82 83 73
o object_13
v 1.2943519535064698 2.5390764129638672 -19.190783267211916
v 1.2943519535064698 5.2439595657348637 -19.190783267211916
v 2.2976519050598148 5.2439595657348637 -19.190783267211916
v 2.2976519050598148 2.5390764129638672 -19.190783267211916
l 84 85 86 87 84
o object_14
v -2.6559838119506836 2.4639740203857423 -19.190783267211916
v -2.6559838119506836 5.1688571731567388 -19.190783267211916
v -1.6526838603973391 5.1688571731567388 -19.190783267211916
v -1.6526838603973391 2.4639740203857423 -19.190783267211916
l 88 89 90 91 88
o object_15
v -0.67478373928070068 1.5285394031524659 -19.190783267211916
v 0.32851624860763551 1.5285394031524659 -19.190783267211916
v 0.32851624860763551 0.065589374041557319 -19.190783267211916
v -0.67478373928070068 0.065589374041557319 -19.190783267211916
l 92 93 94 95 92
o object_16
v 1.2943519535064698 1.5285394031524659 -19.190783267211916
v 2.2976519050598148 1.5285394031524659 -19.190783267211916
v 2.2976519050598148 0.065589374041557319 -19.190783267211916
v 1.2943519535064698 0.065589374041557319 -19.190783267211916
l 96 97 98 99 96
o object_17
v 0.3285162486076354 0.065589374041557319 -4.4930335990905768
v 0.3285162486076354 1.6206118354797363 -4.4930335990905768
v 0.20701625204086271 1.6620074192047121 -4.4930335990905768
v 0.082172564220428512 1.6918384471893311 -4.4930335990905768
v -0.044916626071930033 1.709842726135254 -4.4930335990905768
v -0.17313365449905405 1.7158618354797364 -4.4930335990905768
v -0.3013508282661439 1.709842726135254 -4.4930335990905768
v -0.42844001855850244 1.6918384471893311 -4.4930335990905768
v -0.55328370637893687 1.6620074192047121 -4.4930335990905768
v -0.67478370294570955 1.6206118354797363 -4.4930335990905768
v -0.67478370294570955 0.065589374041557319 -4.4930335990905768
l 100 101 102 103 104 105 106 107 108 109 110 100
o object_18
v 2.3097161396026613 0.065589374041557319 -4.4930335990905768
v 2.3097161396026613 1.6206118354797363 -4.4930335990905768
v 2.1882161430358886 1.6620074192047121 -4.4930335990905768
v 2.0633724552154544 1.6918384471893311 -4.4930335990905768
v 1.9362832649230959 1.709842726135254 -4.4930335990905768
v 1.8080662364959719 1.7158618354797364 -4.4930335990905768
v 1.679849062728882 1.709842726135254 -4.4930335990905768
v 1.5527598724365235 1.6918384471893311 -4.4930335990905768
v 1.427916184616089 1.6620074192047121 -4.4930335990905768
v 1.3064161880493164 1.6206118354797363 -4.4930335990905768
v 1.3064161880493164 0.065589374041557319 -4.4930335990905768
l 111 112 113 114 115 116 117 118 119 120 121 111
