# Rhino

mtllib bathroom.mtl
usemtl Default
v -20.760171890258789 0 17.343517303466797
v -20.760171890258789 0 19.572021484375
v -20.760171890258789 2.0789999961853027 17.343517303466797
v -20.760171890258789 2.0789999961853027 19.572021484375
v -20.760171890258789 1.0394999980926514 19.572021484375
v -20.760171890258789 0 18.457769393920898
v -20.760171890258789 2.0789999961853027 18.457769393920898
v -20.760171890258789 1.0394999980926514 17.343517303466797
v -20.760171890258789 0 19.572021484375
v -19.138818740844727 0 19.572021484375
v -20.760171890258789 2.0789999961853027 19.572021484375
v -19.138818740844727 2.0789999961853027 19.572021484375
v -20.760171890258789 1.0394999980926514 19.572021484375
v -19.949495315551758 2.0789999961853027 19.572021484375
v -19.949495315551758 0 19.572021484375
v -19.138818740844727 1.0394999980926514 19.572021484375
v -19.138818740844727 0 19.572021484375
v -19.138818740844727 0 17.343517303466797
v -19.138818740844727 2.0789999961853027 19.572021484375
v -19.138818740844727 2.0789999961853027 17.343517303466797
v -19.138818740844727 2.0789999961853027 18.457769393920898
v -19.138818740844727 0 18.457769393920898
v -19.138818740844727 1.0394999980926514 19.572021484375
v -19.138818740844727 1.0394999980926514 17.343517303466797
v -19.138818740844727 0 17.343517303466797
v -20.760171890258789 0 17.343517303466797
v -19.138818740844727 2.0789999961853027 17.343517303466797
v -20.760171890258789 2.0789999961853027 17.343517303466797
v -19.949495315551758 2.0789999961853027 17.343517303466797
v -19.949495315551758 0 17.343517303466797
v -19.138818740844727 1.0394999980926514 17.343517303466797
v -20.760171890258789 1.0394999980926514 17.343517303466797
v -20.760171890258789 2.0789999961853027 19.572021484375
v -20.760171890258789 2.0789999961853027 17.343517303466797
v -19.138818740844727 2.0789999961853027 19.572021484375
v -19.138818740844727 2.0789999961853027 17.343517303466797
v -19.949495315551758 2.0789999961853027 19.572021484375
v -20.760171890258789 2.0789999961853027 18.457769393920898
v -19.949495315551758 2.0789999961853027 17.343517303466797
v -19.138818740844727 2.0789999961853027 18.457769393920898
v -20.760171890258789 0 17.343517303466797
v -20.760171890258789 0 19.572021484375
v -19.138818740844727 0 17.343517303466797
v -19.138818740844727 0 19.572021484375
v -20.760171890258789 0 18.457769393920898
v -19.949495315551758 0 19.572021484375
v -19.138818740844727 0 18.457769393920898
v -19.949495315551758 0 17.343517303466797
vn -1 0 0
vn -1 0 0
vn -1 0 0
vn -1 0 0
vn -1 0 0
vn -1 0 0
vn -1 0 0
vn -1 0 0
vn 0 0 1
vn 0 0 1
vn 0 0 1
vn 0 0 1
vn 0 0 1
vn 0 0 1
vn 0 0 1
vn 0 0 1
vn 1 0 0
vn 1 0 0
vn 1 0 0
vn 1 0 0
vn 1 0 0
vn 1 0 0
vn 1 0 0
vn 1 0 0
vn 0 0 -1
vn 0 0 -1
vn 0 0 -1
vn 0 0 -1
vn 0 0 -1
vn 0 0 -1
vn 0 0 -1
vn 0 0 -1
vn 0 1 0
vn 0 1 0
vn 0 1 0
vn 0 1 0
vn 0 1 0
vn 0 1 0
vn 0 1 0
vn 0 1 0
vn 0 -1 0
vn 0 -1 0
vn 0 -1 0
vn 0 -1 0
vn 0 -1 0
vn 0 -1 0
vn 0 -1 0
vn 0 -1 0
f 6//6 8//8 1//1
f 6//6 2//2 5//5
f 5//5 8//8 6//6
f 5//5 7//7 3//3 8//8
f 7//7 5//5 4//4
f 15//15 13//13 9//9
f 15//15 10//10 16//16
f 16//16 13//13 15//15
f 13//13 16//16 14//14
f 14//14 16//16 12//12
f 11//11 13//13 14//14
f 22//22 23//23 17//17
f 22//22 18//18 24//24
f 24//24 23//23 22//22
f 24//24 20//20 21//21 23//23
f 19//19 23//23 21//21
f 30//30 31//31 25//25
f 30//30 26//26 32//32
f 29//29 31//31 30//30
f 30//30 32//32 29//29
f 29//29 32//32 28//28
f 27//27 31//31 29//29
f 38//38 33//33 37//37
f 38//38 39//39 34//34
f 39//39 38//38 37//37
f 39//39 37//37 40//40 36//36
f 35//35 40//40 37//37
f 45//45 41//41 48//48
f 45//45 46//46 42//42
f 46//46 45//45 48//48
f 46//46 48//48 43//43 47//47
f 47//47 44//44 46//46
usemtl Default
v -22.996124267578125 5.7109999656677246 17.864740371704102
v -22.996124267578125 5.7109999656677246 19.146183013916016
v -22.996124267578125 8.4840002059936523 17.864740371704102
v -22.996124267578125 8.4840002059936523 19.146183013916016
v -22.996124267578125 7.0974998474121094 19.146183013916016
v -22.996124267578125 7.0974998474121094 17.864740371704102
v -22.996124267578125 5.7109999656677246 19.146183013916016
v -20.997182846069336 5.7109999656677246 19.146183013916016
v -22.996124267578125 8.4840002059936523 19.146183013916016
v -20.997182846069336 8.4840002059936523 19.146183013916016
v -22.996124267578125 7.0974998474121094 19.146183013916016
v -21.996652603149414 8.4840002059936523 19.146183013916016
v -21.996652603149414 5.7109999656677246 19.146183013916016
v -20.997182846069336 7.0974998474121094 19.146183013916016
v -20.997182846069336 5.7109999656677246 19.146183013916016
v -20.997182846069336 5.7109999656677246 17.864740371704102
v -20.997182846069336 8.4840002059936523 19.146183013916016
v -20.997182846069336 8.4840002059936523 17.864740371704102
v -20.997182846069336 7.0974998474121094 19.146183013916016
v -20.997182846069336 7.0974998474121094 17.864740371704102
v -20.997182846069336 5.7109999656677246 17.864740371704102
v -22.996124267578125 5.7109999656677246 17.864740371704102
v -20.997182846069336 8.4840002059936523 17.864740371704102
v -22.996124267578125 8.4840002059936523 17.864740371704102
v -21.996652603149414 8.4840002059936523 17.864740371704102
v -21.996652603149414 5.7109999656677246 17.864740371704102
v -20.997182846069336 7.0974998474121094 17.864740371704102
v -22.996124267578125 7.0974998474121094 17.864740371704102
v -22.996124267578125 8.4840002059936523 19.146183013916016
v -22.996124267578125 8.4840002059936523 17.864740371704102
v -20.997182846069336 8.4840002059936523 19.146183013916016
v -20.997182846069336 8.4840002059936523 17.864740371704102
v -21.996652603149414 8.4840002059936523 19.146183013916016
v -21.996652603149414 8.4840002059936523 17.864740371704102
v -22.996124267578125 5.7109999656677246 17.864740371704102
v -22.996124267578125 5.7109999656677246 19.146183013916016
v -20.997182846069336 5.7109999656677246 17.864740371704102
v -20.997182846069336 5.7109999656677246 19.146183013916016
v -21.996652603149414 5.7109999656677246 19.146183013916016
v -21.996652603149414 5.7109999656677246 17.864740371704102
vn -1 0 0
vn -1 0 0
vn -1 0 0
vn -1 0 0
vn -1 0 0
vn -1 0 0
vn 0 0 1
vn 0 0 1
vn 0 0 1
vn 0 0 1
vn 0 0 1
vn 0 0 1
vn 0 0 1
vn 0 0 1
vn 1 0 0
vn 1 0 0
vn 1 0 0
vn 1 0 0
vn 1 0 0
vn 1 0 0
vn 0 0 -1
vn 0 0 -1
vn 0 0 -1
vn 0 0 -1
vn 0 0 -1
vn 0 0 -1
vn 0 0 -1
vn 0 0 -1
vn 0 1 0
vn 0 1 0
vn 0 1 0
vn 0 1 0
vn 0 1 0
vn 0 1 0
vn 0 -1 0
vn 0 -1 0
vn 0 -1 0
vn 0 -1 0
vn 0 -1 0
vn 0 -1 0
f 50//50 53//53 54//54 49//49
f 51//51 54//54 53//53 52//52
f 61//61 59//59 55//55
f 61//61 56//56 62//62
f 62//62 59//59 61//61
f 62//62 58//58 60//60 59//59
f 57//57 59//59 60//60
f 64//64 68//68 67//67 63//63
f 65//65 67//67 68//68 66//66
f 74//74 75//75 69//69
f 74//74 70//70 76//76
f 76//76 75//75 74//74
f 76//76 73//73 71//71 75//75
f 73//73 76//76 72//72
f 82//82 78//78 77//77 81//81
f 81//81 79//79 80//80 82//82
f 83//83 88//88 87//87 84//84
f 86//86 87//87 88//88 85//85
usemtl Default
v -20.760172689386213 0 19.572021004350233
v -19.138818252964846 0 19.572021004350233
v -19.138818252964846 0 17.343517919564107
v -20.760172689386213 0 17.343517919564107
cstype bspline
deg 1
curv 0 7.6997150424149865 89 90 91 92 89
parm u 0 0 1.6213544364213668 3.8498575212074932 5.47121195762886 7.6997150424149865 7.6997150424149865
end
usemtl Default
v -22.996124771277838 5.7110000000000003 19.146182293016125
v -20.997182230193594 5.7110000000000003 19.146182293016125
v -20.997182230193594 5.7110000000000003 17.864741057796351
v -22.996124771277838 5.7110000000000003 17.864741057796351
cstype bspline
deg 1
curv 0 6.5607675526080351 93 94 95 96 93
parm u 0 0 1.9989425410842441 3.2803837763040176 5.2793263173882616 6.5607675526080351 6.5607675526080351
end
usemtl Default
v -22.996124771277838 5.7110000000000003 19.146182293016125
v -20.997182230193594 5.7110000000000003 19.146182293016125
v -20.997182230193594 5.7110000000000003 17.864741057796351
v -22.996124771277838 5.7110000000000003 17.864741057796351
cstype bspline
deg 1
curv 0 3.5677730906015137 97 98 99 100 97
parm u 0 0 0.50244531008098336 1.7838865453007569 2.2863318553817402 3.5677730906015137 3.5677730906015137
end
