# Rhino

mtllib bedroom.mtl
usemtl Default
v -19.138818740844727 5.7109999656677246 20.980861663818359
v -19.138818740844727 5.7109999656677246 24.436508178710938
v -19.138818740844727 8.4840002059936523 20.980861663818359
v -19.138818740844727 8.4840002059936523 24.436508178710938
v -19.138818740844727 7.0974998474121094 24.436508178710938
v -19.138818740844727 5.7109999656677246 22.708684921264648
v -19.138818740844727 8.4840002059936523 22.708684921264648
v -19.138818740844727 7.0974998474121094 20.980861663818359
v -19.138818740844727 5.7109999656677246 24.436508178710938
v -17.429759979248047 5.7109999656677246 24.436508178710938
v -19.138818740844727 8.4840002059936523 24.436508178710938
v -17.429759979248047 8.4840002059936523 24.436508178710938
v -19.138818740844727 7.0974998474121094 24.436508178710938
v -17.429759979248047 7.0974998474121094 24.436508178710938
v -17.429759979248047 5.7109999656677246 24.436508178710938
v -17.429759979248047 5.7109999656677246 20.980861663818359
v -17.429759979248047 8.4840002059936523 24.436508178710938
v -17.429759979248047 8.4840002059936523 20.980861663818359
v -17.429759979248047 8.4840002059936523 22.708684921264648
v -17.429759979248047 5.7109999656677246 22.708684921264648
v -17.429759979248047 7.0974998474121094 24.436508178710938
v -17.429759979248047 7.0974998474121094 20.980861663818359
v -17.429759979248047 5.7109999656677246 20.980861663818359
v -19.138818740844727 5.7109999656677246 20.980861663818359
v -17.429759979248047 8.4840002059936523 20.980861663818359
v -19.138818740844727 8.4840002059936523 20.980861663818359
v -17.429759979248047 7.0974998474121094 20.980861663818359
v -19.138818740844727 7.0974998474121094 20.980861663818359
v -19.138818740844727 8.4840002059936523 24.436508178710938
v -19.138818740844727 8.4840002059936523 20.980861663818359
v -17.429759979248047 8.4840002059936523 24.436508178710938
v -17.429759979248047 8.4840002059936523 20.980861663818359
v -19.138818740844727 8.4840002059936523 22.708684921264648
v -17.429759979248047 8.4840002059936523 22.708684921264648
v -19.138818740844727 5.7109999656677246 20.980861663818359
v -19.138818740844727 5.7109999656677246 24.436508178710938
v -17.429759979248047 5.7109999656677246 20.980861663818359
v -17.429759979248047 5.7109999656677246 24.436508178710938
v -19.138818740844727 5.7109999656677246 22.708684921264648
v -17.429759979248047 5.7109999656677246 22.708684921264648
vn -1 0 0
vn -1 0 0
vn -1 0 0
vn -1 0 0
vn -1 0 0
vn -1 0 0
vn -1 0 0
vn -1 0 0
vn 0 0 1
vn 0 0 1
vn 0 0 1
vn 0 0 1
vn 0 0 1
vn 0 0 1
vn 1 0 0
vn 1 0 0
vn 1 0 0
vn 1 0 0
vn 1 0 0
vn 1 0 0
vn 1 0 0
vn 1 0 0
vn 0 0 -1
vn 0 0 -1
vn 0 0 -1
vn 0 0 -1
vn 0 0 -1
vn 0 0 -1
vn 0 1 0
vn 0 1 0
vn 0 1 0
vn 0 1 0
vn 0 1 0
vn 0 1 0
vn 0 -1 0
vn 0 -1 0
vn 0 -1 0
vn 0 -1 0
vn 0 -1 0
vn 0 -1 0
f 6//6 8//8 1//1
f 6//6 2//2 5//5
f 7//7 8//8 6//6
f 6//6 5//5 7//7
f 7//7 5//5 4//4
f 3//3 8//8 7//7
f 10//10 14//14 13//13 9//9
f 11//11 13//13 14//14 12//12
f 20//20 21//21 15//15
f 20//20 16//16 22//22
f 19//19 21//21 20//20
f 20//20 22//22 19//19
f 19//19 22//22 18//18
f 17//17 21//21 19//19
f 24//24 28//28 27//27 23//23
f 25//25 27//27 28//28 26//26
f 33//33 29//29 31//31 34//34
f 30//30 33//33 34//34 32//32
f 39//39 35//35 37//37 40//40
f 36//36 39//39 40//40 38//38
usemtl Default
v -22.996124267578125 5.7109999656677246 19.146183013916016
v -22.996124267578125 5.7109999656677246 24.436508178710938
v -22.996124267578125 8.4840002059936523 19.146183013916016
v -22.996124267578125 8.4840002059936523 24.436508178710938
v -22.996124267578125 5.7109999656677246 21.791345596313477
v -22.996124267578125 8.4840002059936523 21.791345596313477
v -22.996124267578125 5.7109999656677246 24.436508178710938
v -19.138818740844727 5.7109999656677246 24.436508178710938
v -22.996124267578125 8.4840002059936523 24.436508178710938
v -19.138818740844727 8.4840002059936523 24.436508178710938
v -21.067472457885742 8.4840002059936523 24.436508178710938
v -21.067472457885742 5.7109999656677246 24.436508178710938
v -19.138818740844727 5.7109999656677246 24.436508178710938
v -19.138818740844727 5.7109999656677246 19.146183013916016
v -19.138818740844727 8.4840002059936523 24.436508178710938
v -19.138818740844727 8.4840002059936523 19.146183013916016
v -19.138818740844727 8.4840002059936523 21.791345596313477
v -19.138818740844727 5.7109999656677246 21.791345596313477
v -19.138818740844727 5.7109999656677246 19.146183013916016
v -22.996124267578125 5.7109999656677246 19.146183013916016
v -19.138818740844727 8.4840002059936523 19.146183013916016
v -22.996124267578125 8.4840002059936523 19.146183013916016
v -21.067472457885742 8.4840002059936523 19.146183013916016
v -21.067472457885742 5.7109999656677246 19.146183013916016
v -22.996124267578125 8.4840002059936523 24.436508178710938
v -22.996124267578125 8.4840002059936523 19.146183013916016
v -19.138818740844727 8.4840002059936523 24.436508178710938
v -19.138818740844727 8.4840002059936523 19.146183013916016
v -21.067472457885742 8.4840002059936523 24.436508178710938
v -22.996124267578125 8.4840002059936523 21.791345596313477
v -21.067472457885742 8.4840002059936523 19.146183013916016
v -19.138818740844727 8.4840002059936523 21.791345596313477
v -22.996124267578125 5.7109999656677246 19.146183013916016
v -22.996124267578125 5.7109999656677246 24.436508178710938
v -19.138818740844727 5.7109999656677246 19.146183013916016
v -19.138818740844727 5.7109999656677246 24.436508178710938
v -22.996124267578125 5.7109999656677246 21.791345596313477
v -21.067472457885742 5.7109999656677246 24.436508178710938
v -19.138818740844727 5.7109999656677246 21.791345596313477
v -21.067472457885742 5.7109999656677246 19.146183013916016
vn -1 0 0
vn -1 0 0
vn -1 0 0
vn -1 0 0
vn -1 0 0
vn -1 0 0
vn 0 0 1
vn 0 0 1
vn 0 0 1
vn 0 0 1
vn 0 0 1
vn 0 0 1
vn 1 0 0
vn 1 0 0
vn 1 0 0
vn 1 0 0
vn 1 0 0
vn 1 0 0
vn 0 0 -1
vn 0 0 -1
vn 0 0 -1
vn 0 0 -1
vn 0 0 -1
vn 0 0 -1
vn 0 1 0
vn 0 1 0
vn 0 1 0
vn 0 1 0
vn 0 1 0
vn 0 1 0
vn 0 1 0
vn 0 1 0
vn 0 -1 0
vn 0 -1 0
vn 0 -1 0
vn 0 -1 0
vn 0 -1 0
vn 0 -1 0
vn 0 -1 0
vn 0 -1 0
f 45//45 46//46 43//43 41//41
f 42//42 44//44 46//46 45//45
f 52//52 51//51 49//49 47//47
f 48//48 50//50 51//51 52//52
f 58//58 57//57 55//55 53//53
f 54//54 56//56 57//57 58//58
f 64//64 63//63 61//61 59//59
f 60//60 62//62 63//63 64//64
f 70//70 65//65 69//69
f 70//70 71//71 66//66
f 72//72 70//70 69//69 67//67
f 70//70 72//72 68//68 71//71
f 77//77 79//79 76//76 78//78
f 77//77 78//78 74//74
f 80//80 77//77 73//73
f 79//79 80//80 75//75
f 80//80 79//79 77//77
usemtl Default
v -22.996124267578125 5.7109999656677246 12.57441520690918
v -22.996124267578125 5.7109999656677246 17.864740371704102
v -22.996124267578125 8.4840002059936523 12.57441520690918
v -22.996124267578125 8.4840002059936523 17.864740371704102
v -22.996124267578125 5.7109999656677246 15.219578742980957
v -22.996124267578125 8.4840002059936523 15.219578742980957
v -22.996124267578125 5.7109999656677246 17.864740371704102
v -19.138818740844727 5.7109999656677246 17.864740371704102
v -22.996124267578125 8.4840002059936523 17.864740371704102
v -19.138818740844727 8.4840002059936523 17.864740371704102
v -21.067472457885742 8.4840002059936523 17.864740371704102
v -21.067472457885742 5.7109999656677246 17.864740371704102
v -19.138818740844727 5.7109999656677246 17.864740371704102
v -19.138818740844727 5.7109999656677246 12.57441520690918
v -19.138818740844727 8.4840002059936523 17.864740371704102
v -19.138818740844727 8.4840002059936523 12.57441520690918
v -19.138818740844727 8.4840002059936523 15.219578742980957
v -19.138818740844727 5.7109999656677246 15.219578742980957
v -19.138818740844727 5.7109999656677246 12.57441520690918
v -22.996124267578125 5.7109999656677246 12.57441520690918
v -19.138818740844727 8.4840002059936523 12.57441520690918
v -22.996124267578125 8.4840002059936523 12.57441520690918
v -21.067472457885742 8.4840002059936523 12.57441520690918
v -21.067472457885742 5.7109999656677246 12.57441520690918
v -22.996124267578125 8.4840002059936523 17.864740371704102
v -22.996124267578125 8.4840002059936523 12.57441520690918
v -19.138818740844727 8.4840002059936523 17.864740371704102
v -19.138818740844727 8.4840002059936523 12.57441520690918
v -21.067472457885742 8.4840002059936523 17.864740371704102
v -22.996124267578125 8.4840002059936523 15.219578742980957
v -21.067472457885742 8.4840002059936523 12.57441520690918
v -19.138818740844727 8.4840002059936523 15.219578742980957
v -22.996124267578125 5.7109999656677246 12.57441520690918
v -22.996124267578125 5.7109999656677246 17.864740371704102
v -19.138818740844727 5.7109999656677246 12.57441520690918
v -19.138818740844727 5.7109999656677246 17.864740371704102
v -22.996124267578125 5.7109999656677246 15.219578742980957
v -21.067472457885742 5.7109999656677246 17.864740371704102
v -19.138818740844727 5.7109999656677246 15.219578742980957
v -21.067472457885742 5.7109999656677246 12.57441520690918
vn -1 0 0
vn -1 0 0
vn -1 0 0
vn -1 0 0
vn -1 0 0
vn -1 0 0
vn 0 0 1
vn 0 0 1
vn 0 0 1
vn 0 0 1
vn 0 0 1
vn 0 0 1
vn 1 0 0
vn 1 0 0
vn 1 0 0
vn 1 0 0
vn 1 0 0
vn 1 0 0
vn 0 0 -1
vn 0 0 -1
vn 0 0 -1
vn 0 0 -1
vn 0 0 -1
vn 0 0 -1
vn 0 1 0
vn 0 1 0
vn 0 1 0
vn 0 1 0
vn 0 1 0
vn 0 1 0
vn 0 1 0
vn 0 1 0
vn 0 -1 0
vn 0 -1 0
vn 0 -1 0
vn 0 -1 0
vn 0 -1 0
vn 0 -1 0
vn 0 -1 0
vn 0 -1 0
f 85//85 86//86 83//83 81//81
f 82//82 84//84 86//86 85//85
f 92//92 91//91 89//89 87//87
f 88//88 90//90 91//91 92//92
f 98//98 97//97 95//95 93//93
f 94//94 96//96 97//97 98//98
f 104//104 103//103 101//101 99//99
f 100//100 102//102 103//103 104//104
f 110//110 105//105 109//109
f 110//110 111//111 106//106
f 112//112 110//110 109//109 107//107
f 110//110 112//112 108//108 111//111
f 117//117 119//119 116//116 118//118
f 117//117 118//118 114//114
f 120//120 117//117 113//113
f 119//119 120//120 115//115
f 120//120 119//119 117//117
usemtl Default
v -22.996124267578125 8.4840002059936523 13.979637145996094
v -22.996124267578125 8.4840002059936523 16.375715255737305
v -22.996124267578125 12.345000267028809 13.979637145996094
v -22.996124267578125 12.345000267028809 16.375715255737305
v -22.996124267578125 10.41450023651123 16.375715255737305
v -22.996124267578125 8.4840002059936523 15.177676200866699
v -22.996124267578125 12.345000267028809 15.177676200866699
v -22.996124267578125 10.41450023651123 13.979637145996094
v -22.996124267578125 8.4840002059936523 16.375715255737305
v -20.212942123413086 8.4840002059936523 16.375715255737305
v -22.996124267578125 12.345000267028809 16.375715255737305
v -20.212942123413086 12.345000267028809 16.375715255737305
v -22.996124267578125 10.41450023651123 16.375715255737305
v -21.604534149169922 12.345000267028809 16.375715255737305
v -21.604534149169922 8.4840002059936523 16.375715255737305
v -20.212942123413086 10.41450023651123 16.375715255737305
v -20.212942123413086 8.4840002059936523 16.375715255737305
v -20.212942123413086 8.4840002059936523 13.979637145996094
v -20.212942123413086 12.345000267028809 16.375715255737305
v -20.212942123413086 12.345000267028809 13.979637145996094
v -20.212942123413086 12.345000267028809 15.177676200866699
v -20.212942123413086 8.4840002059936523 15.177676200866699
v -20.212942123413086 10.41450023651123 16.375715255737305
v -20.212942123413086 10.41450023651123 13.979637145996094
v -20.212942123413086 8.4840002059936523 13.979637145996094
v -22.996124267578125 8.4840002059936523 13.979637145996094
v -20.212942123413086 12.345000267028809 13.979637145996094
v -22.996124267578125 12.345000267028809 13.979637145996094
v -21.604534149169922 12.345000267028809 13.979637145996094
v -21.604534149169922 8.4840002059936523 13.979637145996094
v -20.212942123413086 10.41450023651123 13.979637145996094
v -22.996124267578125 10.41450023651123 13.979637145996094
v -22.996124267578125 12.345000267028809 16.375715255737305
v -22.996124267578125 12.345000267028809 13.979637145996094
v -20.212942123413086 12.345000267028809 16.375715255737305
v -20.212942123413086 12.345000267028809 13.979637145996094
v -21.604534149169922 12.345000267028809 16.375715255737305
v -22.996124267578125 12.345000267028809 15.177676200866699
v -21.604534149169922 12.345000267028809 13.979637145996094
v -20.212942123413086 12.345000267028809 15.177676200866699
v -22.996124267578125 8.4840002059936523 13.979637145996094
v -22.996124267578125 8.4840002059936523 16.375715255737305
v -20.212942123413086 8.4840002059936523 13.979637145996094
v -20.212942123413086 8.4840002059936523 16.375715255737305
v -22.996124267578125 8.4840002059936523 15.177676200866699
v -21.604534149169922 8.4840002059936523 16.375715255737305
v -20.212942123413086 8.4840002059936523 15.177676200866699
v -21.604534149169922 8.4840002059936523 13.979637145996094
vn -1 0 0
vn -1 0 0
vn -1 0 0
vn -1 0 0
vn -1 0 0
vn -1 0 0
vn -1 0 0
vn -1 0 0
vn 0 0 1
vn 0 0 1
vn 0 0 1
vn 0 0 1
vn 0 0 1
vn 0 0 1
vn 0 0 1
vn 0 0 1
vn 1 0 0
vn 1 0 0
vn 1 0 0
vn 1 0 0
vn 1 0 0
vn 1 0 0
vn 1 0 0
vn 1 0 0
vn 0 0 -1
vn 0 0 -1
vn 0 0 -1
vn 0 0 -1
vn 0 0 -1
vn 0 0 -1
vn 0 0 -1
vn 0 0 -1
vn 0 1 0
vn 0 1 0
vn 0 1 0
vn 0 1 0
vn 0 1 0
vn 0 1 0
vn 0 1 0
vn 0 1 0
vn 0 -1 0
vn 0 -1 0
vn 0 -1 0
vn 0 -1 0
vn 0 -1 0
vn 0 -1 0
vn 0 -1 0
vn 0 -1 0
f 126//126 128//128 121//121
f 126//126 122//122 125//125
f 125//125 128//128 126//126
f 125//125 127//127 123//123 128//128
f 127//127 125//125 124//124
f 135//135 133//133 129//129
f 135//135 130//130 136//136
f 136//136 133//133 135//135
f 136//136 132//132 134//134 133//133
f 131//131 133//133 134//134
f 142//142 143//143 137//137
f 142//142 138//138 144//144
f 144//144 143//143 142//142
f 144//144 140//140 141//141 143//143
f 139//139 143//143 141//141
f 150//150 151//151 145//145
f 150//150 146//146 152//152
f 149//149 151//151 150//150
f 150//150 152//152 149//149
f 149//149 152//152 148//148
f 147//147 151//151 149//149
f 157//157 159//159 158//158
f 158//158 159//159 154//154
f 157//157 158//158 153//153
f 160//160 157//157 155//155
f 160//160 156//156 159//159
f 157//157 160//160 159//159
f 165//165 161//161 168//168
f 165//165 166//166 162//162
f 166//166 165//165 168//168
f 168//168 167//167 166//166
f 167//167 164//164 166//166
f 163//163 167//167 168//168
usemtl Default
v -20.212942123413086 8.4840002059936523 13.979637145996094
v -20.212942123413086 8.4840002059936523 16.375715255737305
v -20.212942123413086 12.345000267028809 13.979637145996094
v -20.212942123413086 12.345000267028809 16.375715255737305
v -20.212942123413086 10.41450023651123 16.375715255737305
v -20.212942123413086 8.4840002059936523 15.177676200866699
v -20.212942123413086 12.345000267028809 15.177676200866699
v -20.212942123413086 10.41450023651123 13.979637145996094
v -20.212942123413086 8.4840002059936523 16.375715255737305
v -17.429759979248047 8.4840002059936523 16.375715255737305
v -20.212942123413086 12.345000267028809 16.375715255737305
v -17.429759979248047 12.345000267028809 16.375715255737305
v -20.212942123413086 10.41450023651123 16.375715255737305
v -18.821352005004883 12.345000267028809 16.375715255737305
v -18.821352005004883 8.4840002059936523 16.375715255737305
v -17.429759979248047 10.41450023651123 16.375715255737305
v -17.429759979248047 8.4840002059936523 16.375715255737305
v -17.429759979248047 8.4840002059936523 13.979637145996094
v -17.429759979248047 12.345000267028809 16.375715255737305
v -17.429759979248047 12.345000267028809 13.979637145996094
v -17.429759979248047 12.345000267028809 15.177676200866699
v -17.429759979248047 8.4840002059936523 15.177676200866699
v -17.429759979248047 10.41450023651123 16.375715255737305
v -17.429759979248047 10.41450023651123 13.979637145996094
v -17.429759979248047 8.4840002059936523 13.979637145996094
v -20.212942123413086 8.4840002059936523 13.979637145996094
v -17.429759979248047 12.345000267028809 13.979637145996094
v -20.212942123413086 12.345000267028809 13.979637145996094
v -18.821352005004883 12.345000267028809 13.979637145996094
v -18.821352005004883 8.4840002059936523 13.979637145996094
v -17.429759979248047 10.41450023651123 13.979637145996094
v -20.212942123413086 10.41450023651123 13.979637145996094
v -20.212942123413086 12.345000267028809 16.375715255737305
v -20.212942123413086 12.345000267028809 13.979637145996094
v -17.429759979248047 12.345000267028809 16.375715255737305
v -17.429759979248047 12.345000267028809 13.979637145996094
v -18.821352005004883 12.345000267028809 16.375715255737305
v -20.212942123413086 12.345000267028809 15.177676200866699
v -18.821352005004883 12.345000267028809 13.979637145996094
v -17.429759979248047 12.345000267028809 15.177676200866699
v -20.212942123413086 8.4840002059936523 13.979637145996094
v -20.212942123413086 8.4840002059936523 16.375715255737305
v -17.429759979248047 8.4840002059936523 13.979637145996094
v -17.429759979248047 8.4840002059936523 16.375715255737305
v -20.212942123413086 8.4840002059936523 15.177676200866699
v -18.821352005004883 8.4840002059936523 16.375715255737305
v -17.429759979248047 8.4840002059936523 15.177676200866699
v -18.821352005004883 8.4840002059936523 13.979637145996094
vn -1 0 0
vn -1 0 0
vn -1 0 0
vn -1 0 0
vn -1 0 0
vn -1 0 0
vn -1 0 0
vn -1 0 0
vn 0 0 1
vn 0 0 1
vn 0 0 1
vn 0 0 1
vn 0 0 1
vn 0 0 1
vn 0 0 1
vn 0 0 1
vn 1 0 0
vn 1 0 0
vn 1 0 0
vn 1 0 0
vn 1 0 0
vn 1 0 0
vn 1 0 0
vn 1 0 0
vn 0 0 -1
vn 0 0 -1
vn 0 0 -1
vn 0 0 -1
vn 0 0 -1
vn 0 0 -1
vn 0 0 -1
vn 0 0 -1
vn 0 1 0
vn 0 1 0
vn 0 1 0
vn 0 1 0
vn 0 1 0
vn 0 1 0
vn 0 1 0
vn 0 1 0
vn 0 -1 0
vn 0 -1 0
vn 0 -1 0
vn 0 -1 0
vn 0 -1 0
vn 0 -1 0
vn 0 -1 0
vn 0 -1 0
f 174//174 176//176 169//169
f 174//174 170//170 173//173
f 173//173 176//176 174//174
f 173//173 175//175 171//171 176//176
f 175//175 173//173 172//172
f 183//183 181//181 177//177
f 183//183 178//178 184//184
f 184//184 181//181 183//183
f 181//181 184//184 182//182
f 182//182 184//184 180//180
f 179//179 181//181 182//182
f 190//190 191//191 185//185
f 190//190 186//186 192//192
f 192//192 191//191 190//190
f 192//192 188//188 189//189 191//191
f 187//187 191//191 189//189
f 198//198 199//199 193//193
f 198//198 194//194 200//200
f 200//200 199//199 198//198
f 200//200 197//197 195//195 199//199
f 197//197 200//200 196//196
f 206//206 201//201 205//205
f 206//206 207//207 202//202
f 207//207 206//206 205//205
f 205//205 208//208 207//207
f 208//208 204//204 207//207
f 203//203 208//208 205//205
f 216//216 214//214 213//213
f 213//213 214//214 210//210
f 216//216 213//213 209//209
f 215//215 216//216 211//211
f 215//215 212//212 214//214
f 216//216 215//215 214//214
usemtl Default
v -22.996124267578125 8.4840002059936523 20.635208129882812
v -22.996124267578125 8.4840002059936523 23.031286239624023
v -22.996124267578125 12.345000267028809 20.635208129882812
v -22.996124267578125 12.345000267028809 23.031286239624023
v -22.996124267578125 10.41450023651123 23.031286239624023
v -22.996124267578125 8.4840002059936523 21.833246231079102
v -22.996124267578125 12.345000267028809 21.833246231079102
v -22.996124267578125 10.41450023651123 20.635208129882812
v -22.996124267578125 8.4840002059936523 23.031286239624023
v -20.212942123413086 8.4840002059936523 23.031286239624023
v -22.996124267578125 12.345000267028809 23.031286239624023
v -20.212942123413086 12.345000267028809 23.031286239624023
v -22.996124267578125 10.41450023651123 23.031286239624023
v -21.604534149169922 12.345000267028809 23.031286239624023
v -21.604534149169922 8.4840002059936523 23.031286239624023
v -20.212942123413086 10.41450023651123 23.031286239624023
v -20.212942123413086 8.4840002059936523 23.031286239624023
v -20.212942123413086 8.4840002059936523 20.635208129882812
v -20.212942123413086 12.345000267028809 23.031286239624023
v -20.212942123413086 12.345000267028809 20.635208129882812
v -20.212942123413086 12.345000267028809 21.833246231079102
v -20.212942123413086 8.4840002059936523 21.833246231079102
v -20.212942123413086 10.41450023651123 23.031286239624023
v -20.212942123413086 10.41450023651123 20.635208129882812
v -20.212942123413086 8.4840002059936523 20.635208129882812
v -22.996124267578125 8.4840002059936523 20.635208129882812
v -20.212942123413086 12.345000267028809 20.635208129882812
v -22.996124267578125 12.345000267028809 20.635208129882812
v -21.604534149169922 12.345000267028809 20.635208129882812
v -21.604534149169922 8.4840002059936523 20.635208129882812
v -20.212942123413086 10.41450023651123 20.635208129882812
v -22.996124267578125 10.41450023651123 20.635208129882812
v -22.996124267578125 12.345000267028809 23.031286239624023
v -22.996124267578125 12.345000267028809 20.635208129882812
v -20.212942123413086 12.345000267028809 23.031286239624023
v -20.212942123413086 12.345000267028809 20.635208129882812
v -21.604534149169922 12.345000267028809 23.031286239624023
v -22.996124267578125 12.345000267028809 21.833246231079102
v -21.604534149169922 12.345000267028809 20.635208129882812
v -20.212942123413086 12.345000267028809 21.833246231079102
v -22.996124267578125 8.4840002059936523 20.635208129882812
v -22.996124267578125 8.4840002059936523 23.031286239624023
v -20.212942123413086 8.4840002059936523 20.635208129882812
v -20.212942123413086 8.4840002059936523 23.031286239624023
v -22.996124267578125 8.4840002059936523 21.833246231079102
v -21.604534149169922 8.4840002059936523 23.031286239624023
v -20.212942123413086 8.4840002059936523 21.833246231079102
v -21.604534149169922 8.4840002059936523 20.635208129882812
vn -1 0 0
vn -1 0 0
vn -1 0 0
vn -1 0 0
vn -1 0 0
vn -1 0 0
vn -1 0 0
vn -1 0 0
vn 0 0 1
vn 0 0 1
vn 0 0 1
vn 0 0 1
vn 0 0 1
vn 0 0 1
vn 0 0 1
vn 0 0 1
vn 1 0 0
vn 1 0 0
vn 1 0 0
vn 1 0 0
vn 1 0 0
vn 1 0 0
vn 1 0 0
vn 1 0 0
vn 0 0 -1
vn 0 0 -1
vn 0 0 -1
vn 0 0 -1
vn 0 0 -1
vn 0 0 -1
vn 0 0 -1
vn 0 0 -1
vn 0 1 0
vn 0 1 0
vn 0 1 0
vn 0 1 0
vn 0 1 0
vn 0 1 0
vn 0 1 0
vn 0 1 0
vn 0 -1 0
vn 0 -1 0
vn 0 -1 0
vn 0 -1 0
vn 0 -1 0
vn 0 -1 0
vn 0 -1 0
vn 0 -1 0
f 222//222 224//224 217//217
f 222//222 218//218 221//221
f 221//221 224//224 222//222
f 221//221 220//220 223//223 224//224
f 219//219 224//224 223//223
f 231//231 229//229 225//225
f 231//231 226//226 232//232
f 232//232 229//229 231//231
f 229//229 232//232 230//230
f 230//230 232//232 228//228
f 227//227 229//229 230//230
f 238//238 239//239 233//233
f 238//238 234//234 240//240
f 240//240 239//239 238//238
f 240//240 237//237 235//235 239//239
f 237//237 240//240 236//236
f 246//246 247//247 241//241
f 246//246 242//242 248//248
f 248//248 247//247 246//246
f 248//248 245//245 243//243 247//247
f 245//245 248//248 244//244
f 254//254 249//249 253//253
f 254//254 255//255 250//250
f 255//255 254//254 253//253
f 253//253 256//256 255//255
f 256//256 252//252 255//255
f 251//251 256//256 253//253
f 264//264 262//262 261//261
f 261//261 262//262 258//258
f 264//264 261//261 257//257
f 263//263 264//264 259//259
f 263//263 260//260 262//262
f 264//264 263//263 262//262
usemtl Default
v -20.212942123413086 8.4840002059936523 20.635208129882812
v -20.212942123413086 8.4840002059936523 23.031286239624023
v -20.212942123413086 12.345000267028809 20.635208129882812
v -20.212942123413086 12.345000267028809 23.031286239624023
v -20.212942123413086 10.41450023651123 23.031286239624023
v -20.212942123413086 8.4840002059936523 21.833246231079102
v -20.212942123413086 12.345000267028809 21.833246231079102
v -20.212942123413086 10.41450023651123 20.635208129882812
v -20.212942123413086 8.4840002059936523 23.031286239624023
v -17.429759979248047 8.4840002059936523 23.031286239624023
v -20.212942123413086 12.345000267028809 23.031286239624023
v -17.429759979248047 12.345000267028809 23.031286239624023
v -20.212942123413086 10.41450023651123 23.031286239624023
v -18.821352005004883 12.345000267028809 23.031286239624023
v -18.821352005004883 8.4840002059936523 23.031286239624023
v -17.429759979248047 10.41450023651123 23.031286239624023
v -17.429759979248047 8.4840002059936523 23.031286239624023
v -17.429759979248047 8.4840002059936523 20.635208129882812
v -17.429759979248047 12.345000267028809 23.031286239624023
v -17.429759979248047 12.345000267028809 20.635208129882812
v -17.429759979248047 12.345000267028809 21.833246231079102
v -17.429759979248047 8.4840002059936523 21.833246231079102
v -17.429759979248047 10.41450023651123 23.031286239624023
v -17.429759979248047 10.41450023651123 20.635208129882812
v -17.429759979248047 8.4840002059936523 20.635208129882812
v -20.212942123413086 8.4840002059936523 20.635208129882812
v -17.429759979248047 12.345000267028809 20.635208129882812
v -20.212942123413086 12.345000267028809 20.635208129882812
v -18.821352005004883 12.345000267028809 20.635208129882812
v -18.821352005004883 8.4840002059936523 20.635208129882812
v -17.429759979248047 10.41450023651123 20.635208129882812
v -20.212942123413086 10.41450023651123 20.635208129882812
v -20.212942123413086 12.345000267028809 23.031286239624023
v -20.212942123413086 12.345000267028809 20.635208129882812
v -17.429759979248047 12.345000267028809 23.031286239624023
v -17.429759979248047 12.345000267028809 20.635208129882812
v -18.821352005004883 12.345000267028809 23.031286239624023
v -20.212942123413086 12.345000267028809 21.833246231079102
v -18.821352005004883 12.345000267028809 20.635208129882812
v -17.429759979248047 12.345000267028809 21.833246231079102
v -20.212942123413086 8.4840002059936523 20.635208129882812
v -20.212942123413086 8.4840002059936523 23.031286239624023
v -17.429759979248047 8.4840002059936523 20.635208129882812
v -17.429759979248047 8.4840002059936523 23.031286239624023
v -20.212942123413086 8.4840002059936523 21.833246231079102
v -18.821352005004883 8.4840002059936523 23.031286239624023
v -17.429759979248047 8.4840002059936523 21.833246231079102
v -18.821352005004883 8.4840002059936523 20.635208129882812
vn -1 0 0
vn -1 0 0
vn -1 0 0
vn -1 0 0
vn -1 0 0
vn -1 0 0
vn -1 0 0
vn -1 0 0
vn 0 0 1
vn 0 0 1
vn 0 0 1
vn 0 0 1
vn 0 0 1
vn 0 0 1
vn 0 0 1
vn 0 0 1
vn 1 0 0
vn 1 0 0
vn 1 0 0
vn 1 0 0
vn 1 0 0
vn 1 0 0
vn 1 0 0
vn 1 0 0
vn 0 0 -1
vn 0 0 -1
vn 0 0 -1
vn 0 0 -1
vn 0 0 -1
vn 0 0 -1
vn 0 0 -1
vn 0 0 -1
vn 0 1 0
vn 0 1 0
vn 0 1 0
vn 0 1 0
vn 0 1 0
vn 0 1 0
vn 0 1 0
vn 0 1 0
vn 0 -1 0
vn 0 -1 0
vn 0 -1 0
vn 0 -1 0
vn 0 -1 0
vn 0 -1 0
vn 0 -1 0
vn 0 -1 0
f 270//270 272//272 265//265
f 270//270 266//266 269//269
f 269//269 272//272 270//270
f 269//269 268//268 271//271 272//272
f 267//267 272//272 271//271
f 279//279 277//277 273//273
f 279//279 274//274 280//280
f 280//280 277//277 279//279
f 280//280 276//276 278//278 277//277
f 275//275 277//277 278//278
f 286//286 287//287 281//281
f 286//286 282//282 288//288
f 288//288 287//287 286//286
f 288//288 285//285 283//283 287//287
f 285//285 288//288 284//284
f 294//294 295//295 289//289
f 294//294 290//290 296//296
f 293//293 291//291 295//295 294//294
f 294//294 296//296 292//292 293//293
f 302//302 297//297 301//301
f 302//302 303//303 298//298
f 303//303 302//302 301//301
f 301//301 304//304 303//303
f 304//304 300//300 303//303
f 299//299 304//304 301//301
f 312//312 310//310 309//309
f 309//309 310//310 306//306
f 312//312 309//309 305//305
f 311//311 312//312 307//307
f 311//311 308//308 310//310
f 312//312 311//311 310//310
usemtl Default
v -18.361188888549805 8.4840002059936523 17.715732574462891
v -17.429759979248047 8.4840002059936523 17.715732574462891
v -18.361188888549805 12.345000267028809 17.715732574462891
v -17.429759979248047 12.345000267028809 17.715732574462891
v -17.429759979248047 10.41450023651123 17.715732574462891
v -18.361188888549805 10.41450023651123 17.715732574462891
v -17.429759979248047 8.4840002059936523 17.715732574462891
v -17.429759979248047 8.4840002059936523 16.375715255737305
v -17.429759979248047 12.345000267028809 17.715732574462891
v -17.429759979248047 12.345000267028809 16.375715255737305
v -17.429759979248047 10.41450023651123 17.715732574462891
v -17.429759979248047 10.41450023651123 16.375715255737305
v -17.429759979248047 8.4840002059936523 16.375715255737305
v -22.996124267578125 8.4840002059936523 16.375715255737305
v -17.429759979248047 12.345000267028809 16.375715255737305
v -22.996124267578125 12.345000267028809 16.375715255737305
v -20.212942123413086 12.345000267028809 16.375715255737305
v -20.212942123413086 8.4840002059936523 16.375715255737305
v -17.429759979248047 10.41450023651123 16.375715255737305
v -22.996124267578125 10.41450023651123 16.375715255737305
v -22.996124267578125 8.4840002059936523 16.375715255737305
v -22.996124267578125 8.4840002059936523 20.635208129882812
v -22.996124267578125 12.345000267028809 16.375715255737305
v -22.996124267578125 12.345000267028809 20.635208129882812
v -22.996124267578125 12.345000267028809 18.505460739135742
v -22.996124267578125 8.4840002059936523 18.505460739135742
v -22.996124267578125 10.41450023651123 16.375715255737305
v -22.996124267578125 10.41450023651123 20.635208129882812
v -22.996124267578125 8.4840002059936523 20.635208129882812
v -17.429759979248047 8.4840002059936523 20.635208129882812
v -22.996124267578125 12.345000267028809 20.635208129882812
v -17.429759979248047 12.345000267028809 20.635208129882812
v -20.212942123413086 12.345000267028809 20.635208129882812
v -20.212942123413086 8.4840002059936523 20.635208129882812
v -22.996124267578125 10.41450023651123 20.635208129882812
v -17.429759979248047 10.41450023651123 20.635208129882812
v -17.429759979248047 8.4840002059936523 20.635208129882812
v -17.429759979248047 8.4840002059936523 19.857553482055664
v -17.429759979248047 12.345000267028809 20.635208129882812
v -17.429759979248047 12.345000267028809 19.857553482055664
v -17.429759979248047 10.41450023651123 20.635208129882812
v -17.429759979248047 10.41450023651123 19.857553482055664
v -17.429759979248047 8.4840002059936523 19.857553482055664
v -18.361188888549805 8.4840002059936523 19.857553482055664
v -17.429759979248047 12.345000267028809 19.857553482055664
v -18.361188888549805 12.345000267028809 19.857553482055664
v -17.429759979248047 10.41450023651123 19.857553482055664
v -18.361188888549805 10.41450023651123 19.857553482055664
v -18.361188888549805 8.4840002059936523 19.857553482055664
v -18.361188888549805 8.4840002059936523 17.715732574462891
v -18.361188888549805 12.345000267028809 19.857553482055664
v -18.361188888549805 12.345000267028809 17.715732574462891
v -18.361188888549805 10.41450023651123 19.857553482055664
v -18.361188888549805 10.41450023651123 17.715732574462891
v -17.429759979248047 12.345000267028809 17.715732574462891
v -17.429759979248047 12.345000267028809 16.375715255737305
v -20.212942123413086 12.345000267028809 18.505460739135742
v -18.361188888549805 12.345000267028809 17.715732574462891
v -18.361188888549805 12.345000267028809 19.857553482055664
v -17.429759979248047 12.345000267028809 19.857553482055664
v -17.429759979248047 12.345000267028809 20.635208129882812
v -18.793519973754883 12.345000267028809 18.505460739135742
v -20.212942123413086 12.345000267028809 19.591632843017578
v -18.793519973754883 12.345000267028809 19.591632843017578
v -22.996124267578125 12.345000267028809 20.635208129882812
v -20.212942123413086 12.345000267028809 20.635208129882812
v -22.996124267578125 12.345000267028809 16.375715255737305
v -22.996124267578125 12.345000267028809 18.505460739135742
v -20.212942123413086 12.345000267028809 16.375715255737305
v -17.429759979248047 8.4840002059936523 17.715732574462891
v -18.361188888549805 8.4840002059936523 17.715732574462891
v -20.212942123413086 8.4840002059936523 18.505460739135742
v -17.429759979248047 8.4840002059936523 16.375715255737305
v -22.996124267578125 8.4840002059936523 16.375715255737305
v -20.212942123413086 8.4840002059936523 16.375715255737305
v -22.996124267578125 8.4840002059936523 20.635208129882812
v -22.996124267578125 8.4840002059936523 18.505460739135742
v -17.429759979248047 8.4840002059936523 20.635208129882812
v -20.212942123413086 8.4840002059936523 20.635208129882812
v -17.429759979248047 8.4840002059936523 19.857553482055664
v -20.212942123413086 8.4840002059936523 19.591632843017578
v -18.793519973754883 8.4840002059936523 18.505460739135742
v -18.793519973754883 8.4840002059936523 19.591632843017578
v -18.361188888549805 8.4840002059936523 19.857553482055664
vn 0 0 1
vn 0 0 1
vn 0 0 1
vn 0 0 1
vn 0 0 1
vn 0 0 1
vn 1 0 0
vn 1 0 0
vn 1 0 0
vn 1 0 0
vn 1 0 0
vn 1 0 0
vn 0 0 -1
vn 0 0 -1
vn 0 0 -1
vn 0 0 -1
vn 0 0 -1
vn 0 0 -1
vn 0 0 -1
vn 0 0 -1
vn -1 0 0
vn -1 0 0
vn -1 0 0
vn -1 0 0
vn -1 0 0
vn -1 0 0
vn -1 0 0
vn -1 0 0
vn 0 0 1
vn 0 0 1
vn 0 0 1
vn 0 0 1
vn 0 0 1
vn 0 0 1
vn 0 0 1
vn 0 0 1
vn 1 0 0
vn 1 0 0
vn 1 0 0
vn 1 0 0
vn 1 0 0
vn 1 0 0
vn 0 0 -1
vn 0 0 -1
vn 0 0 -1
vn 0 0 -1
vn 0 0 -1
vn 0 0 -1
vn 1 0 0
vn 1 0 0
vn 1 0 0
vn 1 0 0
vn 1 0 0
vn 1 0 0
vn 0 1 0
vn 0 1 0
vn 0 1 0
vn 0 1 0
vn 0 1 0
vn 0 1 0
vn 0 1 0
vn 0 1 0
vn 0 1 0
vn 0 1 0
vn 0 1 0
vn 0 1 0
vn 0 1 0
vn 0 1 0
vn 0 1 0
vn 0 -1 0
vn 0 -1 0
vn 0 -1 0
vn 0 -1 0
vn 0 -1 0
vn 0 -1 0
vn 0 -1 0
vn 0 -1 0
vn 0 -1 0
vn 0 -1 0
vn 0 -1 0
vn 0 -1 0
vn 0 -1 0
vn 0 -1 0
vn 0 -1 0
f 314//314 317//317 318//318 313//313
f 315//315 318//318 317//317 316//316
f 320//320 324//324 323//323 319//319
f 321//321 323//323 324//324 322//322
f 330//330 331//331 325//325
f 330//330 326//326 332//332
f 332//332 331//331 330//330
f 331//331 332//332 329//329
f 329//329 332//332 328//328
f 327//327 331//331 329//329
f 338//338 339//339 333//333
f 338//338 334//334 340//340
f 340//340 339//339 338//338
f 339//339 340//340 337//337
f 337//337 340//340 336//336
f 335//335 339//339 337//337
f 346//346 347//347 341//341
f 346//346 342//342 348//348
f 348//348 347//347 346//346
f 348//348 344//344 345//345 347//347
f 343//343 347//347 345//345
f 350//350 354//354 353//353 349//349
f 351//351 353//353 354//354 352//352
f 356//356 360//360 359//359 355//355
f 357//357 359//359 360//360 358//358
f 362//362 366//366 365//365 361//361
f 363//363 365//365 366//366 364//364
f 374//374 369//369 375//375 376//376
f 375//375 377//377 378//378
f 376//376 375//375 378//378
f 380//380 377//377 375//375 369//369
f 379//379 380//380 369//369 381//381
f 370//370 381//381 369//369
f 371//371 376//376 378//378
f 371//371 373//373 372//372
f 371//371 378//378 373//373
f 376//376 371//371 374//374
f 369//369 374//374 370//370
f 370//370 374//374 371//371
f 370//370 367//367 368//368
f 381//381 370//370 368//368
f 395//395 393//393 384//384 394//394
f 389//389 386//386 387//387 384//384
f 388//388 389//389 384//384 393//393
f 388//388 393//393 391//391
f 395//395 391//391 393//393
f 384//384 387//387 383//383
f 384//384 383//383 394//394
f 383//383 385//385 382//382
f 385//385 383//383 387//387
f 391//391 396//396 390//390
f 395//395 394//394 396//396
f 396//396 392//392 390//390
f 394//394 383//383 396//396
f 395//395 396//396 391//391
usemtl Default
v -22.996124771277834 8.484 23.031286057098612
v -20.212942764060429 8.484 23.031286057098612
v -20.212942764060429 8.484 20.635207903909802
v -22.996124771277834 8.484 20.635207903909802
cstype bspline
deg 1
curv 0 13.127736789559007 397 398 399 400 397
parm u 0 0 2.7831820072174045 6.5638683947795036 9.3470504019969081 13.127736789559007 13.127736789559007
end
usemtl Default
v -19.13881825296485 5.7110000000000003 24.436507843917198
v -17.429760756843024 5.7110000000000003 24.436507843917198
v -17.429760756843024 5.7110000000000003 20.980861562145876
v -19.13881825296485 5.7110000000000003 20.980861562145876
cstype bspline
deg 1
curv 0 15.490169079516512 401 402 403 404 401
parm u 0 0 1.9074715414882526 7.7450845397582562 9.6525560812465088 15.490169079516512 15.490169079516512
end
usemtl Default
v -22.996124771277838 5.7110000000000003 24.436507843917198
v -19.138818252964853 5.7110000000000003 24.436507843917198
v -19.138818252964853 5.7110000000000003 19.146182293016125
v -22.996124771277838 5.7110000000000003 19.146182293016125
cstype bspline
deg 1
curv 0 19.476110635593372 405 406 407 408 405
parm u 0 0 3.7135759790447693 9.738055317796686 13.451631296841455 19.476110635593372 19.476110635593372
end
usemtl Default
v -22.996124771277838 5.7110000000000003 17.864741057796351
v -19.138818252964853 5.7110000000000003 17.864741057796351
v -19.138818252964853 5.7110000000000003 12.574415506895278
v -22.996124771277838 5.7110000000000003 12.574415506895278
cstype bspline
deg 1
curv 0 19.476110635593372 409 410 411 412 409
parm u 0 0 3.7135759790447693 9.738055317796686 13.451631296841455 19.476110635593372 19.476110635593372
end
usemtl Default
v -22.996124771277838 8.484 16.375715446902674
v -20.212942764060436 8.484 16.375715446902674
v -20.212942764060436 8.484 13.979637293713864
v -22.996124771277838 8.484 13.979637293713864
cstype bspline
deg 1
curv 0 13.127736789559007 413 414 415 416 413
parm u 0 0 2.7831820072174045 6.5638683947795036 9.3470504019969081 13.127736789559007 13.127736789559007
end
usemtl Default
v -20.212942764060436 8.484 16.375715446902674
v -17.429760756843031 8.484 16.375715446902674
v -17.429760756843031 8.484 13.979637293713864
v -20.212942764060436 8.484 13.979637293713864
cstype bspline
deg 1
curv 0 13.127736789559007 417 418 419 420 417
parm u 0 0 2.7831820072174045 6.5638683947795036 9.3470504019969081 13.127736789559007 13.127736789559007
end
usemtl Default
v -20.212942764060429 8.484 23.031286057098612
v -17.429760756843027 8.484 23.031286057098612
v -17.429760756843027 8.484 20.635207903909802
v -20.212942764060429 8.484 20.635207903909802
cstype bspline
deg 1
curv 0 13.127736789559007 421 422 423 424 421
parm u 0 0 2.7831820072174045 6.5638683947795036 9.3470504019969081 13.127736789559007 13.127736789559007
end
usemtl Default
v -17.429760756843031 8.484 17.71573206548176
v -17.429760756843031 8.484 16.375715446902674
v -22.996124771277842 8.484 16.375715446902674
v -22.996124771277842 8.484 20.635207903909802
v -17.429760756843031 8.484 20.635207903909802
v -17.429760756843031 8.484 19.857553591248276
v -18.361188018655433 8.484 19.857553591248276
v -18.361188018655433 8.484 17.71573206548176
cstype bspline
deg 1
curv 0 21.51456746650868 425 426 427 428 429 430 431 432 425
parm u 0 0 1.3400166185790852 6.9063806330138959 11.165873090021023 16.732237104455834 17.509891417117359 18.441318678929761 20.583140204696278 21.51456746650868 21.51456746650868
end
