# Rhino

mtllib corridor.mtl
usemtl Default
v -19.138818740844727 0 18.412029266357422
v -19.138818740844727 0 24.436508178710938
v -19.138818740844727 2.0789999961853027 18.412029266357422
v -19.138818740844727 2.0789999961853027 24.436508178710938
v -19.138818740844727 1.0394999980926514 24.436508178710938
v -19.138818740844727 2.0789999961853027 21.42426872253418
v -19.138818740844727 0 21.42426872253418
v -19.138818740844727 1.0394999980926514 18.412029266357422
v -19.138818740844727 0 24.436508178710938
v -17.429759979248047 0 24.436508178710938
v -19.138818740844727 2.0789999961853027 24.436508178710938
v -17.429759979248047 2.0789999961853027 24.436508178710938
v -19.138818740844727 1.0394999980926514 24.436508178710938
v -18.284290313720703 2.0789999961853027 24.436508178710938
v -18.284290313720703 0 24.436508178710938
v -17.429759979248047 1.0394999980926514 24.436508178710938
v -17.429759979248047 0 24.436508178710938
v -17.429759979248047 0 18.412029266357422
v -17.429759979248047 2.0789999961853027 24.436508178710938
v -17.429759979248047 2.0789999961853027 18.412029266357422
v -17.429759979248047 2.0789999961853027 21.42426872253418
v -17.429759979248047 0 21.42426872253418
v -17.429759979248047 1.0394999980926514 24.436508178710938
v -17.429759979248047 1.0394999980926514 18.412029266357422
v -17.429759979248047 0 18.412029266357422
v -19.138818740844727 0 18.412029266357422
v -17.429759979248047 2.0789999961853027 18.412029266357422
v -19.138818740844727 2.0789999961853027 18.412029266357422
v -18.284290313720703 2.0789999961853027 18.412029266357422
v -18.284290313720703 0 18.412029266357422
v -17.429759979248047 1.0394999980926514 18.412029266357422
v -19.138818740844727 1.0394999980926514 18.412029266357422
v -19.138818740844727 2.0789999961853027 24.436508178710938
v -19.138818740844727 2.0789999961853027 18.412029266357422
v -17.429759979248047 2.0789999961853027 24.436508178710938
v -17.429759979248047 2.0789999961853027 18.412029266357422
v -18.284290313720703 2.0789999961853027 24.436508178710938
v -17.429759979248047 2.0789999961853027 21.42426872253418
v -19.138818740844727 2.0789999961853027 21.42426872253418
v -18.284290313720703 2.0789999961853027 18.412029266357422
v -19.138818740844727 0 18.412029266357422
v -19.138818740844727 0 24.436508178710938
v -17.429759979248047 0 18.412029266357422
v -17.429759979248047 0 24.436508178710938
v -19.138818740844727 0 21.42426872253418
v -18.284290313720703 0 24.436508178710938
v -17.429759979248047 0 21.42426872253418
v -18.284290313720703 0 18.412029266357422
vn -1 0 0
vn -1 0 0
vn -1 0 0
vn -1 0 0
vn -1 0 0
vn -1 0 0
vn -1 0 0
vn -1 0 0
vn 0 0 1
vn 0 0 1
vn 0 0 1
vn 0 0 1
vn 0 0 1
vn 0 0 1
vn 0 0 1
vn 0 0 1
vn 1 0 0
vn 1 0 0
vn 1 0 0
vn 1 0 0
vn 1 0 0
vn 1 0 0
vn 1 0 0
vn 1 0 0
vn 0 0 -1
vn 0 0 -1
vn 0 0 -1
vn 0 0 -1
vn 0 0 -1
vn 0 0 -1
vn 0 0 -1
vn 0 0 -1
vn 0 1 0
vn 0 1 0
vn 0 1 0
vn 0 1 0
vn 0 1 0
vn 0 1 0
vn 0 1 0
vn 0 1 0
vn 0 -1 0
vn 0 -1 0
vn 0 -1 0
vn 0 -1 0
vn 0 -1 0
vn 0 -1 0
vn 0 -1 0
vn 0 -1 0
f 7//7 8//8 1//1
f 7//7 2//2 5//5
f 6//6 8//8 7//7
f 7//7 5//5 6//6
f 6//6 5//5 4//4
f 3//3 8//8 6//6
f 15//15 13//13 9//9
f 15//15 10//10 16//16
f 16//16 13//13 15//15
f 16//16 14//14 11//11 13//13
f 14//14 16//16 12//12
f 22//22 23//23 17//17
f 22//22 18//18 24//24
f 24//24 23//23 22//22
f 23//23 24//24 21//21
f 21//21 24//24 20//20
f 19//19 23//23 21//21
f 30//30 31//31 25//25
f 30//30 26//26 32//32
f 29//29 31//31 30//30
f 30//30 32//32 29//29
f 29//29 32//32 28//28
f 27//27 31//31 29//29
f 39//39 33//33 37//37
f 39//39 40//40 34//34
f 38//38 39//39 37//37
f 39//39 38//38 40//40
f 38//38 36//36 40//40
f 35//35 38//38 37//37
f 45//45 41//41 48//48
f 45//45 46//46 42//42
f 47//47 45//45 48//48
f 45//45 47//47 46//46
f 47//47 44//44 46//46
f 43//43 47//47 48//48
usemtl Default
v -19.138818740844727 2.0789999961853027 22.344354629516602
v -19.138818740844727 2.0789999961853027 24.436508178710938
v -19.138818740844727 5.7109999656677246 22.344354629516602
v -19.138818740844727 5.7109999656677246 24.436508178710938
v -19.138818740844727 3.8949999809265137 24.436508178710938
v -19.138818740844727 2.0789999961853027 23.390430450439453
v -19.138818740844727 5.7109999656677246 23.390430450439453
v -19.138818740844727 3.8949999809265137 22.344354629516602
v -19.138818740844727 2.0789999961853027 24.436508178710938
v -17.429759979248047 2.0789999961853027 24.436508178710938
v -19.138818740844727 5.7109999656677246 24.436508178710938
v -17.429759979248047 5.7109999656677246 24.436508178710938
v -19.138818740844727 3.8949999809265137 24.436508178710938
v -18.284290313720703 5.7109999656677246 24.436508178710938
v -18.284290313720703 2.0789999961853027 24.436508178710938
v -17.429759979248047 3.8949999809265137 24.436508178710938
v -17.429759979248047 2.0789999961853027 24.436508178710938
v -17.429759979248047 2.0789999961853027 22.344354629516602
v -17.429759979248047 5.7109999656677246 24.436508178710938
v -17.429759979248047 5.7109999656677246 22.344354629516602
v -17.429759979248047 5.7109999656677246 23.390430450439453
v -17.429759979248047 2.0789999961853027 23.390430450439453
v -17.429759979248047 3.8949999809265137 24.436508178710938
v -17.429759979248047 3.8949999809265137 22.344354629516602
v -17.429759979248047 2.0789999961853027 22.344354629516602
v -19.138818740844727 2.0789999961853027 22.344354629516602
v -17.429759979248047 5.7109999656677246 22.344354629516602
v -19.138818740844727 5.7109999656677246 22.344354629516602
v -18.284290313720703 5.7109999656677246 22.344354629516602
v -18.284290313720703 2.0789999961853027 22.344354629516602
v -17.429759979248047 3.8949999809265137 22.344354629516602
v -19.138818740844727 3.8949999809265137 22.344354629516602
v -19.138818740844727 5.7109999656677246 24.436508178710938
v -19.138818740844727 5.7109999656677246 22.344354629516602
v -17.429759979248047 5.7109999656677246 24.436508178710938
v -17.429759979248047 5.7109999656677246 22.344354629516602
v -18.284290313720703 5.7109999656677246 24.436508178710938
v -19.138818740844727 5.7109999656677246 23.390430450439453
v -18.284290313720703 5.7109999656677246 22.344354629516602
v -17.429759979248047 5.7109999656677246 23.390430450439453
v -19.138818740844727 2.0789999961853027 22.344354629516602
v -19.138818740844727 2.0789999961853027 24.436508178710938
v -17.429759979248047 2.0789999961853027 22.344354629516602
v -17.429759979248047 2.0789999961853027 24.436508178710938
v -19.138818740844727 2.0789999961853027 23.390430450439453
v -18.284290313720703 2.0789999961853027 24.436508178710938
v -17.429759979248047 2.0789999961853027 23.390430450439453
v -18.284290313720703 2.0789999961853027 22.344354629516602
vn -1 0 0
vn -1 0 0
vn -1 0 0
vn -1 0 0
vn -1 0 0
vn -1 0 0
vn -1 0 0
vn -1 0 0
vn 0 0 1
vn 0 0 1
vn 0 0 1
vn 0 0 1
vn 0 0 1
vn 0 0 1
vn 0 0 1
vn 0 0 1
vn 1 0 0
vn 1 0 0
vn 1 0 0
vn 1 0 0
vn 1 0 0
vn 1 0 0
vn 1 0 0
vn 1 0 0
vn 0 0 -1
vn 0 0 -1
vn 0 0 -1
vn 0 0 -1
vn 0 0 -1
vn 0 0 -1
vn 0 0 -1
vn 0 0 -1
vn 0 1 0
vn 0 1 0
vn 0 1 0
vn 0 1 0
vn 0 1 0
vn 0 1 0
vn 0 1 0
vn 0 1 0
vn 0 -1 0
vn 0 -1 0
vn 0 -1 0
vn 0 -1 0
vn 0 -1 0
vn 0 -1 0
vn 0 -1 0
vn 0 -1 0
f 55//55 54//54 53//53
f 54//54 50//50 53//53
f 56//56 49//49 54//54
f 55//55 51//51 56//56
f 55//55 53//53 52//52
f 56//56 54//54 55//55
f 61//61 63//63 64//64
f 63//63 58//58 64//64
f 61//61 57//57 63//63
f 62//62 59//59 61//61
f 62//62 64//64 60//60
f 61//61 64//64 62//62
f 70//70 72//72 68//68 69//69
f 70//70 66//66 72//72
f 71//71 65//65 70//70
f 69//69 67//67 71//71
f 71//71 70//70 69//69
f 79//79 78//78 80//80
f 78//78 74//74 80//80
f 79//79 73//73 78//78
f 77//77 75//75 79//79
f 77//77 80//80 76//76
f 79//79 80//80 77//77
f 86//86 81//81 85//85
f 86//86 87//87 82//82
f 87//87 86//86 85//85
f 87//87 85//85 83//83 88//88
f 88//88 84//84 87//87
f 93//93 89//89 96//96
f 93//93 94//94 90//90
f 94//94 93//93 96//96
f 94//94 96//96 95//95 92//92
f 91//91 95//95 96//96
usemtl Default
v -18.361188888549805 2.0789999961853027 14.281426429748535
v -17.429759979248047 2.0789999961853027 14.281426429748535
v -18.361188888549805 5.7109999656677246 14.281426429748535
v -17.429759979248047 5.7109999656677246 14.281426429748535
v -17.429759979248047 3.8949999809265137 14.281426429748535
v -18.361188888549805 3.8949999809265137 14.281426429748535
v -17.429759979248047 2.0789999961853027 14.281426429748535
v -17.429759979248047 2.0789999961853027 12.57441520690918
v -17.429759979248047 5.7109999656677246 14.281426429748535
v -17.429759979248047 5.7109999656677246 12.57441520690918
v -17.429759979248047 3.8949999809265137 14.281426429748535
v -17.429759979248047 3.8949999809265137 12.57441520690918
v -17.429759979248047 2.0789999961853027 12.57441520690918
v -19.138818740844727 2.0789999961853027 12.57441520690918
v -17.429759979248047 5.7109999656677246 12.57441520690918
v -19.138818740844727 5.7109999656677246 12.57441520690918
v -17.429759979248047 3.8949999809265137 12.57441520690918
v -19.138818740844727 3.8949999809265137 12.57441520690918
v -19.138818740844727 2.0789999961853027 12.57441520690918
v -19.138818740844727 2.0789999961853027 22.344354629516602
v -19.138818740844727 5.7109999656677246 12.57441520690918
v -19.138818740844727 5.7109999656677246 22.344354629516602
v -19.138818740844727 5.7109999656677246 17.459384918212891
v -19.138818740844727 2.0789999961853027 17.459384918212891
v -19.138818740844727 3.8949999809265137 12.57441520690918
v -19.138818740844727 3.8949999809265137 22.344354629516602
v -19.138818740844727 2.0789999961853027 22.344354629516602
v -17.429759979248047 2.0789999961853027 22.344354629516602
v -19.138818740844727 5.7109999656677246 22.344354629516602
v -17.429759979248047 5.7109999656677246 22.344354629516602
v -19.138818740844727 3.8949999809265137 22.344354629516602
v -17.429759979248047 3.8949999809265137 22.344354629516602
v -17.429759979248047 2.0789999961853027 22.344354629516602
v -17.429759979248047 2.0789999961853027 17.028530120849609
v -17.429759979248047 5.7109999656677246 22.344354629516602
v -17.429759979248047 5.7109999656677246 17.028530120849609
v -17.429759979248047 5.7109999656677246 19.686443328857422
v -17.429759979248047 2.0789999961853027 19.686443328857422
v -17.429759979248047 3.8949999809265137 22.344354629516602
v -17.429759979248047 3.8949999809265137 17.028530120849609
v -17.429759979248047 2.0789999961853027 17.028530120849609
v -18.361188888549805 2.0789999961853027 17.028530120849609
v -17.429759979248047 5.7109999656677246 17.028530120849609
v -18.361188888549805 5.7109999656677246 17.028530120849609
v -17.429759979248047 3.8949999809265137 17.028530120849609
v -18.361188888549805 3.8949999809265137 17.028530120849609
v -18.361188888549805 2.0789999961853027 17.028530120849609
v -18.361188888549805 2.0789999961853027 14.281426429748535
v -18.361188888549805 5.7109999656677246 17.028530120849609
v -18.361188888549805 5.7109999656677246 14.281426429748535
v -18.361188888549805 5.7109999656677246 15.65497875213623
v -18.361188888549805 2.0789999961853027 15.65497875213623
v -18.361188888549805 3.8949999809265137 17.028530120849609
v -18.361188888549805 3.8949999809265137 14.281426429748535
v -17.429759979248047 5.7109999656677246 14.281426429748535
v -17.429759979248047 5.7109999656677246 12.57441520690918
v -18.361188888549805 5.7109999656677246 14.281426429748535
v -18.361188888549805 5.7109999656677246 17.028530120849609
v -18.361188888549805 5.7109999656677246 15.65497875213623
v -17.429759979248047 5.7109999656677246 17.028530120849609
v -17.429759979248047 5.7109999656677246 22.344354629516602
v -17.429759979248047 5.7109999656677246 19.686443328857422
v -19.138818740844727 5.7109999656677246 22.344354629516602
v -19.138818740844727 5.7109999656677246 12.57441520690918
v -19.138818740844727 5.7109999656677246 17.459384918212891
v -17.429759979248047 2.0789999961853027 14.281426429748535
v -18.361188888549805 2.0789999961853027 14.281426429748535
v -17.429759979248047 2.0789999961853027 12.57441520690918
v -19.138818740844727 2.0789999961853027 12.57441520690918
v -19.138818740844727 2.0789999961853027 22.344354629516602
v -19.138818740844727 2.0789999961853027 17.459384918212891
v -17.429759979248047 2.0789999961853027 22.344354629516602
v -17.429759979248047 2.0789999961853027 17.028530120849609
v -17.429759979248047 2.0789999961853027 19.686443328857422
v -18.361188888549805 2.0789999961853027 17.028530120849609
v -18.361188888549805 2.0789999961853027 15.65497875213623
vn 0 0 1
vn 0 0 1
vn 0 0 1
vn 0 0 1
vn 0 0 1
vn 0 0 1
vn 1 0 0
vn 1 0 0
vn 1 0 0
vn 1 0 0
vn 1 0 0
vn 1 0 0
vn 0 0 -1
vn 0 0 -1
vn 0 0 -1
vn 0 0 -1
vn 0 0 -1
vn 0 0 -1
vn -1 0 0
vn -1 0 0
vn -1 0 0
vn -1 0 0
vn -1 0 0
vn -1 0 0
vn -1 0 0
vn -1 0 0
vn 0 0 1
vn 0 0 1
vn 0 0 1
vn 0 0 1
vn 0 0 1
vn 0 0 1
vn 1 0 0
vn 1 0 0
vn 1 0 0
vn 1 0 0
vn 1 0 0
vn 1 0 0
vn 1 0 0
vn 1 0 0
vn 0 0 -1
vn 0 0 -1
vn 0 0 -1
vn 0 0 -1
vn 0 0 -1
vn 0 0 -1
vn 1 0 0
vn 1 0 0
vn 1 0 0
vn 1 0 0
vn 1 0 0
vn 1 0 0
vn 1 0 0
vn 1 0 0
vn 0 1 0
vn 0 1 0
vn 0 1 0
vn 0 1 0
vn 0 1 0
vn 0 1 0
vn 0 1 0
vn 0 1 0
vn 0 1 0
vn 0 1 0
vn 0 1 0
vn 0 -1 0
vn 0 -1 0
vn 0 -1 0
vn 0 -1 0
vn 0 -1 0
vn 0 -1 0
vn 0 -1 0
vn 0 -1 0
vn 0 -1 0
vn 0 -1 0
vn 0 -1 0
f 97//97 98//98 101//101 102//102
f 100//100 99//99 102//102 101//101
f 108//108 107//107 103//103 104//104
f 107//107 108//108 106//106 105//105
f 114//114 113//113 109//109 110//110
f 113//113 114//114 112//112 111//111
f 120//120 121//121 115//115
f 120//120 116//116 122//122
f 122//122 121//121 120//120
f 122//122 118//118 119//119 121//121
f 117//117 121//121 119//119
f 123//123 124//124 128//128 127//127
f 126//126 125//125 127//127 128//128
f 134//134 135//135 129//129
f 134//134 130//130 136//136
f 136//136 135//135 134//134
f 135//135 136//136 133//133
f 133//133 136//136 132//132
f 131//131 135//135 133//133
f 137//137 138//138 142//142 141//141
f 140//140 139//139 141//141 142//142
f 148//148 149//149 143//143
f 148//148 144//144 150//150
f 147//147 145//145 149//149 148//148
f 148//148 150//150 146//146 147//147
f 154//154 161//161 159//159
f 160//160 161//161 155//155 153//153
f 154//154 155//155 161//161
f 154//154 159//159 157//157
f 158//158 156//156 154//154
f 152//152 153//153 151//151
f 160//160 153//153 152//152
f 157//157 158//158 154//154
f 172//172 165//165 163//163
f 165//165 164//164 162//162 163//163
f 171//171 166//166 167//167
f 165//165 172//172 167//167
f 172//172 171//171 167//167
f 171//171 169//169 170//170
f 171//171 170//170 168//168
f 166//166 171//171 168//168
usemtl Default
v -18.361188888549805 0 14.281426429748535
v -17.429759979248047 0 14.281426429748535
v -18.361188888549805 2.0789999961853027 14.281426429748535
v -17.429759979248047 2.0789999961853027 14.281426429748535
v -17.429759979248047 1.0394999980926514 14.281426429748535
v -18.361188888549805 1.0394999980926514 14.281426429748535
v -17.429759979248047 0 14.281426429748535
v -17.429759979248047 0 12.57441520690918
v -17.429759979248047 2.0789999961853027 14.281426429748535
v -17.429759979248047 2.0789999961853027 12.57441520690918
v -17.429759979248047 1.0394999980926514 14.281426429748535
v -17.429759979248047 2.0789999961853027 13.427921295166016
v -17.429759979248047 0 13.427921295166016
v -17.429759979248047 1.0394999980926514 12.57441520690918
v -17.429759979248047 0 12.57441520690918
v -19.138818740844727 0 12.57441520690918
v -17.429759979248047 2.0789999961853027 12.57441520690918
v -19.138818740844727 2.0789999961853027 12.57441520690918
v -18.284290313720703 2.0789999961853027 12.57441520690918
v -18.284290313720703 0 12.57441520690918
v -17.429759979248047 1.0394999980926514 12.57441520690918
v -19.138818740844727 1.0394999980926514 12.57441520690918
v -19.138818740844727 0 12.57441520690918
v -19.138818740844727 0 18.412029266357422
v -19.138818740844727 2.0789999961853027 12.57441520690918
v -19.138818740844727 2.0789999961853027 18.412029266357422
v -19.138818740844727 2.0789999961853027 15.493222236633301
v -19.138818740844727 0 15.493222236633301
v -19.138818740844727 1.0394999980926514 12.57441520690918
v -19.138818740844727 1.0394999980926514 18.412029266357422
v -19.138818740844727 0 18.412029266357422
v -17.429759979248047 0 18.412029266357422
v -19.138818740844727 2.0789999961853027 18.412029266357422
v -17.429759979248047 2.0789999961853027 18.412029266357422
v -18.284290313720703 2.0789999961853027 18.412029266357422
v -18.284290313720703 0 18.412029266357422
v -19.138818740844727 1.0394999980926514 18.412029266357422
v -17.429759979248047 1.0394999980926514 18.412029266357422
v -17.429759979248047 0 18.412029266357422
v -17.429759979248047 0 17.028530120849609
v -17.429759979248047 2.0789999961853027 18.412029266357422
v -17.429759979248047 2.0789999961853027 17.028530120849609
v -17.429759979248047 1.0394999980926514 18.412029266357422
v -17.429759979248047 1.0394999980926514 17.028530120849609
v -17.429759979248047 0 17.028530120849609
v -18.361188888549805 0 17.028530120849609
v -17.429759979248047 2.0789999961853027 17.028530120849609
v -18.361188888549805 2.0789999961853027 17.028530120849609
v -17.429759979248047 1.0394999980926514 17.028530120849609
v -18.361188888549805 1.0394999980926514 17.028530120849609
v -18.361188888549805 0 17.028530120849609
v -18.361188888549805 0 14.281426429748535
v -18.361188888549805 2.0789999961853027 17.028530120849609
v -18.361188888549805 2.0789999961853027 14.281426429748535
v -18.361188888549805 2.0789999961853027 15.65497875213623
v -18.361188888549805 0 15.65497875213623
v -18.361188888549805 1.0394999980926514 17.028530120849609
v -18.361188888549805 1.0394999980926514 14.281426429748535
v -17.429759979248047 2.0789999961853027 14.281426429748535
v -17.429759979248047 2.0789999961853027 13.427921295166016
v -17.429759979248047 2.0789999961853027 12.57441520690918
v -18.361188888549805 2.0789999961853027 14.281426429748535
v -18.361188888549805 2.0789999961853027 17.028530120849609
v -18.361188888549805 2.0789999961853027 15.65497875213623
v -17.429759979248047 2.0789999961853027 17.028530120849609
v -17.429759979248047 2.0789999961853027 18.412029266357422
v -19.138818740844727 2.0789999961853027 18.412029266357422
v -18.284290313720703 2.0789999961853027 18.412029266357422
v -19.138818740844727 2.0789999961853027 12.57441520690918
v -19.138818740844727 2.0789999961853027 15.493222236633301
v -18.284290313720703 2.0789999961853027 12.57441520690918
v -17.429759979248047 0 14.281426429748535
v -18.361188888549805 0 14.281426429748535
v -17.429759979248047 0 12.57441520690918
v -17.429759979248047 0 13.427921295166016
v -19.138818740844727 0 12.57441520690918
v -18.284290313720703 0 12.57441520690918
v -19.138818740844727 0 18.412029266357422
v -19.138818740844727 0 15.493222236633301
v -17.429759979248047 0 18.412029266357422
v -18.284290313720703 0 18.412029266357422
v -17.429759979248047 0 17.028530120849609
v -18.361188888549805 0 17.028530120849609
v -18.361188888549805 0 15.65497875213623
vn 0 0 1
vn 0 0 1
vn 0 0 1
vn 0 0 1
vn 0 0 1
vn 0 0 1
vn 1 0 0
vn 1 0 0
vn 1 0 0
vn 1 0 0
vn 1 0 0
vn 1 0 0
vn 1 0 0
vn 1 0 0
vn 0 0 -1
vn 0 0 -1
vn 0 0 -1
vn 0 0 -1
vn 0 0 -1
vn 0 0 -1
vn 0 0 -1
vn 0 0 -1
vn -1 0 0
vn -1 0 0
vn -1 0 0
vn -1 0 0
vn -1 0 0
vn -1 0 0
vn -1 0 0
vn -1 0 0
vn 0 0 1
vn 0 0 1
vn 0 0 1
vn 0 0 1
vn 0 0 1
vn 0 0 1
vn 0 0 1
vn 0 0 1
vn 1 0 0
vn 1 0 0
vn 1 0 0
vn 1 0 0
vn 1 0 0
vn 1 0 0
vn 0 0 -1
vn 0 0 -1
vn 0 0 -1
vn 0 0 -1
vn 0 0 -1
vn 0 0 -1
vn 1 0 0
vn 1 0 0
vn 1 0 0
vn 1 0 0
vn 1 0 0
vn 1 0 0
vn 1 0 0
vn 1 0 0
vn 0 1 0
vn 0 1 0
vn 0 1 0
vn 0 1 0
vn 0 1 0
vn 0 1 0
vn 0 1 0
vn 0 1 0
vn 0 1 0
vn 0 1 0
vn 0 1 0
vn 0 1 0
vn 0 1 0
vn 0 -1 0
vn 0 -1 0
vn 0 -1 0
vn 0 -1 0
vn 0 -1 0
vn 0 -1 0
vn 0 -1 0
vn 0 -1 0
vn 0 -1 0
vn 0 -1 0
vn 0 -1 0
vn 0 -1 0
vn 0 -1 0
f 174//174 177//177 178//178 173//173
f 175//175 178//178 177//177 176//176
f 185//185 183//183 179//179
f 185//185 180//180 186//186
f 184//184 183//183 185//185
f 185//185 186//186 184//184
f 184//184 186//186 182//182
f 181//181 183//183 184//184
f 192//192 193//193 187//187
f 192//192 188//188 194//194
f 194//194 193//193 192//192
f 194//194 190//190 191//191 193//193
f 189//189 193//193 191//191
f 200//200 201//201 195//195
f 200//200 196//196 202//202
f 202//202 201//201 200//200
f 202//202 198//198 199//199 201//201
f 197//197 201//201 199//199
f 208//208 209//209 203//203
f 208//208 204//204 210//210
f 207//207 209//209 208//208
f 208//208 210//210 207//207
f 207//207 210//210 206//206
f 205//205 209//209 207//207
f 212//212 216//216 215//215 211//211
f 213//213 215//215 216//216 214//214
f 218//218 222//222 221//221 217//217
f 219//219 221//221 222//222 220//220
f 229//229 228//228 230//230
f 228//228 224//224 230//230
f 229//229 223//223 228//228
f 227//227 225//225 229//229
f 227//227 230//230 226//226
f 229//229 230//230 227//227
f 242//242 239//239 235//235 236//236
f 240//240 235//235 239//239
f 241//241 242//242 234//234
f 236//236 234//234 242//242
f 243//243 241//241 234//234
f 240//240 238//238 237//237 235//235
f 243//243 234//234 232//232
f 232//232 234//234 231//231
f 243//243 232//232 233//233
f 251//251 248//248 245//245
f 249//249 245//245 248//248
f 256//256 251//251 245//245
f 250//250 251//251 256//256 255//255
f 253//253 250//250 255//255
f 247//247 249//249 246//246
f 245//245 247//247 244//244
f 255//255 254//254 252//252 253//253
f 247//247 245//245 249//249
usemtl Default
v -17.429759979248047 5.7109999656677246 17.715732574462891
v -17.429759979248047 5.7109999656677246 17.028530120849609
v -17.429759979248047 8.4840002059936523 17.715732574462891
v -17.429759979248047 8.4840002059936523 17.028530120849609
v -17.429759979248047 7.0974998474121094 17.028530120849609
v -17.429759979248047 7.0974998474121094 17.715732574462891
v -17.429759979248047 5.7109999656677246 17.028530120849609
v -18.361188888549805 5.7109999656677246 17.028530120849609
v -17.429759979248047 8.4840002059936523 17.028530120849609
v -18.361188888549805 8.4840002059936523 17.028530120849609
v -17.429759979248047 7.0974998474121094 17.028530120849609
v -18.361188888549805 7.0974998474121094 17.028530120849609
v -18.361188888549805 5.7109999656677246 17.028530120849609
v -18.361188888549805 5.7109999656677246 14.281426429748535
v -18.361188888549805 8.4840002059936523 17.028530120849609
v -18.361188888549805 8.4840002059936523 14.281426429748535
v -18.361188888549805 8.4840002059936523 15.65497875213623
v -18.361188888549805 5.7109999656677246 15.65497875213623
v -18.361188888549805 7.0974998474121094 17.028530120849609
v -18.361188888549805 7.0974998474121094 14.281426429748535
v -18.361188888549805 5.7109999656677246 14.281426429748535
v -17.429759979248047 5.7109999656677246 14.281426429748535
v -18.361188888549805 8.4840002059936523 14.281426429748535
v -17.429759979248047 8.4840002059936523 14.281426429748535
v -18.361188888549805 7.0974998474121094 14.281426429748535
v -17.429759979248047 7.0974998474121094 14.281426429748535
v -17.429759979248047 5.7109999656677246 14.281426429748535
v -17.429759979248047 5.7109999656677246 12.57441520690918
v -17.429759979248047 8.4840002059936523 14.281426429748535
v -17.429759979248047 8.4840002059936523 12.57441520690918
v -17.429759979248047 7.0974998474121094 14.281426429748535
v -17.429759979248047 7.0974998474121094 12.57441520690918
v -17.429759979248047 5.7109999656677246 12.57441520690918
v -19.138818740844727 5.7109999656677246 12.57441520690918
v -17.429759979248047 8.4840002059936523 12.57441520690918
v -19.138818740844727 8.4840002059936523 12.57441520690918
v -17.429759979248047 7.0974998474121094 12.57441520690918
v -19.138818740844727 7.0974998474121094 12.57441520690918
v -19.138818740844727 5.7109999656677246 12.57441520690918
v -19.138818740844727 5.7109999656677246 20.980861663818359
v -19.138818740844727 8.4840002059936523 12.57441520690918
v -19.138818740844727 8.4840002059936523 20.980861663818359
v -19.138818740844727 8.4840002059936523 16.777639389038086
v -19.138818740844727 5.7109999656677246 16.777639389038086
v -19.138818740844727 7.0974998474121094 12.57441520690918
v -19.138818740844727 7.0974998474121094 20.980861663818359
v -19.138818740844727 5.7109999656677246 20.980861663818359
v -17.429759979248047 5.7109999656677246 20.980861663818359
v -19.138818740844727 8.4840002059936523 20.980861663818359
v -17.429759979248047 8.4840002059936523 20.980861663818359
v -19.138818740844727 7.0974998474121094 20.980861663818359
v -17.429759979248047 7.0974998474121094 20.980861663818359
v -17.429759979248047 5.7109999656677246 20.980861663818359
v -17.429759979248047 5.7109999656677246 19.857553482055664
v -17.429759979248047 8.4840002059936523 20.980861663818359
v -17.429759979248047 8.4840002059936523 19.857553482055664
v -17.429759979248047 7.0974998474121094 20.980861663818359
v -17.429759979248047 7.0974998474121094 19.857553482055664
v -17.429759979248047 5.7109999656677246 19.857553482055664
v -18.361188888549805 5.7109999656677246 19.857553482055664
v -17.429759979248047 8.4840002059936523 19.857553482055664
v -18.361188888549805 8.4840002059936523 19.857553482055664
v -17.429759979248047 7.0974998474121094 19.857553482055664
v -18.361188888549805 7.0974998474121094 19.857553482055664
v -18.361188888549805 5.7109999656677246 19.857553482055664
v -18.361188888549805 5.7109999656677246 17.715732574462891
v -18.361188888549805 8.4840002059936523 19.857553482055664
v -18.361188888549805 8.4840002059936523 17.715732574462891
v -18.361188888549805 8.4840002059936523 18.786642074584961
v -18.361188888549805 5.7109999656677246 18.786642074584961
v -18.361188888549805 7.0974998474121094 19.857553482055664
v -18.361188888549805 7.0974998474121094 17.715732574462891
v -18.361188888549805 5.7109999656677246 17.715732574462891
v -17.429759979248047 5.7109999656677246 17.715732574462891
v -18.361188888549805 8.4840002059936523 17.715732574462891
v -17.429759979248047 8.4840002059936523 17.715732574462891
v -18.361188888549805 7.0974998474121094 17.715732574462891
v -17.429759979248047 7.0974998474121094 17.715732574462891
v -17.429759979248047 8.4840002059936523 17.028530120849609
v -18.361188888549805 8.4840002059936523 17.028530120849609
v -17.429759979248047 8.4840002059936523 17.715732574462891
v -18.361188888549805 8.4840002059936523 17.715732574462891
v -18.361188888549805 8.4840002059936523 19.857553482055664
v -18.361188888549805 8.4840002059936523 18.786642074584961
v -17.429759979248047 8.4840002059936523 19.857553482055664
v -17.429759979248047 8.4840002059936523 20.980861663818359
v -19.138818740844727 8.4840002059936523 20.980861663818359
v -19.138818740844727 8.4840002059936523 12.57441520690918
v -19.138818740844727 8.4840002059936523 16.777639389038086
v -17.429759979248047 8.4840002059936523 12.57441520690918
v -17.429759979248047 8.4840002059936523 14.281426429748535
v -18.361188888549805 8.4840002059936523 14.281426429748535
v -18.361188888549805 8.4840002059936523 15.65497875213623
v -17.429759979248047 5.7109999656677246 17.028530120849609
v -17.429759979248047 5.7109999656677246 17.715732574462891
v -18.361188888549805 5.7109999656677246 17.028530120849609
v -18.361188888549805 5.7109999656677246 14.281426429748535
v -18.361188888549805 5.7109999656677246 15.65497875213623
v -17.429759979248047 5.7109999656677246 14.281426429748535
v -17.429759979248047 5.7109999656677246 12.57441520690918
v -19.138818740844727 5.7109999656677246 12.57441520690918
v -19.138818740844727 5.7109999656677246 20.980861663818359
v -19.138818740844727 5.7109999656677246 16.777639389038086
v -17.429759979248047 5.7109999656677246 20.980861663818359
v -17.429759979248047 5.7109999656677246 19.857553482055664
v -18.361188888549805 5.7109999656677246 19.857553482055664
v -18.361188888549805 5.7109999656677246 17.715732574462891
v -18.361188888549805 5.7109999656677246 18.786642074584961
vn 1 0 0
vn 1 0 0
vn 1 0 0
vn 1 0 0
vn 1 0 0
vn 1 0 0
vn 0 0 -1
vn 0 0 -1
vn 0 0 -1
vn 0 0 -1
vn 0 0 -1
vn 0 0 -1
vn 1 0 0
vn 1 0 0
vn 1 0 0
vn 1 0 0
vn 1 0 0
vn 1 0 0
vn 1 0 0
vn 1 0 0
vn 0 0 1
vn 0 0 1
vn 0 0 1
vn 0 0 1
vn 0 0 1
vn 0 0 1
vn 1 0 0
vn 1 0 0
vn 1 0 0
vn 1 0 0
vn 1 0 0
vn 1 0 0
vn 0 0 -1
vn 0 0 -1
vn 0 0 -1
vn 0 0 -1
vn 0 0 -1
vn 0 0 -1
vn -1 0 0
vn -1 0 0
vn -1 0 0
vn -1 0 0
vn -1 0 0
vn -1 0 0
vn -1 0 0
vn -1 0 0
vn 0 0 1
vn 0 0 1
vn 0 0 1
vn 0 0 1
vn 0 0 1
vn 0 0 1
vn 1 0 0
vn 1 0 0
vn 1 0 0
vn 1 0 0
vn 1 0 0
vn 1 0 0
vn 0 0 -1
vn 0 0 -1
vn 0 0 -1
vn 0 0 -1
vn 0 0 -1
vn 0 0 -1
vn 1 0 0
vn 1 0 0
vn 1 0 0
vn 1 0 0
vn 1 0 0
vn 1 0 0
vn 1 0 0
vn 1 0 0
vn 0 0 1
vn 0 0 1
vn 0 0 1
vn 0 0 1
vn 0 0 1
vn 0 0 1
vn 0 1 0
vn 0 1 0
vn 0 1 0
vn 0 1 0
vn 0 1 0
vn 0 1 0
vn 0 1 0
vn 0 1 0
vn 0 1 0
vn 0 1 0
vn 0 1 0
vn 0 1 0
vn 0 1 0
vn 0 1 0
vn 0 1 0
vn 0 -1 0
vn 0 -1 0
vn 0 -1 0
vn 0 -1 0
vn 0 -1 0
vn 0 -1 0
vn 0 -1 0
vn 0 -1 0
vn 0 -1 0
vn 0 -1 0
vn 0 -1 0
vn 0 -1 0
vn 0 -1 0
vn 0 -1 0
vn 0 -1 0
f 261//261 262//262 257//257 258//258
f 262//262 261//261 260//260 259//259
f 264//264 268//268 267//267 263//263
f 265//265 267//267 268//268 266//266
f 274//274 275//275 269//269
f 274//274 270//270 276//276
f 276//276 275//275 274//274
f 276//276 272//272 273//273 275//275
f 271//271 275//275 273//273
f 278//278 282//282 281//281 277//277
f 279//279 281//281 282//282 280//280
f 284//284 288//288 287//287 283//283
f 285//285 287//287 288//288 286//286
f 290//290 294//294 293//293 289//289
f 291//291 293//293 294//294 292//292
f 300//300 301//301 295//295
f 300//300 296//296 302//302
f 302//302 301//301 300//300
f 302//302 299//299 297//297 301//301
f 299//299 302//302 298//298
f 304//304 308//308 307//307 303//303
f 305//305 307//307 308//308 306//306
f 310//310 314//314 313//313 309//309
f 311//311 313//313 314//314 312//312
f 316//316 320//320 319//319 315//315
f 317//317 319//319 320//320 318//318
f 326//326 327//327 321//321
f 326//326 322//322 328//328
f 328//328 327//327 326//326
f 328//328 324//324 325//325 327//327
f 323//323 327//327 325//325
f 330//330 334//334 333//333 329//329
f 331//331 333//333 334//334 332//332
f 340//340 343//343 339//339
f 342//342 339//339 343//343
f 345//345 343//343 340//340
f 344//344 345//345 349//349 348//348
f 345//345 338//338 336//336
f 336//336 338//338 337//337 335//335
f 338//338 345//345 340//340
f 336//336 349//349 345//345
f 348//348 347//347 346//346
f 344//344 348//348 346//346
f 342//342 341//341 339//339
f 359//359 357//357 353//353 354//354
f 356//356 353//353 357//357
f 358//358 359//359 364//364 362//362
f 359//359 352//352 363//363
f 363//363 352//352 350//350 351//351
f 352//352 359//359 354//354
f 363//363 364//364 359//359
f 362//362 361//361 360//360
f 358//358 362//362 360//360
f 356//356 355//355 353//353
usemtl Default
v -19.13881825296485 0 24.436507843917198
v -17.429760756843024 0 24.436507843917198
v -17.429760756843024 0 18.412028505165281
v -19.13881825296485 0 18.412028505165281
cstype bspline
deg 1
curv 0 15.467073669747485 365 366 367 368 365
parm u 0 0 1.7090574961218259 7.7335368348737425 9.4425943309955684 15.467073669747485 15.467073669747485
end
usemtl Default
v -19.138818252964853 2.0790000000000002 24.436507843917198
v -17.429760756843024 2.0790000000000002 24.436507843917198
v -17.429760756843024 2.0790000000000002 22.344354925241262
v -19.138818252964853 2.0790000000000002 22.344354925241262
cstype bspline
deg 1
curv 0 7.6024208295955233 369 370 371 372 369
parm u 0 0 1.7090574961218259 3.8012104147977617 5.5102679109195876 7.6024208295955233 7.6024208295955233
end
usemtl Default
v -17.429760756843024 2.0790000000000002 14.281426301149295
v -17.429760756843024 2.0790000000000002 12.574415506895264
v -19.138818252964853 2.0790000000000002 12.574415506895264
v -19.138818252964853 2.0790000000000002 22.344354925241248
v -17.429760756843024 2.0790000000000002 22.344354925241248
v -17.429760756843024 2.0790000000000002 17.028530480511918
v -18.361188018655426 2.0790000000000002 17.028530480511918
v -18.361188018655426 2.0790000000000002 14.281426301149295
cstype bspline
deg 1
curv 0 24.820848352560432 373 374 375 376 377 378 379 380 373
parm u 0 0 1.7070107942540318 3.4160682903758612 13.186007708721846 14.895065204843675 20.210889649573005 21.142316911385407 23.88942109074803 24.820848352560432 24.820848352560432
end
usemtl Default
v -17.429760756843024 0 14.281426301149324
v -17.429760756843024 0 12.574415506895278
v -19.13881825296485 0 12.574415506895278
v -19.13881825296485 0 18.412028505165281
v -17.429760756843024 0 18.412028505165281
v -17.429760756843024 0 17.028530480511932
v -18.361188018655426 0 17.028530480511932
v -18.361188018655426 0 14.28142630114931
cstype bspline
deg 1
curv 0 16.956195512408478 381 382 383 384 385 386 387 388 381
parm u 0 0 1.707010794254046 3.4160682903758719 9.2536812886458755 10.962738784767701 12.34623680942105 13.277664071233453 16.024768250596075 16.956195512408478 16.956195512408478
end
usemtl Default
v -17.429760756843024 5.7110000000000003 17.028530480511947
v -18.361188018655426 5.7110000000000003 17.028530480511947
v -18.361188018655426 5.7110000000000012 14.281426301149295
v -17.429760756843024 5.7110000000000012 14.281426301149281
v -17.429760756843024 5.7110000000000012 12.574415506895264
v -19.13881825296485 5.7110000000000012 12.574415506895264
v -19.13881825296485 5.7110000000000012 20.980861562145861
v -17.429760756843024 5.7110000000000012 20.980861562145861
v -17.429760756843024 5.7110000000000012 19.857553591248262
v -18.361188018655426 5.7110000000000021 19.857553591248276
v -18.361188018655426 5.7110000000000021 17.71573206548176
v -17.429760756843024 5.7110000000000012 17.71573206548176
cstype bspline
deg 1
curv 0 23.956716149994442 389 390 391 392 393 394 395 396 397 398 399 400 389
parm u 0 0 0.93142726181240221 2.8245316189958913 3.7559588808082935 5.4629696750623111 7.172027171184137 15.578473226434735 17.287530722556561 18.41083869345416 19.342265955266562 21.484087481033079 22.415514742845481 23.956716149994442 23.956716149994442
end
