# Rhino

mtllib doors.mtl
usemtl Default
v -21.354529059593116 10.523999899291994 16.375715446902667
v -20.428528604881201 10.523999899291994 16.375715446902674
v -20.428528604881201 8.4840000000000018 16.375715446902674
v -21.354529059593116 8.4840000000000018 16.375715446902667
cstype bspline
deg 1
curv 0 5.932000708007811 1 2 3 4 1
parm u 0 0 0.92600045471191361 2.9660003540039055 3.8920008087158191 5.932000708007811 5.932000708007811
end
usemtl Default
v -19.071356468527764 10.523999899291994 16.375715446902667
v -19.997356923239678 10.523999899291994 16.375715446902674
v -19.997356923239678 8.4840000000000018 16.375715446902674
v -19.071356468527764 8.4840000000000018 16.375715446902667
cstype bspline
deg 1
curv 0 5.932000708007811 5 6 7 8 5
parm u 0 0 0.92600045471191361 2.9660003540039055 3.8920008087158191 5.932000708007811 5.932000708007811
end
usemtl Default
v -21.354529059593105 10.523999899291994 20.635207903909794
v -20.42852860488119 10.523999899291994 20.635207903909802
v -20.42852860488119 8.4840000000000018 20.635207903909802
v -21.354529059593105 8.4840000000000018 20.635207903909794
cstype bspline
deg 1
curv 0 5.932000708007811 9 10 11 12 9
parm u 0 0 0.92600045471191361 2.9660003540039055 3.8920008087158191 5.932000708007811 5.932000708007811
end
usemtl Default
v -19.071356468527753 10.523999899291994 20.635207903909794
v -19.997356923239668 10.523999899291994 20.635207903909802
v -19.997356923239668 8.4840000000000018 20.635207903909802
v -19.071356468527753 8.4840000000000018 20.635207903909794
cstype bspline
deg 1
curv 0 5.932000708007811 13 14 15 16 13
parm u 0 0 0.92600045471191361 2.9660003540039055 3.8920008087158191 5.932000708007811 5.932000708007811
end
usemtl Default
v -17.429760756843024 7.750999899291994 14.281426301149281
v -18.355761211554938 7.750999899291994 14.281426301149388
v -18.355761211554938 5.7110000000000012 14.281426301149388
v -17.429760756843024 5.7110000000000012 14.281426301149281
cstype bspline
deg 1
curv 0 5.932000708007811 17 18 19 20 17
parm u 0 0 0.92600045471191361 2.9660003540039055 3.8920008087158191 5.932000708007811 5.932000708007811
end
usemtl Default
v -17.997231957432174 7.7509998992919948 20.980861562145869
v -18.923232412144088 7.7509998992919948 20.980861562145876
v -18.923232412144088 5.711000000000003 20.980861562145876
v -17.997231957432174 5.711000000000003 20.980861562145869
cstype bspline
deg 1
curv 0 5.932000708007811 21 22 23 24 21
parm u 0 0 0.92600045471191361 2.9660003540039055 3.8920008087158191 5.932000708007811 5.932000708007811
end
usemtl Default
v -19.138818252964853 7.750999899291994 18.013866191898884
v -19.138818252964853 7.750999899291994 18.939866646610799
v -19.138818252964853 5.7110000000000012 18.939866646610799
v -19.138818252964853 5.7110000000000012 18.013866191898884
cstype bspline
deg 1
curv 0 5.932000708007811 25 26 27 28 25
parm u 0 0 0.92600045471191361 2.9660003540039055 3.8920008087158191 5.932000708007811 5.932000708007811
end
usemtl Default
v -21.124925861843703 7.7509998992919922 17.864741057796344
v -22.050926316555618 7.7509998992919922 17.864741057796351
v -22.050926316555618 5.7110000000000003 17.864741057796351
v -21.124925861843703 5.7110000000000003 17.864741057796344
cstype bspline
deg 1
curv 0 5.932000708007811 29 30 31 32 29
parm u 0 0 0.92600045471191361 2.9660003540039055 3.8920008087158191 5.932000708007811 5.932000708007811
end
usemtl Default
v -19.581291376818974 7.7509998992919922 17.864741057796344
v -20.507291831530889 7.7509998992919922 17.864741057796351
v -20.507291831530889 5.7110000000000003 17.864741057796351
v -19.581291376818974 5.7110000000000003 17.864741057796344
cstype bspline
deg 1
curv 0 5.932000708007811 33 34 35 36 33
parm u 0 0 0.92600045471191361 2.9660003540039055 3.8920008087158191 5.932000708007811 5.932000708007811
end
usemtl Default
v -21.124925861843707 7.7509998992919931 19.146182293016118
v -22.050926316555621 7.7509998992919931 19.146182293016125
v -22.050926316555621 5.7110000000000012 19.146182293016125
v -21.124925861843707 5.7110000000000012 19.146182293016118
cstype bspline
deg 1
curv 0 5.932000708007811 37 38 39 40 37
parm u 0 0 0.92600045471191361 2.9660003540039055 3.8920008087158191 5.932000708007811 5.932000708007811
end
usemtl Default
v -19.581291376818978 7.7509998992919931 19.146182293016118
v -20.507291831530893 7.7509998992919931 19.146182293016125
v -20.507291831530893 5.7110000000000012 19.146182293016125
v -19.581291376818978 5.7110000000000012 19.146182293016118
cstype bspline
deg 1
curv 0 5.932000708007811 41 42 43 44 41
parm u 0 0 0.92600045471191361 2.9660003540039055 3.8920008087158191 5.932000708007811 5.932000708007811
end
usemtl Default
v -19.138818252964853 7.750999899291994 23.019548086859764
v -19.138818252964853 7.750999899291994 22.09354763214785
v -19.138818252964853 5.7110000000000012 22.09354763214785
v -19.138818252964853 5.7110000000000012 23.019548086859764
cstype bspline
deg 1
curv 0 5.932000708007811 45 46 47 48 45
parm u 0 0 0.92600045471191361 2.9660003540039055 3.8920008087158191 5.932000708007811 5.932000708007811
end
usemtl Default
v -19.138818252964853 7.750999899291994 19.874729219014618
v -19.138818252964853 7.750999899291994 20.800729673726533
v -19.138818252964853 5.7110000000000012 20.800729673726533
v -19.138818252964853 5.7110000000000012 19.874729219014618
cstype bspline
deg 1
curv 0 5.932000708007811 49 50 51 52 49
parm u 0 0 0.92600045471191361 2.9660003540039055 3.8920008087158191 5.932000708007811 5.932000708007811
end
usemtl Default
v -19.13881825296485 7.750999899291994 17.040809704899736
v -19.13881825296485 7.750999899291994 16.114809250187822
v -19.13881825296485 5.7110000000000021 16.114809250187822
v -19.13881825296485 5.7110000000000021 17.040809704899736
cstype bspline
deg 1
curv 0 5.932000708007811 53 54 55 56 53
parm u 0 0 0.92600045471191361 2.9660003540039055 3.8920008087158191 5.932000708007811 5.932000708007811
end
usemtl Default
v -19.13881825296485 7.750999899291994 13.803124176271563
v -19.13881825296485 7.750999899291994 12.877123721559649
v -19.13881825296485 5.7110000000000021 12.877123721559649
v -19.13881825296485 5.7110000000000021 13.803124176271563
cstype bspline
deg 1
curv 0 5.932000708007811 57 58 59 60 57
parm u 0 0 0.92600045471191361 2.9660003540039055 3.8920008087158191 5.932000708007811 5.932000708007811
end
usemtl Default
v -17.429760756843024 4.1189998992919925 14.281426301149203
v -18.355761211554938 4.1189998992919925 14.28142630114931
v -18.355761211554938 2.0790000000000002 14.28142630114931
v -17.429760756843024 2.0790000000000002 14.281426301149203
cstype bspline
deg 1
curv 0 5.932000708007811 61 62 63 64 61
parm u 0 0 0.92600045471191361 2.9660003540039055 3.8920008087158191 5.932000708007811 5.932000708007811
end
usemtl Default
v -17.429760756843024 4.1189998992919925 17.028530480511826
v -18.355761211554938 4.1189998992919925 17.028530480511932
v -18.355761211554938 2.0790000000000006 17.028530480511932
v -17.429760756843024 2.0790000000000006 17.028530480511826
cstype bspline
deg 1
curv 0 5.932000708007811 65 66 67 68 65
parm u 0 0 0.92600045471191361 2.9660003540039055 3.8920008087158191 5.932000708007811 5.932000708007811
end
usemtl Default
v -17.70795751264534 4.1189998992919925 22.344354925241142
v -18.633957967357254 4.1189998992919925 22.344354925241248
v -18.633957967357254 2.0790000000000002 22.344354925241248
v -17.70795751264534 2.0790000000000002 22.344354925241142
cstype bspline
deg 1
curv 0 5.932000708007811 69 70 71 72 69
parm u 0 0 0.92600045471191361 2.9660003540039055 3.8920008087158191 5.932000708007811 5.932000708007811
end
usemtl Default
v -19.138818252964853 4.1189998992919925 19.874729219014618
v -19.138818252964853 4.1189998992919925 20.800729673726533
v -19.138818252964853 2.0790000000000002 20.800729673726533
v -19.138818252964853 2.0790000000000002 19.874729219014618
cstype bspline
deg 1
curv 0 5.932000708007811 73 74 75 76 73
parm u 0 0 0.92600045471191361 2.9660003540039055 3.8920008087158191 5.932000708007811 5.932000708007811
end
usemtl Default
v -19.13881825296485 4.1189998992919925 17.040809704899736
v -19.13881825296485 4.1189998992919925 16.114809250187822
v -19.13881825296485 2.0790000000000006 16.114809250187822
v -19.13881825296485 2.0790000000000006 17.040809704899736
cstype bspline
deg 1
curv 0 5.932000708007811 77 78 79 80 77
parm u 0 0 0.92600045471191361 2.9660003540039055 3.8920008087158191 5.932000708007811 5.932000708007811
end
usemtl Default
v -19.13881825296485 4.1189998992919925 13.803124176271563
v -19.13881825296485 4.1189998992919925 12.877123721559649
v -19.13881825296485 2.0790000000000006 12.877123721559649
v -19.13881825296485 2.0790000000000006 13.803124176271563
cstype bspline
deg 1
curv 0 5.932000708007811 81 82 83 84 81
parm u 0 0 0.92600045471191361 2.9660003540039055 3.8920008087158191 5.932000708007811 5.932000708007811
end
usemtl Default
v -17.828797199920608 2.0399998992920256 12.574415506895257
v -18.754797654632522 2.0399998992920256 12.574415506895264
v -18.754797654632522 0 12.574415506895264
v -17.828797199920608 0 12.574415506895257
cstype bspline
deg 1
curv 0 5.932000708007811 85 86 87 88 85
parm u 0 0 0.92600045471191361 2.9660003540039055 3.8920008087158191 5.932000708007811 5.932000708007811
end
usemtl Default
v -17.435187563943511 2.0399998992919888 17.028530480511925
v -18.361188018655426 2.0399998992919888 17.028530480511932
v -18.361188018655426 0 17.028530480511932
v -17.435187563943511 0 17.028530480511925
cstype bspline
deg 1
curv 0 5.932000708007811 89 90 91 92 89
parm u 0 0 0.92600045471191361 2.9660003540039055 3.8920008087158191 5.932000708007811 5.932000708007811
end
usemtl Default
v -17.435187563943511 2.0399998992919941 14.281426301149303
v -18.361188018655426 2.0399998992919941 14.28142630114931
v -18.361188018655426 0 14.28142630114931
v -17.435187563943511 0 14.281426301149303
cstype bspline
deg 1
curv 0 5.932000708007811 93 94 95 96 93
parm u 0 0 0.92600045471191361 2.9660003540039055 3.8920008087158191 5.932000708007811 5.932000708007811
end
usemtl Default
v -19.13881825296485 2.0399998992919919 12.877123721559649
v -19.13881825296485 2.0399998992919919 13.803124176271563
v -19.13881825296485 0 13.803124176271563
v -19.13881825296485 0 12.877123721559649
cstype bspline
deg 1
curv 0 5.932000708007811 97 98 99 100 97
parm u 0 0 0.92600045471191361 2.9660003540039055 3.8920008087158191 5.932000708007811 5.932000708007811
end
usemtl Default
v -19.13881825296485 2.0399998992919919 17.040809704899736
v -19.13881825296485 2.0399998992919919 16.114809250187822
v -19.13881825296485 0 16.114809250187822
v -19.13881825296485 0 17.040809704899736
cstype bspline
deg 1
curv 0 5.932000708007811 101 102 103 104 101
parm u 0 0 0.92600045471191361 2.9660003540039055 3.8920008087158191 5.932000708007811 5.932000708007811
end
usemtl Default
v -21.1249258618437 2.0399998992919919 17.340513727814386
v -22.050926316555614 2.0399998992919919 17.340513727814393
v -22.050926316555614 0 17.340513727814393
v -21.1249258618437 0 17.340513727814386
cstype bspline
deg 1
curv 0 5.932000708007811 105 106 107 108 105
parm u 0 0 0.92600045471191361 2.9660003540039055 3.8920008087158191 5.932000708007811 5.932000708007811
end
usemtl Default
v -21.1249258618437 2.0399998992919919 19.569016812600498
v -22.050926316555614 2.0399998992919919 19.569016812600506
v -22.050926316555614 0 19.569016812600506
v -21.1249258618437 0 19.569016812600498
cstype bspline
deg 1
curv 0 5.932000708007811 109 110 111 112 109
parm u 0 0 0.92600045471191361 2.9660003540039055 3.8920008087158191 5.932000708007811 5.932000708007811
end
usemtl Default
v -19.581291376818967 2.0399998992919919 17.340513727814386
v -20.507291831530882 2.0399998992919919 17.340513727814393
v -20.507291831530882 0 17.340513727814393
v -19.581291376818967 0 17.340513727814386
cstype bspline
deg 1
curv 0 5.932000708007811 113 114 115 116 113
parm u 0 0 0.92600045471191361 2.9660003540039055 3.8920008087158191 5.932000708007811 5.932000708007811
end
usemtl Default
v -19.581291376818971 2.0399998992919919 19.569016812600498
v -20.507291831530885 2.0399998992919919 19.569016812600506
v -20.507291831530885 0 19.569016812600506
v -19.581291376818971 0 19.569016812600498
cstype bspline
deg 1
curv 0 5.932000708007811 117 118 119 120 117
parm u 0 0 0.92600045471191361 2.9660003540039055 3.8920008087158191 5.932000708007811 5.932000708007811
end
usemtl Default
v -19.13881825296485 2.0399998992919919 19.874729219014618
v -19.13881825296485 2.0399998992919919 20.800729673726533
v -19.13881825296485 0 20.800729673726533
v -19.13881825296485 0 19.874729219014618
cstype bspline
deg 1
curv 0 5.932000708007811 121 122 123 124 121
parm u 0 0 0.92600045471191361 2.9660003540039055 3.8920008087158191 5.932000708007811 5.932000708007811
end
usemtl Default
v -19.133059769804298 2.0399998992919919 24.433503652167463
v -20.059060224516212 2.0399998992919919 24.43350365216747
v -20.059060224516212 0 24.43350365216747
v -19.133059769804298 0 24.433503652167463
cstype bspline
deg 1
curv 0 5.932000708007811 125 126 127 128 125
parm u 0 0 0.92600045471191361 2.9660003540039055 3.8920008087158191 5.932000708007811 5.932000708007811
end
usemtl Default
v -20.311941082371543 2.0399998992919919 24.736211866831855
v -20.311941082371543 2.0399998992919919 25.66221232154377
v -20.311941082371543 0 25.66221232154377
v -20.311941082371543 0 24.736211866831855
cstype bspline
deg 1
curv 0 5.932000708007811 129 130 131 132 129
parm u 0 0 0.92600045471191361 2.9660003540039055 3.8920008087158191 5.932000708007811 5.932000708007811
end
