# Rhino

mtllib garden.mtl
usemtl Default
v -22.996124267578125 0 2.6757221221923828
v -22.996124267578125 0 12.57441520690918
v -22.996124267578125 2.0789999961853027 2.6757221221923828
v -22.996124267578125 2.0789999961853027 12.57441520690918
v -22.996124267578125 2.0789999961853027 7.6250686645507812
v -22.996124267578125 0 7.6250686645507812
v -22.996124267578125 0 12.57441520690918
v -17.429759979248047 0 12.57441520690918
v -22.996124267578125 2.0789999961853027 12.57441520690918
v -17.429759979248047 2.0789999961853027 12.57441520690918
v -20.212942123413086 2.0789999961853027 12.57441520690918
v -20.212942123413086 0 12.57441520690918
v -17.429759979248047 0 12.57441520690918
v -17.429759979248047 0 2.6757221221923828
v -17.429759979248047 2.0789999961853027 12.57441520690918
v -17.429759979248047 2.0789999961853027 2.6757221221923828
v -17.429759979248047 2.0789999961853027 7.6250686645507812
v -17.429759979248047 0 7.6250686645507812
v -17.429759979248047 0 2.6757221221923828
v -22.996124267578125 0 2.6757221221923828
v -17.429759979248047 2.0789999961853027 2.6757221221923828
v -22.996124267578125 2.0789999961853027 2.6757221221923828
v -20.212942123413086 2.0789999961853027 2.6757221221923828
v -20.212942123413086 0 2.6757221221923828
v -22.996124267578125 2.0789999961853027 12.57441520690918
v -22.996124267578125 2.0789999961853027 2.6757221221923828
v -17.429759979248047 2.0789999961853027 12.57441520690918
v -17.429759979248047 2.0789999961853027 2.6757221221923828
v -20.212942123413086 2.0789999961853027 12.57441520690918
v -22.996124267578125 2.0789999961853027 7.6250686645507812
v -20.212942123413086 2.0789999961853027 2.6757221221923828
v -17.429759979248047 2.0789999961853027 7.6250686645507812
v -22.996124267578125 0 2.6757221221923828
v -22.996124267578125 0 12.57441520690918
v -17.429759979248047 0 2.6757221221923828
v -17.429759979248047 0 12.57441520690918
v -22.996124267578125 0 7.6250686645507812
v -20.212942123413086 0 12.57441520690918
v -17.429759979248047 0 7.6250686645507812
v -20.212942123413086 0 2.6757221221923828
vn -1 0 0
vn -1 0 0
vn -1 0 0
vn -1 0 0
vn -1 0 0
vn -1 0 0
vn 0 0 1
vn 0 0 1
vn 0 0 1
vn 0 0 1
vn 0 0 1
vn 0 0 1
vn 1 0 0
vn 1 0 0
vn 1 0 0
vn 1 0 0
vn 1 0 0
vn 1 0 0
vn 0 0 -1
vn 0 0 -1
vn 0 0 -1
vn 0 0 -1
vn 0 0 -1
vn 0 0 -1
vn 0 1 0
vn 0 1 0
vn 0 1 0
vn 0 1 0
vn 0 1 0
vn 0 1 0
vn 0 1 0
vn 0 1 0
vn 0 -1 0
vn 0 -1 0
vn 0 -1 0
vn 0 -1 0
vn 0 -1 0
vn 0 -1 0
vn 0 -1 0
vn 0 -1 0
f 6//6 5//5 3//3 1//1
f 2//2 4//4 5//5 6//6
f 12//12 11//11 9//9 7//7
f 8//8 10//10 11//11 12//12
f 18//18 17//17 15//15 13//13
f 14//14 16//16 17//17 18//18
f 24//24 23//23 21//21 19//19
f 20//20 22//22 23//23 24//24
f 30//30 32//32 28//28 31//31
f 30//30 31//31 26//26
f 29//29 30//30 25//25
f 32//32 29//29 27//27
f 29//29 32//32 30//30
f 37//37 33//33 40//40
f 37//37 38//38 34//34
f 38//38 37//37 40//40
f 40//40 39//39 38//38
f 39//39 36//36 38//38
f 35//35 39//39 40//40
usemtl Default
v -22.996124771277842 0 12.574415506895276
v -17.429760756843024 0 12.574415506895278
v -17.429760756843027 0 2.6757222155268425
v -22.996124771277845 0 2.6757222155268412
cstype bspline
deg 1
curv 0 32.293042907529596 41 42 43 44 41
parm u 0 0 6.2478281623963623 16.146521453764798 22.394349616161161 32.293042907529596 32.293042907529596
end
