# Rhino

mtllib kitchen.mtl
usemtl Default
v -22.996124267578125 0 12.57441520690918
v -22.996124267578125 0 17.343517303466797
v -22.996124267578125 2.0789999961853027 12.57441520690918
v -22.996124267578125 2.0789999961853027 17.343517303466797
v -22.996124267578125 0 14.958966255187988
v -22.996124267578125 2.0789999961853027 14.958966255187988
v -22.996124267578125 0 17.343517303466797
v -19.138818740844727 0 17.343517303466797
v -22.996124267578125 2.0789999961853027 17.343517303466797
v -19.138818740844727 2.0789999961853027 17.343517303466797
v -21.067472457885742 2.0789999961853027 17.343517303466797
v -21.067472457885742 0 17.343517303466797
v -19.138818740844727 0 17.343517303466797
v -19.138818740844727 0 12.57441520690918
v -19.138818740844727 2.0789999961853027 17.343517303466797
v -19.138818740844727 2.0789999961853027 12.57441520690918
v -19.138818740844727 2.0789999961853027 14.958966255187988
v -19.138818740844727 0 14.958966255187988
v -19.138818740844727 0 12.57441520690918
v -22.996124267578125 0 12.57441520690918
v -19.138818740844727 2.0789999961853027 12.57441520690918
v -22.996124267578125 2.0789999961853027 12.57441520690918
v -21.067472457885742 2.0789999961853027 12.57441520690918
v -21.067472457885742 0 12.57441520690918
v -22.996124267578125 2.0789999961853027 17.343517303466797
v -22.996124267578125 2.0789999961853027 12.57441520690918
v -19.138818740844727 2.0789999961853027 17.343517303466797
v -19.138818740844727 2.0789999961853027 12.57441520690918
v -21.067472457885742 2.0789999961853027 17.343517303466797
v -22.996124267578125 2.0789999961853027 14.958966255187988
v -21.067472457885742 2.0789999961853027 12.57441520690918
v -19.138818740844727 2.0789999961853027 14.958966255187988
v -22.996124267578125 0 12.57441520690918
v -22.996124267578125 0 17.343517303466797
v -19.138818740844727 0 12.57441520690918
v -19.138818740844727 0 17.343517303466797
v -22.996124267578125 0 14.958966255187988
v -21.067472457885742 0 17.343517303466797
v -19.138818740844727 0 14.958966255187988
v -21.067472457885742 0 12.57441520690918
vn -1 0 0
vn -1 0 0
vn -1 0 0
vn -1 0 0
vn -1 0 0
vn -1 0 0
vn 0 0 1
vn 0 0 1
vn 0 0 1
vn 0 0 1
vn 0 0 1
vn 0 0 1
vn 1 0 0
vn 1 0 0
vn 1 0 0
vn 1 0 0
vn 1 0 0
vn 1 0 0
vn 0 0 -1
vn 0 0 -1
vn 0 0 -1
vn 0 0 -1
vn 0 0 -1
vn 0 0 -1
vn 0 1 0
vn 0 1 0
vn 0 1 0
vn 0 1 0
vn 0 1 0
vn 0 1 0
vn 0 1 0
vn 0 1 0
vn 0 -1 0
vn 0 -1 0
vn 0 -1 0
vn 0 -1 0
vn 0 -1 0
vn 0 -1 0
vn 0 -1 0
vn 0 -1 0
f 5//5 6//6 3//3 1//1
f 2//2 4//4 6//6 5//5
f 12//12 11//11 9//9 7//7
f 8//8 10//10 11//11 12//12
f 18//18 17//17 15//15 13//13
f 14//14 16//16 17//17 18//18
f 24//24 23//23 21//21 19//19
f 20//20 22//22 23//23 24//24
f 30//30 25//25 29//29
f 30//30 31//31 26//26
f 32//32 30//30 29//29
f 30//30 32//32 31//31
f 32//32 28//28 31//31
f 27//27 32//32 29//29
f 37//37 33//33 40//40
f 37//37 38//38 34//34
f 39//39 37//37 40//40
f 37//37 39//39 38//38
f 39//39 36//36 38//38
f 35//35 39//39 40//40
usemtl Default
v -22.996124771277838 0 17.343517919564107
v -19.13881825296485 0 17.343517919564107
v -19.13881825296485 0 12.574415506895278
v -22.996124771277838 0 12.574415506895278
cstype bspline
deg 1
curv 0 17.252817861963635 41 42 43 44 41
parm u 0 0 3.8573065183129884 8.6264089309818175 12.483715449294806 17.252817861963635 17.252817861963635
end
