# Rhino

mtllib living room.mtl
usemtl Default
v -22.996124267578125 2.0789999961853027 12.57441520690918
v -22.996124267578125 2.0789999961853027 18.457769393920898
v -22.996124267578125 5.7109999656677246 12.57441520690918
v -22.996124267578125 5.7109999656677246 18.457769393920898
v -22.996124267578125 3.8949999809265137 18.457769393920898
v -22.996124267578125 2.0789999961853027 15.516092300415039
v -22.996124267578125 5.7109999656677246 15.516092300415039
v -22.996124267578125 3.8949999809265137 12.57441520690918
v -22.996124267578125 2.0789999961853027 18.457769393920898
v -19.138818740844727 2.0789999961853027 18.457769393920898
v -22.996124267578125 5.7109999656677246 18.457769393920898
v -19.138818740844727 5.7109999656677246 18.457769393920898
v -22.996124267578125 3.8949999809265137 18.457769393920898
v -21.067472457885742 5.7109999656677246 18.457769393920898
v -21.067472457885742 2.0789999961853027 18.457769393920898
v -19.138818740844727 3.8949999809265137 18.457769393920898
v -19.138818740844727 2.0789999961853027 18.457769393920898
v -19.138818740844727 2.0789999961853027 12.57441520690918
v -19.138818740844727 5.7109999656677246 18.457769393920898
v -19.138818740844727 5.7109999656677246 12.57441520690918
v -19.138818740844727 5.7109999656677246 15.516092300415039
v -19.138818740844727 2.0789999961853027 15.516092300415039
v -19.138818740844727 3.8949999809265137 18.457769393920898
v -19.138818740844727 3.8949999809265137 12.57441520690918
v -19.138818740844727 2.0789999961853027 12.57441520690918
v -22.996124267578125 2.0789999961853027 12.57441520690918
v -19.138818740844727 5.7109999656677246 12.57441520690918
v -22.996124267578125 5.7109999656677246 12.57441520690918
v -21.067472457885742 5.7109999656677246 12.57441520690918
v -21.067472457885742 2.0789999961853027 12.57441520690918
v -19.138818740844727 3.8949999809265137 12.57441520690918
v -22.996124267578125 3.8949999809265137 12.57441520690918
v -22.996124267578125 5.7109999656677246 18.457769393920898
v -22.996124267578125 5.7109999656677246 12.57441520690918
v -19.138818740844727 5.7109999656677246 18.457769393920898
v -19.138818740844727 5.7109999656677246 12.57441520690918
v -21.067472457885742 5.7109999656677246 18.457769393920898
v -22.996124267578125 5.7109999656677246 15.516092300415039
v -21.067472457885742 5.7109999656677246 12.57441520690918
v -19.138818740844727 5.7109999656677246 15.516092300415039
v -22.996124267578125 2.0789999961853027 12.57441520690918
v -22.996124267578125 2.0789999961853027 18.457769393920898
v -19.138818740844727 2.0789999961853027 12.57441520690918
v -19.138818740844727 2.0789999961853027 18.457769393920898
v -22.996124267578125 2.0789999961853027 15.516092300415039
v -21.067472457885742 2.0789999961853027 18.457769393920898
v -19.138818740844727 2.0789999961853027 15.516092300415039
v -21.067472457885742 2.0789999961853027 12.57441520690918
vn -1 0 0
vn -1 0 0
vn -1 0 0
vn -1 0 0
vn -1 0 0
vn -1 0 0
vn -1 0 0
vn -1 0 0
vn 0 0 1
vn 0 0 1
vn 0 0 1
vn 0 0 1
vn 0 0 1
vn 0 0 1
vn 0 0 1
vn 0 0 1
vn 1 0 0
vn 1 0 0
vn 1 0 0
vn 1 0 0
vn 1 0 0
vn 1 0 0
vn 1 0 0
vn 1 0 0
vn 0 0 -1
vn 0 0 -1
vn 0 0 -1
vn 0 0 -1
vn 0 0 -1
vn 0 0 -1
vn 0 0 -1
vn 0 0 -1
vn 0 1 0
vn 0 1 0
vn 0 1 0
vn 0 1 0
vn 0 1 0
vn 0 1 0
vn 0 1 0
vn 0 1 0
vn 0 -1 0
vn 0 -1 0
vn 0 -1 0
vn 0 -1 0
vn 0 -1 0
vn 0 -1 0
vn 0 -1 0
vn 0 -1 0
f 6//6 8//8 1//1
f 6//6 2//2 5//5
f 7//7 3//3 8//8 6//6
f 6//6 5//5 4//4 7//7
f 15//15 13//13 9//9
f 15//15 10//10 16//16
f 14//14 13//13 15//15
f 15//15 16//16 14//14
f 14//14 16//16 12//12
f 11//11 13//13 14//14
f 22//22 23//23 17//17
f 22//22 18//18 24//24
f 21//21 19//19 23//23 22//22
f 22//22 24//24 20//20 21//21
f 30//30 31//31 25//25
f 30//30 26//26 32//32
f 29//29 27//27 31//31 30//30
f 30//30 32//32 28//28 29//29
f 38//38 33//33 37//37
f 38//38 39//39 34//34
f 40//40 38//38 37//37 35//35
f 38//38 40//40 36//36 39//39
f 45//45 47//47 44//44 46//46
f 45//45 46//46 42//42
f 48//48 45//45 41//41
f 47//47 48//48 43//43
f 48//48 47//47 45//45
usemtl Default
v -22.996124267578125 2.0789999961853027 18.457769393920898
v -22.996124267578125 2.0789999961853027 24.436508178710938
v -22.996124267578125 5.7109999656677246 18.457769393920898
v -22.996124267578125 5.7109999656677246 24.436508178710938
v -22.996124267578125 3.8949999809265137 24.436508178710938
v -22.996124267578125 2.0789999961853027 21.447137832641602
v -22.996124267578125 5.7109999656677246 21.447137832641602
v -22.996124267578125 3.8949999809265137 18.457769393920898
v -22.996124267578125 2.0789999961853027 24.436508178710938
v -19.138818740844727 2.0789999961853027 24.436508178710938
v -22.996124267578125 5.7109999656677246 24.436508178710938
v -19.138818740844727 5.7109999656677246 24.436508178710938
v -22.996124267578125 3.8949999809265137 24.436508178710938
v -21.067472457885742 5.7109999656677246 24.436508178710938
v -21.067472457885742 2.0789999961853027 24.436508178710938
v -19.138818740844727 3.8949999809265137 24.436508178710938
v -19.138818740844727 2.0789999961853027 24.436508178710938
v -19.138818740844727 2.0789999961853027 18.457769393920898
v -19.138818740844727 5.7109999656677246 24.436508178710938
v -19.138818740844727 5.7109999656677246 18.457769393920898
v -19.138818740844727 5.7109999656677246 21.447137832641602
v -19.138818740844727 2.0789999961853027 21.447137832641602
v -19.138818740844727 3.8949999809265137 24.436508178710938
v -19.138818740844727 3.8949999809265137 18.457769393920898
v -19.138818740844727 2.0789999961853027 18.457769393920898
v -22.996124267578125 2.0789999961853027 18.457769393920898
v -19.138818740844727 5.7109999656677246 18.457769393920898
v -22.996124267578125 5.7109999656677246 18.457769393920898
v -21.067472457885742 5.7109999656677246 18.457769393920898
v -21.067472457885742 2.0789999961853027 18.457769393920898
v -19.138818740844727 3.8949999809265137 18.457769393920898
v -22.996124267578125 3.8949999809265137 18.457769393920898
v -22.996124267578125 5.7109999656677246 24.436508178710938
v -22.996124267578125 5.7109999656677246 18.457769393920898
v -19.138818740844727 5.7109999656677246 24.436508178710938
v -19.138818740844727 5.7109999656677246 18.457769393920898
v -21.067472457885742 5.7109999656677246 24.436508178710938
v -22.996124267578125 5.7109999656677246 21.447137832641602
v -21.067472457885742 5.7109999656677246 18.457769393920898
v -19.138818740844727 5.7109999656677246 21.447137832641602
v -22.996124267578125 2.0789999961853027 18.457769393920898
v -22.996124267578125 2.0789999961853027 24.436508178710938
v -19.138818740844727 2.0789999961853027 18.457769393920898
v -19.138818740844727 2.0789999961853027 24.436508178710938
v -22.996124267578125 2.0789999961853027 21.447137832641602
v -21.067472457885742 2.0789999961853027 24.436508178710938
v -19.138818740844727 2.0789999961853027 21.447137832641602
v -21.067472457885742 2.0789999961853027 18.457769393920898
vn -1 0 0
vn -1 0 0
vn -1 0 0
vn -1 0 0
vn -1 0 0
vn -1 0 0
vn -1 0 0
vn -1 0 0
vn 0 0 1
vn 0 0 1
vn 0 0 1
vn 0 0 1
vn 0 0 1
vn 0 0 1
vn 0 0 1
vn 0 0 1
vn 1 0 0
vn 1 0 0
vn 1 0 0
vn 1 0 0
vn 1 0 0
vn 1 0 0
vn 1 0 0
vn 1 0 0
vn 0 0 -1
vn 0 0 -1
vn 0 0 -1
vn 0 0 -1
vn 0 0 -1
vn 0 0 -1
vn 0 0 -1
vn 0 0 -1
vn 0 1 0
vn 0 1 0
vn 0 1 0
vn 0 1 0
vn 0 1 0
vn 0 1 0
vn 0 1 0
vn 0 1 0
vn 0 -1 0
vn 0 -1 0
vn 0 -1 0
vn 0 -1 0
vn 0 -1 0
vn 0 -1 0
vn 0 -1 0
vn 0 -1 0
f 54//54 56//56 49//49
f 54//54 50//50 53//53
f 55//55 51//51 56//56 54//54
f 54//54 53//53 52//52 55//55
f 63//63 64//64 60//60 62//62
f 63//63 58//58 64//64
f 61//61 57//57 63//63
f 62//62 59//59 61//61
f 61//61 63//63 62//62
f 70//70 71//71 65//65
f 70//70 66//66 72//72
f 69//69 67//67 71//71 70//70
f 70//70 72//72 68//68 69//69
f 78//78 79//79 73//73
f 78//78 74//74 80//80
f 77//77 75//75 79//79 78//78
f 78//78 80//80 76//76 77//77
f 86//86 81//81 85//85
f 86//86 87//87 82//82
f 87//87 86//86 85//85
f 87//87 85//85 88//88 84//84
f 83//83 88//88 85//85
f 93//93 89//89 96//96
f 93//93 94//94 90//90
f 94//94 93//93 96//96
f 94//94 96//96 91//91 95//95
f 95//95 92//92 94//94
usemtl Default
v -22.996124771277842 2.0790000000000002 24.436507843917198
v -19.138818252964853 2.0790000000000002 24.436507843917198
v -19.138818252964853 2.0790000000000002 18.45776946195717
v -22.996124771277842 2.0790000000000002 18.45776946195717
cstype bspline
deg 1
curv 0 19.476110635593372 97 98 99 100 97
parm u 0 0 3.7135759790447693 9.738055317796686 13.451631296841455 19.476110635593372 19.476110635593372
end
usemtl Default
v -22.996124771277838 2.0790000000000002 18.45776946195717
v -19.138818252964853 2.0790000000000002 18.45776946195717
v -19.138818252964853 2.0790000000000002 12.574415506895278
v -22.996124771277838 2.0790000000000002 12.574415506895278
cstype bspline
deg 1
curv 0 19.476110635593372 101 102 103 104 101
parm u 0 0 3.7135759790447693 9.738055317796686 13.451631296841455 19.476110635593372 19.476110635593372
end
