# Rhino

mtllib stair.mtl
usemtl Default
v -18.361188888549805 0 14.281426429748535
v -18.361188888549805 0 17.028530120849609
v -18.361188888549805 8.4840002059936523 14.281426429748535
v -18.361188888549805 8.4840002059936523 17.028530120849609
v -18.361188888549805 5.6560001373291016 17.028530120849609
v -18.361188888549805 2.8280000686645508 17.028530120849609
v -18.361188888549805 0 15.65497875213623
v -18.361188888549805 8.4840002059936523 15.65497875213623
v -18.361188888549805 2.8280000686645508 14.281426429748535
v -18.361188888549805 5.6560001373291016 14.281426429748535
v -18.361188888549805 0 17.028530120849609
v -17.429759979248047 0 17.028530120849609
v -18.361188888549805 8.4840002059936523 17.028530120849609
v -17.429759979248047 8.4840002059936523 17.028530120849609
v -18.361188888549805 2.8280000686645508 17.028530120849609
v -18.361188888549805 5.6560001373291016 17.028530120849609
v -17.429759979248047 5.6560001373291016 17.028530120849609
v -17.429759979248047 2.8280000686645508 17.028530120849609
v -17.429759979248047 0 17.028530120849609
v -17.429759979248047 0 14.281426429748535
v -17.429759979248047 8.4840002059936523 17.028530120849609
v -17.429759979248047 8.4840002059936523 14.281426429748535
v -17.429759979248047 8.4840002059936523 15.65497875213623
v -17.429759979248047 0 15.65497875213623
v -17.429759979248047 2.8280000686645508 17.028530120849609
v -17.429759979248047 5.6560001373291016 17.028530120849609
v -17.429759979248047 5.6560001373291016 14.281426429748535
v -17.429759979248047 2.8280000686645508 14.281426429748535
v -17.429759979248047 0 14.281426429748535
v -18.361188888549805 0 14.281426429748535
v -17.429759979248047 8.4840002059936523 14.281426429748535
v -18.361188888549805 8.4840002059936523 14.281426429748535
v -17.429759979248047 2.8280000686645508 14.281426429748535
v -17.429759979248047 5.6560001373291016 14.281426429748535
v -18.361188888549805 5.6560001373291016 14.281426429748535
v -18.361188888549805 2.8280000686645508 14.281426429748535
v -18.361188888549805 8.4840002059936523 17.028530120849609
v -18.361188888549805 8.4840002059936523 14.281426429748535
v -17.429759979248047 8.4840002059936523 17.028530120849609
v -17.429759979248047 8.4840002059936523 14.281426429748535
v -18.361188888549805 8.4840002059936523 15.65497875213623
v -17.429759979248047 8.4840002059936523 15.65497875213623
v -18.361188888549805 0 14.281426429748535
v -18.361188888549805 0 17.028530120849609
v -17.429759979248047 0 14.281426429748535
v -17.429759979248047 0 17.028530120849609
v -18.361188888549805 0 15.65497875213623
v -17.429759979248047 0 15.65497875213623
vn -1 0 0
vn -1 0 0
vn -1 0 0
vn -1 0 0
vn -1 0 0
vn -1 0 0
vn -1 0 0
vn -1 0 0
vn -1 0 0
vn -1 0 0
vn 0 0 1
vn 0 0 1
vn 0 0 1
vn 0 0 1
vn 0 0 1
vn 0 0 1
vn 0 0 1
vn 0 0 1
vn 1 0 0
vn 1 0 0
vn 1 0 0
vn 1 0 0
vn 1 0 0
vn 1 0 0
vn 1 0 0
vn 1 0 0
vn 1 0 0
vn 1 0 0
vn 0 0 -1
vn 0 0 -1
vn 0 0 -1
vn 0 0 -1
vn 0 0 -1
vn 0 0 -1
vn 0 0 -1
vn 0 0 -1
vn 0 1 0
vn 0 1 0
vn 0 1 0
vn 0 1 0
vn 0 1 0
vn 0 1 0
vn 0 -1 0
vn 0 -1 0
vn 0 -1 0
vn 0 -1 0
vn 0 -1 0
vn 0 -1 0
f 7//7 9//9 1//1
f 2//2 6//6 7//7
f 7//7 6//6 5//5
f 8//8 9//9 7//7
f 8//8 3//3 10//10
f 4//4 8//8 5//5
f 8//8 7//7 5//5
f 10//10 9//9 8//8
f 11//11 12//12 18//18 15//15
f 15//15 18//18 17//17 16//16
f 13//13 16//16 17//17 14//14
f 24//24 25//25 19//19
f 20//20 28//28 24//24
f 24//24 28//28 23//23
f 26//26 25//25 24//24
f 23//23 21//21 26//26
f 22//22 23//23 27//27
f 23//23 28//28 27//27
f 26//26 24//24 23//23
f 29//29 30//30 36//36 33//33
f 35//35 34//34 33//33 36//36
f 31//31 34//34 35//35 32//32
f 41//41 37//37 39//39 42//42
f 38//38 41//41 42//42 40//40
f 47//47 43//43 45//45 48//48
f 44//44 47//47 48//48 46//46
usemtl Default
v -18.361188888549805 5.7109999656677246 17.715732574462891
v -18.361188888549805 5.7109999656677246 19.857553482055664
v -18.361188888549805 12.345000267028809 17.715732574462891
v -18.361188888549805 12.345000267028809 19.857553482055664
v -18.361188888549805 10.1336669921875 19.857553482055664
v -18.361188888549805 7.9223332405090332 19.857553482055664
v -18.361188888549805 5.7109999656677246 18.786642074584961
v -18.361188888549805 12.345000267028809 18.786642074584961
v -18.361188888549805 7.9223332405090332 17.715732574462891
v -18.361188888549805 10.1336669921875 17.715732574462891
v -18.361188888549805 5.7109999656677246 19.857553482055664
v -17.429759979248047 5.7109999656677246 19.857553482055664
v -18.361188888549805 12.345000267028809 19.857553482055664
v -17.429759979248047 12.345000267028809 19.857553482055664
v -18.361188888549805 7.9223332405090332 19.857553482055664
v -18.361188888549805 10.1336669921875 19.857553482055664
v -17.429759979248047 10.1336669921875 19.857553482055664
v -17.429759979248047 7.9223332405090332 19.857553482055664
v -17.429759979248047 5.7109999656677246 19.857553482055664
v -17.429759979248047 5.7109999656677246 17.715732574462891
v -17.429759979248047 12.345000267028809 19.857553482055664
v -17.429759979248047 12.345000267028809 17.715732574462891
v -17.429759979248047 12.345000267028809 18.786642074584961
v -17.429759979248047 5.7109999656677246 18.786642074584961
v -17.429759979248047 7.9223332405090332 19.857553482055664
v -17.429759979248047 10.1336669921875 19.857553482055664
v -17.429759979248047 10.1336669921875 17.715732574462891
v -17.429759979248047 7.9223332405090332 17.715732574462891
v -17.429759979248047 5.7109999656677246 17.715732574462891
v -18.361188888549805 5.7109999656677246 17.715732574462891
v -17.429759979248047 12.345000267028809 17.715732574462891
v -18.361188888549805 12.345000267028809 17.715732574462891
v -17.429759979248047 7.9223332405090332 17.715732574462891
v -17.429759979248047 10.1336669921875 17.715732574462891
v -18.361188888549805 10.1336669921875 17.715732574462891
v -18.361188888549805 7.9223332405090332 17.715732574462891
v -18.361188888549805 12.345000267028809 19.857553482055664
v -18.361188888549805 12.345000267028809 17.715732574462891
v -17.429759979248047 12.345000267028809 19.857553482055664
v -17.429759979248047 12.345000267028809 17.715732574462891
v -18.361188888549805 12.345000267028809 18.786642074584961
v -17.429759979248047 12.345000267028809 18.786642074584961
v -18.361188888549805 5.7109999656677246 17.715732574462891
v -18.361188888549805 5.7109999656677246 19.857553482055664
v -17.429759979248047 5.7109999656677246 17.715732574462891
v -17.429759979248047 5.7109999656677246 19.857553482055664
v -18.361188888549805 5.7109999656677246 18.786642074584961
v -17.429759979248047 5.7109999656677246 18.786642074584961
vn -1 0 0
vn -1 0 0
vn -1 0 0
vn -1 0 0
vn -1 0 0
vn -1 0 0
vn -1 0 0
vn -1 0 0
vn -1 0 0
vn -1 0 0
vn 0 0 1
vn 0 0 1
vn 0 0 1
vn 0 0 1
vn 0 0 1
vn 0 0 1
vn 0 0 1
vn 0 0 1
vn 1 0 0
vn 1 0 0
vn 1 0 0
vn 1 0 0
vn 1 0 0
vn 1 0 0
vn 1 0 0
vn 1 0 0
vn 1 0 0
vn 1 0 0
vn 0 0 -1
vn 0 0 -1
vn 0 0 -1
vn 0 0 -1
vn 0 0 -1
vn 0 0 -1
vn 0 0 -1
vn 0 0 -1
vn 0 1 0
vn 0 1 0
vn 0 1 0
vn 0 1 0
vn 0 1 0
vn 0 1 0
vn 0 -1 0
vn 0 -1 0
vn 0 -1 0
vn 0 -1 0
vn 0 -1 0
vn 0 -1 0
f 55//55 57//57 49//49
f 50//50 54//54 55//55
f 55//55 54//54 53//53 56//56
f 56//56 58//58 57//57 55//55
f 56//56 51//51 58//58
f 52//52 56//56 53//53
f 63//63 59//59 60//60 66//66
f 65//65 64//64 63//63 66//66
f 64//64 65//65 62//62 61//61
f 72//72 73//73 67//67
f 68//68 76//76 72//72
f 72//72 76//76 75//75 71//71
f 71//71 74//74 73//73 72//72
f 71//71 69//69 74//74
f 70//70 71//71 75//75
f 81//81 77//77 78//78 84//84
f 83//83 82//82 81//81 84//84
f 82//82 83//83 80//80 79//79
f 89//89 85//85 87//87 90//90
f 86//86 89//89 90//90 88//88
f 95//95 91//91 93//93 96//96
f 92//92 95//95 96//96 94//94
usemtl Default
v -18.361188018655426 5.7110000000000012 19.857553591248291
v -17.429760756843024 5.7110000000000012 19.857553591248291
v -17.429760756843024 5.7110000000000012 17.715732065481774
v -18.361188018655426 5.7110000000000012 17.715732065481774
cstype bspline
deg 1
curv 0 7.3570628823500499 97 98 99 100 97
parm u 0 0 0.93142726181240221 3.678531441175025 4.6099587029874272 7.3570628823500499 7.3570628823500499
end
usemtl Default
v -18.361188018655426 0 17.028530480511932
v -17.429760756843024 0 17.028530480511932
v -17.429760756843024 0 14.28142630114931
v -18.361188018655426 0 14.28142630114931
cstype bspline
deg 1
curv 0 7.3570628823500499 101 102 103 104 101
parm u 0 0 0.93142726181240221 3.678531441175025 4.6099587029874272 7.3570628823500499 7.3570628823500499
end
usemtl Default
v -18.361188018655426 8.4840000000000018 19.857553591248291
v -17.429760756843024 8.4840000000000018 19.857553591248291
v -17.429760756843024 8.4840000000000018 17.715732065481774
v -18.361188018655426 8.4840000000000018 17.715732065481774
cstype bspline
deg 1
curv 0 7.3570628823500499 105 106 107 108 105
parm u 0 0 0.93142726181240221 3.678531441175025 4.6099587029874272 7.3570628823500499 7.3570628823500499
end
