# Rhino

mtllib stoop.mtl
usemtl Default
v -22.996124267578125 0 24.436508178710938
v -22.996124267578125 0 26.824039459228516
v -22.996124267578125 2.0789999961853027 24.436508178710938
v -22.996124267578125 2.0789999961853027 26.824039459228516
v -22.996124267578125 1.0394999980926514 26.824039459228516
v -22.996124267578125 0 25.630273818969727
v -22.996124267578125 2.0789999961853027 25.630273818969727
v -22.996124267578125 1.0394999980926514 24.436508178710938
v -22.996124267578125 0 26.824039459228516
v -20.311941146850586 0 26.824039459228516
v -22.996124267578125 2.0789999961853027 26.824039459228516
v -20.311941146850586 2.0789999961853027 26.824039459228516
v -22.996124267578125 1.0394999980926514 26.824039459228516
v -21.654033660888672 2.0789999961853027 26.824039459228516
v -21.654033660888672 0 26.824039459228516
v -20.311941146850586 1.0394999980926514 26.824039459228516
v -20.311941146850586 0 26.824039459228516
v -20.311941146850586 0 24.436508178710938
v -20.311941146850586 2.0789999961853027 26.824039459228516
v -20.311941146850586 2.0789999961853027 24.436508178710938
v -20.311941146850586 2.0789999961853027 25.630273818969727
v -20.311941146850586 0 25.630273818969727
v -20.311941146850586 1.0394999980926514 26.824039459228516
v -20.311941146850586 1.0394999980926514 24.436508178710938
v -20.311941146850586 0 24.436508178710938
v -22.996124267578125 0 24.436508178710938
v -20.311941146850586 2.0789999961853027 24.436508178710938
v -22.996124267578125 2.0789999961853027 24.436508178710938
v -21.654033660888672 2.0789999961853027 24.436508178710938
v -21.654033660888672 0 24.436508178710938
v -20.311941146850586 1.0394999980926514 24.436508178710938
v -22.996124267578125 1.0394999980926514 24.436508178710938
v -22.996124267578125 2.0789999961853027 26.824039459228516
v -22.996124267578125 2.0789999961853027 24.436508178710938
v -20.311941146850586 2.0789999961853027 26.824039459228516
v -20.311941146850586 2.0789999961853027 24.436508178710938
v -21.654033660888672 2.0789999961853027 26.824039459228516
v -22.996124267578125 2.0789999961853027 25.630273818969727
v -21.654033660888672 2.0789999961853027 24.436508178710938
v -20.311941146850586 2.0789999961853027 25.630273818969727
v -22.996124267578125 0 24.436508178710938
v -22.996124267578125 0 26.824039459228516
v -20.311941146850586 0 24.436508178710938
v -20.311941146850586 0 26.824039459228516
v -22.996124267578125 0 25.630273818969727
v -21.654033660888672 0 26.824039459228516
v -20.311941146850586 0 25.630273818969727
v -21.654033660888672 0 24.436508178710938
vn -1 0 0
vn -1 0 0
vn -1 0 0
vn -1 0 0
vn -1 0 0
vn -1 0 0
vn -1 0 0
vn -1 0 0
vn 0 0 1
vn 0 0 1
vn 0 0 1
vn 0 0 1
vn 0 0 1
vn 0 0 1
vn 0 0 1
vn 0 0 1
vn 1 0 0
vn 1 0 0
vn 1 0 0
vn 1 0 0
vn 1 0 0
vn 1 0 0
vn 1 0 0
vn 1 0 0
vn 0 0 -1
vn 0 0 -1
vn 0 0 -1
vn 0 0 -1
vn 0 0 -1
vn 0 0 -1
vn 0 0 -1
vn 0 0 -1
vn 0 1 0
vn 0 1 0
vn 0 1 0
vn 0 1 0
vn 0 1 0
vn 0 1 0
vn 0 1 0
vn 0 1 0
vn 0 -1 0
vn 0 -1 0
vn 0 -1 0
vn 0 -1 0
vn 0 -1 0
vn 0 -1 0
vn 0 -1 0
vn 0 -1 0
f 6//6 8//8 1//1
f 6//6 2//2 5//5
f 7//7 8//8 6//6
f 6//6 5//5 7//7
f 7//7 5//5 4//4
f 3//3 8//8 7//7
f 15//15 13//13 9//9
f 15//15 10//10 16//16
f 16//16 13//13 15//15
f 16//16 12//12 14//14 13//13
f 11//11 13//13 14//14
f 22//22 23//23 17//17
f 22//22 18//18 24//24
f 21//21 23//23 22//22
f 22//22 24//24 21//21
f 21//21 24//24 20//20
f 19//19 23//23 21//21
f 30//30 31//31 25//25
f 30//30 26//26 32//32
f 32//32 31//31 30//30
f 32//32 29//29 27//27 31//31
f 29//29 32//32 28//28
f 38//38 33//33 37//37
f 38//38 39//39 34//34
f 39//39 38//38 37//37
f 37//37 40//40 39//39
f 40//40 36//36 39//39
f 35//35 40//40 37//37
f 45//45 41//41 48//48
f 45//45 46//46 42//42
f 46//46 45//45 48//48
f 48//48 47//47 46//46
f 47//47 44//44 46//46
f 43//43 47//47 48//48
usemtl Default
v -20.311941146850586 0 24.433504104614258
v -20.311481475830078 0 26.824039459228516
v -20.311941146850586 2.0789999961853027 24.433504104614258
v -20.311481475830078 2.0789999961853027 26.824039459228516
v -20.311481475830078 1.0394999980926514 26.824039459228516
v -20.311710357666016 0 25.62877082824707
v -20.311710357666016 2.0789999961853027 25.62877082824707
v -20.311941146850586 1.0394999980926514 24.433504104614258
v -20.311481475830078 0 26.824039459228516
v -17.429302215576172 0 26.824518203735352
v -20.311481475830078 2.0789999961853027 26.824039459228516
v -17.429302215576172 2.0789999961853027 26.824518203735352
v -20.311481475830078 1.0394999980926514 26.824039459228516
v -18.870391845703125 2.0789999961853027 26.824277877807617
v -18.870391845703125 0 26.824277877807617
v -17.429302215576172 1.0394999980926514 26.824518203735352
v -17.429302215576172 0 26.824518203735352
v -17.42976188659668 0 24.433980941772461
v -17.429302215576172 2.0789999961853027 26.824518203735352
v -17.42976188659668 2.0789999961853027 24.433980941772461
v -17.429533004760742 2.0789999961853027 25.629249572753906
v -17.429533004760742 0 25.629249572753906
v -17.429302215576172 1.0394999980926514 26.824518203735352
v -17.42976188659668 1.0394999980926514 24.433980941772461
v -17.42976188659668 0 24.433980941772461
v -20.311941146850586 0 24.433504104614258
v -17.42976188659668 2.0789999961853027 24.433980941772461
v -18.870851516723633 2.0789999961853027 24.433742523193359
v -20.311941146850586 2.0789999961853027 24.433504104614258
v -18.870851516723633 0 24.433742523193359
v -17.42976188659668 1.0394999980926514 24.433980941772461
v -20.311941146850586 1.0394999980926514 24.433504104614258
v -20.311481475830078 2.0789999961853027 26.824039459228516
v -18.870391845703125 2.0789999961853027 26.824277877807617
v -17.429302215576172 2.0789999961853027 26.824518203735352
v -20.311941146850586 2.0789999961853027 24.433504104614258
v -20.311710357666016 2.0789999961853027 25.62877082824707
v -17.42976188659668 2.0789999961853027 24.433980941772461
v -18.870851516723633 2.0789999961853027 24.433742523193359
v -17.429533004760742 2.0789999961853027 25.629249572753906
v -20.311481475830078 0 26.824039459228516
v -20.311710357666016 0 25.62877082824707
v -20.311941146850586 0 24.433504104614258
v -17.429302215576172 0 26.824518203735352
v -18.870391845703125 0 26.824277877807617
v -17.42976188659668 0 24.433980941772461
v -17.429533004760742 0 25.629249572753906
v -18.870851516723633 0 24.433742523193359
vn -1 0 0.00019226509903091937
vn -1 0 0.00019226509903091937
vn -1 0 0.00019226509903091937
vn -1 0 0.00019226509903091937
vn -1 0 0.00019226509903091937
vn -1 0 0.00019226509903091937
vn -1 0 0.00019226509903091937
vn -1 0 0.00019226509903091937
vn -0.00016586977289989591 0 1
vn -0.00016586977289989591 0 1
vn -0.00016586977289989591 0 1
vn -0.00016586977289989591 0 1
vn -0.00016586977289989591 0 1
vn -0.00016586977289989591 0 1
vn -0.00016586977289989591 0 1
vn -0.00016586977289989591 0 1
vn 1 0 -0.00019226509903091937
vn 1 0 -0.00019226509903091937
vn 1 0 -0.00019226509903091937
vn 1 0 -0.00019226509903091937
vn 1 0 -0.00019226509903091937
vn 1 0 -0.00019226509903091937
vn 1 0 -0.00019226509903091937
vn 1 0 -0.00019226509903091937
vn 0.00016586977289989591 0 -1
vn 0.00016586977289989591 0 -1
vn 0.00016586977289989591 0 -1
vn 0.00016586977289989591 0 -1
vn 0.00016586977289989591 0 -1
vn 0.00016586977289989591 0 -1
vn 0.00016586977289989591 0 -1
vn 0.00016586977289989591 0 -1
vn 0 1 0
vn 0 1 0
vn 0 1 0
vn 0 1 0
vn 0 1 0
vn 0 1 0
vn 0 1 0
vn 0 1 0
vn 0 -1 0
vn 0 -1 0
vn 0 -1 0
vn 0 -1 0
vn 0 -1 0
vn 0 -1 0
vn 0 -1 0
vn 0 -1 0
f 54//54 56//56 49//49
f 54//54 50//50 53//53
f 55//55 56//56 54//54
f 54//54 53//53 55//55
f 55//55 53//53 52//52
f 51//51 56//56 55//55
f 63//63 61//61 57//57
f 63//63 58//58 64//64
f 62//62 61//61 63//63
f 63//63 64//64 62//62
f 62//62 64//64 60//60
f 59//59 61//61 62//62
f 70//70 71//71 65//65
f 70//70 66//66 72//72
f 72//72 71//71 70//70
f 71//71 72//72 69//69
f 69//69 72//72 68//68
f 67//67 71//71 69//69
f 78//78 79//79 73//73
f 78//78 74//74 80//80
f 76//76 79//79 78//78
f 78//78 80//80 76//76
f 76//76 80//80 77//77
f 75//75 79//79 76//76
f 82//82 87//87 85//85
f 85//85 87//87 84//84
f 82//82 85//85 81//81
f 88//88 82//82 83//83
f 88//88 86//86 87//87
f 82//82 88//88 87//87
f 90//90 91//91 96//96
f 90//90 93//93 89//89
f 93//93 90//90 96//96
f 96//96 95//95 93//93
f 95//95 92//92 93//93
f 94//94 95//95 96//96
usemtl Default
v -20.311941146850586 2.0789999961853027 24.433504104614258
v -20.311941146850586 2.0789999961853027 26.824039459228516
v -20.311941146850586 5.7109999656677246 24.433504104614258
v -20.311941146850586 5.7109999656677246 26.824039459228516
v -20.311941146850586 3.8949999809265137 26.824039459228516
v -20.311941146850586 2.0789999961853027 25.62877082824707
v -20.311941146850586 5.7109999656677246 25.62877082824707
v -20.311941146850586 3.8949999809265137 24.433504104614258
v -20.311941146850586 2.0789999961853027 26.824039459228516
v -17.429759979248047 2.0789999961853027 26.824039459228516
v -20.311941146850586 5.7109999656677246 26.824039459228516
v -17.429759979248047 5.7109999656677246 26.824039459228516
v -20.311941146850586 3.8949999809265137 26.824039459228516
v -18.870851516723633 5.7109999656677246 26.824039459228516
v -18.870851516723633 2.0789999961853027 26.824039459228516
v -17.429759979248047 3.8949999809265137 26.824039459228516
v -17.429759979248047 2.0789999961853027 26.824039459228516
v -17.429759979248047 2.0789999961853027 24.433504104614258
v -17.429759979248047 5.7109999656677246 26.824039459228516
v -17.429759979248047 5.7109999656677246 24.433504104614258
v -17.429759979248047 5.7109999656677246 25.62877082824707
v -17.429759979248047 2.0789999961853027 25.62877082824707
v -17.429759979248047 3.8949999809265137 26.824039459228516
v -17.429759979248047 3.8949999809265137 24.433504104614258
v -17.429759979248047 2.0789999961853027 24.433504104614258
v -20.311941146850586 2.0789999961853027 24.433504104614258
v -17.429759979248047 5.7109999656677246 24.433504104614258
v -20.311941146850586 5.7109999656677246 24.433504104614258
v -18.870851516723633 5.7109999656677246 24.433504104614258
v -18.870851516723633 2.0789999961853027 24.433504104614258
v -17.429759979248047 3.8949999809265137 24.433504104614258
v -20.311941146850586 3.8949999809265137 24.433504104614258
v -20.311941146850586 5.7109999656677246 26.824039459228516
v -20.311941146850586 5.7109999656677246 24.433504104614258
v -17.429759979248047 5.7109999656677246 26.824039459228516
v -17.429759979248047 5.7109999656677246 24.433504104614258
v -18.870851516723633 5.7109999656677246 26.824039459228516
v -20.311941146850586 5.7109999656677246 25.62877082824707
v -18.870851516723633 5.7109999656677246 24.433504104614258
v -17.429759979248047 5.7109999656677246 25.62877082824707
v -20.311941146850586 2.0789999961853027 24.433504104614258
v -20.311941146850586 2.0789999961853027 26.824039459228516
v -17.429759979248047 2.0789999961853027 24.433504104614258
v -17.429759979248047 2.0789999961853027 26.824039459228516
v -20.311941146850586 2.0789999961853027 25.62877082824707
v -18.870851516723633 2.0789999961853027 26.824039459228516
v -17.429759979248047 2.0789999961853027 25.62877082824707
v -18.870851516723633 2.0789999961853027 24.433504104614258
vn -1 0 0
vn -1 0 0
vn -1 0 0
vn -1 0 0
vn -1 0 0
vn -1 0 0
vn -1 0 0
vn -1 0 0
vn 0 0 1
vn 0 0 1
vn 0 0 1
vn 0 0 1
vn 0 0 1
vn 0 0 1
vn 0 0 1
vn 0 0 1
vn 1 0 0
vn 1 0 0
vn 1 0 0
vn 1 0 0
vn 1 0 0
vn 1 0 0
vn 1 0 0
vn 1 0 0
vn 0 0 -1
vn 0 0 -1
vn 0 0 -1
vn 0 0 -1
vn 0 0 -1
vn 0 0 -1
vn 0 0 -1
vn 0 0 -1
vn 0 1 0
vn 0 1 0
vn 0 1 0
vn 0 1 0
vn 0 1 0
vn 0 1 0
vn 0 1 0
vn 0 1 0
vn 0 -1 0
vn 0 -1 0
vn 0 -1 0
vn 0 -1 0
vn 0 -1 0
vn 0 -1 0
vn 0 -1 0
vn 0 -1 0
f 104//104 102//102 101//101
f 102//102 98//98 101//101
f 104//104 97//97 102//102
f 103//103 99//99 104//104
f 103//103 101//101 100//100
f 104//104 101//101 103//103
f 111//111 109//109 105//105
f 111//111 106//106 112//112
f 112//112 109//109 111//111
f 109//109 112//112 110//110
f 110//110 112//112 108//108
f 107//107 109//109 110//110
f 119//119 118//118 120//120
f 118//118 114//114 120//120
f 119//119 113//113 118//118
f 117//117 115//115 119//119
f 117//117 120//120 116//116
f 119//119 120//120 117//117
f 126//126 127//127 121//121
f 126//126 122//122 128//128
f 128//128 127//127 126//126
f 127//127 128//128 125//125
f 125//125 128//128 124//124
f 123//123 127//127 125//125
f 134//134 129//129 133//133
f 134//134 135//135 130//130
f 136//136 134//134 133//133
f 134//134 136//136 135//135
f 136//136 132//132 135//135
f 131//131 136//136 133//133
f 143//143 142//142 141//141
f 141//141 142//142 138//138
f 144//144 141//141 137//137
f 143//143 144//144 139//139
f 143//143 140//140 142//142
f 144//144 143//143 141//141
usemtl Default
v -20.311941082371558 2.0790000000000002 26.824039227806338
v -17.429760756843041 2.0790000000000002 26.82403922780632
v -17.429760756843024 2.0790000000000002 24.433503652167452
v -20.31194108237154 2.0790000000000002 24.43350365216747
cstype bspline
deg 1
curv 0 11.20972056665892 145 146 147 148 145
parm u 0 0 2.4864954000408108 5.6048602833294598 8.0913556833702707 11.20972056665892 11.20972056665892
end
usemtl Default
v -20.311481465695856 0 26.824039783116685
v -17.429302295370928 0 26.824517849522184
v -17.429761912046612 0 24.433981718572969
v -20.31194108237154 0 24.43350365216747
cstype bspline
deg 1
curv 0 11.20972056665892 149 150 151 152 149
parm u 0 0 2.4864954000408108 5.6048602833294598 8.0913556833702707 11.20972056665892 11.20972056665892
end
