# Rhino

mtllib storage.mtl
usemtl Default
v -22.996124267578125 0 17.343517303466797
v -22.996124267578125 0 18.457769393920898
v -22.996124267578125 2.0789999961853027 17.343517303466797
v -22.996124267578125 2.0789999961853027 18.457769393920898
v -22.996124267578125 1.0394999980926514 18.457769393920898
v -22.996124267578125 1.0394999980926514 17.343517303466797
v -22.996124267578125 0 18.457769393920898
v -20.760171890258789 0 18.457769393920898
v -22.996124267578125 2.0789999961853027 18.457769393920898
v -20.760171890258789 2.0789999961853027 18.457769393920898
v -22.996124267578125 1.0394999980926514 18.457769393920898
v -21.878149032592773 2.0789999961853027 18.457769393920898
v -21.878149032592773 0 18.457769393920898
v -20.760171890258789 1.0394999980926514 18.457769393920898
v -20.760171890258789 0 18.457769393920898
v -20.760171890258789 0 17.343517303466797
v -20.760171890258789 2.0789999961853027 18.457769393920898
v -20.760171890258789 2.0789999961853027 17.343517303466797
v -20.760171890258789 1.0394999980926514 18.457769393920898
v -20.760171890258789 1.0394999980926514 17.343517303466797
v -20.760171890258789 0 17.343517303466797
v -22.996124267578125 0 17.343517303466797
v -20.760171890258789 2.0789999961853027 17.343517303466797
v -22.996124267578125 2.0789999961853027 17.343517303466797
v -21.878149032592773 2.0789999961853027 17.343517303466797
v -21.878149032592773 0 17.343517303466797
v -20.760171890258789 1.0394999980926514 17.343517303466797
v -22.996124267578125 1.0394999980926514 17.343517303466797
v -22.996124267578125 2.0789999961853027 18.457769393920898
v -22.996124267578125 2.0789999961853027 17.343517303466797
v -20.760171890258789 2.0789999961853027 18.457769393920898
v -20.760171890258789 2.0789999961853027 17.343517303466797
v -21.878149032592773 2.0789999961853027 18.457769393920898
v -21.878149032592773 2.0789999961853027 17.343517303466797
v -22.996124267578125 0 17.343517303466797
v -22.996124267578125 0 18.457769393920898
v -20.760171890258789 0 17.343517303466797
v -20.760171890258789 0 18.457769393920898
v -21.878149032592773 0 18.457769393920898
v -21.878149032592773 0 17.343517303466797
vn -1 0 0
vn -1 0 0
vn -1 0 0
vn -1 0 0
vn -1 0 0
vn -1 0 0
vn 0 0 1
vn 0 0 1
vn 0 0 1
vn 0 0 1
vn 0 0 1
vn 0 0 1
vn 0 0 1
vn 0 0 1
vn 1 0 0
vn 1 0 0
vn 1 0 0
vn 1 0 0
vn 1 0 0
vn 1 0 0
vn 0 0 -1
vn 0 0 -1
vn 0 0 -1
vn 0 0 -1
vn 0 0 -1
vn 0 0 -1
vn 0 0 -1
vn 0 0 -1
vn 0 1 0
vn 0 1 0
vn 0 1 0
vn 0 1 0
vn 0 1 0
vn 0 1 0
vn 0 -1 0
vn 0 -1 0
vn 0 -1 0
vn 0 -1 0
vn 0 -1 0
vn 0 -1 0
f 2//2 5//5 6//6 1//1
f 3//3 6//6 5//5 4//4
f 13//13 11//11 7//7
f 13//13 8//8 14//14
f 14//14 11//11 13//13
f 14//14 10//10 12//12 11//11
f 9//9 11//11 12//12
f 16//16 20//20 19//19 15//15
f 17//17 19//19 20//20 18//18
f 26//26 27//27 21//21
f 26//26 22//22 28//28
f 28//28 27//27 26//26
f 28//28 25//25 23//23 27//27
f 25//25 28//28 24//24
f 30//30 29//29 33//33 34//34
f 31//31 32//32 34//34 33//33
f 36//36 35//35 40//40 39//39
f 37//37 38//38 39//39 40//40
usemtl Default
v -22.996124267578125 0 18.457769393920898
v -22.996124267578125 0 19.572021484375
v -22.996124267578125 2.0789999961853027 18.457769393920898
v -22.996124267578125 2.0789999961853027 19.572021484375
v -22.996124267578125 1.0394999980926514 19.572021484375
v -22.996124267578125 1.0394999980926514 18.457769393920898
v -22.996124267578125 0 19.572021484375
v -20.760171890258789 0 19.572021484375
v -22.996124267578125 2.0789999961853027 19.572021484375
v -20.760171890258789 2.0789999961853027 19.572021484375
v -22.996124267578125 1.0394999980926514 19.572021484375
v -21.878149032592773 2.0789999961853027 19.572021484375
v -21.878149032592773 0 19.572021484375
v -20.760171890258789 1.0394999980926514 19.572021484375
v -20.760171890258789 0 19.572021484375
v -20.760171890258789 0 18.457769393920898
v -20.760171890258789 2.0789999961853027 19.572021484375
v -20.760171890258789 2.0789999961853027 18.457769393920898
v -20.760171890258789 1.0394999980926514 19.572021484375
v -20.760171890258789 1.0394999980926514 18.457769393920898
v -20.760171890258789 0 18.457769393920898
v -22.996124267578125 0 18.457769393920898
v -20.760171890258789 2.0789999961853027 18.457769393920898
v -22.996124267578125 2.0789999961853027 18.457769393920898
v -21.878149032592773 2.0789999961853027 18.457769393920898
v -21.878149032592773 0 18.457769393920898
v -20.760171890258789 1.0394999980926514 18.457769393920898
v -22.996124267578125 1.0394999980926514 18.457769393920898
v -22.996124267578125 2.0789999961853027 19.572021484375
v -22.996124267578125 2.0789999961853027 18.457769393920898
v -20.760171890258789 2.0789999961853027 19.572021484375
v -20.760171890258789 2.0789999961853027 18.457769393920898
v -21.878149032592773 2.0789999961853027 19.572021484375
v -21.878149032592773 2.0789999961853027 18.457769393920898
v -22.996124267578125 0 18.457769393920898
v -22.996124267578125 0 19.572021484375
v -20.760171890258789 0 18.457769393920898
v -20.760171890258789 0 19.572021484375
v -21.878149032592773 0 19.572021484375
v -21.878149032592773 0 18.457769393920898
vn -1 0 0
vn -1 0 0
vn -1 0 0
vn -1 0 0
vn -1 0 0
vn -1 0 0
vn 0 0 1
vn 0 0 1
vn 0 0 1
vn 0 0 1
vn 0 0 1
vn 0 0 1
vn 0 0 1
vn 0 0 1
vn 1 0 0
vn 1 0 0
vn 1 0 0
vn 1 0 0
vn 1 0 0
vn 1 0 0
vn 0 0 -1
vn 0 0 -1
vn 0 0 -1
vn 0 0 -1
vn 0 0 -1
vn 0 0 -1
vn 0 0 -1
vn 0 0 -1
vn 0 1 0
vn 0 1 0
vn 0 1 0
vn 0 1 0
vn 0 1 0
vn 0 1 0
vn 0 -1 0
vn 0 -1 0
vn 0 -1 0
vn 0 -1 0
vn 0 -1 0
vn 0 -1 0
f 42//42 45//45 46//46 41//41
f 43//43 46//46 45//45 44//44
f 53//53 51//51 47//47
f 53//53 48//48 54//54
f 54//54 51//51 53//53
f 54//54 50//50 52//52 51//51
f 49//49 51//51 52//52
f 56//56 60//60 59//59 55//55
f 57//57 59//59 60//60 58//58
f 66//66 67//67 61//61
f 66//66 62//62 68//68
f 68//68 67//67 66//66
f 68//68 65//65 63//63 67//67
f 65//65 68//68 64//64
f 70//70 69//69 73//73 74//74
f 71//71 72//72 74//74 73//73
f 76//76 75//75 80//80 79//79
f 77//77 78//78 79//79 80//80
usemtl Default
v -20.997182846069336 5.7109999656677246 17.864740371704102
v -20.997182846069336 5.7109999656677246 18.489450454711914
v -20.997182846069336 8.4840002059936523 17.864740371704102
v -20.997182846069336 8.4840002059936523 18.489450454711914
v -20.997182846069336 7.0974998474121094 18.489450454711914
v -20.997182846069336 7.0974998474121094 17.864740371704102
v -20.997182846069336 5.7109999656677246 18.489450454711914
v -19.641263961791992 5.7109999656677246 18.489450454711914
v -20.997182846069336 8.4840002059936523 18.489450454711914
v -19.641263961791992 8.4840002059936523 18.489450454711914
v -20.997182846069336 7.0974998474121094 18.489450454711914
v -20.319223403930664 8.4840002059936523 18.489450454711914
v -19.641263961791992 7.0974998474121094 18.489450454711914
v -20.319223403930664 5.7109999656677246 18.489450454711914
v -19.641263961791992 5.7109999656677246 18.489450454711914
v -19.641263961791992 5.7109999656677246 17.864740371704102
v -19.641263961791992 8.4840002059936523 18.489450454711914
v -19.641263961791992 8.4840002059936523 17.864740371704102
v -19.641263961791992 7.0974998474121094 17.864740371704102
v -19.641263961791992 7.0974998474121094 18.489450454711914
v -19.641263961791992 5.7109999656677246 17.864740371704102
v -20.997182846069336 5.7109999656677246 17.864740371704102
v -19.641263961791992 8.4840002059936523 17.864740371704102
v -20.997182846069336 8.4840002059936523 17.864740371704102
v -20.319223403930664 8.4840002059936523 17.864740371704102
v -20.997182846069336 7.0974998474121094 17.864740371704102
v -19.641263961791992 7.0974998474121094 17.864740371704102
v -20.319223403930664 5.7109999656677246 17.864740371704102
v -20.997182846069336 8.4840002059936523 18.489450454711914
v -20.997182846069336 8.4840002059936523 17.864740371704102
v -19.641263961791992 8.4840002059936523 18.489450454711914
v -19.641263961791992 8.4840002059936523 17.864740371704102
v -20.319223403930664 8.4840002059936523 18.489450454711914
v -20.319223403930664 8.4840002059936523 17.864740371704102
v -20.997182846069336 5.7109999656677246 17.864740371704102
v -20.997182846069336 5.7109999656677246 18.489450454711914
v -19.641263961791992 5.7109999656677246 17.864740371704102
v -19.641263961791992 5.7109999656677246 18.489450454711914
v -20.319223403930664 5.7109999656677246 18.489450454711914
v -20.319223403930664 5.7109999656677246 17.864740371704102
vn -1 0 0
vn -1 0 0
vn -1 0 0
vn -1 0 0
vn -1 0 0
vn -1 0 0
vn 0 0 1
vn 0 0 1
vn 0 0 1
vn 0 0 1
vn 0 0 1
vn 0 0 1
vn 0 0 1
vn 0 0 1
vn 1 0 0
vn 1 0 0
vn 1 0 0
vn 1 0 0
vn 1 0 0
vn 1 0 0
vn 0 0 -1
vn 0 0 -1
vn 0 0 -1
vn 0 0 -1
vn 0 0 -1
vn 0 0 -1
vn 0 0 -1
vn 0 0 -1
vn 0 1 0
vn 0 1 0
vn 0 1 0
vn 0 1 0
vn 0 1 0
vn 0 1 0
vn 0 -1 0
vn 0 -1 0
vn 0 -1 0
vn 0 -1 0
vn 0 -1 0
vn 0 -1 0
f 82//82 85//85 86//86 81//81
f 83//83 86//86 85//85 84//84
f 94//94 91//91 87//87
f 94//94 88//88 93//93
f 93//93 91//91 94//94
f 91//91 93//93 92//92
f 92//92 93//93 90//90
f 89//89 91//91 92//92
f 96//96 99//99 100//100 95//95
f 97//97 100//100 99//99 98//98
f 108//108 107//107 101//101
f 108//108 102//102 106//106
f 106//106 107//107 108//108
f 107//107 106//106 105//105
f 105//105 106//106 104//104
f 103//103 107//107 105//105
f 110//110 109//109 113//113 114//114
f 111//111 112//112 114//114 113//113
f 116//116 115//115 120//120 119//119
f 117//117 118//118 119//119 120//120
usemtl Default
v -20.997182846069336 5.7109999656677246 18.489450454711914
v -20.997182846069336 5.7109999656677246 19.146183013916016
v -20.997182846069336 8.4840002059936523 18.489450454711914
v -20.997182846069336 8.4840002059936523 19.146183013916016
v -20.997182846069336 7.0974998474121094 19.146183013916016
v -20.997182846069336 7.0974998474121094 18.489450454711914
v -20.997182846069336 5.7109999656677246 19.146183013916016
v -19.641263961791992 5.7109999656677246 19.146183013916016
v -20.997182846069336 8.4840002059936523 19.146183013916016
v -19.641263961791992 8.4840002059936523 19.146183013916016
v -20.997182846069336 7.0974998474121094 19.146183013916016
v -20.319223403930664 8.4840002059936523 19.146183013916016
v -19.641263961791992 7.0974998474121094 19.146183013916016
v -20.319223403930664 5.7109999656677246 19.146183013916016
v -19.641263961791992 5.7109999656677246 19.146183013916016
v -19.641263961791992 5.7109999656677246 18.489450454711914
v -19.641263961791992 8.4840002059936523 19.146183013916016
v -19.641263961791992 8.4840002059936523 18.489450454711914
v -19.641263961791992 7.0974998474121094 18.489450454711914
v -19.641263961791992 7.0974998474121094 19.146183013916016
v -19.641263961791992 5.7109999656677246 18.489450454711914
v -20.997182846069336 5.7109999656677246 18.489450454711914
v -19.641263961791992 8.4840002059936523 18.489450454711914
v -20.997182846069336 8.4840002059936523 18.489450454711914
v -20.319223403930664 8.4840002059936523 18.489450454711914
v -20.997182846069336 7.0974998474121094 18.489450454711914
v -19.641263961791992 7.0974998474121094 18.489450454711914
v -20.319223403930664 5.7109999656677246 18.489450454711914
v -20.997182846069336 8.4840002059936523 19.146183013916016
v -20.997182846069336 8.4840002059936523 18.489450454711914
v -19.641263961791992 8.4840002059936523 19.146183013916016
v -19.641263961791992 8.4840002059936523 18.489450454711914
v -20.319223403930664 8.4840002059936523 19.146183013916016
v -20.319223403930664 8.4840002059936523 18.489450454711914
v -20.997182846069336 5.7109999656677246 18.489450454711914
v -20.997182846069336 5.7109999656677246 19.146183013916016
v -19.641263961791992 5.7109999656677246 18.489450454711914
v -19.641263961791992 5.7109999656677246 19.146183013916016
v -20.319223403930664 5.7109999656677246 19.146183013916016
v -20.319223403930664 5.7109999656677246 18.489450454711914
vn -1 0 0
vn -1 0 0
vn -1 0 0
vn -1 0 0
vn -1 0 0
vn -1 0 0
vn 0 0 1
vn 0 0 1
vn 0 0 1
vn 0 0 1
vn 0 0 1
vn 0 0 1
vn 0 0 1
vn 0 0 1
vn 1 0 0
vn 1 0 0
vn 1 0 0
vn 1 0 0
vn 1 0 0
vn 1 0 0
vn 0 0 -1
vn 0 0 -1
vn 0 0 -1
vn 0 0 -1
vn 0 0 -1
vn 0 0 -1
vn 0 0 -1
vn 0 0 -1
vn 0 1 0
vn 0 1 0
vn 0 1 0
vn 0 1 0
vn 0 1 0
vn 0 1 0
vn 0 -1 0
vn 0 -1 0
vn 0 -1 0
vn 0 -1 0
vn 0 -1 0
vn 0 -1 0
f 122//122 125//125 126//126 121//121
f 123//123 126//126 125//125 124//124
f 134//134 131//131 127//127
f 134//134 128//128 133//133
f 133//133 131//131 134//134
f 131//131 133//133 132//132
f 132//132 133//133 130//130
f 129//129 131//131 132//132
f 136//136 139//139 140//140 135//135
f 137//137 140//140 139//139 138//138
f 148//148 147//147 141//141
f 148//148 142//142 146//146
f 146//146 147//147 148//148
f 147//147 146//146 145//145
f 145//145 146//146 144//144
f 143//143 147//147 145//145
f 150//150 149//149 153//153 154//154
f 151//151 152//152 154//154 153//153
f 156//156 155//155 160//160 159//159
f 157//157 158//158 159//159 160//160
usemtl Default
v -19.641263961791992 5.7109999656677246 17.864740371704102
v -19.641263961791992 5.7109999656677246 19.146183013916016
v -19.641263961791992 8.4840002059936523 17.864740371704102
v -19.641263961791992 8.4840002059936523 19.146183013916016
v -19.641263961791992 7.0974998474121094 19.146183013916016
v -19.641263961791992 5.7109999656677246 18.505460739135742
v -19.641263961791992 7.0974998474121094 17.864740371704102
v -19.641263961791992 8.4840002059936523 18.505460739135742
v -19.641263961791992 5.7109999656677246 19.146183013916016
v -19.138818740844727 5.7109999656677246 19.146183013916016
v -19.641263961791992 8.4840002059936523 19.146183013916016
v -19.138818740844727 8.4840002059936523 19.146183013916016
v -19.641263961791992 7.0974998474121094 19.146183013916016
v -19.138818740844727 7.0974998474121094 19.146183013916016
v -19.138818740844727 5.7109999656677246 19.146183013916016
v -19.138818740844727 5.7109999656677246 17.864740371704102
v -19.138818740844727 8.4840002059936523 19.146183013916016
v -19.138818740844727 8.4840002059936523 17.864740371704102
v -19.138818740844727 8.4840002059936523 18.505460739135742
v -19.138818740844727 7.0974998474121094 17.864740371704102
v -19.138818740844727 7.0974998474121094 19.146183013916016
v -19.138818740844727 5.7109999656677246 18.505460739135742
v -19.138818740844727 5.7109999656677246 17.864740371704102
v -19.641263961791992 5.7109999656677246 17.864740371704102
v -19.138818740844727 8.4840002059936523 17.864740371704102
v -19.641263961791992 8.4840002059936523 17.864740371704102
v -19.641263961791992 7.0974998474121094 17.864740371704102
v -19.138818740844727 7.0974998474121094 17.864740371704102
v -19.641263961791992 8.4840002059936523 19.146183013916016
v -19.641263961791992 8.4840002059936523 17.864740371704102
v -19.138818740844727 8.4840002059936523 19.146183013916016
v -19.138818740844727 8.4840002059936523 17.864740371704102
v -19.641263961791992 8.4840002059936523 18.505460739135742
v -19.138818740844727 8.4840002059936523 18.505460739135742
v -19.641263961791992 5.7109999656677246 17.864740371704102
v -19.641263961791992 5.7109999656677246 19.146183013916016
v -19.138818740844727 5.7109999656677246 17.864740371704102
v -19.138818740844727 5.7109999656677246 19.146183013916016
v -19.641263961791992 5.7109999656677246 18.505460739135742
v -19.138818740844727 5.7109999656677246 18.505460739135742
vn -1 0 0
vn -1 0 0
vn -1 0 0
vn -1 0 0
vn -1 0 0
vn -1 0 0
vn -1 0 0
vn -1 0 0
vn 0 0 1
vn 0 0 1
vn 0 0 1
vn 0 0 1
vn 0 0 1
vn 0 0 1
vn 1 0 0
vn 1 0 0
vn 1 0 0
vn 1 0 0
vn 1 0 0
vn 1 0 0
vn 1 0 0
vn 1 0 0
vn 0 0 -1
vn 0 0 -1
vn 0 0 -1
vn 0 0 -1
vn 0 0 -1
vn 0 0 -1
vn 0 1 0
vn 0 1 0
vn 0 1 0
vn 0 1 0
vn 0 1 0
vn 0 1 0
vn 0 -1 0
vn 0 -1 0
vn 0 -1 0
vn 0 -1 0
vn 0 -1 0
vn 0 -1 0
f 166//166 167//167 161//161
f 166//166 162//162 165//165
f 165//165 167//167 166//166
f 165//165 168//168 163//163 167//167
f 168//168 165//165 164//164
f 170//170 174//174 173//173 169//169
f 171//171 173//173 174//174 172//172
f 182//182 181//181 175//175
f 182//182 176//176 180//180
f 180//180 181//181 182//182
f 180//180 178//178 179//179 181//181
f 177//177 181//181 179//179
f 184//184 187//187 188//188 183//183
f 185//185 188//188 187//187 186//186
f 193//193 189//189 191//191 194//194
f 190//190 193//193 194//194 192//192
f 199//199 195//195 197//197 200//200
f 196//196 199//199 200//200 198//198
usemtl Default
v -22.996124771277838 0 19.572021004350219
v -20.760172689386213 0 19.572021004350219
v -20.760172689386213 0 18.45776946195717
v -22.996124771277838 0 18.45776946195717
cstype bspline
deg 1
curv 0 6.7004072485693484 201 202 203 204 201
parm u 0 0 2.2359520818916252 3.3502036242846742 5.5861557061762994 6.7004072485693484 6.7004072485693484
end
usemtl Default
v -22.996124771277838 0 18.45776946195717
v -20.760172689386213 0 18.45776946195717
v -20.760172689386213 0 17.343517919564107
v -22.996124771277838 0 17.343517919564107
cstype bspline
deg 1
curv 0 6.7004072485693769 205 206 207 208 205
parm u 0 0 2.2359520818916252 3.3502036242846884 5.5861557061763136 6.7004072485693769 6.7004072485693769
end
usemtl Default
v -20.997182230193594 5.7110000000000003 19.146182293016125
v -19.641263563045836 5.7110000000000003 19.146182293016125
v -19.641263563045836 5.7110000000000003 18.489449924174096
v -20.997182230193594 5.7110000000000003 18.489449924174096
cstype bspline
deg 1
curv 0 4.025302071979576 209 210 211 212 209
parm u 0 0 1.3559186671477592 2.012651035989788 3.3685697031375472 4.025302071979576 4.025302071979576
end
usemtl Default
v -20.997182230193594 5.7110000000000003 18.489449924174096
v -19.641263563045836 5.7110000000000003 18.489449924174096
v -19.641263563045836 5.7110000000000003 17.864741057796351
v -20.997182230193594 5.7110000000000003 17.864741057796351
cstype bspline
deg 1
curv 0 3.9612550670510078 213 214 215 216 213
parm u 0 0 1.3559186671477592 1.9806275335255039 3.3365462006732631 3.9612550670510078 3.9612550670510078
end
usemtl Default
v -19.641263563045836 5.7110000000000003 19.146182293016125
v -19.138818252964853 5.7110000000000003 19.146182293016125
v -19.138818252964853 5.7110000000000003 17.864741057796351
v -19.641263563045836 5.7110000000000003 17.864741057796351
cstype bspline
deg 1
curv 0 3.5677730906015137 217 218 219 220 217
parm u 0 0 0.50244531008098336 1.7838865453007569 2.2863318553817402 3.5677730906015137 3.5677730906015137
end
