# Rhino

mtllib window.mtl
usemtl Default
v -21.684896231620254 8.017246682739259 12.574415506895271
v -22.688196183173599 8.017246682739259 12.574415506895271
v -22.688196183173599 6.1706303283691408 12.574415506895271
v -21.684896231620254 6.1706303283691408 12.574415506895271
cstype bspline
deg 1
curv 0 5.6998326118469258 1 2 3 4 1
parm u 0 0 1.0032999515533449 2.8499163059234629 3.8532162574768076 5.6998326118469258 5.6998326118469258
end
usemtl Default
v -17.734560466163099 7.9421442901611332 12.574415506895271
v -18.737860417716444 7.9421442901611332 12.574415506895271
v -18.737860417716444 6.0955279357910159 12.574415506895271
v -17.734560466163099 6.0955279357910159 12.574415506895271
cstype bspline
deg 1
curv 0 5.699832611846924 5 6 7 8 5
parm u 0 0 1.0032999515533445 2.849916305923462 3.8532162574768067 5.699832611846924 5.699832611846924
end
usemtl Default
v -21.684896231620254 2.5390764129638672 12.574415506895271
v -21.684896231620254 5.2439595657348637 12.574415506895271
v -22.688196183173599 5.2439595657348637 12.574415506895271
v -22.688196183173599 2.5390764129638672 12.574415506895271
cstype bspline
deg 1
curv 0 7.4163662086486823 9 10 11 12 9
parm u 0 0 2.7048831527709964 3.7081831043243412 6.4130662570953376 7.4163662086486823 7.4163662086486823
end
usemtl Default
v -17.734560466163099 2.4639740203857423 12.574415506895271
v -17.734560466163099 5.1688571731567388 12.574415506895271
v -18.737860417716444 5.1688571731567388 12.574415506895271
v -18.737860417716444 2.4639740203857423 12.574415506895271
cstype bspline
deg 1
curv 0 7.4163662086486823 13 14 15 16 13
parm u 0 0 2.7048831527709964 3.7081831043243412 6.4130662570953376 7.4163662086486823 7.4163662086486823
end
usemtl Default
v -19.715760538833084 1.5285394031524659 12.574415506895271
v -20.719060526721417 1.5285394031524659 12.574415506895271
v -20.719060526721417 0.065589374041557319 12.574415506895271
v -19.715760538833084 0.065589374041557319 12.574415506895271
cstype bspline
deg 1
curv 0 4.9325000339984895 17 18 19 20 17
parm u 0 0 1.0032999878883362 2.4662500169992447 3.4695500048875809 4.9325000339984895 4.9325000339984895
end
usemtl Default
v -21.684896231620254 1.5285394031524659 12.574415506895271
v -22.688196183173599 1.5285394031524659 12.574415506895271
v -22.688196183173599 0.065589374041557319 12.574415506895271
v -21.684896231620254 0.065589374041557319 12.574415506895271
cstype bspline
deg 1
curv 0 4.9324999613285065 21 22 23 24 21
parm u 0 0 1.0032999515533449 2.4662499806642533 3.469549932217598 4.9324999613285065 4.9324999613285065
end
usemtl Default
v -21.696960466163095 6.010093034362793 24.436507843917198
v -21.696960466163095 8.017246682739259 24.436507843917198
v -22.700260417716439 8.017246682739259 24.436507843917198
v -22.700260417716439 6.010093034362793 24.436507843917198
cstype bspline
deg 1
curv 0 6.0209071998596215 25 26 27 28 25
parm u 0 0 2.007153648376466 3.0104535999298108 5.0176072483062768 6.0209071998596215 6.0209071998596215
end
usemtl Default
v -19.715760538833081 6.010093034362793 24.436507843917198
v -19.715760538833081 7.9421442901611332 24.436507843917198
v -20.719060526721414 7.9421442901611332 24.436507843917198
v -20.719060526721414 6.010093034362793 24.436507843917198
cstype bspline
deg 1
curv 0 5.8707024873733538 29 30 31 32 29
parm u 0 0 1.9320512557983403 2.9353512436866764 4.8674024994850171 5.8707024873733538 5.8707024873733538
end
usemtl Default
v -17.734560466163096 6.010093034362793 24.436507843917198
v -17.734560466163096 7.9421442901611332 24.436507843917198
v -18.737860417716441 7.9421442901611332 24.436507843917198
v -18.737860417716441 6.010093034362793 24.436507843917198
cstype bspline
deg 1
curv 0 5.87070241470337 33 34 35 36 33
parm u 0 0 1.9320512557983403 2.935351207351685 4.8674024631500252 5.87070241470337 5.87070241470337
end
usemtl Default
v -21.696960466163095 2.1441287178039552 24.436507843917198
v -21.696960466163095 4.9162621261596682 24.436507843917198
v -21.818460462729867 4.9576578552246096 24.436507843917198
v -21.943304150550304 4.9874885925292975 24.436507843917198
v -22.07039334084266 5.0054933074951178 24.436507843917198
v -22.198610514609751 5.0115121261596682 24.436507843917198
v -22.326827543036874 5.0054933074951178 24.436507843917198
v -22.453916733329233 4.9874885925292975 24.436507843917198
v -22.578760421149667 4.9576578552246096 24.436507843917198
v -22.700260417716439 4.9162621261596682 24.436507843917198
v -22.700260417716439 2.1441287178039552 24.436507843917198
cstype bspline
deg 1
curv 0 7.5744327425325597 37 38 39 40 41 42 43 44 45 46 47 37
parm u 0 0 2.772133408355713 2.9004917175941252 3.0288498855334791 3.1572081032297676 3.2855664680796552 3.4139246877494478 3.5422829054457363 3.6706410733850903 3.7989993826235025 6.571132790979215 7.5744327425325597 7.5744327425325597
end
usemtl Default
v -19.715760538833081 2.1441287178039552 24.436507843917198
v -19.715760538833081 4.9162621261596682 24.436507843917198
v -19.837260535399849 4.9576578552246096 24.436507843917198
v -19.962104223220287 4.9874885925292975 24.436507843917198
v -20.089193486182623 5.0054933074951178 24.436507843917198
v -20.217410532777251 5.0115121261596682 24.436507843917198
v -20.34562757482999 5.0054933074951178 24.436507843917198
v -20.472716860501706 4.9874885925292975 24.436507843917198
v -20.597560530154638 4.9576578552246096 24.436507843917198
v -20.719060526721414 4.9162621261596682 24.436507843917198
v -20.719060526721414 2.1441287178039552 24.436507843917198
cstype bspline
deg 1
curv 0 7.5744328141634352 48 49 50 51 52 53 54 55 56 57 58 48
parm u 0 0 2.772133408355713 2.9004917175941247 3.0288498855334787 3.1572081751812906 3.2855664129985946 3.4139246462790211 3.5422829584116844 3.6706411086809734 3.7989994179193851 6.5711328262750985 7.5744328141634352 7.5744328141634352
end
usemtl Default
v -20.719060526721414 0.065589374041557319 24.436507843917198
v -20.719060526721414 1.6206118354797363 24.436507843917198
v -20.597560530154638 1.6620074192047121 24.436507843917198
v -20.472716842334208 1.6918384471893311 24.436507843917198
v -20.345627652041848 1.709842726135254 24.436507843917198
v -20.217410623614725 1.7158618354797364 24.436507843917198
v -20.089193449847635 1.709842726135254 24.436507843917198
v -19.962104259555275 1.6918384471893311 24.436507843917198
v -19.837260571734845 1.6620074192047121 24.436507843917198
v -19.715760575168069 1.6206118354797363 24.436507843917198
v -19.715760575168069 0.065589374041557319 24.436507843917198
cstype bspline
deg 1
curv 0 5.1402107950050979 59 60 61 62 63 64 65 66 67 68 69 59
parm u 0 0 1.5550224614381789 1.6833807238043283 1.8117389592986868 1.9400971158355034 2.0684553491358364 2.1968137276162496 2.3251718841530664 2.4535301196474251 2.5818883820135743 4.1369108434517532 5.1402107950050979 5.1402107950050979
end
usemtl Default
v -22.700260417716439 0.065589374041557319 24.436507843917198
v -22.700260417716439 1.6206118354797363 24.436507843917198
v -22.578760421149667 1.6620074192047121 24.436507843917198
v -22.453916733329233 1.6918384471893311 24.436507843917198
v -22.326827543036874 1.709842726135254 24.436507843917198
v -22.198610514609751 1.7158618354797364 24.436507843917198
v -22.07039334084266 1.709842726135254 24.436507843917198
v -21.943304150550304 1.6918384471893311 24.436507843917198
v -21.818460462729867 1.6620074192047121 24.436507843917198
v -21.696960466163095 1.6206118354797363 24.436507843917198
v -21.696960466163095 0.065589374041557319 24.436507843917198
cstype bspline
deg 1
curv 0 5.1402107950050979 70 71 72 73 74 75 76 77 78 79 80 70
parm u 0 0 1.5550224614381789 1.6833807238043283 1.8117389592986868 1.9400971158355034 2.0684553491358364 2.1968137276162496 2.3251718841530664 2.4535301196474251 2.5818883820135743 4.1369108434517532 5.1402107950050979 5.1402107950050979
end
