# Rhino

g object_1
v 75 0 -21.5
v 75.5 0 -21.5
v 75 0 -22
v 75.5 0 -22
v 75 3 -21.5
v 75 3 -22
v 75.5 3 -22
v 75.5 3 -21.5
f 2 1 3 4
f 3 1 5 6
f 4 3 6 7
f 2 4 7 8
f 1 2 8 5
f 8 7 6 5
g object_2
v 98.5 0 -21.5
v 99 0 -21.5
v 98.5 0 -22
v 99 0 -22
v 98.5 3 -21.5
v 98.5 3 -22
v 99 3 -22
v 99 3 -21.5
f 10 9 11 12
f 11 9 13 14
f 12 11 14 15
f 10 12 15 16
f 9 10 16 13
f 16 15 14 13
g object_3
v 98.5 0 -6.5
v 99 0 -6.5
v 98.5 0 -7
v 99 0 -7
v 98.5 3 -6.5
v 98.5 3 -7
v 99 3 -7
v 99 3 -6.5
f 18 17 19 20
f 19 17 21 22
f 20 19 22 23
f 18 20 23 24
f 17 18 24 21
f 24 23 22 21
g object_4
v 98.5 0 17
v 99 0 17
v 98.5 0 16.5
v 99 0 16.5
v 98.5 3 17
v 98.5 3 16.5
v 99 3 16.5
v 99 3 17
f 26 25 27 28
f 27 25 29 30
f 28 27 30 31
f 26 28 31 32
f 25 26 32 29
f 32 31 30 29
g object_5
v 75 0 17
v 75.5 0 17
v 75 0 16.5
v 75.5 0 16.5
v 75 3 17
v 75 3 16.5
v 75.5 3 16.5
v 75.5 3 17
f 34 33 35 36
f 35 33 37 38
f 36 35 38 39
f 34 36 39 40
f 33 34 40 37
f 40 39 38 37
g object_6
v 85.5 0 -19
v 86 0 -19
v 85.5 0 -19.5
v 86 0 -19.5
v 85.5 3 -19
v 85.5 3 -19.5
v 86 3 -19.5
v 86 3 -19
f 42 41 43 44
f 43 41 45 46
f 44 43 46 47
f 42 44 47 48
f 41 42 48 45
f 48 47 46 45
g object_7
v 85.5 0 -30.5
v 86 0 -30.5
v 85.5 0 -31
v 86 0 -31
v 85.5 3 -30.5
v 85.5 3 -31
v 86 3 -31
v 86 3 -30.5
f 50 49 51 52
f 51 49 53 54
f 52 51 54 55
f 50 52 55 56
f 49 50 56 53
f 56 55 54 53
g object_8
v 98.5 0 -42.5
v 99 0 -42.5
v 98.5 0 -43
v 99 0 -43
v 98.5 3 -42.5
v 98.5 3 -43
v 99 3 -43
v 99 3 -42.5
f 58 57 59 60
f 59 57 61 62
f 60 59 62 63
f 58 60 63 64
f 57 58 64 61
f 64 63 62 61
g object_9
v 75 0 -42.5
v 75.5 0 -42.5
v 75 0 -43
v 75.5 0 -43
v 75 3 -42.5
v 75 3 -43
v 75.5 3 -43
v 75.5 3 -42.5
f 66 65 67 68
f 67 65 69 70
f 68 67 70 71
f 66 68 71 72
f 65 66 72 69
f 72 71 70 69
g object_10
v 75 0 -6.5
v 75.5 0 -6.5
v 75 0 -7
v 75.5 0 -7
v 75 3 -6.5
v 75 3 -7
v 75.5 3 -7
v 75.5 3 -6.5
f 74 73 75 76
f 75 73 77 78
f 76 75 78 79
f 74 76 79 80
f 73 74 80 77
f 80 79 78 77
g object_11
v 75 0 0
v 75.5 0 0
v 75 0 -0.5
v 75.5 0 -0.5
v 75 3 0
v 75 3 -0.5
v 75.5 3 -0.5
v 75.5 3 0
f 82 81 83 84
f 83 81 85 86
f 84 83 86 87
f 82 84 87 88
f 81 82 88 85
f 88 87 86 85
g object_12
v 59.5 0 -23.5
v 60 0 -23.5
v 59.5 0 -24
v 60 0 -24
v 59.5 3 -23.5
v 59.5 3 -24
v 60 3 -24
v 60 3 -23.5
f 90 89 91 92
f 91 89 93 94
f 92 91 94 95
f 90 92 95 96
f 89 90 96 93
f 96 95 94 93
g object_13
v 59.5 0 -16.5
v 60 0 -16.5
v 59.5 0 -17
v 60 0 -17
v 59.5 3 -16.5
v 59.5 3 -17
v 60 3 -17
v 60 3 -16.5
f 98 97 99 100
f 99 97 101 102
f 100 99 102 103
f 98 100 103 104
f 97 98 104 101
f 104 103 102 101
g object_14
v 59.5 0 -6.5
v 60 0 -6.5
v 59.5 0 -7
v 60 0 -7
v 59.5 3 -6.5
v 59.5 3 -7
v 60 3 -7
v 60 3 -6.5
f 106 105 107 108
f 107 105 109 110
f 108 107 110 111
f 106 108 111 112
f 105 106 112 109
f 112 111 110 109
g object_15
v 59.5 0 0
v 60 0 0
v 59.5 0 -0.5
v 60 0 -0.5
v 59.5 3 0
v 59.5 3 -0.5
v 60 3 -0.5
v 60 3 0
f 114 113 115 116
f 115 113 117 118
f 116 115 118 119
f 114 116 119 120
f 113 114 120 117
f 120 119 118 117
g object_16
v 34.5 0 -23.5
v 35 0 -23.5
v 34.5 0 -24
v 35 0 -24
v 34.5 3 -23.5
v 34.5 3 -24
v 35 3 -24
v 35 3 -23.5
f 122 121 123 124
f 123 121 125 126
f 124 123 126 127
f 122 124 127 128
f 121 122 128 125
f 128 127 126 125
g object_17
v 34.5 0 -16.5
v 35 0 -16.5
v 34.5 0 -17
v 35 0 -17
v 34.5 3 -16.5
v 34.5 3 -17
v 35 3 -17
v 35 3 -16.5
f 130 129 131 132
f 131 129 133 134
f 132 131 134 135
f 130 132 135 136
f 129 130 136 133
f 136 135 134 133
g object_18
v 34.5 0 -6.5
v 35 0 -6.5
v 34.5 0 -7
v 35 0 -7
v 34.5 3 -6.5
v 34.5 3 -7
v 35 3 -7
v 35 3 -6.5
f 138 137 139 140
f 139 137 141 142
f 140 139 142 143
f 138 140 143 144
f 137 138 144 141
f 144 143 142 141
g object_19
v 34.5 0 0
v 35 0 0
v 34.5 0 -0.5
v 35 0 -0.5
v 34.5 3 0
v 34.5 3 -0.5
v 35 3 -0.5
v 35 3 0
f 146 145 147 148
f 147 145 149 150
f 148 147 150 151
f 146 148 151 152
f 145 146 152 149
f 152 151 150 149
g object_20
v 14.5 0 -23.5
v 15 0 -23.5
v 14.5 0 -24
v 15 0 -24
v 14.5 3 -23.5
v 14.5 3 -24
v 15 3 -24
v 15 3 -23.5
f 154 153 155 156
f 155 153 157 158
f 156 155 158 159
f 154 156 159 160
f 153 154 160 157
f 160 159 158 157
g object_21
v 14.5 0 -16.5
v 15 0 -16.5
v 14.5 0 -17
v 15 0 -17
v 14.5 3 -16.5
v 14.5 3 -17
v 15 3 -17
v 15 3 -16.5
f 162 161 163 164
f 163 161 165 166
f 164 163 166 167
f 162 164 167 168
f 161 162 168 165
f 168 167 166 165
g object_22
v 14.5 0 -6.5
v 15 0 -6.5
v 14.5 0 -7
v 15 0 -7
v 14.5 3 -6.5
v 14.5 3 -7
v 15 3 -7
v 15 3 -6.5
f 170 169 171 172
f 171 169 173 174
f 172 171 174 175
f 170 172 175 176
f 169 170 176 173
f 176 175 174 173
g object_23
v 14.5 0 0
v 15 0 0
v 14.5 0 -0.5
v 15 0 -0.5
v 14.5 3 0
v 14.5 3 -0.5
v 15 3 -0.5
v 15 3 0
f 178 177 179 180
f 179 177 181 182
f 180 179 182 183
f 178 180 183 184
f 177 178 184 181
f 184 183 182 181
g object_24
v 0 0 -23.5
v 0.5 0 -23.5
v 0 0 -24
v 0.5 0 -24
v 0 3 -23.5
v 0 3 -24
v 0.5 3 -24
v 0.5 3 -23.5
f 186 185 187 188
f 187 185 189 190
f 188 187 190 191
f 186 188 191 192
f 185 186 192 189
f 192 191 190 189
g object_25
v 0 0 -16.5
v 0.5 0 -16.5
v 0 0 -17
v 0.5 0 -17
v 0 3 -16.5
v 0 3 -17
v 0.5 3 -17
v 0.5 3 -16.5
f 194 193 195 196
f 195 193 197 198
f 196 195 198 199
f 194 196 199 200
f 193 194 200 197
f 200 199 198 197
g object_26
v 0 0 -6.5
v 0.5 0 -6.5
v 0 0 -7
v 0.5 0 -7
v 0 3 -6.5
v 0 3 -7
v 0.5 3 -7
v 0.5 3 -6.5
f 202 201 203 204
f 203 201 205 206
f 204 203 206 207
f 202 204 207 208
f 201 202 208 205
f 208 207 206 205
g object_27
v 0 0 0
v 0.5 0 0
v 0 0 -0.5
v 0.5 0 -0.5
v 0 3 0
v 0 3 -0.5
v 0.5 3 -0.5
v 0.5 3 0
f 210 209 211 212
f 211 209 213 214
f 212 211 214 215
f 210 212 215 216
f 209 210 216 213
f 216 215 214 213
