# Rhino

g object_1
v 0 3 -7
v 0 3 0
v 78 3 -7
v 78 3 0
v 0 13 -7
v 78 13 -7
v 78 13 0
v 0 13 0
f 2 1 3 4
f 3 1 5 6
f 4 3 6 7
f 2 4 7 8
f 1 2 8 5
f 8 7 6 5
g object_2
v 86 3 -22
v 86 3 -31
v 78 3 -31
v 78 3 -43
v 99 3 -43
v 99 3 -22
v 86 13 -22
v 86 13 -31
v 78 13 -31
v 78 13 -43
v 99 13 -43
v 99 13 -22
f 11 12 13 14 9 10
f 17 16 15 20 19 18
f 10 9 15 16
f 11 10 16 17
f 12 11 17 18
f 13 12 18 19
f 14 13 19 20
f 9 14 20 15
g object_3
v 78 3 -19
v 86 3 -19
v 78 3 -31
v 86 3 -31
v 78 13 -19
v 78 13 -31
v 86 13 -31
v 86 13 -19
f 22 21 23 24
f 23 21 25 26
f 24 23 26 27
f 22 24 27 28
f 21 22 28 25
f 28 27 26 25
g object_4
v 78 3 -7
v 78 3 -19
v 86 3 -19
v 86 3 -22
v 99 3 -22
v 99 3 -7
v 78 13 -7
v 78 13 -19
v 86 13 -19
v 86 13 -22
v 99 13 -22
v 99 13 -7
f 29 30 31 32 33 34
f 37 36 35 40 39 38
f 30 29 35 36
f 31 30 36 37
f 32 31 37 38
f 33 32 38 39
f 34 33 39 40
f 29 34 40 35
g object_5
v 75 3 17
v 75 3 0
v 78 3 0
v 78 3 -7
v 99 3 -7
v 99 3 17
v 75 13 17
v 75 13 0
v 78 13 0
v 78 13 -7
v 99 13 -7
v 99 13 17
f 41 42 43 44 45 46
f 49 48 47 52 51 50
f 42 41 47 48
f 43 42 48 49
f 44 43 49 50
f 45 44 50 51
f 46 45 51 52
f 41 46 52 47
g object_6
v 35 3 -7
v 60 3 -7
v 35 3 -24
v 60 3 -24
v 35 13 -7
v 35 13 -24
v 60 13 -24
v 60 13 -7
f 54 53 55 56
f 55 53 57 58
f 56 55 58 59
f 54 56 59 60
f 53 54 60 57
f 60 59 58 57
g object_7
v 15 3 -7
v 35 3 -7
v 15 3 -24
v 35 3 -24
v 15 13 -7
v 15 13 -24
v 35 13 -24
v 35 13 -7
f 62 61 63 64
f 63 61 65 66
f 64 63 66 67
f 62 64 67 68
f 61 62 68 65
f 68 67 66 65
g object_8
v 15 3 -17
v 15 3 -24
v 0 3 -17
v 0 3 -24
v 15 13 -17
v 0 13 -17
v 0 13 -24
v 15 13 -24
f 70 69 71 72
f 71 69 73 74
f 72 71 74 75
f 70 72 75 76
f 69 70 76 73
f 76 75 74 73
g object_9
v 15 3 -7
v 15 3 -17
v 5 3 -7
v 5 3 -17
v 15 13 -7
v 5 13 -7
v 5 13 -17
v 15 13 -17
f 78 77 79 80
f 79 77 81 82
f 80 79 82 83
f 78 80 83 84
f 77 78 84 81
f 84 83 82 81
