# Rhino

o object_1
v 75 21.5 0
v 75.5 21.5 0
v 75 22 0
v 75.5 22 0
v 75 21.5 3
v 75 22 3
v 75.5 22 3
v 75.5 21.5 3
f 2 1 3 4
f 3 1 5 6
f 4 3 6 7
f 2 4 7 8
f 1 2 8 5
f 8 7 6 5
o object_2
v 98.5 21.5 0
v 99 21.5 0
v 98.5 22 0
v 99 22 0
v 98.5 21.5 3
v 98.5 22 3
v 99 22 3
v 99 21.5 3
f 10 9 11 12
f 11 9 13 14
f 12 11 14 15
f 10 12 15 16
f 9 10 16 13
f 16 15 14 13
o object_3
v 98.5 6.5 0
v 99 6.5 0
v 98.5 7 0
v 99 7 0
v 98.5 6.5 3
v 98.5 7 3
v 99 7 3
v 99 6.5 3
f 18 17 19 20
f 19 17 21 22
f 20 19 22 23
f 18 20 23 24
f 17 18 24 21
f 24 23 22 21
o object_4
v 98.5 -17 0
v 99 -17 0
v 98.5 -16.5 0
v 99 -16.5 0
v 98.5 -17 3
v 98.5 -16.5 3
v 99 -16.5 3
v 99 -17 3
f 26 25 27 28
f 27 25 29 30
f 28 27 30 31
f 26 28 31 32
f 25 26 32 29
f 32 31 30 29
o object_5
v 75 -17 0
v 75.5 -17 0
v 75 -16.5 0
v 75.5 -16.5 0
v 75 -17 3
v 75 -16.5 3
v 75.5 -16.5 3
v 75.5 -17 3
f 34 33 35 36
f 35 33 37 38
f 36 35 38 39
f 34 36 39 40
f 33 34 40 37
f 40 39 38 37
o object_6
v 85.5 19 0
v 86 19 0
v 85.5 19.5 0
v 86 19.5 0
v 85.5 19 3
v 85.5 19.5 3
v 86 19.5 3
v 86 19 3
f 42 41 43 44
f 43 41 45 46
f 44 43 46 47
f 42 44 47 48
f 41 42 48 45
f 48 47 46 45
o object_7
v 85.5 30.5 0
v 86 30.5 0
v 85.5 31 0
v 86 31 0
v 85.5 30.5 3
v 85.5 31 3
v 86 31 3
v 86 30.5 3
f 50 49 51 52
f 51 49 53 54
f 52 51 54 55
f 50 52 55 56
f 49 50 56 53
f 56 55 54 53
o object_8
v 98.5 42.5 0
v 99 42.5 0
v 98.5 43 0
v 99 43 0
v 98.5 42.5 3
v 98.5 43 3
v 99 43 3
v 99 42.5 3
f 58 57 59 60
f 59 57 61 62
f 60 59 62 63
f 58 60 63 64
f 57 58 64 61
f 64 63 62 61
o object_9
v 75 42.5 0
v 75.5 42.5 0
v 75 43 0
v 75.5 43 0
v 75 42.5 3
v 75 43 3
v 75.5 43 3
v 75.5 42.5 3
f 66 65 67 68
f 67 65 69 70
f 68 67 70 71
f 66 68 71 72
f 65 66 72 69
f 72 71 70 69
o object_10
v 75 6.5 0
v 75.5 6.5 0
v 75 7 0
v 75.5 7 0
v 75 6.5 3
v 75 7 3
v 75.5 7 3
v 75.5 6.5 3
f 74 73 75 76
f 75 73 77 78
f 76 75 78 79
f 74 76 79 80
f 73 74 80 77
f 80 79 78 77
o object_11
v 75 0 0
v 75.5 0 0
v 75 0.5 0
v 75.5 0.5 0
v 75 0 3
v 75 0.5 3
v 75.5 0.5 3
v 75.5 0 3
f 82 81 83 84
f 83 81 85 86
f 84 83 86 87
f 82 84 87 88
f 81 82 88 85
f 88 87 86 85
o object_12
v 59.5 23.5 0
v 60 23.5 0
v 59.5 24 0
v 60 24 0
v 59.5 23.5 3
v 59.5 24 3
v 60 24 3
v 60 23.5 3
f 90 89 91 92
f 91 89 93 94
f 92 91 94 95
f 90 92 95 96
f 89 90 96 93
f 96 95 94 93
o object_13
v 59.5 16.5 0
v 60 16.5 0
v 59.5 17 0
v 60 17 0
v 59.5 16.5 3
v 59.5 17 3
v 60 17 3
v 60 16.5 3
f 98 97 99 100
f 99 97 101 102
f 100 99 102 103
f 98 100 103 104
f 97 98 104 101
f 104 103 102 101
o object_14
v 59.5 6.5 0
v 60 6.5 0
v 59.5 7 0
v 60 7 0
v 59.5 6.5 3
v 59.5 7 3
v 60 7 3
v 60 6.5 3
f 106 105 107 108
f 107 105 109 110
f 108 107 110 111
f 106 108 111 112
f 105 106 112 109
f 112 111 110 109
o object_15
v 59.5 0 0
v 60 0 0
v 59.5 0.5 0
v 60 0.5 0
v 59.5 0 3
v 59.5 0.5 3
v 60 0.5 3
v 60 0 3
f 114 113 115 116
f 115 113 117 118
f 116 115 118 119
f 114 116 119 120
f 113 114 120 117
f 120 119 118 117
o object_16
v 34.5 23.5 0
v 35 23.5 0
v 34.5 24 0
v 35 24 0
v 34.5 23.5 3
v 34.5 24 3
v 35 24 3
v 35 23.5 3
f 122 121 123 124
f 123 121 125 126
f 124 123 126 127
f 122 124 127 128
f 121 122 128 125
f 128 127 126 125
o object_17
v 34.5 16.5 0
v 35 16.5 0
v 34.5 17 0
v 35 17 0
v 34.5 16.5 3
v 34.5 17 3
v 35 17 3
v 35 16.5 3
f 130 129 131 132
f 131 129 133 134
f 132 131 134 135
f 130 132 135 136
f 129 130 136 133
f 136 135 134 133
o object_18
v 34.5 6.5 0
v 35 6.5 0
v 34.5 7 0
v 35 7 0
v 34.5 6.5 3
v 34.5 7 3
v 35 7 3
v 35 6.5 3
f 138 137 139 140
f 139 137 141 142
f 140 139 142 143
f 138 140 143 144
f 137 138 144 141
f 144 143 142 141
o object_19
v 34.5 0 0
v 35 0 0
v 34.5 0.5 0
v 35 0.5 0
v 34.5 0 3
v 34.5 0.5 3
v 35 0.5 3
v 35 0 3
f 146 145 147 148
f 147 145 149 150
f 148 147 150 151
f 146 148 151 152
f 145 146 152 149
f 152 151 150 149
o object_20
v 14.5 23.5 0
v 15 23.5 0
v 14.5 24 0
v 15 24 0
v 14.5 23.5 3
v 14.5 24 3
v 15 24 3
v 15 23.5 3
f 154 153 155 156
f 155 153 157 158
f 156 155 158 159
f 154 156 159 160
f 153 154 160 157
f 160 159 158 157
o object_21
v 14.5 16.5 0
v 15 16.5 0
v 14.5 17 0
v 15 17 0
v 14.5 16.5 3
v 14.5 17 3
v 15 17 3
v 15 16.5 3
f 162 161 163 164
f 163 161 165 166
f 164 163 166 167
f 162 164 167 168
f 161 162 168 165
f 168 167 166 165
o object_22
v 14.5 6.5 0
v 15 6.5 0
v 14.5 7 0
v 15 7 0
v 14.5 6.5 3
v 14.5 7 3
v 15 7 3
v 15 6.5 3
f 170 169 171 172
f 171 169 173 174
f 172 171 174 175
f 170 172 175 176
f 169 170 176 173
f 176 175 174 173
o object_23
v 14.5 0 0
v 15 0 0
v 14.5 0.5 0
v 15 0.5 0
v 14.5 0 3
v 14.5 0.5 3
v 15 0.5 3
v 15 0 3
f 178 177 179 180
f 179 177 181 182
f 180 179 182 183
f 178 180 183 184
f 177 178 184 181
f 184 183 182 181
o object_24
v 0 23.5 0
v 0.5 23.5 0
v 0 24 0
v 0.5 24 0
v 0 23.5 3
v 0 24 3
v 0.5 24 3
v 0.5 23.5 3
f 186 185 187 188
f 187 185 189 190
f 188 187 190 191
f 186 188 191 192
f 185 186 192 189
f 192 191 190 189
o object_25
v 0 16.5 0
v 0.5 16.5 0
v 0 17 0
v 0.5 17 0
v 0 16.5 3
v 0 17 3
v 0.5 17 3
v 0.5 16.5 3
f 194 193 195 196
f 195 193 197 198
f 196 195 198 199
f 194 196 199 200
f 193 194 200 197
f 200 199 198 197
o object_26
v 0 6.5 0
v 0.5 6.5 0
v 0 7 0
v 0.5 7 0
v 0 6.5 3
v 0 7 3
v 0.5 7 3
v 0.5 6.5 3
f 202 201 203 204
f 203 201 205 206
f 204 203 206 207
f 202 204 207 208
f 201 202 208 205
f 208 207 206 205
o object_27
v 0 0 0
v 0.5 0 0
v 0 0.5 0
v 0.5 0.5 0
v 0 0 3
v 0 0.5 3
v 0.5 0.5 3
v 0.5 0 3
f 210 209 211 212
f 211 209 213 214
f 212 211 214 215
f 210 212 215 216
f 209 210 216 213
f 216 215 214 213
o object_28
v 75 21.499999999999996 0
v 75 21.999999999999996 0
v 75.5 21.999999999999996 0
v 75.5 21.499999999999996 0
l 217 218 219 220 217
o object_29
v 98.5 21.5 0
v 98.5 22 0
v 99 22 0
v 99 21.5 0
l 221 222 223 224 221
o object_30
v 98.5 6.5 0
v 98.5 7 0
v 99 7 0
v 99 6.5 0
l 225 226 227 228 225
o object_31
v 98.5 -16.999999999999993 0
v 98.5 -16.499999999999993 0
v 99 -16.499999999999993 0
v 99 -16.999999999999993 0
l 229 230 231 232 229
o object_32
v 75 -16.999999999999993 0
v 75 -16.499999999999993 0
v 75.5 -16.499999999999993 0
v 75.5 -16.999999999999993 0
l 233 234 235 236 233
o object_33
v 85.5 19 0
v 85.5 19.5 0
v 86 19.5 0
v 86 19 0
l 237 238 239 240 237
o object_34
v 85.5 30.5 0
v 85.5 31 0
v 86 31 0
v 86 30.5 0
l 241 242 243 244 241
o object_35
v 98.5 42.5 0
v 98.5 43 0
v 99 43 0
v 99 42.5 0
l 245 246 247 248 245
o object_36
v 75 42.5 0
v 75 43 0
v 75.5 43 0
v 75.5 42.5 0
l 249 250 251 252 249
o object_37
v 75 6.4999999999999991 0
v 75 6.9999999999999991 0
v 75.5 6.9999999999999991 0
v 75.5 6.4999999999999991 0
l 253 254 255 256 253
o object_38
v 75 0 0
v 75 0.5 0
v 75.5 0.5 0
v 75.5 0 0
l 257 258 259 260 257
o object_39
v 59.5 23.5 0
v 59.5 24 0
v 60 24 0
v 60 23.5 0
l 261 262 263 264 261
o object_40
v 59.5 16.5 0
v 59.5 17 0
v 60 17 0
v 60 16.5 0
l 265 266 267 268 265
o object_41
v 59.5 6.4999999999999991 0
v 59.5 6.9999999999999991 0
v 60 6.9999999999999991 0
v 60 6.4999999999999991 0
l 269 270 271 272 269
o object_42
v 59.5 0 0
v 59.5 0.5 0
v 60 0.5 0
v 60 0 0
l 273 274 275 276 273
o object_43
v 34.500000000000007 23.499999999999993 0
v 34.500000000000007 23.999999999999993 0
v 35.000000000000007 23.999999999999993 0
v 35.000000000000007 23.499999999999993 0
l 277 278 279 280 277
o object_44
v 34.500000000000007 16.499999999999993 0
v 34.500000000000007 16.999999999999993 0
v 35.000000000000007 16.999999999999993 0
v 35.000000000000007 16.499999999999993 0
l 281 282 283 284 281
o object_45
v 34.500000000000007 6.499999999999992 0
v 34.500000000000007 6.999999999999992 0
v 35.000000000000007 6.999999999999992 0
v 35.000000000000007 6.499999999999992 0
l 285 286 287 288 285
o object_46
v 34.500000000000007 0 0
v 34.500000000000007 0.49999999999999289 0
v 35.000000000000007 0.49999999999999289 0
v 35.000000000000007 0 0
l 289 290 291 292 289
o object_47
v 14.500000000000002 23.499999999999993 0
v 14.500000000000002 23.999999999999993 0
v 15.000000000000002 23.999999999999993 0
v 15.000000000000005 23.499999999999993 0
l 293 294 295 296 293
o object_48
v 14.500000000000002 16.499999999999993 0
v 14.500000000000002 16.999999999999993 0
v 15.000000000000002 16.999999999999993 0
v 15.000000000000005 16.499999999999993 0
l 297 298 299 300 297
o object_49
v 14.500000000000002 6.499999999999992 0
v 14.500000000000002 6.999999999999992 0
v 15.000000000000002 6.999999999999992 0
v 15.000000000000005 6.499999999999992 0
l 301 302 303 304 301
o object_50
v 14.500000000000002 0 0
v 14.500000000000002 0.49999999999999289 0
v 15.000000000000002 0.49999999999999289 0
v 15.000000000000005 0 0
l 305 306 307 308 305
o object_51
v 0 23.5 0
v 0 24 0
v 0.5 24 0
v 0.50000000000000322 23.5 0
l 309 310 311 312 309
o object_52
v 0 16.5 0
v 0 17 0
v 0.5 17 0
v 0.50000000000000322 16.5 0
l 313 314 315 316 313
o object_53
v 0 6.4999999999999991 0
v 0 6.9999999999999991 0
v 0.5 6.9999999999999991 0
v 0.50000000000000322 6.4999999999999991 0
l 317 318 319 320 317
o object_54
v 0 0 0
v 0 0.5 0
v 0.5 0.5 0
v 0.50000000000000322 0 0
l 321 322 323 324 321
