# Rhino

o object_1
v 86 22 3
v 86 31 3
v 78 31 3
v 78 43 3
v 99 43 3
v 99 22 3
v 86 22 13
v 86 31 13
v 78 31 13
v 78 43 13
v 99 43 13
v 99 22 13
f 3 4 5 6 1 2
f 9 8 7 12 11 10
f 2 1 7 8
f 3 2 8 9
f 4 3 9 10
f 5 4 10 11
f 6 5 11 12
f 1 6 12 7
o object_2
v 78 19 3
v 86 19 3
v 78 31 3
v 86 31 3
v 78 19 13
v 78 31 13
v 86 31 13
v 86 19 13
f 14 13 15 16
f 15 13 17 18
f 16 15 18 19
f 14 16 19 20
f 13 14 20 17
f 20 19 18 17
o object_3
v 78 7 3
v 78 19 3
v 86 19 3
v 86 22 3
v 99 22 3
v 99 7 3
v 78 7 13
v 78 19 13
v 86 19 13
v 86 22 13
v 99 22 13
v 99 7 13
f 21 22 23 24 25 26
f 29 28 27 32 31 30
f 22 21 27 28
f 23 22 28 29
f 24 23 29 30
f 25 24 30 31
f 26 25 31 32
f 21 26 32 27
o object_4
v 75 -17 3
v 75 0 3
v 78 0 3
v 78 7 3
v 99 7 3
v 99 -17 3
v 75 -17 13
v 75 0 13
v 78 0 13
v 78 7 13
v 99 7 13
v 99 -17 13
f 33 34 35 36 37 38
f 41 40 39 44 43 42
f 34 33 39 40
f 35 34 40 41
f 36 35 41 42
f 37 36 42 43
f 38 37 43 44
f 33 38 44 39
o object_5
v 35 7 3
v 60 7 3
v 35 24 3
v 60 24 3
v 35 7 13
v 35 24 13
v 60 24 13
v 60 7 13
f 46 45 47 48
f 47 45 49 50
f 48 47 50 51
f 46 48 51 52
f 45 46 52 49
f 52 51 50 49
o object_6
v 15 7 3
v 35 7 3
v 15 24 3
v 35 24 3
v 15 7 13
v 15 24 13
v 35 24 13
v 35 7 13
f 54 53 55 56
f 55 53 57 58
f 56 55 58 59
f 54 56 59 60
f 53 54 60 57
f 60 59 58 57
o object_7
v 15 17 3
v 15 24 3
v 0 17 3
v 0 24 3
v 15 17 13
v 0 17 13
v 0 24 13
v 15 24 13
f 62 61 63 64
f 63 61 65 66
f 64 63 66 67
f 62 64 67 68
f 61 62 68 65
f 68 67 66 65
o object_8
v 15 7 3
v 15 17 3
v 5 7 3
v 5 17 3
v 15 7 13
v 5 7 13
v 5 17 13
v 15 17 13
f 70 69 71 72
f 71 69 73 74
f 72 71 74 75
f 70 72 75 76
f 69 70 76 73
f 76 75 74 73
