# Rhino

g object_1
v 98.800003051757812 0 -21.799999237060547
v 98.800003051757812 0 -22
v 99 0 -21.799999237060547
v 99 0 -22
v 98.800003051757812 10 -21.799999237060547
v 99 10 -21.799999237060547
v 99 10 -22
v 98.800003051757812 10 -22
f 2 4 3 1
f 3 6 5 1
f 4 7 6 3
f 2 8 7 4
f 1 5 8 2
f 8 5 6 7
g object_2
v 98.800003051757812 0 -6.8000001907348633
v 98.800003051757812 0 -7
v 99 0 -6.8000001907348633
v 99 0 -7
v 98.800003051757812 10 -6.8000001907348633
v 99 10 -6.8000001907348633
v 99 10 -7
v 98.800003051757812 10 -7
f 10 12 11 9
f 11 14 13 9
f 12 15 14 11
f 10 16 15 12
f 9 13 16 10
f 16 13 14 15
g object_3
v 98.800003051757812 0 -42.799999237060547
v 98.800003051757812 0 -43
v 99 0 -42.799999237060547
v 99 0 -43
v 98.800003051757812 10 -42.799999237060547
v 99 10 -42.799999237060547
v 99 10 -43
v 98.800003051757812 10 -43
f 18 20 19 17
f 19 22 21 17
f 20 23 22 19
f 18 24 23 20
f 17 21 24 18
f 24 21 22 23
g object_4
v 98.800003051757812 0 17
v 98.800003051757812 0 16.799999237060547
v 99 0 17
v 99 0 16.799999237060547
v 98.800003051757812 10 17
v 99 10 17
v 99 10 16.799999237060547
v 98.800003051757812 10 16.799999237060547
f 26 28 27 25
f 27 30 29 25
f 28 31 30 27
f 26 32 31 28
f 25 29 32 26
f 32 29 30 31
g object_5
v 85.800003051757812 0 -19
v 85.800003051757812 0 -19.200000762939453
v 86 0 -19
v 86 0 -19.200000762939453
v 85.800003051757812 10 -19
v 86 10 -19
v 86 10 -19.200000762939453
v 85.800003051757812 10 -19.200000762939453
f 34 36 35 33
f 35 38 37 33
f 36 39 38 35
f 34 40 39 36
f 33 37 40 34
f 40 37 38 39
g object_6
v 85.800003051757812 0 -30.799999237060547
v 85.800003051757812 0 -31
v 86 0 -30.799999237060547
v 86 0 -31
v 85.800003051757812 10 -30.799999237060547
v 86 10 -30.799999237060547
v 86 10 -31
v 85.800003051757812 10 -31
f 42 44 43 41
f 43 46 45 41
f 44 47 46 43
f 42 48 47 44
f 41 45 48 42
f 48 45 46 47
g object_7
v 78 0 -19
v 78 0 -19.200000762939453
v 78.199996948242188 0 -19
v 78.199996948242188 0 -19.200000762939453
v 78 10 -19
v 78.199996948242188 10 -19
v 78.199996948242188 10 -19.200000762939453
v 78 10 -19.200000762939453
f 50 52 51 49
f 51 54 53 49
f 52 55 54 51
f 50 56 55 52
f 49 53 56 50
f 56 53 54 55
g object_8
v 78 0 -30.799999237060547
v 78 0 -31
v 78.199996948242188 0 -30.799999237060547
v 78.199996948242188 0 -31
v 78 10 -30.799999237060547
v 78.199996948242188 10 -30.799999237060547
v 78.199996948242188 10 -31
v 78 10 -31
f 58 60 59 57
f 59 62 61 57
f 60 63 62 59
f 58 64 63 60
f 57 61 64 58
f 64 61 62 63
g object_9
v 78 0 -42.799999237060547
v 78 0 -43
v 78.199996948242188 0 -42.799999237060547
v 78.199996948242188 0 -43
v 78 10 -42.799999237060547
v 78.199996948242188 10 -42.799999237060547
v 78.199996948242188 10 -43
v 78 10 -43
f 66 68 67 65
f 67 70 69 65
f 68 71 70 67
f 66 72 71 68
f 65 69 72 66
f 72 69 70 71
g object_10
v 75 0 -42.799999237060547
v 75 0 -43
v 75.199996948242188 0 -42.799999237060547
v 75.199996948242188 0 -43
v 75 10 -42.799999237060547
v 75.199996948242188 10 -42.799999237060547
v 75.199996948242188 10 -43
v 75 10 -43
f 74 76 75 73
f 75 78 77 73
f 76 79 78 75
f 74 80 79 76
f 73 77 80 74
f 80 77 78 79
g object_11
v 78 0 -6.8000001907348633
v 78 0 -7
v 78.199996948242188 0 -6.8000001907348633
v 78.199996948242188 0 -7
v 78 10 -6.8000001907348633
v 78.199996948242188 10 -6.8000001907348633
v 78.199996948242188 10 -7
v 78 10 -7
f 82 84 83 81
f 83 86 85 81
f 84 87 86 83
f 82 88 87 84
f 81 85 88 82
f 88 85 86 87
g object_12
v 78 0 0
v 78 0 -0.20000000298023224
v 78.199996948242188 0 0
v 78.199996948242188 0 -0.20000000298023224
v 78 10 0
v 78.199996948242188 10 0
v 78.199996948242188 10 -0.20000000298023224
v 78 10 -0.20000000298023224
f 90 92 91 89
f 91 94 93 89
f 92 95 94 91
f 90 96 95 92
f 89 93 96 90
f 96 93 94 95
g object_13
v 75 0 -6.8000001907348633
v 75 0 -7
v 75.199996948242188 0 -6.8000001907348633
v 75.199996948242188 0 -7
v 75 10 -6.8000001907348633
v 75.199996948242188 10 -6.8000001907348633
v 75.199996948242188 10 -7
v 75 10 -7
f 98 100 99 97
f 99 102 101 97
f 100 103 102 99
f 98 104 103 100
f 97 101 104 98
f 104 101 102 103
g object_14
v 75 0 0
v 75 0 -0.20000000298023224
v 75.199996948242188 0 0
v 75.199996948242188 0 -0.20000000298023224
v 75 10 0
v 75.199996948242188 10 0
v 75.199996948242188 10 -0.20000000298023224
v 75 10 -0.20000000298023224
f 106 108 107 105
f 107 110 109 105
f 108 111 110 107
f 106 112 111 108
f 105 109 112 106
f 112 109 110 111
g object_15
v 75 0 17
v 75 0 16.799999237060547
v 75.199996948242188 0 17
v 75.199996948242188 0 16.799999237060547
v 75 10 17
v 75.199996948242188 10 17
v 75.199996948242188 10 16.799999237060547
v 75 10 16.799999237060547
f 114 116 115 113
f 115 118 117 113
f 116 119 118 115
f 114 120 119 116
f 113 117 120 114
f 120 117 118 119
g object_16
v 59.799999237060547 0 -6.8000001907348633
v 59.799999237060547 0 -7
v 60 0 -6.8000001907348633
v 60 0 -7
v 59.799999237060547 10 -6.8000001907348633
v 60 10 -6.8000001907348633
v 60 10 -7
v 59.799999237060547 10 -7
f 122 124 123 121
f 123 126 125 121
f 124 127 126 123
f 122 128 127 124
f 121 125 128 122
f 128 125 126 127
g object_17
v 34.799999237060547 0 -6.8000001907348633
v 34.799999237060547 0 -7
v 35 0 -6.8000001907348633
v 35 0 -7
v 34.799999237060547 10 -6.8000001907348633
v 35 10 -6.8000001907348633
v 35 10 -7
v 34.799999237060547 10 -7
f 130 132 131 129
f 131 134 133 129
f 132 135 134 131
f 130 136 135 132
f 129 133 136 130
f 136 133 134 135
g object_18
v 59.799999237060547 0 0
v 59.799999237060547 0 -0.20000000298023224
v 60 0 0
v 60 0 -0.20000000298023224
v 59.799999237060547 10 0
v 60 10 0
v 60 10 -0.20000000298023224
v 59.799999237060547 10 -0.20000000298023224
f 138 140 139 137
f 139 142 141 137
f 140 143 142 139
f 138 144 143 140
f 137 141 144 138
f 144 141 142 143
g object_19
v 59.799999237060547 0 -23.799999237060547
v 59.799999237060547 0 -24
v 60 0 -23.799999237060547
v 60 0 -24
v 59.799999237060547 10 -23.799999237060547
v 60 10 -23.799999237060547
v 60 10 -24
v 59.799999237060547 10 -24
f 146 148 147 145
f 147 150 149 145
f 148 151 150 147
f 146 152 151 148
f 145 149 152 146
f 152 149 150 151
g object_20
v 34.799999237060547 0 0
v 34.799999237060547 0 -0.20000000298023224
v 35 0 0
v 35 0 -0.20000000298023224
v 34.799999237060547 10 0
v 35 10 0
v 35 10 -0.20000000298023224
v 34.799999237060547 10 -0.20000000298023224
f 154 156 155 153
f 155 158 157 153
f 156 159 158 155
f 154 160 159 156
f 153 157 160 154
f 160 157 158 159
g object_21
v 34.799999237060547 0 -23.799999237060547
v 34.799999237060547 0 -24
v 35 0 -23.799999237060547
v 35 0 -24
v 34.799999237060547 10 -23.799999237060547
v 35 10 -23.799999237060547
v 35 10 -24
v 34.799999237060547 10 -24
f 162 164 163 161
f 163 166 165 161
f 164 167 166 163
f 162 168 167 164
f 161 165 168 162
f 168 165 166 167
g object_22
v 14.800000190734863 0 -7
v 14.800000190734863 0 -7.1999998092651367
v 15 0 -7
v 15 0 -7.1999998092651367
v 14.800000190734863 10 -7
v 15 10 -7
v 15 10 -7.1999998092651367
v 14.800000190734863 10 -7.1999998092651367
f 170 172 171 169
f 171 174 173 169
f 172 175 174 171
f 170 176 175 172
f 169 173 176 170
f 176 173 174 175
g object_23
v 14.800000190734863 0 0
v 14.800000190734863 0 -0.20000000298023224
v 15 0 0
v 15 0 -0.20000000298023224
v 14.800000190734863 10 0
v 15 10 0
v 15 10 -0.20000000298023224
v 14.800000190734863 10 -0.20000000298023224
f 178 180 179 177
f 179 182 181 177
f 180 183 182 179
f 178 184 183 180
f 177 181 184 178
f 184 181 182 183
g object_24
v 14.800000190734863 0 -16.799999237060547
v 14.800000190734863 0 -17
v 15 0 -16.799999237060547
v 15 0 -17
v 14.800000190734863 10 -16.799999237060547
v 15 10 -16.799999237060547
v 15 10 -17
v 14.800000190734863 10 -17
f 186 188 187 185
f 187 190 189 185
f 188 191 190 187
f 186 192 191 188
f 185 189 192 186
f 192 189 190 191
g object_25
v 14.800000190734863 0 -23.799999237060547
v 14.800000190734863 0 -24
v 15 0 -23.799999237060547
v 15 0 -24
v 14.800000190734863 10 -23.799999237060547
v 15 10 -23.799999237060547
v 15 10 -24
v 14.800000190734863 10 -24
f 194 196 195 193
f 195 198 197 193
f 196 199 198 195
f 194 200 199 196
f 193 197 200 194
f 200 197 198 199
g object_26
v 0 0 -23.799999237060547
v 0 0 -24
v 0.20000000298023224 0 -23.799999237060547
v 0.20000000298023224 0 -24
v 0 10 -23.799999237060547
v 0.20000000298023224 10 -23.799999237060547
v 0.20000000298023224 10 -24
v 0 10 -24
f 202 204 203 201
f 203 206 205 201
f 204 207 206 203
f 202 208 207 204
f 201 205 208 202
f 208 205 206 207
g object_27
v 0 0 -16.799999237060547
v 0 0 -17
v 0.20000000298023224 0 -16.799999237060547
v 0.20000000298023224 0 -17
v 0 10 -16.799999237060547
v 0.20000000298023224 10 -16.799999237060547
v 0.20000000298023224 10 -17
v 0 10 -17
f 210 212 211 209
f 211 214 213 209
f 212 215 214 211
f 210 216 215 212
f 209 213 216 210
f 216 213 214 215
g object_28
v 0 0 -7
v 0 0 -7.1999998092651367
v 0.20000000298023224 0 -7
v 0.20000000298023224 0 -7.1999998092651367
v 0 10 -7
v 0.20000000298023224 10 -7
v 0.20000000298023224 10 -7.1999998092651367
v 0 10 -7.1999998092651367
f 218 220 219 217
f 219 222 221 217
f 220 223 222 219
f 218 224 223 220
f 217 221 224 218
f 224 221 222 223
g object_29
v 0 0 0
v 0 0 -0.20000000298023224
v 0.20000000298023224 0 0
v 0.20000000298023224 0 -0.20000000298023224
v 0 10 0
v 0.20000000298023224 10 0
v 0.20000000298023224 10 -0.20000000298023224
v 0 10 -0.20000000298023224
f 226 228 227 225
f 227 230 229 225
f 228 231 230 227
f 226 232 231 228
f 225 229 232 226
f 232 229 230 231
