# Rhino

g object_1
v 75 0 -43
v 75 0 0
v 78 0 -43
v 78 0 0
v 75 10 -43
v 78 10 -43
v 78 10 0
v 75 10 0
f 2 1 3 4
f 3 1 5 6
f 4 3 6 7
f 2 4 7 8
f 1 2 8 5
f 8 7 6 5
g object_2
v 0 0 -7
v 0 0 0
v 75 0 -7
v 75 0 0
v 0 10 -7
v 75 10 -7
v 75 10 0
v 0 10 0
f 10 9 11 12
f 11 9 13 14
f 12 11 14 15
f 10 12 15 16
f 9 10 16 13
f 16 15 14 13
g object_3
v 0 0 -17
v 0 0 -7
v 5 0 -17
v 5 0 -7
v 0 10 -17
v 5 10 -17
v 5 10 -7
v 0 10 -7
f 18 17 19 20
f 19 17 21 22
f 20 19 22 23
f 18 20 23 24
f 17 18 24 21
f 24 23 22 21
g object_4
v 75 0 -43
v 78 0 -42.999999999999993
v 78 0 0
v 75 0 0
l 25 26 27 28 25
g object_5
v 0 0 -6.9999999999999991
v 75 0 -6.9999999999999911
v 75 0 0
v 0 0 0
l 29 30 31 32 29
g object_6
v 0 0 -17
v 5 0 -17
v 5 0 -7
v 0 0 -6.9999999999999991
l 33 34 35 36 33
