# Rhino

o object_1
v -22.996124267578125 0 24.436508178710938
v -22.996124267578125 0 26.824039459228516
v -22.996124267578125 2.0789999961853027 24.436508178710938
v -22.996124267578125 2.0789999961853027 26.824039459228516
v -20.311941146850586 0 26.824039459228516
v -20.311941146850586 2.0789999961853027 26.824039459228516
v -20.311941146850586 0 24.436508178710938
v -20.311941146850586 2.0789999961853027 24.436508178710938
f 2 4 3 1
f 5 6 4 2
f 7 8 6 5
f 1 3 8 7
f 3 4 6 8
f 2 1 7 5
o object_2
v -22.996124267578125 0 2.6757221221923828
v -22.996124267578125 0 12.57441520690918
v -22.996124267578125 2.0789999961853027 2.6757221221923828
v -22.996124267578125 2.0789999961853027 12.57441520690918
v -17.429759979248047 0 12.57441520690918
v -17.429759979248047 2.0789999961853027 12.57441520690918
v -17.429759979248047 0 2.6757221221923828
v -17.429759979248047 2.0789999961853027 2.6757221221923828
f 10 12 11 9
f 13 14 12 10
f 15 16 14 13
f 9 11 16 15
f 11 12 14 16
f 10 9 15 13
