# Rhino

o object_1
v -20.760171890258789 0 17.343517303466797
v -20.760171890258789 0 19.572021484375
v -20.760171890258789 2.0789999961853027 17.343517303466797
v -20.760171890258789 2.0789999961853027 19.572021484375
v -19.138818740844727 0 19.572021484375
v -19.138818740844727 2.0789999961853027 19.572021484375
v -19.138818740844727 0 17.343517303466797
v -19.138818740844727 2.0789999961853027 17.343517303466797
f 2 4 3 1
f 5 6 4 2
f 7 8 6 5
f 1 3 8 7
f 3 4 6 8
f 2 1 7 5
o object_2
v -22.996124267578125 5.7109999656677246 17.864740371704102
v -22.996124267578125 5.7109999656677246 19.146183013916016
v -22.996124267578125 8.4840002059936523 17.864740371704102
v -22.996124267578125 8.4840002059936523 19.146183013916016
v -20.997182846069336 5.7109999656677246 19.146183013916016
v -20.997182846069336 8.4840002059936523 19.146183013916016
v -20.997182846069336 5.7109999656677246 17.864740371704102
v -20.997182846069336 8.4840002059936523 17.864740371704102
f 10 12 11 9
f 13 14 12 10
f 15 16 14 13
f 9 11 16 15
f 11 12 14 16
f 10 9 15 13
