# Rhino

o object_1
v -19.138818740844727 5.7109999656677246 20.980861663818359
v -19.138818740844727 5.7109999656677246 24.436508178710938
v -19.138818740844727 8.4840002059936523 20.980861663818359
v -19.138818740844727 8.4840002059936523 24.436508178710938
v -17.429759979248047 5.7109999656677246 24.436508178710938
v -17.429759979248047 8.4840002059936523 24.436508178710938
v -17.429759979248047 5.7109999656677246 20.980861663818359
v -17.429759979248047 8.4840002059936523 20.980861663818359
f 2 4 3 1
f 5 6 4 2
f 7 8 6 5
f 1 3 8 7
f 3 4 6 8
f 2 1 7 5
o object_2
v -22.996124267578125 5.7109999656677246 19.146183013916016
v -22.996124267578125 5.7109999656677246 24.436508178710938
v -22.996124267578125 8.4840002059936523 19.146183013916016
v -22.996124267578125 8.4840002059936523 24.436508178710938
v -19.138818740844727 5.7109999656677246 24.436508178710938
v -19.138818740844727 8.4840002059936523 24.436508178710938
v -19.138818740844727 5.7109999656677246 19.146183013916016
v -19.138818740844727 8.4840002059936523 19.146183013916016
f 10 12 11 9
f 13 14 12 10
f 15 16 14 13
f 9 11 16 15
f 11 12 14 16
f 10 9 15 13
o object_3
v -22.996124267578125 5.7109999656677246 12.57441520690918
v -22.996124267578125 5.7109999656677246 17.864740371704102
v -22.996124267578125 8.4840002059936523 12.57441520690918
v -22.996124267578125 8.4840002059936523 17.864740371704102
v -19.138818740844727 5.7109999656677246 17.864740371704102
v -19.138818740844727 8.4840002059936523 17.864740371704102
v -19.138818740844727 5.7109999656677246 12.57441520690918
v -19.138818740844727 8.4840002059936523 12.57441520690918
f 18 20 19 17
f 21 22 20 18
f 23 24 22 21
f 17 19 24 23
f 19 20 22 24
f 18 17 23 21
o object_4
v -22.996124267578125 8.4840002059936523 13.979637145996094
v -22.996124267578125 8.4840002059936523 16.375715255737305
v -22.996124267578125 12.345000267028809 13.979637145996094
v -22.996124267578125 12.345000267028809 16.375715255737305
v -20.212942123413086 8.4840002059936523 16.375715255737305
v -20.212942123413086 12.345000267028809 16.375715255737305
v -20.212942123413086 8.4840002059936523 13.979637145996094
v -20.212942123413086 12.345000267028809 13.979637145996094
f 26 28 27 25
f 29 30 28 26
f 31 32 30 29
f 25 27 32 31
f 27 28 30 32
f 26 25 31 29
o object_5
v -20.212942123413086 8.4840002059936523 13.979637145996094
v -20.212942123413086 8.4840002059936523 16.375715255737305
v -20.212942123413086 12.345000267028809 13.979637145996094
v -20.212942123413086 12.345000267028809 16.375715255737305
v -17.429759979248047 8.4840002059936523 16.375715255737305
v -17.429759979248047 12.345000267028809 16.375715255737305
v -17.429759979248047 8.4840002059936523 13.979637145996094
v -17.429759979248047 12.345000267028809 13.979637145996094
f 34 36 35 33
f 37 38 36 34
f 39 40 38 37
f 33 35 40 39
f 35 36 38 40
f 34 33 39 37
o object_6
v -22.996124267578125 8.4840002059936523 20.635208129882812
v -22.996124267578125 8.4840002059936523 23.031286239624023
v -22.996124267578125 12.345000267028809 20.635208129882812
v -22.996124267578125 12.345000267028809 23.031286239624023
v -20.212942123413086 8.4840002059936523 23.031286239624023
v -20.212942123413086 12.345000267028809 23.031286239624023
v -20.212942123413086 8.4840002059936523 20.635208129882812
v -20.212942123413086 12.345000267028809 20.635208129882812
f 42 44 43 41
f 45 46 44 42
f 47 48 46 45
f 41 43 48 47
f 43 44 46 48
f 42 41 47 45
o object_7
v -20.212942123413086 8.4840002059936523 20.635208129882812
v -20.212942123413086 8.4840002059936523 23.031286239624023
v -20.212942123413086 12.345000267028809 20.635208129882812
v -20.212942123413086 12.345000267028809 23.031286239624023
v -17.429759979248047 8.4840002059936523 23.031286239624023
v -17.429759979248047 12.345000267028809 23.031286239624023
v -17.429759979248047 8.4840002059936523 20.635208129882812
v -17.429759979248047 12.345000267028809 20.635208129882812
f 50 52 51 49
f 53 54 52 50
f 55 56 54 53
f 49 51 56 55
f 51 52 54 56
f 50 49 55 53
o object_8
v -18.361188888549805 8.4840002059936523 17.715732574462891
v -17.429759979248047 8.4840002059936523 17.715732574462891
v -18.361188888549805 12.345000267028809 17.715732574462891
v -17.429759979248047 12.345000267028809 17.715732574462891
v -17.429759979248047 8.4840002059936523 16.375715255737305
v -17.429759979248047 12.345000267028809 16.375715255737305
v -22.996124267578125 8.4840002059936523 16.375715255737305
v -22.996124267578125 12.345000267028809 16.375715255737305
v -22.996124267578125 8.4840002059936523 20.635208129882812
v -22.996124267578125 12.345000267028809 20.635208129882812
v -17.429759979248047 8.4840002059936523 20.635208129882812
v -17.429759979248047 12.345000267028809 20.635208129882812
v -17.429759979248047 8.4840002059936523 19.857553482055664
v -17.429759979248047 12.345000267028809 19.857553482055664
v -18.361188888549805 8.4840002059936523 19.857553482055664
v -18.361188888549805 12.345000267028809 19.857553482055664
f 72 59 60 62 64 66 68 70
f 65 63 61 58 57 71 69 67
f 58 60 59 57
f 61 62 60 58
f 63 64 62 61
f 65 66 64 63
f 67 68 66 65
f 69 70 68 67
f 71 72 70 69
f 57 59 72 71
