# Rhino

o object_1
v -19.138818740844727 0 18.412029266357422
v -19.138818740844727 0 24.436508178710938
v -19.138818740844727 2.0789999961853027 18.412029266357422
v -19.138818740844727 2.0789999961853027 24.436508178710938
v -17.429759979248047 0 24.436508178710938
v -17.429759979248047 2.0789999961853027 24.436508178710938
v -17.429759979248047 0 18.412029266357422
v -17.429759979248047 2.0789999961853027 18.412029266357422
f 2 4 3 1
f 5 6 4 2
f 7 8 6 5
f 1 3 8 7
f 3 4 6 8
f 2 1 7 5
o object_2
v -19.138818740844727 2.0789999961853027 22.344354629516602
v -19.138818740844727 2.0789999961853027 24.436508178710938
v -19.138818740844727 5.7109999656677246 22.344354629516602
v -19.138818740844727 5.7109999656677246 24.436508178710938
v -17.429759979248047 2.0789999961853027 24.436508178710938
v -17.429759979248047 5.7109999656677246 24.436508178710938
v -17.429759979248047 2.0789999961853027 22.344354629516602
v -17.429759979248047 5.7109999656677246 22.344354629516602
f 10 12 11 9
f 13 14 12 10
f 15 16 14 13
f 9 11 16 15
f 11 12 14 16
f 10 9 15 13
o object_3
v -18.361188888549805 2.0789999961853027 14.281426429748535
v -17.429759979248047 2.0789999961853027 14.281426429748535
v -18.361188888549805 5.7109999656677246 14.281426429748535
v -17.429759979248047 5.7109999656677246 14.281426429748535
v -17.429759979248047 2.0789999961853027 12.57441520690918
v -17.429759979248047 5.7109999656677246 12.57441520690918
v -19.138818740844727 2.0789999961853027 12.57441520690918
v -19.138818740844727 5.7109999656677246 12.57441520690918
v -19.138818740844727 2.0789999961853027 22.344354629516602
v -19.138818740844727 5.7109999656677246 22.344354629516602
v -17.429759979248047 2.0789999961853027 22.344354629516602
v -17.429759979248047 5.7109999656677246 22.344354629516602
v -17.429759979248047 2.0789999961853027 17.028530120849609
v -17.429759979248047 5.7109999656677246 17.028530120849609
v -18.361188888549805 2.0789999961853027 17.028530120849609
v -18.361188888549805 5.7109999656677246 17.028530120849609
f 24 26 28 30 32 19 20 22
f 17 31 29 27 25 23 21 18
f 18 20 19 17
f 21 22 20 18
f 23 24 22 21
f 25 26 24 23
f 27 28 26 25
f 29 30 28 27
f 31 32 30 29
f 17 19 32 31
o object_4
v -18.361188888549805 0 14.281426429748535
v -17.429759979248047 0 14.281426429748535
v -18.361188888549805 2.0789999961853027 14.281426429748535
v -17.429759979248047 2.0789999961853027 14.281426429748535
v -17.429759979248047 0 12.57441520690918
v -17.429759979248047 2.0789999961853027 12.57441520690918
v -19.138818740844727 0 12.57441520690918
v -19.138818740844727 2.0789999961853027 12.57441520690918
v -19.138818740844727 0 18.412029266357422
v -19.138818740844727 2.0789999961853027 18.412029266357422
v -17.429759979248047 0 18.412029266357422
v -17.429759979248047 2.0789999961853027 18.412029266357422
v -17.429759979248047 0 17.028530120849609
v -17.429759979248047 2.0789999961853027 17.028530120849609
v -18.361188888549805 0 17.028530120849609
v -18.361188888549805 2.0789999961853027 17.028530120849609
f 48 35 36 38 40 42 44 46
f 41 39 37 34 33 47 45 43
f 34 36 35 33
f 37 38 36 34
f 39 40 38 37
f 41 42 40 39
f 43 44 42 41
f 45 46 44 43
f 47 48 46 45
f 33 35 48 47
o object_5
v -17.429759979248047 5.7109999656677246 17.715732574462891
v -17.429759979248047 5.7109999656677246 17.028530120849609
v -17.429759979248047 8.4840002059936523 17.715732574462891
v -17.429759979248047 8.4840002059936523 17.028530120849609
v -18.361188888549805 5.7109999656677246 17.028530120849609
v -18.361188888549805 8.4840002059936523 17.028530120849609
v -18.361188888549805 5.7109999656677246 14.281426429748535
v -18.361188888549805 8.4840002059936523 14.281426429748535
v -17.429759979248047 5.7109999656677246 14.281426429748535
v -17.429759979248047 8.4840002059936523 14.281426429748535
v -17.429759979248047 5.7109999656677246 12.57441520690918
v -17.429759979248047 8.4840002059936523 12.57441520690918
v -19.138818740844727 5.7109999656677246 12.57441520690918
v -19.138818740844727 8.4840002059936523 12.57441520690918
v -19.138818740844727 5.7109999656677246 20.980861663818359
v -19.138818740844727 8.4840002059936523 20.980861663818359
v -17.429759979248047 5.7109999656677246 20.980861663818359
v -17.429759979248047 8.4840002059936523 20.980861663818359
v -17.429759979248047 5.7109999656677246 19.857553482055664
v -17.429759979248047 8.4840002059936523 19.857553482055664
v -18.361188888549805 5.7109999656677246 19.857553482055664
v -18.361188888549805 8.4840002059936523 19.857553482055664
v -18.361188888549805 5.7109999656677246 17.715732574462891
v -18.361188888549805 8.4840002059936523 17.715732574462891
f 70 72 51 52 54 56 58 60 62 64 66 68
f 55 53 50 49 71 69 67 65 63 61 59 57
f 50 52 51 49
f 53 54 52 50
f 55 56 54 53
f 57 58 56 55
f 59 60 58 57
f 61 62 60 59
f 63 64 62 61
f 65 66 64 63
f 67 68 66 65
f 69 70 68 67
f 71 72 70 69
f 49 51 72 71
