# Rhino

o object_1
v -17.429760756843024 7.750999899291994 14.281426301149281
v -18.355761211554938 7.750999899291994 14.281426301149388
v -18.355761211554938 5.7110000000000012 14.281426301149388
v -17.429760756843024 5.7110000000000012 14.281426301149281
l 1 2 3 4 1
o object_2
v -17.997231957432174 7.7509998992919948 20.980861562145869
v -18.923232412144088 7.7509998992919948 20.980861562145876
v -18.923232412144088 5.711000000000003 20.980861562145876
v -17.997231957432174 5.711000000000003 20.980861562145869
l 5 6 7 8 5
o object_3
v -19.138818252964853 7.750999899291994 18.013866191898884
v -19.138818252964853 7.750999899291994 18.939866646610799
v -19.138818252964853 5.7110000000000012 18.939866646610799
v -19.138818252964853 5.7110000000000012 18.013866191898884
l 9 10 11 12 9
o object_4
v -21.124925861843703 7.7509998992919922 17.864741057796344
v -22.050926316555618 7.7509998992919922 17.864741057796351
v -22.050926316555618 5.7110000000000003 17.864741057796351
v -21.124925861843703 5.7110000000000003 17.864741057796344
l 13 14 15 16 13
o object_5
v -19.581291376818974 7.7509998992919922 17.864741057796344
v -20.507291831530889 7.7509998992919922 17.864741057796351
v -20.507291831530889 5.7110000000000003 17.864741057796351
v -19.581291376818974 5.7110000000000003 17.864741057796344
l 17 18 19 20 17
o object_6
v -21.124925861843707 7.7509998992919931 19.146182293016118
v -22.050926316555621 7.7509998992919931 19.146182293016125
v -22.050926316555621 5.7110000000000012 19.146182293016125
v -21.124925861843707 5.7110000000000012 19.146182293016118
l 21 22 23 24 21
o object_7
v -19.581291376818978 7.7509998992919931 19.146182293016118
v -20.507291831530893 7.7509998992919931 19.146182293016125
v -20.507291831530893 5.7110000000000012 19.146182293016125
v -19.581291376818978 5.7110000000000012 19.146182293016118
l 25 26 27 28 25
o object_8
v -19.138818252964853 7.750999899291994 23.019548086859764
v -19.138818252964853 7.750999899291994 22.09354763214785
v -19.138818252964853 5.7110000000000012 22.09354763214785
v -19.138818252964853 5.7110000000000012 23.019548086859764
l 29 30 31 32 29
o object_9
v -19.138818252964853 7.750999899291994 19.874729219014618
v -19.138818252964853 7.750999899291994 20.800729673726533
v -19.138818252964853 5.7110000000000012 20.800729673726533
v -19.138818252964853 5.7110000000000012 19.874729219014618
l 33 34 35 36 33
o object_10
v -19.13881825296485 7.750999899291994 17.040809704899736
v -19.13881825296485 7.750999899291994 16.114809250187822
v -19.13881825296485 5.7110000000000021 16.114809250187822
v -19.13881825296485 5.7110000000000021 17.040809704899736
l 37 38 39 40 37
o object_11
v -19.13881825296485 7.750999899291994 13.803124176271563
v -19.13881825296485 7.750999899291994 12.877123721559649
v -19.13881825296485 5.7110000000000021 12.877123721559649
v -19.13881825296485 5.7110000000000021 13.803124176271563
l 41 42 43 44 41
o object_12
v -17.429760756843024 4.1189998992919925 14.281426301149203
v -18.355761211554938 4.1189998992919925 14.28142630114931
v -18.355761211554938 2.0790000000000002 14.28142630114931
v -17.429760756843024 2.0790000000000002 14.281426301149203
l 45 46 47 48 45
o object_13
v -17.429760756843024 4.1189998992919925 17.028530480511826
v -18.355761211554938 4.1189998992919925 17.028530480511932
v -18.355761211554938 2.0790000000000006 17.028530480511932
v -17.429760756843024 2.0790000000000006 17.028530480511826
l 49 50 51 52 49
o object_14
v -17.70795751264534 4.1189998992919925 22.344354925241142
v -18.633957967357254 4.1189998992919925 22.344354925241248
v -18.633957967357254 2.0790000000000002 22.344354925241248
v -17.70795751264534 2.0790000000000002 22.344354925241142
l 53 54 55 56 53
o object_15
v -19.138818252964853 4.1189998992919925 19.874729219014618
v -19.138818252964853 4.1189998992919925 20.800729673726533
v -19.138818252964853 2.0790000000000002 20.800729673726533
v -19.138818252964853 2.0790000000000002 19.874729219014618
l 57 58 59 60 57
o object_16
v -19.13881825296485 4.1189998992919925 17.040809704899736
v -19.13881825296485 4.1189998992919925 16.114809250187822
v -19.13881825296485 2.0790000000000006 16.114809250187822
v -19.13881825296485 2.0790000000000006 17.040809704899736
l 61 62 63 64 61
o object_17
v -19.13881825296485 4.1189998992919925 13.803124176271563
v -19.13881825296485 4.1189998992919925 12.877123721559649
v -19.13881825296485 2.0790000000000006 12.877123721559649
v -19.13881825296485 2.0790000000000006 13.803124176271563
l 65 66 67 68 65
o object_18
v -17.828797199920608 2.0399998992920256 12.574415506895257
v -18.754797654632522 2.0399998992920256 12.574415506895264
v -18.754797654632522 0 12.574415506895264
v -17.828797199920608 0 12.574415506895257
l 69 70 71 72 69
o object_19
v -17.435187563943511 2.0399998992919888 17.028530480511925
v -18.361188018655426 2.0399998992919888 17.028530480511932
v -18.361188018655426 0 17.028530480511932
v -17.435187563943511 0 17.028530480511925
l 73 74 75 76 73
o object_20
v -17.435187563943511 2.0399998992919941 14.281426301149303
v -18.361188018655426 2.0399998992919941 14.28142630114931
v -18.361188018655426 0 14.28142630114931
v -17.435187563943511 0 14.281426301149303
l 77 78 79 80 77
o object_21
v -19.13881825296485 2.0399998992919919 12.877123721559649
v -19.13881825296485 2.0399998992919919 13.803124176271563
v -19.13881825296485 0 13.803124176271563
v -19.13881825296485 0 12.877123721559649
l 81 82 83 84 81
o object_22
v -19.13881825296485 2.0399998992919919 17.040809704899736
v -19.13881825296485 2.0399998992919919 16.114809250187822
v -19.13881825296485 0 16.114809250187822
v -19.13881825296485 0 17.040809704899736
l 85 86 87 88 85
o object_23
v -21.1249258618437 2.0399998992919919 17.340513727814386
v -22.050926316555614 2.0399998992919919 17.340513727814393
v -22.050926316555614 0 17.340513727814393
v -21.1249258618437 0 17.340513727814386
l 89 90 91 92 89
o object_24
v -21.1249258618437 2.0399998992919919 19.569016812600498
v -22.050926316555614 2.0399998992919919 19.569016812600506
v -22.050926316555614 0 19.569016812600506
v -21.1249258618437 0 19.569016812600498
l 93 94 95 96 93
o object_25
v -19.581291376818967 2.0399998992919919 17.340513727814386
v -20.507291831530882 2.0399998992919919 17.340513727814393
v -20.507291831530882 0 17.340513727814393
v -19.581291376818967 0 17.340513727814386
l 97 98 99 100 97
o object_26
v -19.581291376818971 2.0399998992919919 19.569016812600498
v -20.507291831530885 2.0399998992919919 19.569016812600506
v -20.507291831530885 0 19.569016812600506
v -19.581291376818971 0 19.569016812600498
l 101 102 103 104 101
o object_27
v -19.13881825296485 2.0399998992919919 19.874729219014618
v -19.13881825296485 2.0399998992919919 20.800729673726533
v -19.13881825296485 0 20.800729673726533
v -19.13881825296485 0 19.874729219014618
l 105 106 107 108 105
o object_28
v -19.133059769804298 2.0399998992919919 24.433503652167463
v -20.059060224516212 2.0399998992919919 24.43350365216747
v -20.059060224516212 0 24.43350365216747
v -19.133059769804298 0 24.433503652167463
l 109 110 111 112 109
o object_29
v -20.311941082371543 2.0399998992919919 24.736211866831855
v -20.311941082371543 2.0399998992919919 25.66221232154377
v -20.311941082371543 0 25.66221232154377
v -20.311941082371543 0 24.736211866831855
l 113 114 115 116 113
