# Rhino

o object_1
v -17.707956843127505 2.0399998992919923 24.436507843917077
v -18.633957297839419 2.0399998992919923 24.436507843917184
v -18.633957297839419 0 24.436507843917184
v -17.707956843127505 0 24.436507843917077
l 1 2 3 4 1
o object_2
v -17.70795751264534 4.1189998992919925 24.436507843917077
v -18.633957967357254 4.1189998992919925 24.436507843917184
v -18.633957967357254 2.0790000000000002 24.436507843917184
v -17.70795751264534 2.0790000000000002 24.436507843917077
l 5 6 7 8 5
o object_3
v -20.311941082371543 2.0399998992919919 24.736211866831855
v -20.311941082371543 2.0399998992919919 25.66221232154377
v -20.311941082371543 0 25.66221232154377
v -20.311941082371543 0 24.736211866831855
l 9 10 11 12 9
