# Rhino

o object_1
v -22.996124267578125 2.0789999961853027 12.57441520690918
v -22.996124267578125 2.0789999961853027 18.457769393920898
v -22.996124267578125 5.7109999656677246 12.57441520690918
v -22.996124267578125 5.7109999656677246 18.457769393920898
v -19.138818740844727 2.0789999961853027 18.457769393920898
v -19.138818740844727 5.7109999656677246 18.457769393920898
v -19.138818740844727 2.0789999961853027 12.57441520690918
v -19.138818740844727 5.7109999656677246 12.57441520690918
f 2 4 3 1
f 5 6 4 2
f 7 8 6 5
f 1 3 8 7
f 3 4 6 8
f 2 1 7 5
o object_2
v -22.996124267578125 2.0789999961853027 18.457769393920898
v -22.996124267578125 2.0789999961853027 24.436508178710938
v -22.996124267578125 5.7109999656677246 18.457769393920898
v -22.996124267578125 5.7109999656677246 24.436508178710938
v -19.138818740844727 2.0789999961853027 24.436508178710938
v -19.138818740844727 5.7109999656677246 24.436508178710938
v -19.138818740844727 2.0789999961853027 18.457769393920898
v -19.138818740844727 5.7109999656677246 18.457769393920898
f 10 12 11 9
f 13 14 12 10
f 15 16 14 13
f 9 11 16 15
f 11 12 14 16
f 10 9 15 13
o object_3
v -18.361188888549805 8.4840002059936523 17.715732574462891
v -17.429759979248047 8.4840002059936523 17.715732574462891
v -18.361188888549805 12.345000267028809 17.715732574462891
v -17.429759979248047 12.345000267028809 17.715732574462891
v -17.429759979248047 8.4840002059936523 16.375715255737305
v -17.429759979248047 12.345000267028809 16.375715255737305
v -22.996124267578125 8.4840002059936523 16.375715255737305
v -22.996124267578125 12.345000267028809 16.375715255737305
v -22.996124267578125 8.4840002059936523 20.635208129882812
v -22.996124267578125 12.345000267028809 20.635208129882812
v -17.429759979248047 8.4840002059936523 20.635208129882812
v -17.429759979248047 12.345000267028809 20.635208129882812
v -17.429759979248047 8.4840002059936523 19.857553482055664
v -17.429759979248047 12.345000267028809 19.857553482055664
v -18.361188888549805 8.4840002059936523 19.857553482055664
v -18.361188888549805 12.345000267028809 19.857553482055664
f 32 19 20 22 24 26 28 30
f 25 23 21 18 17 31 29 27
f 18 20 19 17
f 21 22 20 18
f 23 24 22 21
f 25 26 24 23
f 27 28 26 25
f 29 30 28 27
f 31 32 30 29
f 17 19 32 31
