# Rhino

o object_1
v -20.311941146850586 2.0789999961853027 24.433504104614258
v -20.311941146850586 2.0789999961853027 26.824039459228516
v -20.311941146850586 5.7109999656677246 24.433504104614258
v -20.311941146850586 5.7109999656677246 26.824039459228516
v -17.429759979248047 2.0789999961853027 26.824039459228516
v -17.429759979248047 5.7109999656677246 26.824039459228516
v -17.429759979248047 2.0789999961853027 24.433504104614258
v -17.429759979248047 5.7109999656677246 24.433504104614258
f 2 4 3 1
f 5 6 4 2
f 7 8 6 5
f 1 3 8 7
f 3 4 6 8
f 2 1 7 5
o object_2
v -18.361188888549805 0 14.281426429748535
v -18.361188888549805 0 17.028530120849609
v -18.361188888549805 8.4840002059936523 14.281426429748535
v -18.361188888549805 8.4840002059936523 17.028530120849609
v -17.429759979248047 0 17.028530120849609
v -17.429759979248047 8.4840002059936523 17.028530120849609
v -17.429759979248047 0 14.281426429748535
v -17.429759979248047 8.4840002059936523 14.281426429748535
f 10 12 11 9
f 13 14 12 10
f 15 16 14 13
f 9 11 16 15
f 11 12 14 16
f 10 9 15 13
o object_3
v -18.361188888549805 5.7109999656677246 17.715732574462891
v -18.361188888549805 5.7109999656677246 19.857553482055664
v -18.361188888549805 12.345000267028809 17.715732574462891
v -18.361188888549805 12.345000267028809 19.857553482055664
v -17.429759979248047 5.7109999656677246 19.857553482055664
v -17.429759979248047 12.345000267028809 19.857553482055664
v -17.429759979248047 5.7109999656677246 17.715732574462891
v -17.429759979248047 12.345000267028809 17.715732574462891
f 18 20 19 17
f 21 22 20 18
f 23 24 22 21
f 17 19 24 23
f 19 20 22 24
f 18 17 23 21
