# Rhino

o object_1
v -20.311941146850586 0 24.433504104614258
v -20.311481475830078 0 26.824039459228516
v -20.311941146850586 2.0789999961853027 24.433504104614258
v -20.311481475830078 2.0789999961853027 26.824039459228516
v -17.429302215576172 0 26.824518203735352
v -17.429302215576172 2.0789999961853027 26.824518203735352
v -17.42976188659668 0 24.433980941772461
v -17.42976188659668 2.0789999961853027 24.433980941772461
f 8 3 4 6
f 2 1 7 5
f 2 4 3 1
f 5 6 4 2
f 7 8 6 5
f 1 3 8 7
o object_2
v -22.996124267578125 0 17.343517303466797
v -22.996124267578125 0 18.457769393920898
v -22.996124267578125 2.0789999961853027 17.343517303466797
v -22.996124267578125 2.0789999961853027 18.457769393920898
v -20.760171890258789 0 18.457769393920898
v -20.760171890258789 2.0789999961853027 18.457769393920898
v -20.760171890258789 0 17.343517303466797
v -20.760171890258789 2.0789999961853027 17.343517303466797
f 10 12 11 9
f 13 14 12 10
f 15 16 14 13
f 9 11 16 15
f 11 12 14 16
f 10 9 15 13
o object_3
v -22.996124267578125 0 18.457769393920898
v -22.996124267578125 0 19.572021484375
v -22.996124267578125 2.0789999961853027 18.457769393920898
v -22.996124267578125 2.0789999961853027 19.572021484375
v -20.760171890258789 0 19.572021484375
v -20.760171890258789 2.0789999961853027 19.572021484375
v -20.760171890258789 0 18.457769393920898
v -20.760171890258789 2.0789999961853027 18.457769393920898
f 18 20 19 17
f 21 22 20 18
f 23 24 22 21
f 17 19 24 23
f 19 20 22 24
f 18 17 23 21
o object_4
v -20.997182846069336 5.7109999656677246 17.864740371704102
v -20.997182846069336 5.7109999656677246 18.489450454711914
v -20.997182846069336 8.4840002059936523 17.864740371704102
v -20.997182846069336 8.4840002059936523 18.489450454711914
v -19.641263961791992 5.7109999656677246 18.489450454711914
v -19.641263961791992 8.4840002059936523 18.489450454711914
v -19.641263961791992 5.7109999656677246 17.864740371704102
v -19.641263961791992 8.4840002059936523 17.864740371704102
f 26 28 27 25
f 29 30 28 26
f 31 32 30 29
f 25 27 32 31
f 27 28 30 32
f 26 25 31 29
o object_5
v -20.997182846069336 5.7109999656677246 18.489450454711914
v -20.997182846069336 5.7109999656677246 19.146183013916016
v -20.997182846069336 8.4840002059936523 18.489450454711914
v -20.997182846069336 8.4840002059936523 19.146183013916016
v -19.641263961791992 5.7109999656677246 19.146183013916016
v -19.641263961791992 8.4840002059936523 19.146183013916016
v -19.641263961791992 5.7109999656677246 18.489450454711914
v -19.641263961791992 8.4840002059936523 18.489450454711914
f 34 36 35 33
f 37 38 36 34
f 39 40 38 37
f 33 35 40 39
f 35 36 38 40
f 34 33 39 37
o object_6
v -19.641263961791992 5.7109999656677246 17.864740371704102
v -19.641263961791992 5.7109999656677246 19.146183013916016
v -19.641263961791992 8.4840002059936523 17.864740371704102
v -19.641263961791992 8.4840002059936523 19.146183013916016
v -19.138818740844727 5.7109999656677246 19.146183013916016
v -19.138818740844727 8.4840002059936523 19.146183013916016
v -19.138818740844727 5.7109999656677246 17.864740371704102
v -19.138818740844727 8.4840002059936523 17.864740371704102
f 42 44 43 41
f 45 46 44 42
f 47 48 46 45
f 41 43 48 47
f 43 44 46 48
f 42 41 47 45
