# Rhino

o object_1
v -21.684896231620254 8.017246682739259 12.574415506895271
v -22.688196183173599 8.017246682739259 12.574415506895271
v -22.688196183173599 6.1706303283691408 12.574415506895271
v -21.684896231620254 6.1706303283691408 12.574415506895271
l 1 2 3 4 1
o object_2
v -17.734560466163099 7.9421442901611332 12.574415506895271
v -18.737860417716444 7.9421442901611332 12.574415506895271
v -18.737860417716444 6.0955279357910159 12.574415506895271
v -17.734560466163099 6.0955279357910159 12.574415506895271
l 5 6 7 8 5
o object_3
v -21.684896231620254 2.5390764129638672 12.574415506895271
v -21.684896231620254 5.2439595657348637 12.574415506895271
v -22.688196183173599 5.2439595657348637 12.574415506895271
v -22.688196183173599 2.5390764129638672 12.574415506895271
l 9 10 11 12 9
o object_4
v -17.734560466163099 2.4639740203857423 12.574415506895271
v -17.734560466163099 5.1688571731567388 12.574415506895271
v -18.737860417716444 5.1688571731567388 12.574415506895271
v -18.737860417716444 2.4639740203857423 12.574415506895271
l 13 14 15 16 13
o object_5
v -19.715760538833084 1.5285394031524659 12.574415506895271
v -20.719060526721417 1.5285394031524659 12.574415506895271
v -20.719060526721417 0.065589374041557319 12.574415506895271
v -19.715760538833084 0.065589374041557319 12.574415506895271
l 17 18 19 20 17
o object_6
v -21.684896231620254 1.5285394031524659 12.574415506895271
v -22.688196183173599 1.5285394031524659 12.574415506895271
v -22.688196183173599 0.065589374041557319 12.574415506895271
v -21.684896231620254 0.065589374041557319 12.574415506895271
l 21 22 23 24 21
o object_7
v -21.696960466163095 6.010093034362793 24.436507843917198
v -21.696960466163095 8.017246682739259 24.436507843917198
v -22.700260417716439 8.017246682739259 24.436507843917198
v -22.700260417716439 6.010093034362793 24.436507843917198
l 25 26 27 28 25
o object_8
v -19.715760538833081 6.010093034362793 24.436507843917198
v -19.715760538833081 7.9421442901611332 24.436507843917198
v -20.719060526721414 7.9421442901611332 24.436507843917198
v -20.719060526721414 6.010093034362793 24.436507843917198
l 29 30 31 32 29
o object_9
v -17.734560466163096 6.010093034362793 24.436507843917198
v -17.734560466163096 7.9421442901611332 24.436507843917198
v -18.737860417716441 7.9421442901611332 24.436507843917198
v -18.737860417716441 6.010093034362793 24.436507843917198
l 33 34 35 36 33
o object_10
v -21.696960466163095 2.1441287178039552 24.436507843917198
v -21.696960466163095 4.9162621261596682 24.436507843917198
v -21.818460462729867 4.9576578552246096 24.436507843917198
v -21.943304150550304 4.9874885925292975 24.436507843917198
v -22.07039334084266 5.0054933074951178 24.436507843917198
v -22.198610514609751 5.0115121261596682 24.436507843917198
v -22.326827543036874 5.0054933074951178 24.436507843917198
v -22.453916733329233 4.9874885925292975 24.436507843917198
v -22.578760421149667 4.9576578552246096 24.436507843917198
v -22.700260417716439 4.9162621261596682 24.436507843917198
v -22.700260417716439 2.1441287178039552 24.436507843917198
l 37 38 39 40 41 42 43 44 45 46 47 37
o object_11
v -19.715760538833081 2.1441287178039552 24.436507843917198
v -19.715760538833081 4.9162621261596682 24.436507843917198
v -19.837260535399849 4.9576578552246096 24.436507843917198
v -19.962104223220287 4.9874885925292975 24.436507843917198
v -20.089193486182623 5.0054933074951178 24.436507843917198
v -20.217410532777251 5.0115121261596682 24.436507843917198
v -20.34562757482999 5.0054933074951178 24.436507843917198
v -20.472716860501706 4.9874885925292975 24.436507843917198
v -20.597560530154638 4.9576578552246096 24.436507843917198
v -20.719060526721414 4.9162621261596682 24.436507843917198
v -20.719060526721414 2.1441287178039552 24.436507843917198
l 48 49 50 51 52 53 54 55 56 57 58 48
o object_12
v -20.719060526721414 0.065589374041557319 24.436507843917198
v -20.719060526721414 1.6206118354797363 24.436507843917198
v -20.597560530154638 1.6620074192047121 24.436507843917198
v -20.472716842334208 1.6918384471893311 24.436507843917198
v -20.345627652041848 1.709842726135254 24.436507843917198
v -20.217410623614725 1.7158618354797364 24.436507843917198
v -20.089193449847635 1.709842726135254 24.436507843917198
v -19.962104259555275 1.6918384471893311 24.436507843917198
v -19.837260571734845 1.6620074192047121 24.436507843917198
v -19.715760575168069 1.6206118354797363 24.436507843917198
v -19.715760575168069 0.065589374041557319 24.436507843917198
l 59 60 61 62 63 64 65 66 67 68 69 59
o object_13
v -22.700260417716439 0.065589374041557319 24.436507843917198
v -22.700260417716439 1.6206118354797363 24.436507843917198
v -22.578760421149667 1.6620074192047121 24.436507843917198
v -22.453916733329233 1.6918384471893311 24.436507843917198
v -22.326827543036874 1.709842726135254 24.436507843917198
v -22.198610514609751 1.7158618354797364 24.436507843917198
v -22.07039334084266 1.709842726135254 24.436507843917198
v -21.943304150550304 1.6918384471893311 24.436507843917198
v -21.818460462729867 1.6620074192047121 24.436507843917198
v -21.696960466163095 1.6206118354797363 24.436507843917198
v -21.696960466163095 0.065589374041557319 24.436507843917198
l 70 71 72 73 74 75 76 77 78 79 80 70
