# Rhino

mtllib attic level.mtl
usemtl Default
v -66.291908264160156 -2.0789999961853027 21.936269760131836
v -66.291908264160156 -2.0789999961853027 19.298360824584961
v -66.291908264160156 -2.0789999961853027 17.979406356811523
v -66.291908264160156 -2.0789999961853027 15.341497421264648
v -65.480804443359375 -2.0789999961853027 21.936269760131836
v -65.480804443359375 -2.0789999961853027 19.298360824584961
v -65.480804443359375 -2.0789999961853027 17.979406356811523
v -65.480804443359375 -2.0789999961853027 15.341497421264648
v -64.669708251953125 -2.0789999961853027 21.936269760131836
v -64.669708251953125 -2.0789999961853027 20.617315292358398
v -64.669708251953125 -2.0789999961853027 19.298360824584961
v -64.669708251953125 -2.0789999961853027 17.979406356811523
v -64.669708251953125 -2.0789999961853027 16.660451889038086
v -64.669708251953125 -2.0789999961853027 15.341497421264648
v -63.858608245849609 -2.0789999961853027 21.936269760131836
v -63.858608245849609 -2.0789999961853027 20.617315292358398
v -63.858608245849609 -2.0789999961853027 19.298360824584961
v -63.858608245849609 -2.0789999961853027 17.979406356811523
v -63.858608245849609 -2.0789999961853027 16.660451889038086
v -63.858608245849609 -2.0789999961853027 15.341497421264648
v -63.047512054443359 -2.0789999961853027 21.936269760131836
v -63.047512054443359 -2.0789999961853027 19.298360824584961
v -63.047512054443359 -2.0789999961853027 17.979406356811523
v -63.047512054443359 -2.0789999961853027 15.341497421264648
v -62.236412048339844 -2.0789999961853027 21.936269760131836
v -62.236412048339844 -2.0789999961853027 17.979406356811523
v -62.236412048339844 -2.0789999961853027 15.341497421264648
v -61.480976104736328 -2.0789999961853027 20.843629837036133
v -62.301773071289062 -2.0789999961853027 20.843629837036133
v -63.122573852539062 -2.0789999961853027 20.843629837036133
v -63.122573852539062 -2.0789999961853027 20.693630218505859
v -63.047512054443359 -2.0789999961853027 21.276792526245117
v -63.453060150146484 -2.0789999961853027 20.617315292358398
v -63.858608245849609 -2.0789999961853027 21.276792526245117
v -63.453060150146484 -2.0789999961853027 21.936269760131836
v -63.453060150146484 -2.0789999961853027 21.276792526245117
v -63.047512054443359 -2.0789999961853027 20.947053909301758
v -63.250286102294922 -2.0789999961853027 20.617315292358398
v -63.453060150146484 -2.0789999961853027 20.947053909301758
v -63.250286102294922 -2.0789999961853027 21.276792526245117
v -63.250286102294922 -2.0789999961853027 20.947053909301758
v -62.236412048339844 -2.0789999961853027 21.276792526245117
v -62.641960144042969 -2.0789999961853027 20.617315292358398
v -62.641960144042969 -2.0789999961853027 21.936269760131836
v -62.641960144042969 -2.0789999961853027 21.276792526245117
v -63.047512054443359 -2.0789999961853027 19.95783805847168
v -63.453060150146484 -2.0789999961853027 19.298360824584961
v -63.858608245849609 -2.0789999961853027 19.95783805847168
v -63.453060150146484 -2.0789999961853027 19.95783805847168
v -62.301773071289062 -2.0789999961853027 20.693630218505859
v -61.480976104736328 -2.0789999961853027 20.693630218505859
v -61.480976104736328 -2.0789999961853027 20.065975189208984
v -61.621566772460938 -2.0789999961853027 20.065975189208984
v -61.830863952636719 -2.0789999961853027 19.298360824584961
v -62.236412048339844 -2.0789999961853027 19.95783805847168
v -61.830863952636719 -2.0789999961853027 20.617315292358398
v -61.830863952636719 -2.0789999961853027 19.95783805847168
v -61.830863952636719 -2.0789999961853027 20.287576675415039
v -61.628086090087891 -2.0789999961853027 20.617315292358398
v -61.628086090087891 -2.0789999961853027 20.287576675415039
v -61.830863952636719 -2.0789999961853027 21.936269760131836
v -61.830863952636719 -2.0789999961853027 21.276792526245117
v -61.621566772460938 -2.0789999961853027 19.915975570678711
v -61.628086090087891 -2.0789999961853027 19.298360824584961
v -61.830863952636719 -2.0789999961853027 19.62809944152832
v -61.628086090087891 -2.0789999961853027 19.62809944152832
v -61.830863952636719 -2.0789999961853027 17.979406356811523
v -61.830863952636719 -2.0789999961853027 18.638883590698242
v -61.480976104736328 -2.0789999961853027 19.915975570678711
v -61.480976104736328 -2.0789999961853027 19.252035140991211
v -61.480976104736328 -2.0789999961853027 18.588094711303711
v -61.480976104736328 -2.0789999961853027 17.924154281616211
v -61.621566772460938 -2.0789999961853027 17.924154281616211
v -62.236412048339844 -2.0789999961853027 17.319929122924805
v -61.830863952636719 -2.0789999961853027 17.319929122924805
v -61.628086090087891 -2.0789999961853027 17.319929122924805
v -61.830863952636719 -2.0789999961853027 17.649667739868164
v -61.628086090087891 -2.0789999961853027 17.649667739868164
v -61.621566772460938 -2.0789999961853027 17.774154663085938
v -61.480976104736328 -2.0789999961853027 17.774154663085938
v -61.480976104736328 -2.0789999961853027 17.179145812988281
v -61.480976104736328 -2.0789999961853027 16.584136962890625
v -62.301773071289062 -2.0789999961853027 16.584136962890625
v -63.122573852539062 -2.0789999961853027 16.584136962890625
v -63.122573852539062 -2.0789999961853027 16.434137344360352
v -63.047512054443359 -2.0789999961853027 16.000974655151367
v -63.453060150146484 -2.0789999961853027 15.341497421264648
v -63.858608245849609 -2.0789999961853027 16.000974655151367
v -63.453060150146484 -2.0789999961853027 16.660451889038086
v -63.453060150146484 -2.0789999961853027 16.000974655151367
v -63.047512054443359 -2.0789999961853027 16.330713272094727
v -63.250286102294922 -2.0789999961853027 16.000974655151367
v -63.453060150146484 -2.0789999961853027 16.330713272094727
v -63.250286102294922 -2.0789999961853027 16.660451889038086
v -63.250286102294922 -2.0789999961853027 16.330713272094727
v -63.047512054443359 -2.0789999961853027 17.319929122924805
v -63.858608245849609 -2.0789999961853027 17.319929122924805
v -63.453060150146484 -2.0789999961853027 17.979406356811523
v -63.453060150146484 -2.0789999961853027 17.319929122924805
v -62.236412048339844 -2.0789999961853027 16.000974655151367
v -62.641960144042969 -2.0789999961853027 15.341497421264648
v -62.641960144042969 -2.0789999961853027 16.000974655151367
v -62.301773071289062 -2.0789999961853027 16.434137344360352
v -61.480976104736328 -2.0789999961853027 16.434137344360352
v -61.480976104736328 -2.0789999961853027 15.660444259643555
v -61.480976104736328 -2.0789999961853027 14.886752128601074
v -61.480976104736328 -2.0789999961853027 14.113059043884277
v -62.383705139160156 -2.0789999961853027 14.113059043884277
v -63.286430358886719 -2.0789999961853027 14.113059043884277
v -64.189155578613281 -2.0789999961853027 14.113059043884277
v -64.189155578613281 -2.0789999961853027 14.886752128601074
v -64.189155578613281 -2.0789999961853027 15.660444259643555
v -64.189155578613281 -2.0789999961853027 16.434137344360352
v -64.048576354980469 -2.0789999961853027 16.434137344360352
v -64.669708251953125 -2.0789999961853027 16.000974655151367
v -63.858608245849609 -2.0789999961853027 16.330713272094727
v -64.061386108398438 -2.0789999961853027 16.000974655151367
v -64.061386108398438 -2.0789999961853027 16.330713272094727
v -64.669708251953125 -2.0789999961853027 17.319929122924805
v -64.26416015625 -2.0789999961853027 17.979406356811523
v -64.26416015625 -2.0789999961853027 17.319929122924805
v -64.048576354980469 -2.0789999961853027 16.584136962890625
v -64.479743957519531 -2.0789999961853027 16.584136962890625
v -64.479743957519531 -2.0789999961853027 16.434137344360352
v -64.466934204101562 -2.0789999961853027 16.000974655151367
v -64.669708251953125 -2.0789999961853027 16.330713272094727
v -64.466934204101562 -2.0789999961853027 16.330713272094727
v -65.07525634765625 -2.0789999961853027 15.341497421264648
v -65.480804443359375 -2.0789999961853027 16.000974655151367
v -65.07525634765625 -2.0789999961853027 16.660451889038086
v -65.07525634765625 -2.0789999961853027 16.000974655151367
v -64.339157104492188 -2.0789999961853027 16.434137344360352
v -64.339157104492188 -2.0789999961853027 15.660444259643555
v -64.339157104492188 -2.0789999961853027 14.886752128601074
v -64.339157104492188 -2.0789999961853027 14.113059043884277
v -65.24188232421875 -2.0789999961853027 14.113059043884277
v -66.144615173339844 -2.0789999961853027 14.113059043884277
v -67.047340393066406 -2.0789999961853027 14.113059043884277
v -67.047340393066406 -2.0789999961853027 14.886752128601074
v -67.047340393066406 -2.0789999961853027 15.660444259643555
v -67.047340393066406 -2.0789999961853027 16.434137344360352
v -66.226539611816406 -2.0789999961853027 16.434137344360352
v -65.405746459960938 -2.0789999961853027 16.434137344360352
v -65.405746459960938 -2.0789999961853027 16.584136962890625
v -65.07525634765625 -2.0789999961853027 16.330713272094727
v -65.278030395507812 -2.0789999961853027 16.000974655151367
v -65.480804443359375 -2.0789999961853027 16.330713272094727
v -65.278030395507812 -2.0789999961853027 16.660451889038086
v -65.278030395507812 -2.0789999961853027 16.330713272094727
v -65.8863525390625 -2.0789999961853027 15.341497421264648
v -66.291908264160156 -2.0789999961853027 16.000974655151367
v -65.8863525390625 -2.0789999961853027 16.000974655151367
v -65.480804443359375 -2.0789999961853027 17.319929122924805
v -65.07525634765625 -2.0789999961853027 17.979406356811523
v -65.07525634765625 -2.0789999961853027 17.319929122924805
v -66.226539611816406 -2.0789999961853027 16.584136962890625
v -67.047340393066406 -2.0789999961853027 16.584136962890625
v -67.047340393066406 -2.0789999961853027 17.406036376953125
v -67.047340393066406 -2.0789999961853027 18.227933883666992
v -67.047340393066406 -2.0789999961853027 19.049833297729492
v -67.047340393066406 -2.0789999961853027 19.871730804443359
v -67.047340393066406 -2.0789999961853027 20.693630218505859
v -66.226539611816406 -2.0789999961853027 20.693630218505859
v -65.405746459960938 -2.0789999961853027 20.693630218505859
v -65.405746459960938 -2.0789999961853027 20.843629837036133
v -64.669708251953125 -2.0789999961853027 21.276792526245117
v -65.07525634765625 -2.0789999961853027 20.617315292358398
v -65.480804443359375 -2.0789999961853027 21.276792526245117
v -65.07525634765625 -2.0789999961853027 21.936269760131836
v -65.07525634765625 -2.0789999961853027 21.276792526245117
v -65.07525634765625 -2.0789999961853027 20.947053909301758
v -65.278030395507812 -2.0789999961853027 20.617315292358398
v -65.480804443359375 -2.0789999961853027 20.947053909301758
v -65.278030395507812 -2.0789999961853027 21.276792526245117
v -65.278030395507812 -2.0789999961853027 20.947053909301758
v -64.669708251953125 -2.0789999961853027 19.95783805847168
v -65.07525634765625 -2.0789999961853027 19.298360824584961
v -65.480804443359375 -2.0789999961853027 19.95783805847168
v -65.07525634765625 -2.0789999961853027 19.95783805847168
v -66.291908264160156 -2.0789999961853027 21.276792526245117
v -65.8863525390625 -2.0789999961853027 21.936269760131836
v -65.8863525390625 -2.0789999961853027 21.276792526245117
v -66.226539611816406 -2.0789999961853027 20.843629837036133
v -67.047340393066406 -2.0789999961853027 20.843629837036133
v -67.047340393066406 -2.0789999961853027 21.61732292175293
v -67.047340393066406 -2.0789999961853027 22.391014099121094
v -67.047340393066406 -2.0789999961853027 23.164707183837891
v -66.144615173339844 -2.0789999961853027 23.164707183837891
v -65.24188232421875 -2.0789999961853027 23.164707183837891
v -64.339157104492188 -2.0789999961853027 23.164707183837891
v -64.339157104492188 -2.0789999961853027 22.391014099121094
v -64.339157104492188 -2.0789999961853027 21.61732292175293
v -64.339157104492188 -2.0789999961853027 20.843629837036133
v -64.479743957519531 -2.0789999961853027 20.843629837036133
v -64.26416015625 -2.0789999961853027 20.617315292358398
v -64.466934204101562 -2.0789999961853027 20.617315292358398
v -64.669708251953125 -2.0789999961853027 20.947053909301758
v -64.466934204101562 -2.0789999961853027 21.276792526245117
v -64.466934204101562 -2.0789999961853027 20.947053909301758
v -64.26416015625 -2.0789999961853027 19.298360824584961
v -64.26416015625 -2.0789999961853027 19.95783805847168
v -64.479743957519531 -2.0789999961853027 20.693630218505859
v -64.048576354980469 -2.0789999961853027 20.693630218505859
v -64.048576354980469 -2.0789999961853027 20.843629837036133
v -63.858608245849609 -2.0789999961853027 20.947053909301758
v -64.061386108398438 -2.0789999961853027 20.617315292358398
v -64.061386108398438 -2.0789999961853027 21.276792526245117
v -64.061386108398438 -2.0789999961853027 20.947053909301758
v -64.189155578613281 -2.0789999961853027 20.843629837036133
v -64.189155578613281 -2.0789999961853027 21.61732292175293
v -64.189155578613281 -2.0789999961853027 22.391014099121094
v -64.189155578613281 -2.0789999961853027 23.164707183837891
v -63.286430358886719 -2.0789999961853027 23.164707183837891
v -62.383705139160156 -2.0789999961853027 23.164707183837891
v -61.480976104736328 -2.0789999961853027 23.164707183837891
v -61.480976104736328 -2.0789999961853027 22.391014099121094
v -61.480976104736328 -2.0789999961853027 21.61732292175293
v -62.33740234375 -2.0789999961853027 17.774154663085938
v -62.33740234375 -2.0789999961853027 18.538093566894531
v -62.33740234375 -2.0789999961853027 19.302034378051758
v -62.33740234375 -2.0789999961853027 20.065975189208984
v -62.487403869628906 -2.0789999961853027 20.065975189208984
v -62.641960144042969 -2.0789999961853027 19.298360824584961
v -62.641960144042969 -2.0789999961853027 19.95783805847168
v -62.236412048339844 -2.0789999961853027 20.287576675415039
v -62.641960144042969 -2.0789999961853027 20.287576675415039
v -62.439186096191406 -2.0789999961853027 20.617315292358398
v -62.439186096191406 -2.0789999961853027 20.287576675415039
v -62.487403869628906 -2.0789999961853027 19.302034378051758
v -62.487403869628906 -2.0789999961853027 18.538093566894531
v -62.487403869628906 -2.0789999961853027 17.774154663085938
v -62.641960144042969 -2.0789999961853027 17.979406356811523
v -62.641960144042969 -2.0789999961853027 17.319929122924805
v -62.236412048339844 -2.0789999961853027 17.649667739868164
v -62.439186096191406 -2.0789999961853027 17.319929122924805
v -62.641960144042969 -2.0789999961853027 17.649667739868164
v -62.439186096191406 -2.0789999961853027 17.649667739868164
v -63.047512054443359 -2.0789999961853027 18.638883590698242
v -62.641960144042969 -2.0789999961853027 18.638883590698242
v -66.291908264160156 -2.0789999961853027 20.617315292358398
v -66.291908264160156 -2.0789999961853027 16.660451889038086
v -62.236412048339844 -2.0789999961853027 16.660451889038086
vn 0 1 0
vn 0 1 0
vn 0 1 0
vn 0 1 0
vn 0 1 0
vn 0 1 0
vn 0 1 0
vn 0 1 0
vn 0 1 0
vn 0 1 0
vn 0 1 0
vn 0 1 0
vn 0 1 0
vn 0 1 0
vn 0 1 0
vn 0 1 0
vn 0 1 0
vn 0 1 0
vn 0 1 0
vn 0 1 0
vn 0 1 0
vn 0 1 0
vn 0 1 0
vn 0 1 0
vn 0 1 0
vn 0 1 0
vn 0 1 0
vn 0 1 0
vn 0 1 0
vn 0 1 0
vn 0 1 0
vn 0 1 0
vn 0 1 0
vn 0 1 0
vn 0 1 0
vn 0 1 0
vn 0 1 0
vn 0 1 0
vn 0 1 0
vn 0 1 0
vn 0 1 0
vn 0 1 0
vn 0 1 0
vn 0 1 0
vn 0 1 0
vn 0 1 0
vn 0 1 0
vn 0 1 0
vn 0 1 0
vn 0 1 0
vn 0 1 0
vn 0 1 0
vn 0 1 0
vn 0 1 0
vn 0 1 0
vn 0 1 0
vn 0 1 0
vn 0 1 0
vn 0 1 0
vn 0 1 0
vn 0 1 0
vn 0 1 0
vn 0 1 0
vn 0 1 0
vn 0 1 0
vn 0 1 0
vn 0 1 0
vn 0 1 0
vn 0 1 0
vn 0 1 0
vn 0 1 0
vn 0 1 0
vn 0 1 0
vn 0 1 0
vn 0 1 0
vn 0 1 0
vn 0 1 0
vn 0 1 0
vn 0 1 0
vn 0 1 0
vn 0 1 0
vn 0 1 0
vn 0 1 0
vn 0 1 0
vn 0 1 0
vn 0 1 0
vn 0 1 0
vn 0 1 0
vn 0 1 0
vn 0 1 0
vn 0 1 0
vn 0 1 0
vn 0 1 0
vn 0 1 0
vn 0 1 0
vn 0 1 0
vn 0 1 0
vn 0 1 0
vn 0 1 0
vn 0 1 0
vn 0 1 0
vn 0 1 0
vn 0 1 0
vn 0 1 0
vn 0 1 0
vn 0 1 0
vn 0 1 0
vn 0 1 0
vn 0 1 0
vn 0 1 0
vn 0 1 0
vn 0 1 0
vn 0 1 0
vn 0 1 0
vn 0 1 0
vn 0 1 0
vn 0 1 0
vn 0 1 0
vn 0 1 0
vn 0 1 0
vn 0 1 0
vn 0 1 0
vn 0 1 0
vn 0 1 0
vn 0 1 0
vn 0 1 0
vn 0 1 0
vn 0 1 0
vn 0 1 0
vn 0 1 0
vn 0 1 0
vn 0 1 0
vn 0 1 0
vn 0 1 0
vn 0 1 0
vn 0 1 0
vn 0 1 0
vn 0 1 0
vn 0 1 0
vn 0 1 0
vn 0 1 0
vn 0 1 0
vn 0 1 0
vn 0 1 0
vn 0 1 0
vn 0 1 0
vn 0 1 0
vn 0 1 0
vn 0 1 0
vn 0 1 0
vn 0 1 0
vn 0 1 0
vn 0 1 0
vn 0 1 0
vn 0 1 0
vn 0 1 0
vn 0 1 0
vn 0 1 0
vn 0 1 0
vn 0 1 0
vn 0 1 0
vn 0 1 0
vn 0 1 0
vn 0 1 0
vn 0 1 0
vn 0 1 0
vn 0 1 0
vn 0 1 0
vn 0 1 0
vn 0 1 0
vn 0 1 0
vn 0 1 0
vn 0 1 0
vn 0 1 0
vn 0 1 0
vn 0 1 0
vn 0 1 0
vn 0 1 0
vn 0 1 0
vn 0 1 0
vn 0 1 0
vn 0 1 0
vn 0 1 0
vn 0 1 0
vn 0 1 0
vn 0 1 0
vn 0 1 0
vn 0 1 0
vn 0 1 0
vn 0 1 0
vn 0 1 0
vn 0 1 0
vn 0 1 0
vn 0 1 0
vn 0 1 0
vn 0 1 0
vn 0 1 0
vn 0 1 0
vn 0 1 0
vn 0 1 0
vn 0 1 0
vn 0 1 0
vn 0 1 0
vn 0 1 0
vn 0 1 0
vn 0 1 0
vn 0 1 0
vn 0 1 0
vn 0 1 0
vn 0 1 0
vn 0 1 0
vn 0 1 0
vn 0 1 0
vn 0 1 0
vn 0 1 0
vn 0 1 0
vn 0 1 0
vn 0 1 0
vn 0 1 0
vn 0 1 0
vn 0 1 0
vn 0 1 0
vn 0 1 0
vn 0 1 0
vn 0 1 0
vn 0 1 0
vn 0 1 0
vn 0 1 0
vn 0 1 0
vn 0 1 0
vn 0 1 0
vn 0 1 0
vn 0 1 0
vn 0 1 0
vn 0 1 0
vn 0 1 0
vn 0 1 0
vn 0 1 0
vn 0 1 0
vn 0 1 0
vn 0 1 0
vn 0 1 0
f 182//182 180//180 1//1 181//181
f 168//168 182//182 181//181 5//5
f 7//7 3//3 2//2 6//6
f 8//8 150//150 152//152 129//129
f 150//150 4//4 151//151 152//152
f 197//197 10//10 167//167 171//171
f 171//171 170//170 166//166 197//197
f 167//167 172//172 175//175 171//171
f 175//175 173//173 168//168 174//174
f 171//171 175//175 174//174 170//170
f 174//174 168//168 5//5
f 169//169 170//170 174//174
f 5//5 169//169 174//174
f 166//166 170//170 169//169 9//9
f 11//11 177//177 179//179 176//176
f 177//177 6//6 178//178 179//179
f 176//176 179//179 167//167 10//10
f 154//154 7//7 6//6 177//177
f 177//177 11//11 12//12 154//154
f 13//13 130//130 155//155 119//119
f 155//155 153//153 7//7 154//154
f 119//119 155//155 154//154 12//12
f 14//14 128//128 131//131 115//115
f 146//146 131//131 128//128
f 8//8 129//129 146//146
f 128//128 8//8 146//146
f 131//131 146//146 149//149 145//145
f 146//146 129//129 147//147 149//149
f 145//145 149//149 148//148 130//130
f 126//126 115//115 131//131 145//145
f 145//145 130//130 13//13 126//126
f 205//205 208//208 207//207 34//34
f 199//199 197//197 166//166 198//198
f 17//17 200//200 201//201 48//48
f 200//200 11//11 176//176 201//201
f 196//196 195//195 201//201
f 176//176 10//10 196//196
f 201//201 176//176 196//196
f 206//206 16//16 48//48
f 201//201 195//195 206//206
f 48//48 201//201 206//206
f 120//120 12//12 11//11 200//200
f 200//200 17//17 18//18 120//120
f 121//121 119//119 12//12 120//120
f 97//97 121//121 120//120 18//18
f 125//125 115//115 126//126 127//127
f 88//88 117//117 118//118 116//116
f 38//38 33//33 39//39 41//41
f 41//41 39//39 36//36 40//40
f 37//37 41//41 40//40 32//32
f 39//39 33//33 16//16 205//205
f 205//205 34//34 36//36 39//39
f 36//36 34//34 15//15 35//35
f 40//40 36//36 35//35
f 21//21 32//32 40//40
f 35//35 21//21 40//40
f 22//22 47//47 49//49 46//46
f 47//47 17//17 48//48 49//49
f 49//49 48//48 16//16 33//33
f 98//98 47//47 238//238
f 47//47 22//22 238//238
f 238//238 23//23 98//98
f 98//98 18//18 17//17 47//47
f 89//89 19//19 97//97 99//99
f 99//99 97//97 18//18 98//98
f 96//96 99//99 98//98 23//23
f 92//92 86//86 24//24
f 87//87 90//90 92//92
f 24//24 87//87 92//92
f 87//87 20//20 88//88 90//90
f 93//93 90//90 88//88 116//116
f 116//116 19//19 89//89 93//93
f 86//86 92//92 95//95 91//91
f 92//92 90//90 93//93 95//95
f 95//95 93//93 89//89 94//94
f 45//45 32//32 21//21 44//44
f 42//42 45//45 44//44 25//25
f 223//223 22//22 46//46 224//224
f 228//228 226//226 43//43 227//227
f 225//225 228//228 227//227
f 232//232 23//23 238//238 239//239
f 239//239 238//238 22//22 223//223
f 236//236 233//233 96//96
f 23//23 232//232 236//236
f 96//96 23//23 236//236
f 74//74 235//235 237//237 234//234
f 235//235 233//233 236//236 237//237
f 27//27 101//101 102//102 100//100
f 101//101 24//24 86//86 102//102
f 62//62 42//42 25//25 61//61
f 64//64 54//54 65//65 66//66
f 55//55 57//57 65//65
f 65//65 54//54 55//55
f 60//60 58//58 56//56 59//59
f 68//68 67//67 26//26
f 77//77 75//75 74//74 234//234
f 234//234 26//26 67//67 77//77
f 76//76 75//75 77//77 78//78
f 186//186 187//187 188//188
f 1//1 186//186 188//188
f 180//180 185//185 1//1
f 186//186 1//1 185//185
f 184//184 185//185 180//180
f 181//181 1//1 188//188
f 5//5 181//181 189//189
f 188//188 189//189 181//181
f 169//169 5//5 189//189
f 173//173 182//182 168//168
f 183//183 180//180 182//182
f 169//169 189//189 9//9
f 183//183 173//173 165//165
f 184//184 180//180 183//183
f 161//161 162//162 240//240
f 240//240 162//162 163//163
f 240//240 163//163 164//164
f 240//240 2//2 161//161
f 173//173 183//183 182//182
f 172//172 164//164 165//165
f 175//175 172//172 165//165
f 172//172 240//240 164//164
f 179//179 178//178 172//172
f 172//172 178//178 240//240
f 172//172 167//167 179//179
f 178//178 2//2 240//240
f 173//173 175//175 165//165
f 9//9 189//189 191//191
f 190//190 191//191 189//189
f 192//192 198//198 9//9
f 9//9 198//198 166//166
f 192//192 9//9 191//191
f 15//15 211//211 213//213
f 212//212 213//213 211//211
f 210//210 211//211 15//15
f 209//209 210//210 207//207
f 193//193 198//198 192//192
f 15//15 207//207 210//210
f 207//207 15//15 34//34
f 193//193 194//194 199//199
f 197//197 194//194 10//10
f 193//193 199//199 198//198
f 196//196 10//10 202//202
f 194//194 202//202 10//10
f 202//202 195//195 196//196
f 199//199 194//194 197//197
f 208//208 204//204 209//209
f 205//205 204//204 208//208
f 203//203 206//206 195//195
f 206//206 203//203 16//16
f 204//204 16//16 203//203
f 16//16 204//204 205//205
f 203//203 195//195 202//202
f 207//207 208//208 209//209
f 160//160 3//3 159//159
f 161//161 2//2 160//160
f 2//2 3//3 160//160
f 158//158 241//241 157//157
f 159//159 3//3 158//158
f 3//3 241//241 158//158
f 7//7 153//153 3//3
f 155//155 148//148 153//153
f 3//3 153//153 241//241
f 157//157 241//241 156//156
f 153//153 148//148 241//241
f 143//143 144//144 148//148
f 156//156 241//241 144//144
f 241//241 148//148 144//144
f 6//6 2//2 178//178
f 151//151 141//141 142//142
f 140//140 141//141 151//151
f 4//4 139//139 140//140
f 4//4 137//137 139//139
f 138//138 139//139 137//137
f 4//4 140//140 151//151
f 152//152 151//151 142//142
f 142//142 147//147 152//152
f 129//129 152//152 147//147
f 150//150 136//136 137//137
f 150//150 137//137 4//4
f 147//147 143//143 149//149
f 8//8 136//136 150//150
f 142//142 143//143 147//147
f 148//148 149//149 143//143
f 124//124 126//126 13//13
f 119//119 121//121 13//13
f 155//155 130//130 148//148
f 122//122 123//123 13//13 19//19
f 19//19 121//121 97//97
f 13//13 121//121 19//19
f 132//132 127//127 124//124
f 112//112 113//113 117//117
f 124//124 127//127 126//126
f 19//19 114//114 122//122
f 13//13 123//123 124//124
f 114//114 118//118 113//113
f 14//14 115//115 125//125
f 14//14 136//136 128//128
f 128//128 136//136 8//8
f 134//134 136//136 14//14
f 14//14 125//125 133//133
f 133//133 134//134 14//14
f 125//125 127//127 132//132
f 125//125 132//132 133//133
f 20//20 111//111 112//112
f 136//136 134//134 135//135
f 111//111 109//109 110//110
f 117//117 20//20 112//112
f 113//113 118//118 117//117
f 114//114 116//116 118//118
f 37//37 30//30 41//41
f 15//15 213//213 35//35
f 30//30 38//38 41//41
f 31//31 38//38 30//30
f 49//49 33//33 38//38
f 21//21 35//35 213//213
f 21//21 213//213 44//44
f 214//214 44//44 213//213
f 31//31 50//50 43//43
f 30//30 37//37 29//29
f 32//32 45//45 37//37
f 29//29 37//37 45//45
f 31//31 43//43 38//38
f 46//46 49//49 38//38
f 38//38 43//43 226//226
f 38//38 226//226 46//46
f 226//226 224//224 46//46
f 223//223 224//224 222//222 229//229
f 224//224 226//226 222//222
f 222//222 226//226 228//228
f 228//228 225//225 221//221 222//222
f 229//229 230//230 239//239 223//223
f 55//55 220//220 221//221
f 214//214 25//25 44//44
f 61//61 25//25 214//214
f 45//45 42//42 29//29
f 42//42 62//62 29//29
f 28//28 29//29 62//62
f 50//50 227//227 43//43
f 62//62 61//61 217//217
f 61//61 216//216 217//217
f 62//62 217//217 28//28
f 51//51 59//59 56//56
f 56//56 50//50 51//51
f 60//60 59//59 51//51
f 216//216 61//61 214//214
f 214//214 215//215 216//216
f 227//227 56//56 58//58 225//225
f 58//58 57//57 55//55 225//225
f 53//53 57//57 58//58
f 54//54 220//220 55//55
f 63//63 65//65 57//57
f 58//58 60//60 53//53
f 225//225 55//55 221//221
f 65//65 63//63 66//66
f 60//60 52//52 53//53
f 70//70 64//64 66//66
f 66//66 69//69 70//70
f 69//69 66//66 63//63
f 68//68 54//54 64//64
f 53//53 63//63 57//57
f 52//52 60//60 51//51
f 54//54 68//68 220//220
f 56//56 227//227 50//50
f 64//64 70//70 71//71
f 94//94 99//99 96//96
f 99//99 94//94 89//89
f 94//94 96//96 233//233
f 218//218 237//237 231//231
f 236//236 232//232 231//231
f 94//94 233//233 242//242
f 237//237 236//236 231//231
f 242//242 233//233 235//235
f 232//232 239//239 230//230 231//231
f 85//85 94//94 84//84
f 117//117 88//88 20//20
f 20//20 87//87 109//109
f 87//87 24//24 109//109
f 111//111 20//20 109//109
f 85//85 95//95 94//94
f 102//102 86//86 91//91
f 101//101 108//108 109//109
f 101//101 27//27 108//108
f 24//24 101//101 109//109
f 84//84 94//94 242//242
f 91//91 95//95 85//85
f 85//85 103//103 91//91
f 114//114 19//19 116//116
f 26//26 219//219 68//68
f 218//218 26//26 234//234
f 67//67 68//68 73//73
f 26//26 218//218 219//219
f 72//72 73//73 71//71
f 73//73 79//79 67//67
f 79//79 78//78 77//77
f 78//78 79//79 80//80
f 77//77 67//67 79//79
f 76//76 78//78 80//80 81//81
f 71//71 73//73 68//68
f 71//71 68//68 64//64
f 242//242 74//74 75//75
f 83//83 84//84 242//242
f 102//102 91//91 103//103
f 83//83 242//242 82//82
f 100//100 105//105 27//27
f 103//103 100//100 102//102
f 75//75 82//82 242//242
f 242//242 235//235 74//74
f 82//82 76//76 81//81
f 104//104 100//100 103//103
f 104//104 105//105 100//100
f 107//107 108//108 106//106
f 105//105 106//106 27//27
f 76//76 82//82 75//75
f 27//27 106//106 108//108
f 237//237 218//218 234//234
f 219//219 220//220 68//68
