# Rhino

mtllib basement level.mtl
usemtl Default
v -41.618564605712891 -2.0789999961853027 23.757831573486328
v -41.618564605712891 -2.0789999961853027 22.827114105224609
v -41.618564605712891 -2.0789999961853027 21.896396636962891
v -41.618564605712891 -2.0789999961853027 20.965679168701172
v -41.618564605712891 -2.0789999961853027 20.03495979309082
v -41.618564605712891 -2.0789999961853027 19.104242324829102
v -41.618564605712891 -2.0789999961853027 18.173524856567383
v -41.618564605712891 -2.0789999961853027 17.242805480957031
v -41.618564605712891 -2.0789999961853027 16.312088012695312
v -41.618564605712891 -2.0789999961853027 15.381370544433594
v -41.618564605712891 -2.0789999961853027 14.450652122497559
v -41.618564605712891 -2.0789999961853027 13.51993465423584
v -40.908851623535156 -2.0789999961853027 23.757831573486328
v -40.908851623535156 -2.0789999961853027 22.827114105224609
v -40.908851623535156 -2.0789999961853027 21.896396636962891
v -40.908851623535156 -2.0789999961853027 20.965679168701172
v -40.908851623535156 -2.0789999961853027 20.03495979309082
v -40.908851623535156 -2.0789999961853027 19.104242324829102
v -40.908851623535156 -2.0789999961853027 18.173524856567383
v -40.908851623535156 -2.0789999961853027 17.242805480957031
v -40.908851623535156 -2.0789999961853027 16.312088012695312
v -40.908851623535156 -2.0789999961853027 15.381370544433594
v -40.908851623535156 -2.0789999961853027 14.450652122497559
v -40.908851623535156 -2.0789999961853027 13.51993465423584
v -40.199142456054688 -2.0789999961853027 23.757831573486328
v -40.199142456054688 -2.0789999961853027 22.827114105224609
v -40.199142456054688 -2.0789999961853027 21.896396636962891
v -40.199142456054688 -2.0789999961853027 20.965679168701172
v -40.199142456054688 -2.0789999961853027 20.03495979309082
v -40.199142456054688 -2.0789999961853027 17.242805480957031
v -40.199142456054688 -2.0789999961853027 16.312088012695312
v -40.199142456054688 -2.0789999961853027 15.381370544433594
v -40.199142456054688 -2.0789999961853027 14.450652122497559
v -40.199142456054688 -2.0789999961853027 13.51993465423584
v -39.489429473876953 -2.0789999961853027 23.757831573486328
v -39.489429473876953 -2.0789999961853027 22.827114105224609
v -39.489429473876953 -2.0789999961853027 21.896396636962891
v -39.489429473876953 -2.0789999961853027 20.965679168701172
v -39.489429473876953 -2.0789999961853027 20.03495979309082
v -39.489429473876953 -2.0789999961853027 19.104242324829102
v -39.489429473876953 -2.0789999961853027 18.173524856567383
v -39.489429473876953 -2.0789999961853027 17.242805480957031
v -39.489429473876953 -2.0789999961853027 16.312088012695312
v -39.489429473876953 -2.0789999961853027 15.381370544433594
v -39.489429473876953 -2.0789999961853027 14.450652122497559
v -39.489429473876953 -2.0789999961853027 13.51993465423584
v -38.779716491699219 -2.0789999961853027 23.757831573486328
v -38.779716491699219 -2.0789999961853027 22.827114105224609
v -38.779716491699219 -2.0789999961853027 21.896396636962891
v -38.779716491699219 -2.0789999961853027 20.965679168701172
v -38.779716491699219 -2.0789999961853027 20.03495979309082
v -38.779716491699219 -2.0789999961853027 19.104242324829102
v -38.779716491699219 -2.0789999961853027 18.173524856567383
v -38.779716491699219 -2.0789999961853027 17.242805480957031
v -38.779716491699219 -2.0789999961853027 16.312088012695312
v -38.779716491699219 -2.0789999961853027 15.381370544433594
v -38.779716491699219 -2.0789999961853027 14.450652122497559
v -38.779716491699219 -2.0789999961853027 13.51993465423584
v -38.07000732421875 -2.0789999961853027 23.757831573486328
v -38.07000732421875 -2.0789999961853027 22.827114105224609
v -38.07000732421875 -2.0789999961853027 21.896396636962891
v -38.07000732421875 -2.0789999961853027 20.965679168701172
v -38.07000732421875 -2.0789999961853027 20.03495979309082
v -38.07000732421875 -2.0789999961853027 19.104242324829102
v -38.07000732421875 -2.0789999961853027 18.173524856567383
v -38.07000732421875 -2.0789999961853027 17.242805480957031
v -38.07000732421875 -2.0789999961853027 16.312088012695312
v -38.07000732421875 -2.0789999961853027 13.51993465423584
v -37.360294342041016 -2.0789999961853027 23.757831573486328
v -37.360294342041016 -2.0789999961853027 22.827114105224609
v -37.360294342041016 -2.0789999961853027 21.896396636962891
v -37.360294342041016 -2.0789999961853027 20.965679168701172
v -37.360294342041016 -2.0789999961853027 20.03495979309082
v -37.360294342041016 -2.0789999961853027 19.104242324829102
v -37.360294342041016 -2.0789999961853027 18.173524856567383
v -37.360294342041016 -2.0789999961853027 17.242805480957031
v -37.360294342041016 -2.0789999961853027 16.312088012695312
v -37.360294342041016 -2.0789999961853027 15.381370544433594
v -37.360294342041016 -2.0789999961853027 14.450652122497559
v -37.360294342041016 -2.0789999961853027 13.51993465423584
v -40.111660003662109 -2.0789999961853027 18.516191482543945
v -40.111660003662109 -2.0789999961853027 18.034065246582031
v -40.111660003662109 -2.0789999961853027 17.551939010620117
v -40.401412963867188 -2.0789999961853027 17.551939010620117
v -40.401412963867188 -2.0789999961853027 17.401939392089844
v -40.553997039794922 -2.0789999961853027 17.242805480957031
v -40.908851623535156 -2.0789999961853027 17.708166122436523
v -40.553997039794922 -2.0789999961853027 18.173524856567383
v -40.553997039794922 -2.0789999961853027 17.708166122436523
v -39.783779144287109 -2.0789999961853027 17.401939392089844
v -39.783779144287109 -2.0789999961853027 17.551939010620117
v -39.489429473876953 -2.0789999961853027 17.708166122436523
v -39.844284057617188 -2.0789999961853027 17.242805480957031
v -39.844284057617188 -2.0789999961853027 17.708166122436523
v -39.961658477783203 -2.0789999961853027 17.551939010620117
v -39.961658477783203 -2.0789999961853027 18.244773864746094
v -39.961658477783203 -2.0789999961853027 18.93760871887207
v -39.961658477783203 -2.0789999961853027 19.630443572998047
v -39.783779144287109 -2.0789999961853027 19.630443572998047
v -39.489429473876953 -2.0789999961853027 19.569601058959961
v -39.844284057617188 -2.0789999961853027 20.03495979309082
v -39.783779144287109 -2.0789999961853027 19.78044319152832
v -40.401412963867188 -2.0789999961853027 19.78044319152832
v -40.401412963867188 -2.0789999961853027 19.630443572998047
v -40.553997039794922 -2.0789999961853027 19.104242324829102
v -40.908851623535156 -2.0789999961853027 19.569601058959961
v -40.553997039794922 -2.0789999961853027 20.03495979309082
v -40.553997039794922 -2.0789999961853027 19.569601058959961
v -40.111660003662109 -2.0789999961853027 19.630443572998047
v -40.111660003662109 -2.0789999961853027 19.148317337036133
v -40.111660003662109 -2.0789999961853027 18.666191101074219
v -40.651897430419922 -2.0789999961853027 18.666191101074219
v -41.192134857177734 -2.0789999961853027 18.666191101074219
v -41.732372283935547 -2.0789999961853027 18.666191101074219
v -42.272613525390625 -2.0789999961853027 18.666191101074219
v -42.272613525390625 -2.0789999961853027 19.148317337036133
v -42.272613525390625 -2.0789999961853027 19.630443572998047
v -41.800010681152344 -2.0789999961853027 19.630443572998047
v -41.327411651611328 -2.0789999961853027 19.630443572998047
v -41.327411651611328 -2.0789999961853027 19.78044319152832
v -41.263710021972656 -2.0789999961853027 19.104242324829102
v -41.618564605712891 -2.0789999961853027 19.569601058959961
v -41.263710021972656 -2.0789999961853027 20.03495979309082
v -41.800010681152344 -2.0789999961853027 19.78044319152832
v -42.272613525390625 -2.0789999961853027 19.78044319152832
v -42.272613525390625 -2.0789999961853027 20.464654922485352
v -42.272613525390625 -2.0789999961853027 21.148866653442383
v -42.272613525390625 -2.0789999961853027 21.833080291748047
v -42.272613525390625 -2.0789999961853027 22.517292022705078
v -42.272613525390625 -2.0789999961853027 23.201503753662109
v -42.272613525390625 -2.0789999961853027 23.885717391967773
v -42.272613525390625 -2.0789999961853027 24.569929122924805
v -41.642227172851562 -2.0789999961853027 24.569929122924805
v -41.011844635009766 -2.0789999961853027 24.569929122924805
v -40.381458282470703 -2.0789999961853027 24.569929122924805
v -39.751075744628906 -2.0789999961853027 24.569929122924805
v -39.120689392089844 -2.0789999961853027 24.569929122924805
v -38.490306854248047 -2.0789999961853027 24.569929122924805
v -38.490306854248047 -2.0789999961853027 23.963966369628906
v -38.490306854248047 -2.0789999961853027 23.358003616333008
v -38.490306854248047 -2.0789999961853027 22.752040863037109
v -38.490306854248047 -2.0789999961853027 22.146078109741211
v -38.490306854248047 -2.0789999961853027 21.54011344909668
v -38.490306854248047 -2.0789999961853027 20.934150695800781
v -38.340305328369141 -2.0789999961853027 20.934150695800781
v -38.07000732421875 -2.0789999961853027 20.50031852722168
v -38.779716491699219 -2.0789999961853027 20.50031852722168
v -38.340305328369141 -2.0789999961853027 21.54011344909668
v -38.340305328369141 -2.0789999961853027 22.146078109741211
v -38.340305328369141 -2.0789999961853027 22.752040863037109
v -38.340305328369141 -2.0789999961853027 23.358003616333008
v -38.340305328369141 -2.0789999961853027 23.963966369628906
v -38.340305328369141 -2.0789999961853027 24.569929122924805
v -37.795619964599609 -2.0789999961853027 24.569929122924805
v -37.250934600830078 -2.0789999961853027 24.569929122924805
v -36.706249237060547 -2.0789999961853027 24.569929122924805
v -36.706249237060547 -2.0789999961853027 23.908876419067383
v -36.706249237060547 -2.0789999961853027 23.247823715209961
v -36.706249237060547 -2.0789999961853027 22.586769104003906
v -36.706249237060547 -2.0789999961853027 21.925716400146484
v -36.706249237060547 -2.0789999961853027 21.264663696289062
v -36.706249237060547 -2.0789999961853027 20.603609085083008
v -36.706249237060547 -2.0789999961853027 19.942556381225586
v -36.706249237060547 -2.0789999961853027 19.281503677368164
v -36.706249237060547 -2.0789999961853027 18.620450973510742
v -37.10528564453125 -2.0789999961853027 18.620450973510742
v -37.10528564453125 -2.0789999961853027 18.470449447631836
v -37.360294342041016 -2.0789999961853027 18.638883590698242
v -36.706249237060547 -2.0789999961853027 18.470449447631836
v -36.706249237060547 -2.0789999961853027 17.853700637817383
v -36.706249237060547 -2.0789999961853027 17.23695182800293
v -36.846836090087891 -2.0789999961853027 17.23695182800293
v -37.005439758300781 -2.0789999961853027 16.312088012695312
v -37.360294342041016 -2.0789999961853027 16.777446746826172
v -37.005439758300781 -2.0789999961853027 17.242805480957031
v -37.005439758300781 -2.0789999961853027 16.777446746826172
v -36.846836090087891 -2.0789999961853027 17.086952209472656
v -36.706249237060547 -2.0789999961853027 17.086952209472656
v -36.706249237060547 -2.0789999961853027 16.437675476074219
v -36.706249237060547 -2.0789999961853027 15.788399696350098
v -36.706249237060547 -2.0789999961853027 15.139123916625977
v -36.706249237060547 -2.0789999961853027 14.489848136901855
v -36.846836090087891 -2.0789999961853027 14.489848136901855
v -37.005439758300781 -2.0789999961853027 14.450652122497559
v -37.360294342041016 -2.0789999961853027 14.916010856628418
v -37.005439758300781 -2.0789999961853027 15.381370544433594
v -37.005439758300781 -2.0789999961853027 14.916010856628418
v -36.846836090087891 -2.0789999961853027 14.339847564697266
v -37.005439758300781 -2.0789999961853027 13.51993465423584
v -37.360294342041016 -2.0789999961853027 13.985293388366699
v -37.005439758300781 -2.0789999961853027 13.985293388366699
v -36.706249237060547 -2.0789999961853027 14.339847564697266
v -36.706249237060547 -2.0789999961853027 13.795844078063965
v -36.706249237060547 -2.0789999961853027 13.251840591430664
v -36.706249237060547 -2.0789999961853027 12.707837104797363
v -37.250934600830078 -2.0789999961853027 12.707837104797363
v -37.795619964599609 -2.0789999961853027 12.707837104797363
v -38.340305328369141 -2.0789999961853027 12.707837104797363
v -38.340305328369141 -2.0789999961853027 13.01054573059082
v -38.490306854248047 -2.0789999961853027 13.01054573059082
v -38.490306854248047 -2.0789999961853027 12.707837104797363
v -39.120689392089844 -2.0789999961853027 12.707837104797363
v -39.751075744628906 -2.0789999961853027 12.707837104797363
v -40.381458282470703 -2.0789999961853027 12.707837104797363
v -41.011844635009766 -2.0789999961853027 12.707837104797363
v -41.642227172851562 -2.0789999961853027 12.707837104797363
v -42.272613525390625 -2.0789999961853027 12.707837104797363
v -42.272613525390625 -2.0789999961853027 13.378422737121582
v -42.272613525390625 -2.0789999961853027 14.049009323120117
v -42.272613525390625 -2.0789999961853027 14.719594955444336
v -42.272613525390625 -2.0789999961853027 15.390181541442871
v -42.272613525390625 -2.0789999961853027 16.060768127441406
v -42.272613525390625 -2.0789999961853027 16.731353759765625
v -42.272613525390625 -2.0789999961853027 17.401939392089844
v -41.800010681152344 -2.0789999961853027 17.401939392089844
v -41.327411651611328 -2.0789999961853027 17.401939392089844
v -41.327411651611328 -2.0789999961853027 17.551939010620117
v -41.263710021972656 -2.0789999961853027 17.242805480957031
v -41.618564605712891 -2.0789999961853027 17.708166122436523
v -41.263710021972656 -2.0789999961853027 18.173524856567383
v -41.263710021972656 -2.0789999961853027 17.708166122436523
v -41.800010681152344 -2.0789999961853027 17.551939010620117
v -42.272613525390625 -2.0789999961853027 17.551939010620117
v -42.272613525390625 -2.0789999961853027 18.034065246582031
v -42.272613525390625 -2.0789999961853027 18.516191482543945
v -41.732372283935547 -2.0789999961853027 18.516191482543945
v -41.192134857177734 -2.0789999961853027 18.516191482543945
v -40.651897430419922 -2.0789999961853027 18.516191482543945
v -37.562675476074219 -2.0789999961853027 17.23695182800293
v -37.712673187255859 -2.0789999961853027 17.23695182800293
v -38.07000732421875 -2.0789999961853027 16.777446746826172
v -37.712673187255859 -2.0789999961853027 16.65753173828125
v -37.712673187255859 -2.0789999961853027 16.078109741210938
v -37.712673187255859 -2.0789999961853027 15.498689651489258
v -37.712673187255859 -2.0789999961853027 14.919268608093262
v -37.712673187255859 -2.0789999961853027 14.339847564697266
v -37.562675476074219 -2.0789999961853027 14.339847564697266
v -37.715152740478516 -2.0789999961853027 13.51993465423584
v -38.07000732421875 -2.0789999961853027 13.985293388366699
v -37.715152740478516 -2.0789999961853027 13.985293388366699
v -37.562675476074219 -2.0789999961853027 14.919268608093262
v -37.562675476074219 -2.0789999961853027 15.498689651489258
v -37.562675476074219 -2.0789999961853027 16.078109741210938
v -37.562675476074219 -2.0789999961853027 16.65753173828125
v -38.340305328369141 -2.0789999961853027 17.174230575561523
v -38.340305328369141 -2.0789999961853027 17.82234001159668
v -38.340305328369141 -2.0789999961853027 18.470449447631836
v -38.031284332275391 -2.0789999961853027 18.470449447631836
v -38.031284332275391 -2.0789999961853027 18.620450973510742
v -37.715152740478516 -2.0789999961853027 18.173524856567383
v -37.715152740478516 -2.0789999961853027 19.104242324829102
v -37.715152740478516 -2.0789999961853027 18.638883590698242
v -38.340305328369141 -2.0789999961853027 18.620450973510742
v -38.340305328369141 -2.0789999961853027 19.314300537109375
v -38.340305328369141 -2.0789999961853027 20.008150100708008
v -38.490306854248047 -2.0789999961853027 20.008150100708008
v -38.07000732421875 -2.0789999961853027 19.569601058959961
v -38.490306854248047 -2.0789999961853027 19.78044319152832
v -38.857776641845703 -2.0789999961853027 19.78044319152832
v -38.857776641845703 -2.0789999961853027 19.630443572998047
v -39.134574890136719 -2.0789999961853027 19.104242324829102
v -39.134574890136719 -2.0789999961853027 20.03495979309082
v -39.134574890136719 -2.0789999961853027 19.569601058959961
v -38.490306854248047 -2.0789999961853027 19.630443572998047
v -38.490306854248047 -2.0789999961853027 18.93760871887207
v -38.490306854248047 -2.0789999961853027 18.244773864746094
v -38.490306854248047 -2.0789999961853027 17.551939010620117
v -38.857776641845703 -2.0789999961853027 17.551939010620117
v -38.857776641845703 -2.0789999961853027 17.401939392089844
v -38.779716491699219 -2.0789999961853027 17.708166122436523
v -39.134574890136719 -2.0789999961853027 17.242805480957031
v -39.134574890136719 -2.0789999961853027 18.173524856567383
v -39.134574890136719 -2.0789999961853027 17.708166122436523
v -38.490306854248047 -2.0789999961853027 17.401939392089844
v -38.490306854248047 -2.0789999961853027 17.174230575561523
v -38.07000732421875 -2.0789999961853027 17.708166122436523
v -38.779716491699219 -2.0789999961853027 16.777446746826172
v -38.424861907958984 -2.0789999961853027 16.777446746826172
v -38.340305328369141 -2.0789999961853027 13.936545372009277
v -38.340305328369141 -2.0789999961853027 14.514467239379883
v -38.340305328369141 -2.0789999961853027 15.092388153076172
v -38.340305328369141 -2.0789999961853027 15.670310020446777
v -38.340305328369141 -2.0789999961853027 16.24822998046875
v -38.490306854248047 -2.0789999961853027 16.24822998046875
v -38.779716491699219 -2.0789999961853027 15.846729278564453
v -38.490306854248047 -2.0789999961853027 15.670310020446777
v -38.490306854248047 -2.0789999961853027 15.092388153076172
v -38.490306854248047 -2.0789999961853027 14.514467239379883
v -38.490306854248047 -2.0789999961853027 13.936545372009277
v -38.779716491699219 -2.0789999961853027 13.985293388366699
v -38.07000732421875 -2.0789999961853027 14.450652122497559
vn 0 1 0
vn 0 1 0
vn 0 1 0
vn 0 1 0
vn 0 1 0
vn 0 1 0
vn 0 1 0
vn 0 1 0
vn 0 1 0
vn 0 1 0
vn 0 1 0
vn 0 1 0
vn 0 1 0
vn 0 1 0
vn 0 1 0
vn 0 1 0
vn 0 1 0
vn 0 1 0
vn 0 1 0
vn 0 1 0
vn 0 1 0
vn 0 1 0
vn 0 1 0
vn 0 1 0
vn 0 1 0
vn 0 1 0
vn 0 1 0
vn 0 1 0
vn 0 1 0
vn 0 1 0
vn 0 1 0
vn 0 1 0
vn 0 1 0
vn 0 1 0
vn 0 1 0
vn 0 1 0
vn 0 1 0
vn 0 1 0
vn 0 1 0
vn 0 1 0
vn 0 1 0
vn 0 1 0
vn 0 1 0
vn 0 1 0
vn 0 1 0
vn 0 1 0
vn 0 1 0
vn 0 1 0
vn 0 1 0
vn 0 1 0
vn 0 1 0
vn 0 1 0
vn 0 1 0
vn 0 1 0
vn 0 1 0
vn 0 1 0
vn 0 1 0
vn 0 1 0
vn 0 1 0
vn 0 1 0
vn 0 1 0
vn 0 1 0
vn 0 1 0
vn 0 1 0
vn 0 1 0
vn 0 1 0
vn 0 1 0
vn 0 1 0
vn 0 1 0
vn 0 1 0
vn 0 1 0
vn 0 1 0
vn 0 1 0
vn 0 1 0
vn 0 1 0
vn 0 1 0
vn 0 1 0
vn 0 1 0
vn 0 1 0
vn 0 1 0
vn 0 1 0
vn 0 1 0
vn 0 1 0
vn 0 1 0
vn 0 1 0
vn 0 1 0
vn 0 1 0
vn 0 1 0
vn 0 1 0
vn 0 1 0
vn 0 1 0
vn 0 1 0
vn 0 1 0
vn 0 1 0
vn 0 1 0
vn 0 1 0
vn 0 1 0
vn 0 1 0
vn 0 1 0
vn 0 1 0
vn 0 1 0
vn 0 1 0
vn 0 1 0
vn 0 1 0
vn 0 1 0
vn 0 1 0
vn 0 1 0
vn 0 1 0
vn 0 1 0
vn 0 1 0
vn 0 1 0
vn 0 1 0
vn 0 1 0
vn 0 1 0
vn 0 1 0
vn 0 1 0
vn 0 1 0
vn 0 1 0
vn 0 1 0
vn 0 1 0
vn 0 1 0
vn 0 1 0
vn 0 1 0
vn 0 1 0
vn 0 1 0
vn 0 1 0
vn 0 1 0
vn 0 1 0
vn 0 1 0
vn 0 1 0
vn 0 1 0
vn 0 1 0
vn 0 1 0
vn 0 1 0
vn 0 1 0
vn 0 1 0
vn 0 1 0
vn 0 1 0
vn 0 1 0
vn 0 1 0
vn 0 1 0
vn 0 1 0
vn 0 1 0
vn 0 1 0
vn 0 1 0
vn 0 1 0
vn 0 1 0
vn 0 1 0
vn 0 1 0
vn 0 1 0
vn 0 1 0
vn 0 1 0
vn 0 1 0
vn 0 1 0
vn 0 1 0
vn 0 1 0
vn 0 1 0
vn 0 1 0
vn 0 1 0
vn 0 1 0
vn 0 1 0
vn 0 1 0
vn 0 1 0
vn 0 1 0
vn 0 1 0
vn 0 1 0
vn 0 1 0
vn 0 1 0
vn 0 1 0
vn 0 1 0
vn 0 1 0
vn 0 1 0
vn 0 1 0
vn 0 1 0
vn 0 1 0
vn 0 1 0
vn 0 1 0
vn 0 1 0
vn 0 1 0
vn 0 1 0
vn 0 1 0
vn 0 1 0
vn 0 1 0
vn 0 1 0
vn 0 1 0
vn 0 1 0
vn 0 1 0
vn 0 1 0
vn 0 1 0
vn 0 1 0
vn 0 1 0
vn 0 1 0
vn 0 1 0
vn 0 1 0
vn 0 1 0
vn 0 1 0
vn 0 1 0
vn 0 1 0
vn 0 1 0
vn 0 1 0
vn 0 1 0
vn 0 1 0
vn 0 1 0
vn 0 1 0
vn 0 1 0
vn 0 1 0
vn 0 1 0
vn 0 1 0
vn 0 1 0
vn 0 1 0
vn 0 1 0
vn 0 1 0
vn 0 1 0
vn 0 1 0
vn 0 1 0
vn 0 1 0
vn 0 1 0
vn 0 1 0
vn 0 1 0
vn 0 1 0
vn 0 1 0
vn 0 1 0
vn 0 1 0
vn 0 1 0
vn 0 1 0
vn 0 1 0
vn 0 1 0
vn 0 1 0
vn 0 1 0
vn 0 1 0
vn 0 1 0
vn 0 1 0
vn 0 1 0
vn 0 1 0
vn 0 1 0
vn 0 1 0
vn 0 1 0
vn 0 1 0
vn 0 1 0
vn 0 1 0
vn 0 1 0
vn 0 1 0
vn 0 1 0
vn 0 1 0
vn 0 1 0
vn 0 1 0
vn 0 1 0
vn 0 1 0
vn 0 1 0
vn 0 1 0
vn 0 1 0
vn 0 1 0
vn 0 1 0
vn 0 1 0
vn 0 1 0
vn 0 1 0
vn 0 1 0
vn 0 1 0
vn 0 1 0
vn 0 1 0
vn 0 1 0
vn 0 1 0
vn 0 1 0
vn 0 1 0
vn 0 1 0
vn 0 1 0
vn 0 1 0
vn 0 1 0
vn 0 1 0
vn 0 1 0
vn 0 1 0
vn 0 1 0
vn 0 1 0
vn 0 1 0
vn 0 1 0
vn 0 1 0
vn 0 1 0
vn 0 1 0
vn 0 1 0
vn 0 1 0
vn 0 1 0
vn 0 1 0
vn 0 1 0
vn 0 1 0
vn 0 1 0
vn 0 1 0
vn 0 1 0
vn 0 1 0
vn 0 1 0
vn 0 1 0
vn 0 1 0
f 14//14 2//2 1//1 13//13
f 15//15 3//3 2//2 14//14
f 16//16 4//4 3//3 15//15
f 123//123 5//5 4//4
f 16//16 17//17 123//123
f 4//4 16//16 123//123
f 106//106 18//18 121//121
f 121//121 6//6 122//122
f 221//221 219//219 7//7 220//220
f 87//87 221//221 220//220 19//19
f 218//218 20//20 21//21
f 9//9 8//8 218//218
f 21//21 9//9 218//218
f 22//22 10//10 9//9 21//21
f 23//23 11//11 10//10 22//22
f 24//24 12//12 11//11 23//23
f 26//26 14//14 13//13 25//25
f 27//27 15//15 14//14 26//26
f 28//28 16//16 15//15 27//27
f 107//107 17//17 16//16
f 28//28 29//29 107//107
f 16//16 28//28 107//107
f 105//105 18//18 106//106 108//108
f 108//108 106//106 17//17 107//107
f 86//86 20//20 87//87 89//89
f 89//89 87//87 19//19 88//88
f 86//86 30//30 31//31
f 21//21 20//20 86//86
f 31//31 21//21 86//86
f 32//32 22//22 21//21 31//31
f 33//33 23//23 22//22 32//32
f 34//34 24//24 23//23 33//33
f 36//36 26//26 25//25 35//35
f 37//37 27//27 26//26 36//36
f 38//38 28//28 27//27 37//37
f 101//101 29//29 28//28
f 38//38 39//39 101//101
f 28//28 38//38 101//101
f 41//41 92//92 94//94
f 93//93 42//42 43//43
f 31//31 30//30 93//93
f 43//43 31//31 93//93
f 44//44 32//32 31//31 43//43
f 45//45 33//33 32//32 44//44
f 46//46 34//34 33//33 45//45
f 48//48 36//36 35//35 47//47
f 49//49 37//37 36//36 48//48
f 50//50 38//38 37//37 49//49
f 147//147 51//51 262//262
f 262//262 39//39 38//38
f 38//38 50//50 147//147
f 147//147 262//262 38//38
f 52//52 261//261 263//263
f 261//261 40//40 100//100 263//263
f 263//263 100//100 39//39 262//262
f 272//272 41//41 40//40 261//261
f 261//261 52//52 53//53 272//272
f 271//271 42//42 92//92 273//273
f 273//273 92//92 41//41 272//272
f 270//270 273//273 272//272 53//53
f 271//271 54//54 277//277
f 277//277 55//55 43//43
f 43//43 42//42 271//271
f 271//271 277//277 43//43
f 285//285 56//56 44//44
f 43//43 55//55 285//285
f 44//44 43//43 285//285
f 57//57 45//45 44//44 56//56
f 290//290 58//58 46//46
f 45//45 57//57 290//290
f 46//46 45//45 290//290
f 278//278 231//231 67//67
f 55//55 277//277 278//278
f 70//70 60//60 59//59 69//69
f 71//71 61//61 60//60 70//70
f 72//72 62//62 61//61 71//71
f 146//146 62//62 72//72
f 73//73 63//63 146//146
f 72//72 73//73 146//146
f 251//251 64//64 257//257
f 257//257 63//63 73//73
f 73//73 74//74 251//251
f 251//251 257//257 73//73
f 75//75 250//250 252//252 168//168
f 168//168 252//252 251//251 74//74
f 276//276 65//65 250//250
f 66//66 276//276 250//250 75//75
f 80//80 238//238 240//240 190//190
f 238//238 68//68 239//239 240//240
f 173//173 77//77 174//174 176//176
f 176//176 174//174 76//76 175//175
f 184//184 79//79 185//185 187//187
f 187//187 185//185 78//78 186//186
f 189//189 80//80 190//190 191//191
f 191//191 190//190 79//79 184//184
f 133//133 131//131 132//132
f 2//2 129//129 130//130
f 130//130 131//131 1//1
f 128//128 129//129 2//2 3//3
f 127//127 4//4 126//126
f 127//127 128//128 3//3 4//4
f 133//133 1//1 131//131
f 130//130 1//1 2//2
f 13//13 1//1 133//133 134//134
f 134//134 135//135 25//25 13//13
f 120//120 5//5 123//123
f 126//126 4//4 5//5
f 124//124 126//126 5//5
f 118//118 6//6 116//116
f 125//125 126//126 124//124
f 116//116 117//117 118//118
f 114//114 115//115 116//116
f 6//6 114//114 116//116
f 124//124 5//5 120//120
f 122//122 118//118 119//119
f 17//17 106//106 120//120
f 119//119 120//120 106//106
f 121//121 122//122 119//119
f 6//6 121//121 113//113 114//114
f 113//113 121//121 18//18
f 112//112 113//113 18//18
f 121//121 119//119 106//106
f 118//118 122//122 6//6
f 123//123 17//17 120//120
f 135//135 136//136 35//35 25//25
f 137//137 35//35 136//136
f 108//108 107//107 103//103
f 29//29 103//103 107//107
f 102//102 103//103 29//29 101//101
f 138//138 47//47 137//137
f 49//49 48//48 141//141 142//142
f 48//48 47//47 140//140 141//141
f 39//39 102//102 101//101
f 144//144 147//147 50//50
f 51//51 147//147 146//146 63//63
f 50//50 49//49 143//143 144//144
f 47//47 35//35 137//137
f 51//51 259//259 262//262
f 104//104 105//105 108//108
f 103//103 104//104 108//108
f 109//109 110//110 104//104
f 111//111 112//112 105//105
f 105//105 112//112 18//18
f 105//105 110//110 111//111
f 110//110 105//105 104//104
f 97//97 98//98 99//99
f 102//102 100//100 99//99
f 102//102 39//39 100//100
f 262//262 259//259 263//263
f 259//259 260//260 263//263
f 97//97 99//99 40//40
f 100//100 40//40 99//99
f 260//260 52//52 263//263
f 40//40 41//41 96//96 97//97
f 52//52 260//260 264//264
f 51//51 258//258 259//259
f 7//7 224//224 226//226
f 225//225 226//226 224//224
f 222//222 224//224 7//7
f 226//226 227//227 220//220 7//7
f 219//219 222//222 7//7
f 217//217 222//222 219//219 221//221
f 222//222 223//223 224//224
f 213//213 214//214 215//215
f 19//19 220//220 227//227
f 88//88 19//19 228//228
f 227//227 228//228 19//19
f 87//87 216//216 217//217
f 217//217 221//221 87//87
f 20//20 216//216 87//87
f 88//88 228//228 81//81
f 215//215 216//216 218//218 8//8
f 211//211 212//212 9//9 10//10
f 210//210 11//11 209//209
f 210//210 211//211 10//10 11//11
f 12//12 206//206 208//208
f 208//208 206//206 207//207
f 209//209 12//12 208//208
f 9//9 212//212 213//213
f 213//213 8//8 9//9
f 216//216 20//20 218//218
f 12//12 24//24 205//205 206//206
f 204//204 205//205 24//24 34//34
f 209//209 11//11 12//12
f 8//8 213//213 215//215
f 89//89 88//88 82//82
f 81//81 82//82 88//88
f 84//84 89//89 82//82
f 89//89 84//84 85//85
f 83//83 84//84 82//82
f 95//95 96//96 94//94
f 86//86 89//89 85//85
f 96//96 41//41 94//94
f 91//91 94//94 92//92
f 90//90 91//91 92//92
f 268//268 273//273 270//270
f 42//42 90//90 92//92
f 268//268 269//269 273//273
f 270//270 53//53 266//266
f 94//94 91//91 95//95
f 93//93 30//30 90//90
f 30//30 86//86 85//85
f 42//42 93//93 90//90
f 90//90 30//30 85//85
f 203//203 204//204 34//34 46//46
f 202//202 203//203 46//46
f 54//54 271//271 269//269
f 275//275 277//277 54//54
f 274//274 54//54 269//269
f 286//286 56//56 285//285
f 57//57 56//56 287//287 288//288
f 202//202 46//46 58//58
f 285//285 55//55 284//284 286//286
f 271//271 273//273 269//269
f 270//270 267//267 268//268
f 53//53 52//52 265//265
f 139//139 140//140 47//47
f 142//142 143//143 49//49
f 146//146 147//147 144//144
f 59//59 151//151 152//152
f 59//59 60//60 150//150 151//151
f 154//154 59//59 152//152
f 149//149 150//150 60//60 61//61
f 61//61 62//62 145//145 148//148
f 149//149 61//61 148//148
f 154//154 152//152 153//153
f 264//264 265//265 52//52
f 53//53 265//265 266//266
f 266//266 267//267 270//270
f 274//274 275//275 54//54
f 257//257 254//254 255//255
f 51//51 63//63 255//255 256//256
f 146//146 145//145 62//62
f 257//257 255//255 63//63
f 64//64 253//253 254//254
f 65//65 246//246 247//247
f 257//257 64//64 254//254
f 253//253 64//64 249//249
f 146//146 144//144 145//145
f 276//276 245//245 246//246
f 256//256 258//258 51//51
f 155//155 69//69 154//154
f 71//71 70//70 159//159 160//160
f 70//70 69//69 157//157 158//158
f 73//73 72//72 162//162 163//163
f 72//72 71//71 160//160 161//161
f 157//157 69//69 155//155
f 251//251 249//249 64//64
f 155//155 156//156 157//157
f 70//70 158//158 159//159
f 163//163 164//164 74//74 73//73
f 72//72 161//161 162//162
f 252//252 248//248 249//249
f 247//247 248//248 65//65
f 251//251 252//252 249//249
f 250//250 248//248 252//252
f 246//246 65//65 276//276
f 250//250 65//65 248//248
f 167//167 168//168 166//166
f 166//166 168//168 74//74
f 74//74 164//164 166//166
f 75//75 168//168 167//167
f 230//230 75//75 229//229
f 175//175 76//76 75//75
f 175//175 75//75 170//170
f 170//170 75//75 167//167
f 172//172 175//175 170//170
f 170//170 167//167 169//169
f 166//166 164//164 165//165
f 229//229 75//75 76//76
f 154//154 69//69 59//59
f 66//66 245//245 276//276
f 284//284 55//55 278//278
f 283//283 284//284 278//278
f 275//275 245//245 278//278
f 67//67 282//282 283//283
f 231//231 278//278 245//245
f 286//286 287//287 56//56
f 230//230 232//232 231//231 66//66
f 66//66 231//231 245//245
f 75//75 230//230 66//66
f 67//67 231//231 232//232
f 67//67 291//291 281//281 282//282
f 67//67 233//233 234//234
f 234//234 235//235 291//291
f 291//291 67//67 234//234
f 233//233 67//67 232//232
f 67//67 283//283 278//278
f 290//290 57//57 288//288 289//289
f 58//58 290//290 289//289
f 202//202 200//200 201//201
f 68//68 200//200 58//58
f 289//289 279//279 68//68
f 289//289 68//68 58//58
f 58//58 200//200 202//202
f 279//279 280//280 291//291 239//239
f 239//239 68//68 279//279
f 236//236 239//239 291//291
f 237//237 240//240 236//236
f 239//239 236//236 240//240
f 236//236 291//291 235//235
f 197//197 198//198 199//199
f 197//197 68//68 238//238
f 238//238 80//80 196//196 197//197
f 199//199 68//68 197//197
f 199//199 200//200 68//68
f 291//291 280//280 281//281
f 277//277 275//275 278//278
f 77//77 244//244 174//174
f 244//244 229//229 76//76 174//174
f 78//78 77//77 173//173 186//186
f 243//243 244//244 77//77
f 242//242 243//243 77//77 78//78
f 78//78 185//185 241//241 242//242
f 178//178 176//176 177//177
f 171//171 172//172 170//170
f 178//178 179//179 173//173 176//176
f 186//186 173//173 179//179 180//180
f 186//186 180//180 181//181
f 176//176 175//175 177//177
f 181//181 187//187 186//186
f 237//237 241//241 185//185 79//79
f 183//183 184//184 187//187
f 79//79 190//190 237//237
f 196//196 80//80 189//189
f 190//190 240//240 237//237
f 184//184 188//188 191//191
f 182//182 183//183 187//187
f 193//193 188//188 192//192
f 193//193 189//189 191//191
f 189//189 193//193 194//194
f 194//194 195//195 196//196
f 193//193 191//191 188//188
f 189//189 194//194 196//196
f 183//183 188//188 184//184
f 182//182 187//187 181//181
f 175//175 172//172 177//177
f 138//138 139//139 47//47
