# Rhino

mtllib first level.mtl
usemtl Default
v -49.876808166503906 -2.0789999961853027 23.757831573486328
v -49.876808166503906 -2.0789999961853027 22.827114105224609
v -49.876808166503906 -2.0789999961853027 21.896396636962891
v -49.876808166503906 -2.0789999961853027 20.965679168701172
v -49.876808166503906 -2.0789999961853027 20.03495979309082
v -49.876808166503906 -2.0789999961853027 19.104242324829102
v -49.876808166503906 -2.0789999961853027 18.173524856567383
v -49.876808166503906 -2.0789999961853027 17.242805480957031
v -49.876808166503906 -2.0789999961853027 16.312088012695312
v -49.876808166503906 -2.0789999961853027 15.381370544433594
v -49.876808166503906 -2.0789999961853027 14.450652122497559
v -49.876808166503906 -2.0789999961853027 13.51993465423584
v -49.167095184326172 -2.0789999961853027 23.757831573486328
v -49.167095184326172 -2.0789999961853027 22.827114105224609
v -49.167095184326172 -2.0789999961853027 21.896396636962891
v -49.167095184326172 -2.0789999961853027 20.965679168701172
v -49.167095184326172 -2.0789999961853027 20.03495979309082
v -49.167095184326172 -2.0789999961853027 19.104242324829102
v -49.167095184326172 -2.0789999961853027 18.173524856567383
v -49.167095184326172 -2.0789999961853027 17.242805480957031
v -49.167095184326172 -2.0789999961853027 16.312088012695312
v -49.167095184326172 -2.0789999961853027 15.381370544433594
v -49.167095184326172 -2.0789999961853027 14.450652122497559
v -49.167095184326172 -2.0789999961853027 13.51993465423584
v -48.457382202148438 -2.0789999961853027 23.757831573486328
v -48.457382202148438 -2.0789999961853027 22.827114105224609
v -48.457382202148438 -2.0789999961853027 21.896396636962891
v -48.457382202148438 -2.0789999961853027 20.965679168701172
v -48.457382202148438 -2.0789999961853027 20.03495979309082
v -48.457382202148438 -2.0789999961853027 19.104242324829102
v -48.457382202148438 -2.0789999961853027 18.173524856567383
v -48.457382202148438 -2.0789999961853027 17.242805480957031
v -48.457382202148438 -2.0789999961853027 16.312088012695312
v -48.457382202148438 -2.0789999961853027 15.381370544433594
v -48.457382202148438 -2.0789999961853027 14.450652122497559
v -48.457382202148438 -2.0789999961853027 13.51993465423584
v -47.747673034667969 -2.0789999961853027 23.757831573486328
v -47.747673034667969 -2.0789999961853027 22.827114105224609
v -47.747673034667969 -2.0789999961853027 21.896396636962891
v -47.747673034667969 -2.0789999961853027 20.965679168701172
v -47.747673034667969 -2.0789999961853027 20.03495979309082
v -47.747673034667969 -2.0789999961853027 19.104242324829102
v -47.747673034667969 -2.0789999961853027 18.173524856567383
v -47.747673034667969 -2.0789999961853027 17.242805480957031
v -47.747673034667969 -2.0789999961853027 16.312088012695312
v -47.747673034667969 -2.0789999961853027 15.381370544433594
v -47.747673034667969 -2.0789999961853027 14.450652122497559
v -47.747673034667969 -2.0789999961853027 13.51993465423584
v -47.037960052490234 -2.0789999961853027 23.757831573486328
v -47.037960052490234 -2.0789999961853027 22.827114105224609
v -47.037960052490234 -2.0789999961853027 21.896396636962891
v -47.037960052490234 -2.0789999961853027 20.965679168701172
v -47.037960052490234 -2.0789999961853027 20.03495979309082
v -47.037960052490234 -2.0789999961853027 19.104242324829102
v -47.037960052490234 -2.0789999961853027 18.173524856567383
v -47.037960052490234 -2.0789999961853027 17.242805480957031
v -47.037960052490234 -2.0789999961853027 16.312088012695312
v -47.037960052490234 -2.0789999961853027 15.381370544433594
v -47.037960052490234 -2.0789999961853027 14.450652122497559
v -47.037960052490234 -2.0789999961853027 13.51993465423584
v -46.328250885009766 -2.0789999961853027 23.757831573486328
v -46.328250885009766 -2.0789999961853027 22.827114105224609
v -46.328250885009766 -2.0789999961853027 21.896396636962891
v -46.328250885009766 -2.0789999961853027 20.965679168701172
v -46.328250885009766 -2.0789999961853027 20.03495979309082
v -46.328250885009766 -2.0789999961853027 19.104242324829102
v -46.328250885009766 -2.0789999961853027 18.173524856567383
v -46.328250885009766 -2.0789999961853027 17.242805480957031
v -46.328250885009766 -2.0789999961853027 16.312088012695312
v -46.328250885009766 -2.0789999961853027 13.51993465423584
v -45.618537902832031 -2.0789999961853027 23.757831573486328
v -45.618537902832031 -2.0789999961853027 22.827114105224609
v -45.618537902832031 -2.0789999961853027 21.896396636962891
v -45.618537902832031 -2.0789999961853027 20.965679168701172
v -45.618537902832031 -2.0789999961853027 20.03495979309082
v -45.618537902832031 -2.0789999961853027 19.104242324829102
v -45.618537902832031 -2.0789999961853027 18.173524856567383
v -45.618537902832031 -2.0789999961853027 17.242805480957031
v -45.618537902832031 -2.0789999961853027 16.312088012695312
v -45.618537902832031 -2.0789999961853027 15.381370544433594
v -45.618537902832031 -2.0789999961853027 14.450652122497559
v -45.618537902832031 -2.0789999961853027 13.51993465423584
v -45.105079650878906 -2.0789999961853027 17.23695182800293
v -45.105079650878906 -2.0789999961853027 17.086952209472656
v -45.263683319091797 -2.0789999961853027 16.312088012695312
v -45.618537902832031 -2.0789999961853027 16.777446746826172
v -45.263683319091797 -2.0789999961853027 17.242805480957031
v -45.263683319091797 -2.0789999961853027 16.777446746826172
v -44.964488983154297 -2.0789999961853027 17.086952209472656
v -44.964488983154297 -2.0789999961853027 16.437675476074219
v -44.964488983154297 -2.0789999961853027 15.788399696350098
v -44.964488983154297 -2.0789999961853027 15.139123916625977
v -44.964488983154297 -2.0789999961853027 14.489848136901855
v -45.105079650878906 -2.0789999961853027 14.489848136901855
v -45.263683319091797 -2.0789999961853027 14.450652122497559
v -45.618537902832031 -2.0789999961853027 14.916010856628418
v -45.263683319091797 -2.0789999961853027 15.381370544433594
v -45.263683319091797 -2.0789999961853027 14.916010856628418
v -45.105079650878906 -2.0789999961853027 14.339847564697266
v -45.263683319091797 -2.0789999961853027 13.51993465423584
v -45.618537902832031 -2.0789999961853027 13.985293388366699
v -45.263683319091797 -2.0789999961853027 13.985293388366699
v -44.964488983154297 -2.0789999961853027 14.339847564697266
v -44.964488983154297 -2.0789999961853027 13.795844078063965
v -44.964488983154297 -2.0789999961853027 13.251840591430664
v -44.964488983154297 -2.0789999961853027 12.707837104797363
v -45.509178161621094 -2.0789999961853027 12.707837104797363
v -46.053863525390625 -2.0789999961853027 12.707837104797363
v -46.598548889160156 -2.0789999961853027 12.707837104797363
v -46.598548889160156 -2.0789999961853027 13.01054573059082
v -46.748546600341797 -2.0789999961853027 13.01054573059082
v -46.748546600341797 -2.0789999961853027 12.707837104797363
v -47.378932952880859 -2.0789999961853027 12.707837104797363
v -48.009315490722656 -2.0789999961853027 12.707837104797363
v -48.639701843261719 -2.0789999961853027 12.707837104797363
v -49.270084381103516 -2.0789999961853027 12.707837104797363
v -49.900470733642578 -2.0789999961853027 12.707837104797363
v -50.530853271484375 -2.0789999961853027 12.707837104797363
v -50.530853271484375 -2.0789999961853027 13.353209495544434
v -50.530853271484375 -2.0789999961853027 13.99858283996582
v -50.530853271484375 -2.0789999961853027 14.643955230712891
v -50.530853271484375 -2.0789999961853027 15.289327621459961
v -50.530853271484375 -2.0789999961853027 15.934700012207031
v -50.530853271484375 -2.0789999961853027 16.580072402954102
v -50.530853271484375 -2.0789999961853027 17.225446701049805
v -50.530853271484375 -2.0789999961853027 17.870819091796875
v -50.530853271484375 -2.0789999961853027 18.516191482543945
v -49.900470733642578 -2.0789999961853027 18.516191482543945
v -49.270084381103516 -2.0789999961853027 18.516191482543945
v -48.639701843261719 -2.0789999961853027 18.516191482543945
v -48.009315490722656 -2.0789999961853027 18.516191482543945
v -47.378932952880859 -2.0789999961853027 18.516191482543945
v -46.748546600341797 -2.0789999961853027 18.516191482543945
v -46.748546600341797 -2.0789999961853027 17.845211029052734
v -46.748546600341797 -2.0789999961853027 17.174230575561523
v -46.598548889160156 -2.0789999961853027 17.174230575561523
v -46.328250885009766 -2.0789999961853027 16.777446746826172
v -47.037960052490234 -2.0789999961853027 16.777446746826172
v -46.68310546875 -2.0789999961853027 16.777446746826172
v -46.598548889160156 -2.0789999961853027 17.74101448059082
v -46.598548889160156 -2.0789999961853027 18.307798385620117
v -46.598548889160156 -2.0789999961853027 18.874582290649414
v -46.598548889160156 -2.0789999961853027 19.441366195678711
v -46.598548889160156 -2.0789999961853027 20.008150100708008
v -46.748546600341797 -2.0789999961853027 20.008150100708008
v -46.328250885009766 -2.0789999961853027 19.569601058959961
v -47.037960052490234 -2.0789999961853027 19.569601058959961
v -46.748546600341797 -2.0789999961853027 19.33717155456543
v -46.748546600341797 -2.0789999961853027 18.666191101074219
v -47.378932952880859 -2.0789999961853027 18.666191101074219
v -48.009315490722656 -2.0789999961853027 18.666191101074219
v -48.639701843261719 -2.0789999961853027 18.666191101074219
v -49.270084381103516 -2.0789999961853027 18.666191101074219
v -49.900470733642578 -2.0789999961853027 18.666191101074219
v -50.530853271484375 -2.0789999961853027 18.666191101074219
v -50.530853271484375 -2.0789999961853027 19.322162628173828
v -50.530853271484375 -2.0789999961853027 19.978132247924805
v -50.530853271484375 -2.0789999961853027 20.634103775024414
v -50.530853271484375 -2.0789999961853027 21.290075302124023
v -50.530853271484375 -2.0789999961853027 21.946044921875
v -50.530853271484375 -2.0789999961853027 22.602016448974609
v -50.530853271484375 -2.0789999961853027 23.257987976074219
v -50.530853271484375 -2.0789999961853027 23.913959503173828
v -50.530853271484375 -2.0789999961853027 24.569929122924805
v -49.900470733642578 -2.0789999961853027 24.569929122924805
v -49.270084381103516 -2.0789999961853027 24.569929122924805
v -48.639701843261719 -2.0789999961853027 24.569929122924805
v -48.009315490722656 -2.0789999961853027 24.569929122924805
v -47.378932952880859 -2.0789999961853027 24.569929122924805
v -46.748546600341797 -2.0789999961853027 24.569929122924805
v -46.748546600341797 -2.0789999961853027 23.963966369628906
v -46.748546600341797 -2.0789999961853027 23.358003616333008
v -46.748546600341797 -2.0789999961853027 22.752040863037109
v -46.748546600341797 -2.0789999961853027 22.146078109741211
v -46.748546600341797 -2.0789999961853027 21.54011344909668
v -46.748546600341797 -2.0789999961853027 20.934150695800781
v -46.598548889160156 -2.0789999961853027 20.934150695800781
v -46.328250885009766 -2.0789999961853027 20.50031852722168
v -47.037960052490234 -2.0789999961853027 20.50031852722168
v -46.598548889160156 -2.0789999961853027 21.42369270324707
v -46.598548889160156 -2.0789999961853027 21.913234710693359
v -46.598548889160156 -2.0789999961853027 22.402776718139648
v -46.168685913085938 -2.0789999961853027 22.402776718139648
v -46.168685913085938 -2.0789999961853027 22.552776336669922
v -45.618537902832031 -2.0789999961853027 22.36175537109375
v -45.973392486572266 -2.0789999961853027 21.896396636962891
v -45.973392486572266 -2.0789999961853027 22.827114105224609
v -45.973392486572266 -2.0789999961853027 22.36175537109375
v -46.598548889160156 -2.0789999961853027 22.552776336669922
v -46.598548889160156 -2.0789999961853027 23.225160598754883
v -46.598548889160156 -2.0789999961853027 23.897544860839844
v -46.598548889160156 -2.0789999961853027 24.569929122924805
v -46.053863525390625 -2.0789999961853027 24.569929122924805
v -45.509178161621094 -2.0789999961853027 24.569929122924805
v -44.964488983154297 -2.0789999961853027 24.569929122924805
v -44.964488983154297 -2.0789999961853027 23.897544860839844
v -44.964488983154297 -2.0789999961853027 23.225160598754883
v -44.964488983154297 -2.0789999961853027 22.552776336669922
v -45.242687225341797 -2.0789999961853027 22.552776336669922
v -45.242687225341797 -2.0789999961853027 22.402776718139648
v -45.263683319091797 -2.0789999961853027 21.896396636962891
v -44.964488983154297 -2.0789999961853027 22.402776718139648
v -44.964488983154297 -2.0789999961853027 21.757047653198242
v -44.964488983154297 -2.0789999961853027 21.111320495605469
v -44.964488983154297 -2.0789999961853027 20.465593338012695
v -44.964488983154297 -2.0789999961853027 19.819864273071289
v -44.964488983154297 -2.0789999961853027 19.174137115478516
v -44.964488983154297 -2.0789999961853027 18.528408050537109
v -44.964488983154297 -2.0789999961853027 17.882680892944336
v -44.964488983154297 -2.0789999961853027 17.23695182800293
v -46.598548889160156 -2.0789999961853027 13.936545372009277
v -46.598548889160156 -2.0789999961853027 14.514467239379883
v -46.598548889160156 -2.0789999961853027 15.092388153076172
v -46.598548889160156 -2.0789999961853027 15.670310020446777
v -46.598548889160156 -2.0789999961853027 16.24822998046875
v -46.748546600341797 -2.0789999961853027 16.24822998046875
v -47.037960052490234 -2.0789999961853027 15.846729278564453
v -46.748546600341797 -2.0789999961853027 15.670310020446777
v -46.748546600341797 -2.0789999961853027 15.092388153076172
v -46.748546600341797 -2.0789999961853027 14.514467239379883
v -46.748546600341797 -2.0789999961853027 13.936545372009277
v -46.328250885009766 -2.0789999961853027 13.985293388366699
v -47.037960052490234 -2.0789999961853027 13.985293388366699
v -45.81549072265625 -2.0789999961853027 17.23695182800293
v -45.965492248535156 -2.0789999961853027 17.23695182800293
v -45.965492248535156 -2.0789999961853027 16.65753173828125
v -45.965492248535156 -2.0789999961853027 16.078109741210938
v -45.965492248535156 -2.0789999961853027 15.498689651489258
v -45.965492248535156 -2.0789999961853027 14.919268608093262
v -45.965492248535156 -2.0789999961853027 14.339847564697266
v -45.81549072265625 -2.0789999961853027 14.339847564697266
v -45.973392486572266 -2.0789999961853027 13.51993465423584
v -45.973392486572266 -2.0789999961853027 13.985293388366699
v -45.81549072265625 -2.0789999961853027 14.919268608093262
v -45.81549072265625 -2.0789999961853027 15.498689651489258
v -45.81549072265625 -2.0789999961853027 16.078109741210938
v -45.81549072265625 -2.0789999961853027 16.65753173828125
v -46.328250885009766 -2.0789999961853027 14.450652122497559
vn 0 1 0
vn 0 1 0
vn 0 1 0
vn 0 1 0
vn 0 1 0
vn 0 1 0
vn 0 1 0
vn 0 1 0
vn 0 1 0
vn 0 1 0
vn 0 1 0
vn 0 1 0
vn 0 1 0
vn 0 1 0
vn 0 1 0
vn 0 1 0
vn 0 1 0
vn 0 1 0
vn 0 1 0
vn 0 1 0
vn 0 1 0
vn 0 1 0
vn 0 1 0
vn 0 1 0
vn 0 1 0
vn 0 1 0
vn 0 1 0
vn 0 1 0
vn 0 1 0
vn 0 1 0
vn 0 1 0
vn 0 1 0
vn 0 1 0
vn 0 1 0
vn 0 1 0
vn 0 1 0
vn 0 1 0
vn 0 1 0
vn 0 1 0
vn 0 1 0
vn 0 1 0
vn 0 1 0
vn 0 1 0
vn 0 1 0
vn 0 1 0
vn 0 1 0
vn 0 1 0
vn 0 1 0
vn 0 1 0
vn 0 1 0
vn 0 1 0
vn 0 1 0
vn 0 1 0
vn 0 1 0
vn 0 1 0
vn 0 1 0
vn 0 1 0
vn 0 1 0
vn 0 1 0
vn 0 1 0
vn 0 1 0
vn 0 1 0
vn 0 1 0
vn 0 1 0
vn 0 1 0
vn 0 1 0
vn 0 1 0
vn 0 1 0
vn 0 1 0
vn 0 1 0
vn 0 1 0
vn 0 1 0
vn 0 1 0
vn 0 1 0
vn 0 1 0
vn 0 1 0
vn 0 1 0
vn 0 1 0
vn 0 1 0
vn 0 1 0
vn 0 1 0
vn 0 1 0
vn 0 1 0
vn 0 1 0
vn 0 1 0
vn 0 1 0
vn 0 1 0
vn 0 1 0
vn 0 1 0
vn 0 1 0
vn 0 1 0
vn 0 1 0
vn 0 1 0
vn 0 1 0
vn 0 1 0
vn 0 1 0
vn 0 1 0
vn 0 1 0
vn 0 1 0
vn 0 1 0
vn 0 1 0
vn 0 1 0
vn 0 1 0
vn 0 1 0
vn 0 1 0
vn 0 1 0
vn 0 1 0
vn 0 1 0
vn 0 1 0
vn 0 1 0
vn 0 1 0
vn 0 1 0
vn 0 1 0
vn 0 1 0
vn 0 1 0
vn 0 1 0
vn 0 1 0
vn 0 1 0
vn 0 1 0
vn 0 1 0
vn 0 1 0
vn 0 1 0
vn 0 1 0
vn 0 1 0
vn 0 1 0
vn 0 1 0
vn 0 1 0
vn 0 1 0
vn 0 1 0
vn 0 1 0
vn 0 1 0
vn 0 1 0
vn 0 1 0
vn 0 1 0
vn 0 1 0
vn 0 1 0
vn 0 1 0
vn 0 1 0
vn 0 1 0
vn 0 1 0
vn 0 1 0
vn 0 1 0
vn 0 1 0
vn 0 1 0
vn 0 1 0
vn 0 1 0
vn 0 1 0
vn 0 1 0
vn 0 1 0
vn 0 1 0
vn 0 1 0
vn 0 1 0
vn 0 1 0
vn 0 1 0
vn 0 1 0
vn 0 1 0
vn 0 1 0
vn 0 1 0
vn 0 1 0
vn 0 1 0
vn 0 1 0
vn 0 1 0
vn 0 1 0
vn 0 1 0
vn 0 1 0
vn 0 1 0
vn 0 1 0
vn 0 1 0
vn 0 1 0
vn 0 1 0
vn 0 1 0
vn 0 1 0
vn 0 1 0
vn 0 1 0
vn 0 1 0
vn 0 1 0
vn 0 1 0
vn 0 1 0
vn 0 1 0
vn 0 1 0
vn 0 1 0
vn 0 1 0
vn 0 1 0
vn 0 1 0
vn 0 1 0
vn 0 1 0
vn 0 1 0
vn 0 1 0
vn 0 1 0
vn 0 1 0
vn 0 1 0
vn 0 1 0
vn 0 1 0
vn 0 1 0
vn 0 1 0
vn 0 1 0
vn 0 1 0
vn 0 1 0
vn 0 1 0
vn 0 1 0
vn 0 1 0
vn 0 1 0
vn 0 1 0
vn 0 1 0
vn 0 1 0
vn 0 1 0
vn 0 1 0
vn 0 1 0
vn 0 1 0
vn 0 1 0
vn 0 1 0
vn 0 1 0
vn 0 1 0
vn 0 1 0
vn 0 1 0
vn 0 1 0
vn 0 1 0
vn 0 1 0
vn 0 1 0
vn 0 1 0
vn 0 1 0
vn 0 1 0
vn 0 1 0
vn 0 1 0
vn 0 1 0
vn 0 1 0
vn 0 1 0
vn 0 1 0
vn 0 1 0
vn 0 1 0
vn 0 1 0
vn 0 1 0
vn 0 1 0
vn 0 1 0
vn 0 1 0
vn 0 1 0
vn 0 1 0
vn 0 1 0
f 14//14 2//2 1//1 13//13
f 15//15 3//3 2//2 14//14
f 16//16 4//4 3//3 15//15
f 17//17 5//5 4//4 16//16
f 18//18 6//6 5//5 17//17
f 20//20 8//8 7//7 19//19
f 21//21 9//9 8//8 20//20
f 22//22 10//10 9//9 21//21
f 23//23 11//11 10//10 22//22
f 24//24 12//12 11//11 23//23
f 26//26 14//14 13//13 25//25
f 27//27 15//15 14//14 26//26
f 28//28 16//16 15//15 27//27
f 29//29 17//17 16//16 28//28
f 30//30 18//18 17//17 29//29
f 32//32 20//20 19//19 31//31
f 33//33 21//21 20//20 32//32
f 34//34 22//22 21//21 33//33
f 35//35 23//23 22//22 34//34
f 36//36 24//24 23//23 35//35
f 38//38 26//26 25//25 37//37
f 39//39 27//27 26//26 38//38
f 40//40 28//28 27//27 39//39
f 41//41 29//29 28//28 40//40
f 42//42 30//30 29//29 41//41
f 44//44 32//32 31//31 43//43
f 45//45 33//33 32//32 44//44
f 46//46 34//34 33//33 45//45
f 47//47 35//35 34//34 46//46
f 48//48 36//36 35//35 47//47
f 50//50 38//38 37//37 49//49
f 51//51 39//39 38//38 50//50
f 52//52 40//40 39//39 51//51
f 179//179 53//53 41//41
f 40//40 52//52 179//179
f 41//41 40//40 179//179
f 147//147 54//54 42//42
f 41//41 53//53 147//147
f 42//42 41//41 147//147
f 56//56 44//44 43//43 55//55
f 138//138 57//57 45//45
f 44//44 56//56 138//138
f 45//45 44//44 138//138
f 217//217 58//58 46//46
f 45//45 57//57 217//217
f 46//46 45//45 217//217
f 59//59 47//47 46//46 58//58
f 223//223 60//60 48//48
f 47//47 59//59 223//223
f 48//48 47//47 223//223
f 139//139 137//137 69//69
f 57//57 138//138 139//139
f 187//187 62//62 61//61
f 71//71 72//72 187//187
f 61//61 71//71 187//187
f 73//73 186//186 188//188 185//185
f 185//185 188//188 187//187 72//72
f 186//186 73//73 74//74
f 64//64 63//63 186//186
f 74//74 64//64 186//186
f 178//178 64//64 74//74
f 75//75 65//65 178//178
f 74//74 75//75 178//178
f 146//146 65//65 75//75
f 76//76 66//66 146//146
f 75//75 76//76 146//146
f 77//77 67//67 66//66 76//76
f 68//68 67//67 77//77
f 82//82 232//232 233//233 101//101
f 232//232 70//70 222//222 233//233
f 201//201 73//73 185//185
f 85//85 79//79 86//86 88//88
f 88//88 86//86 78//78 87//87
f 95//95 81//81 96//96 98//98
f 98//98 96//96 80//80 97//97
f 100//100 82//82 101//101 102//102
f 102//102 101//101 81//81 95//95
f 163//163 164//164 165//165
f 1//1 162//162 163//163
f 162//162 2//2 161//161
f 160//160 161//161 2//2 3//3
f 163//163 165//165 1//1
f 13//13 1//1 165//165 166//166
f 166//166 167//167 25//25 13//13
f 167//167 168//168 37//37 25//25
f 162//162 1//1 2//2
f 159//159 160//160 3//3
f 158//158 5//5 157//157
f 156//156 157//157 5//5 6//6
f 154//154 155//155 6//6
f 155//155 156//156 6//6
f 4//4 158//158 159//159
f 158//158 4//4 5//5
f 152//152 153//153 18//18
f 6//6 18//18 153//153
f 151//151 152//152 30//30
f 18//18 30//30 152//152
f 154//154 6//6 153//153
f 4//4 159//159 3//3
f 37//37 168//168 169//169
f 49//49 169//169 170//170
f 169//169 49//49 37//37
f 50//50 49//49 172//172 173//173
f 171//171 49//49 170//170
f 61//61 191//191 192//192
f 62//62 189//189 190//190
f 173//173 174//174 51//51 50//50
f 190//190 191//191 61//61
f 49//49 171//171 172//172
f 52//52 51//51 175//175 176//176
f 176//176 179//179 52//52
f 150//150 151//151 42//42
f 151//151 30//30 42//42
f 150//150 42//42 54//54
f 53//53 179//179 178//178 65//65
f 148//148 54//54 147//147
f 145//145 148//148 147//147 53//53
f 149//149 150//150 54//54
f 176//176 178//178 179//179
f 174//174 175//175 51//51
f 148//148 149//149 54//54
f 127//127 7//7 126//126
f 8//8 125//125 126//126
f 125//125 8//8 124//124
f 124//124 9//9 123//123
f 7//7 127//127 128//128
f 19//19 7//7 128//128 129//129
f 129//129 130//130 31//31 19//19
f 124//124 8//8 9//9
f 130//130 131//131 43//43 31//31
f 126//126 7//7 8//8
f 10//10 123//123 9//9
f 121//121 122//122 10//10 11//11
f 123//123 10//10 122//122
f 11//11 120//120 121//121
f 118//118 119//119 117//117
f 119//119 12//12 117//117
f 120//120 12//12 119//119
f 116//116 12//12 24//24
f 120//120 11//11 12//12
f 115//115 116//116 24//24
f 115//115 36//36 114//114
f 36//36 48//48 114//114
f 115//115 24//24 36//36
f 117//117 12//12 116//116
f 43//43 131//131 132//132
f 55//55 43//43 132//132
f 56//56 55//55 134//134 135//135
f 135//135 138//138 56//56
f 133//133 134//134 55//55
f 139//139 138//138 135//135
f 57//57 139//139 216//216
f 136//136 139//139 135//135
f 217//217 57//57 216//216 218//218
f 133//133 55//55 132//132
f 218//218 58//58 217//217
f 59//59 58//58 219//219 220//220
f 114//114 48//48 113//113
f 60//60 113//113 48//48
f 221//221 60//60 223//223
f 111//111 113//113 60//60
f 223//223 59//59 220//220 221//221
f 58//58 218//218 219//219
f 111//111 60//60 70//70
f 60//60 221//221 70//70
f 113//113 111//111 112//112
f 215//215 216//216 139//139
f 189//189 62//62 184//184
f 61//61 62//62 190//190
f 183//183 63//63 182//182
f 180//180 181//181 63//63
f 182//182 63//63 181//181
f 64//64 180//180 63//63
f 184//184 62//62 187//187
f 71//71 61//61 193//193 194//194
f 188//188 184//184 187//187
f 186//186 63//63 183//183
f 183//183 188//188 186//186
f 188//188 183//183 184//184
f 193//193 61//61 192//192
f 177//177 180//180 64//64
f 177//177 178//178 176//176
f 53//53 65//65 144//144 145//145
f 143//143 144//144 65//65 146//146
f 141//141 142//142 66//66 67//67
f 67//67 140//140 141//141
f 142//142 143//143 146//146 66//66
f 225//225 68//68 77//77
f 137//137 68//68 225//225 226//226
f 67//67 68//68 136//136 140//140
f 178//178 177//177 64//64
f 72//72 199//199 185//185
f 72//72 71//71 196//196 197//197
f 185//185 200//200 201//201
f 74//74 73//73 201//201
f 196//196 71//71 194//194
f 72//72 197//197 199//199
f 185//185 199//199 200//200
f 198//198 199//199 197//197
f 201//201 200//200 202//202
f 195//195 196//196 194//194
f 203//203 201//201 202//202
f 76//76 75//75 206//206 207//207
f 77//77 76//76 207//207 208//208
f 224//224 225//225 77//77
f 87//87 78//78 77//77
f 87//87 209//209 83//83
f 77//77 209//209 87//87
f 78//78 224//224 77//77
f 75//75 74//74 204//204 205//205
f 201//201 204//204 74//74
f 77//77 208//208 209//209
f 75//75 205//205 206//206
f 204//204 201//201 203//203
f 210//210 83//83 209//209
f 87//87 83//83 84//84
f 68//68 137//137 136//136
f 69//69 137//137 226//226
f 214//214 215//215 69//69
f 69//69 215//215 139//139
f 227//227 228//228 69//69
f 227//227 69//69 226//226
f 136//136 137//137 139//139
f 237//237 224//224 78//78 86//86
f 236//236 237//237 86//86 79//79
f 238//238 228//228 229//229
f 235//235 236//236 79//79 80//80
f 234//234 235//235 80//80 96//96
f 69//69 238//238 213//213 214//214
f 212//212 213//213 238//238
f 211//211 212//212 238//238 222//222
f 211//211 70//70 221//221
f 110//110 111//111 70//70
f 211//211 222//222 70//70
f 108//108 110//110 70//70
f 222//222 238//238 230//230
f 69//69 228//228 238//238
f 230//230 233//233 222//222
f 108//108 70//70 232//232
f 82//82 108//108 232//232
f 231//231 233//233 230//230
f 233//233 231//231 101//101
f 231//231 234//234 96//96 81//81
f 229//229 230//230 238//238
f 109//109 110//110 108//108
f 90//90 85//85 88//88
f 85//85 97//97 80//80 79//79
f 97//97 85//85 90//90 91//91
f 88//88 87//87 84//84
f 88//88 89//89 90//90
f 97//97 91//91 92//92
f 97//97 92//92 98//98
f 93//93 98//98 92//92
f 89//89 88//88 84//84
f 231//231 81//81 101//101
f 108//108 82//82 107//107
f 100//100 107//107 82//82
f 104//104 100//100 102//102
f 105//105 107//107 100//100
f 102//102 95//95 99//99
f 98//98 93//93 94//94
f 95//95 94//94 99//99
f 99//99 103//103 104//104
f 105//105 106//106 107//107
f 104//104 105//105 100//100
f 104//104 102//102 99//99
f 95//95 98//98 94//94
