# Rhino

mtllib secund level.mtl
usemtl Default
v -58.135047912597656 -2.0789999961853027 23.757831573486328
v -58.135047912597656 -2.0789999961853027 22.827114105224609
v -58.135047912597656 -2.0789999961853027 21.896396636962891
v -58.135047912597656 -2.0789999961853027 20.965679168701172
v -58.135047912597656 -2.0789999961853027 20.03495979309082
v -58.135047912597656 -2.0789999961853027 17.242805480957031
v -58.135047912597656 -2.0789999961853027 16.312088012695312
v -58.135047912597656 -2.0789999961853027 15.381370544433594
v -58.135047912597656 -2.0789999961853027 14.450652122497559
v -58.135047912597656 -2.0789999961853027 13.51993465423584
v -57.425338745117188 -2.0789999961853027 23.757831573486328
v -57.425338745117188 -2.0789999961853027 22.827114105224609
v -57.425338745117188 -2.0789999961853027 21.896396636962891
v -57.425338745117188 -2.0789999961853027 20.965679168701172
v -57.425338745117188 -2.0789999961853027 20.03495979309082
v -57.425338745117188 -2.0789999961853027 19.104242324829102
v -57.425338745117188 -2.0789999961853027 18.173524856567383
v -57.425338745117188 -2.0789999961853027 17.242805480957031
v -57.425338745117188 -2.0789999961853027 16.312088012695312
v -57.425338745117188 -2.0789999961853027 15.381370544433594
v -57.425338745117188 -2.0789999961853027 14.450652122497559
v -57.425338745117188 -2.0789999961853027 13.51993465423584
v -56.715625762939453 -2.0789999961853027 23.757831573486328
v -56.715625762939453 -2.0789999961853027 22.827114105224609
v -56.715625762939453 -2.0789999961853027 21.896396636962891
v -56.715625762939453 -2.0789999961853027 20.965679168701172
v -56.715625762939453 -2.0789999961853027 20.03495979309082
v -56.715625762939453 -2.0789999961853027 17.242805480957031
v -56.715625762939453 -2.0789999961853027 16.312088012695312
v -56.715625762939453 -2.0789999961853027 15.381370544433594
v -56.715625762939453 -2.0789999961853027 14.450652122497559
v -56.715625762939453 -2.0789999961853027 13.51993465423584
v -56.005916595458984 -2.0789999961853027 23.757831573486328
v -56.005916595458984 -2.0789999961853027 22.827114105224609
v -56.005916595458984 -2.0789999961853027 21.896396636962891
v -56.005916595458984 -2.0789999961853027 20.965679168701172
v -56.005916595458984 -2.0789999961853027 20.03495979309082
v -56.005916595458984 -2.0789999961853027 19.104242324829102
v -56.005916595458984 -2.0789999961853027 18.173524856567383
v -56.005916595458984 -2.0789999961853027 17.242805480957031
v -56.005916595458984 -2.0789999961853027 16.312088012695312
v -56.005916595458984 -2.0789999961853027 15.381370544433594
v -56.005916595458984 -2.0789999961853027 14.450652122497559
v -56.005916595458984 -2.0789999961853027 13.51993465423584
v -55.29620361328125 -2.0789999961853027 23.757831573486328
v -55.29620361328125 -2.0789999961853027 22.827114105224609
v -55.29620361328125 -2.0789999961853027 21.896396636962891
v -55.29620361328125 -2.0789999961853027 20.965679168701172
v -55.29620361328125 -2.0789999961853027 20.03495979309082
v -55.29620361328125 -2.0789999961853027 17.242805480957031
v -55.29620361328125 -2.0789999961853027 16.312088012695312
v -55.29620361328125 -2.0789999961853027 15.381370544433594
v -55.29620361328125 -2.0789999961853027 14.450652122497559
v -55.29620361328125 -2.0789999961853027 13.51993465423584
v -54.586494445800781 -2.0789999961853027 23.757831573486328
v -54.586494445800781 -2.0789999961853027 22.827114105224609
v -54.586494445800781 -2.0789999961853027 21.896396636962891
v -54.586494445800781 -2.0789999961853027 20.965679168701172
v -54.586494445800781 -2.0789999961853027 16.312088012695312
v -54.586494445800781 -2.0789999961853027 13.51993465423584
v -53.876781463623047 -2.0789999961853027 23.757831573486328
v -53.876781463623047 -2.0789999961853027 22.827114105224609
v -53.876781463623047 -2.0789999961853027 21.896396636962891
v -53.876781463623047 -2.0789999961853027 20.03495979309082
v -53.876781463623047 -2.0789999961853027 19.104242324829102
v -53.876781463623047 -2.0789999961853027 18.173524856567383
v -53.876781463623047 -2.0789999961853027 17.242805480957031
v -53.876781463623047 -2.0789999961853027 16.312088012695312
v -53.876781463623047 -2.0789999961853027 15.381370544433594
v -53.876781463623047 -2.0789999961853027 14.450652122497559
v -53.876781463623047 -2.0789999961853027 13.51993465423584
v -53.363323211669922 -2.0789999961853027 17.23695182800293
v -53.363323211669922 -2.0789999961853027 17.086952209472656
v -53.521926879882812 -2.0789999961853027 16.312088012695312
v -53.876781463623047 -2.0789999961853027 16.777446746826172
v -53.521926879882812 -2.0789999961853027 17.242805480957031
v -53.521926879882812 -2.0789999961853027 16.777446746826172
v -53.222732543945312 -2.0789999961853027 17.086952209472656
v -53.222732543945312 -2.0789999961853027 16.437675476074219
v -53.222732543945312 -2.0789999961853027 15.788399696350098
v -53.222732543945312 -2.0789999961853027 15.139123916625977
v -53.222732543945312 -2.0789999961853027 14.489848136901855
v -53.363323211669922 -2.0789999961853027 14.489848136901855
v -53.521926879882812 -2.0789999961853027 14.450652122497559
v -53.876781463623047 -2.0789999961853027 14.916010856628418
v -53.521926879882812 -2.0789999961853027 15.381370544433594
v -53.521926879882812 -2.0789999961853027 14.916010856628418
v -53.363323211669922 -2.0789999961853027 14.339847564697266
v -53.521926879882812 -2.0789999961853027 13.51993465423584
v -53.876781463623047 -2.0789999961853027 13.985293388366699
v -53.521926879882812 -2.0789999961853027 13.985293388366699
v -53.222732543945312 -2.0789999961853027 14.339847564697266
v -53.222732543945312 -2.0789999961853027 13.795844078063965
v -53.222732543945312 -2.0789999961853027 13.251840591430664
v -53.222732543945312 -2.0789999961853027 12.707837104797363
v -53.767417907714844 -2.0789999961853027 12.707837104797363
v -54.312107086181641 -2.0789999961853027 12.707837104797363
v -54.856792449951172 -2.0789999961853027 12.707837104797363
v -54.856792449951172 -2.0789999961853027 13.01054573059082
v -55.006790161132812 -2.0789999961853027 13.01054573059082
v -55.006790161132812 -2.0789999961853027 12.707837104797363
v -55.637176513671875 -2.0789999961853027 12.707837104797363
v -56.267559051513672 -2.0789999961853027 12.707837104797363
v -56.897945404052734 -2.0789999961853027 12.707837104797363
v -57.528327941894531 -2.0789999961853027 12.707837104797363
v -58.158714294433594 -2.0789999961853027 12.707837104797363
v -58.789096832275391 -2.0789999961853027 12.707837104797363
v -58.789096832275391 -2.0789999961853027 13.359752655029297
v -58.789096832275391 -2.0789999961853027 14.01166820526123
v -58.789096832275391 -2.0789999961853027 14.66358470916748
v -58.789096832275391 -2.0789999961853027 15.315500259399414
v -58.789096832275391 -2.0789999961853027 15.967415809631348
v -58.789096832275391 -2.0789999961853027 16.619331359863281
v -58.789096832275391 -2.0789999961853027 17.271247863769531
v -58.789096832275391 -2.0789999961853027 17.923162460327148
v -58.316497802734375 -2.0789999961853027 17.923162460327148
v -57.843898773193359 -2.0789999961853027 17.923162460327148
v -57.843898773193359 -2.0789999961853027 18.073162078857422
v -57.425338745117188 -2.0789999961853027 17.708166122436523
v -57.780193328857422 -2.0789999961853027 17.242805480957031
v -58.135047912597656 -2.0789999961853027 17.708166122436523
v -57.780193328857422 -2.0789999961853027 17.708166122436523
v -58.316497802734375 -2.0789999961853027 18.073162078857422
v -58.789096832275391 -2.0789999961853027 18.073162078857422
v -58.789096832275391 -2.0789999961853027 18.638883590698242
v -58.789096832275391 -2.0789999961853027 19.20460319519043
v -58.316497802734375 -2.0789999961853027 19.20460319519043
v -57.843898773193359 -2.0789999961853027 19.20460319519043
v -57.843898773193359 -2.0789999961853027 19.354604721069336
v -57.425338745117188 -2.0789999961853027 19.569601058959961
v -58.135047912597656 -2.0789999961853027 19.569601058959961
v -57.780193328857422 -2.0789999961853027 20.03495979309082
v -57.780193328857422 -2.0789999961853027 19.569601058959961
v -58.316497802734375 -2.0789999961853027 19.354604721069336
v -58.789096832275391 -2.0789999961853027 19.354604721069336
v -58.789096832275391 -2.0789999961853027 20.006519317626953
v -58.789096832275391 -2.0789999961853027 20.658435821533203
v -58.789096832275391 -2.0789999961853027 21.31035041809082
v -58.789096832275391 -2.0789999961853027 21.96226692199707
v -58.789096832275391 -2.0789999961853027 22.614181518554688
v -58.789096832275391 -2.0789999961853027 23.266098022460938
v -58.789096832275391 -2.0789999961853027 23.918014526367188
v -58.789096832275391 -2.0789999961853027 24.569929122924805
v -58.158714294433594 -2.0789999961853027 24.569929122924805
v -57.528327941894531 -2.0789999961853027 24.569929122924805
v -56.897945404052734 -2.0789999961853027 24.569929122924805
v -56.267559051513672 -2.0789999961853027 24.569929122924805
v -55.637176513671875 -2.0789999961853027 24.569929122924805
v -55.006790161132812 -2.0789999961853027 24.569929122924805
v -55.006790161132812 -2.0789999961853027 24.097610473632812
v -55.006790161132812 -2.0789999961853027 23.625289916992188
v -55.006790161132812 -2.0789999961853027 23.152969360351562
v -54.856792449951172 -2.0789999961853027 23.152969360351562
v -54.586494445800781 -2.0789999961853027 23.292472839355469
v -54.941349029541016 -2.0789999961853027 22.827114105224609
v -55.29620361328125 -2.0789999961853027 23.292472839355469
v -54.856792449951172 -2.0789999961853027 23.625289916992188
v -54.856792449951172 -2.0789999961853027 24.097610473632812
v -54.856792449951172 -2.0789999961853027 24.569929122924805
v -54.312107086181641 -2.0789999961853027 24.569929122924805
v -53.767417907714844 -2.0789999961853027 24.569929122924805
v -53.222732543945312 -2.0789999961853027 24.569929122924805
v -53.222732543945312 -2.0789999961853027 23.893800735473633
v -53.222732543945312 -2.0789999961853027 23.217670440673828
v -53.222732543945312 -2.0789999961853027 22.541542053222656
v -53.222732543945312 -2.0789999961853027 21.865411758422852
v -53.222732543945312 -2.0789999961853027 21.18928337097168
v -53.790203094482422 -2.0789999961853027 21.18928337097168
v -53.790203094482422 -2.0789999961853027 21.039283752441406
v -53.521926879882812 -2.0789999961853027 20.965679168701172
v -53.876781463623047 -2.0789999961853027 21.431037902832031
v -53.521926879882812 -2.0789999961853027 21.896396636962891
v -53.521926879882812 -2.0789999961853027 21.431037902832031
v -53.222732543945312 -2.0789999961853027 21.039283752441406
v -53.222732543945312 -2.0789999961853027 20.552629470825195
v -53.222732543945312 -2.0789999961853027 20.065975189208984
v -53.363323211669922 -2.0789999961853027 20.065975189208984
v -53.521926879882812 -2.0789999961853027 20.03495979309082
v -53.876781463623047 -2.0789999961853027 20.50031852722168
v -53.521926879882812 -2.0789999961853027 20.50031852722168
v -53.363323211669922 -2.0789999961853027 19.915975570678711
v -53.521926879882812 -2.0789999961853027 19.104242324829102
v -53.876781463623047 -2.0789999961853027 19.569601058959961
v -53.521926879882812 -2.0789999961853027 19.569601058959961
v -53.222732543945312 -2.0789999961853027 19.915975570678711
v -53.222732543945312 -2.0789999961853027 19.252035140991211
v -53.222732543945312 -2.0789999961853027 18.588094711303711
v -53.222732543945312 -2.0789999961853027 17.924154281616211
v -53.363323211669922 -2.0789999961853027 17.924154281616211
v -53.876781463623047 -2.0789999961853027 17.708166122436523
v -53.521926879882812 -2.0789999961853027 18.173524856567383
v -53.521926879882812 -2.0789999961853027 17.708166122436523
v -53.363323211669922 -2.0789999961853027 17.774154663085938
v -53.222732543945312 -2.0789999961853027 17.774154663085938
v -53.222732543945312 -2.0789999961853027 17.23695182800293
v -54.856792449951172 -2.0789999961853027 17.174230575561523
v -54.856792449951172 -2.0789999961853027 17.660758972167969
v -54.856792449951172 -2.0789999961853027 18.147287368774414
v -55.006790161132812 -2.0789999961853027 18.147287368774414
v -55.29620361328125 -2.0789999961853027 17.708166122436523
v -55.006790161132812 -2.0789999961853027 18.073162078857422
v -55.651058197021484 -2.0789999961853027 17.242805480957031
v -56.005916595458984 -2.0789999961853027 17.708166122436523
v -55.651058197021484 -2.0789999961853027 18.173524856567383
v -55.651058197021484 -2.0789999961853027 17.708166122436523
v -54.941349029541016 -2.0789999961853027 18.638883590698242
v -55.359237670898438 -2.0789999961853027 18.073162078857422
v -55.359237670898438 -2.0789999961853027 18.638883590698242
v -55.359237670898438 -2.0789999961853027 19.20460319519043
v -55.006790161132812 -2.0789999961853027 19.20460319519043
v -55.006790161132812 -2.0789999961853027 19.073287963867188
v -55.29620361328125 -2.0789999961853027 19.569601058959961
v -55.1187744140625 -2.0789999961853027 19.104242324829102
v -55.651058197021484 -2.0789999961853027 19.104242324829102
v -56.005916595458984 -2.0789999961853027 19.569601058959961
v -55.651058197021484 -2.0789999961853027 20.03495979309082
v -55.651058197021484 -2.0789999961853027 19.569601058959961
v -54.941349029541016 -2.0789999961853027 18.871562957763672
v -55.1187744140625 -2.0789999961853027 18.638883590698242
v -55.29620361328125 -2.0789999961853027 18.871562957763672
v -55.1187744140625 -2.0789999961853027 18.871562957763672
v -54.856792449951172 -2.0789999961853027 19.073287963867188
v -54.856792449951172 -2.0789999961853027 19.540719985961914
v -54.856792449951172 -2.0789999961853027 20.008150100708008
v -55.006790161132812 -2.0789999961853027 20.008150100708008
v -55.006790161132812 -2.0789999961853027 19.354604721069336
v -55.509235382080078 -2.0789999961853027 19.354604721069336
v -55.509235382080078 -2.0789999961853027 18.697872161865234
v -56.112194061279297 -2.0789999961853027 18.697872161865234
v -56.715156555175781 -2.0789999961853027 18.697872161865234
v -56.715156555175781 -2.0789999961853027 19.20460319519043
v -56.435237884521484 -2.0789999961853027 19.20460319519043
v -56.435237884521484 -2.0789999961853027 19.354604721069336
v -56.360771179199219 -2.0789999961853027 19.104242324829102
v -56.715625762939453 -2.0789999961853027 19.569601058959961
v -56.360771179199219 -2.0789999961853027 20.03495979309082
v -56.360771179199219 -2.0789999961853027 19.569601058959961
v -56.917900085449219 -2.0789999961853027 19.354604721069336
v -56.917900085449219 -2.0789999961853027 19.20460319519043
v -57.070484161376953 -2.0789999961853027 19.104242324829102
v -57.070484161376953 -2.0789999961853027 20.03495979309082
v -57.070484161376953 -2.0789999961853027 19.569601058959961
v -56.865154266357422 -2.0789999961853027 19.20460319519043
v -56.893054962158203 -2.0789999961853027 19.104242324829102
v -57.070484161376953 -2.0789999961853027 19.336921691894531
v -56.893054962158203 -2.0789999961853027 19.569601058959961
v -57.070484161376953 -2.0789999961853027 18.173524856567383
v -57.425338745117188 -2.0789999961853027 18.638883590698242
v -57.070484161376953 -2.0789999961853027 18.638883590698242
v -56.981769561767578 -2.0789999961853027 19.104242324829102
v -57.070484161376953 -2.0789999961853027 19.220582962036133
v -56.981769561767578 -2.0789999961853027 19.336921691894531
v -56.981769561767578 -2.0789999961853027 19.220582962036133
v -57.070484161376953 -2.0789999961853027 18.871562957763672
v -56.893054962158203 -2.0789999961853027 18.871562957763672
v -56.360771179199219 -2.0789999961853027 18.173524856567383
v -57.247909545898438 -2.0789999961853027 19.104242324829102
v -57.425338745117188 -2.0789999961853027 19.336921691894531
v -57.247909545898438 -2.0789999961853027 19.569601058959961
v -57.247909545898438 -2.0789999961853027 19.336921691894531
v -56.360771179199219 -2.0789999961853027 19.336921691894531
v -56.538200378417969 -2.0789999961853027 19.569601058959961
v -56.865154266357422 -2.0789999961853027 18.638883590698242
v -56.865154266357422 -2.0789999961853027 18.073162078857422
v -56.917900085449219 -2.0789999961853027 18.073162078857422
v -56.715625762939453 -2.0789999961853027 17.708166122436523
v -57.070484161376953 -2.0789999961853027 17.242805480957031
v -57.070484161376953 -2.0789999961853027 17.708166122436523
v -56.893054962158203 -2.0789999961853027 17.708166122436523
v -57.070484161376953 -2.0789999961853027 17.940845489501953
v -56.893054962158203 -2.0789999961853027 18.173524856567383
v -56.360771179199219 -2.0789999961853027 17.242805480957031
v -56.360771179199219 -2.0789999961853027 17.708166122436523
v -57.070484161376953 -2.0789999961853027 18.406204223632812
v -56.893054962158203 -2.0789999961853027 18.406204223632812
v -56.360771179199219 -2.0789999961853027 17.940845489501953
v -56.538200378417969 -2.0789999961853027 17.708166122436523
v -56.981769561767578 -2.0789999961853027 17.940845489501953
v -57.070484161376953 -2.0789999961853027 18.057184219360352
v -56.981769561767578 -2.0789999961853027 18.173524856567383
v -56.981769561767578 -2.0789999961853027 18.057184219360352
v -57.247909545898438 -2.0789999961853027 17.708166122436523
v -57.425338745117188 -2.0789999961853027 17.940845489501953
v -57.247909545898438 -2.0789999961853027 18.173524856567383
v -57.247909545898438 -2.0789999961853027 17.940845489501953
v -56.917900085449219 -2.0789999961853027 17.923162460327148
v -56.435237884521484 -2.0789999961853027 17.923162460327148
v -56.435237884521484 -2.0789999961853027 18.073162078857422
v -56.715156555175781 -2.0789999961853027 18.073162078857422
v -56.715156555175781 -2.0789999961853027 18.547870635986328
v -56.112194061279297 -2.0789999961853027 18.547870635986328
v -55.509235382080078 -2.0789999961853027 18.547870635986328
v -55.509235382080078 -2.0789999961853027 17.923162460327148
v -55.006790161132812 -2.0789999961853027 17.923162460327148
v -55.006790161132812 -2.0789999961853027 17.548696517944336
v -55.006790161132812 -2.0789999961853027 17.174230575561523
v -54.586494445800781 -2.0789999961853027 16.777446746826172
v -55.29620361328125 -2.0789999961853027 16.777446746826172
v -54.941349029541016 -2.0789999961853027 16.777446746826172
v -54.856792449951172 -2.0789999961853027 13.936545372009277
v -54.856792449951172 -2.0789999961853027 14.514467239379883
v -54.856792449951172 -2.0789999961853027 15.092388153076172
v -54.856792449951172 -2.0789999961853027 15.670310020446777
v -54.856792449951172 -2.0789999961853027 16.24822998046875
v -55.006790161132812 -2.0789999961853027 16.24822998046875
v -55.29620361328125 -2.0789999961853027 15.846729278564453
v -55.006790161132812 -2.0789999961853027 15.670310020446777
v -55.006790161132812 -2.0789999961853027 15.092388153076172
v -55.006790161132812 -2.0789999961853027 14.514467239379883
v -55.006790161132812 -2.0789999961853027 13.936545372009277
v -54.586494445800781 -2.0789999961853027 13.985293388366699
v -55.29620361328125 -2.0789999961853027 13.985293388366699
v -54.856792449951172 -2.0789999961853027 21.18928337097168
v -54.856792449951172 -2.0789999961853027 21.708126068115234
v -54.856792449951172 -2.0789999961853027 22.226968765258789
v -55.006790161132812 -2.0789999961853027 22.226968765258789
v -54.586494445800781 -2.0789999961853027 22.36175537109375
v -55.29620361328125 -2.0789999961853027 22.36175537109375
v -54.941349029541016 -2.0789999961853027 22.36175537109375
v -55.006790161132812 -2.0789999961853027 21.580560684204102
v -55.006790161132812 -2.0789999961853027 20.934150695800781
v -54.856792449951172 -2.0789999961853027 20.934150695800781
v -54.586494445800781 -2.0789999961853027 20.50031852722168
v -55.29620361328125 -2.0789999961853027 20.50031852722168
v -54.941349029541016 -2.0789999961853027 20.50031852722168
v -54.856792449951172 -2.0789999961853027 21.039283752441406
v -54.586494445800781 -2.0789999961853027 20.732999801635742
v -54.763919830322266 -2.0789999961853027 20.50031852722168
v -54.941349029541016 -2.0789999961853027 20.732999801635742
v -54.763919830322266 -2.0789999961853027 20.965679168701172
v -54.763919830322266 -2.0789999961853027 20.732999801635742
v -54.586494445800781 -2.0789999961853027 21.431037902832031
v -55.29620361328125 -2.0789999961853027 21.431037902832031
v -54.231636047363281 -2.0789999961853027 20.965679168701172
v -54.231636047363281 -2.0789999961853027 20.50031852722168
v -54.586494445800781 -2.0789999961853027 21.198358535766602
v -54.231636047363281 -2.0789999961853027 21.896396636962891
v -54.231636047363281 -2.0789999961853027 21.431037902832031
v -54.716205596923828 -2.0789999961853027 21.039283752441406
v -54.716205596923828 -2.0789999961853027 21.18928337097168
v -54.079307556152344 -2.0789999961853027 17.23695182800293
v -54.22930908203125 -2.0789999961853027 17.23695182800293
v -54.228164672851562 -2.0789999961853027 16.65753173828125
v -54.227020263671875 -2.0789999961853027 16.078109741210938
v -54.225875854492188 -2.0789999961853027 15.498689651489258
v -54.2247314453125 -2.0789999961853027 14.919268608093262
v -54.223587036132812 -2.0789999961853027 14.339847564697266
v -54.073585510253906 -2.0789999961853027 14.339847564697266
v -54.231636047363281 -2.0789999961853027 13.51993465423584
v -54.231636047363281 -2.0789999961853027 13.985293388366699
v -54.074729919433594 -2.0789999961853027 14.919268608093262
v -54.075874328613281 -2.0789999961853027 15.498689651489258
v -54.077018737792969 -2.0789999961853027 16.078109741210938
v -54.078163146972656 -2.0789999961853027 16.65753173828125
v -54.07916259765625 -2.0789999961853027 17.774154663085938
v -54.07916259765625 -2.0789999961853027 18.347108840942383
v -54.07916259765625 -2.0789999961853027 18.920064926147461
v -54.07916259765625 -2.0789999961853027 19.493019104003906
v -54.07916259765625 -2.0789999961853027 20.065975189208984
v -54.229160308837891 -2.0789999961853027 20.065975189208984
v -54.229160308837891 -2.0789999961853027 19.493019104003906
v -54.229160308837891 -2.0789999961853027 18.920064926147461
v -54.229160308837891 -2.0789999961853027 18.347108840942383
v -54.229160308837891 -2.0789999961853027 17.774154663085938
v -54.586494445800781 -2.0789999961853027 19.104242324829102
v -54.586494445800781 -2.0789999961853027 18.173524856567383
v -54.586494445800781 -2.0789999961853027 17.242805480957031
v -54.586494445800781 -2.0789999961853027 14.450652122497559
vn 0 1 0
vn 0 1 0
vn 0 1 0
vn 0 1 0
vn 0 1 0
vn 0 1 0
vn 0 1 0
vn 0 1 0
vn 0 1 0
vn 0 1 0
vn 0 1 0
vn 0 1 0
vn 0 1 0
vn 0 1 0
vn 0 1 0
vn 0 1 0
vn 0 1 0
vn 0 1 0
vn 0 1 0
vn 0 1 0
vn 0 1 0
vn 0 1 0
vn 0 1 0
vn 0 1 0
vn 0 1 0
vn 0 1 0
vn 0 1 0
vn 0 1 0
vn 0 1 0
vn 0 1 0
vn 0 1 0
vn 0 1 0
vn 0 1 0
vn 0 1 0
vn 0 1 0
vn 0 1 0
vn 0 1 0
vn 0 1 0
vn 0 1 0
vn 0 1 0
vn 0 1 0
vn 0 1 0
vn 0 1 0
vn 0 1 0
vn 0 1 0
vn 0 1 0
vn 0 1 0
vn 0 1 0
vn 0 1 0
vn 0 1 0
vn 0 1 0
vn 0 1 0
vn 0 1 0
vn 0 1 0
vn 0 1 0
vn 0 1 0
vn 0 1 0
vn 0 1 0
vn 0 1 0
vn 0 1 0
vn 0 1 0
vn 0 1 0
vn 0 1 0
vn 0 1 0
vn 0 1 0
vn 0 1 0
vn 0 1 0
vn 0 1 0
vn 0 1 0
vn 0 1 0
vn 0 1 0
vn 0 1 0
vn 0 1 0
vn 0 1 0
vn 0 1 0
vn 0 1 0
vn 0 1 0
vn 0 1 0
vn 0 1 0
vn 0 1 0
vn 0 1 0
vn 0 1 0
vn 0 1 0
vn 0 1 0
vn 0 1 0
vn 0 1 0
vn 0 1 0
vn 0 1 0
vn 0 1 0
vn 0 1 0
vn 0 1 0
vn 0 1 0
vn 0 1 0
vn 0 1 0
vn 0 1 0
vn 0 1 0
vn 0 1 0
vn 0 1 0
vn 0 1 0
vn 0 1 0
vn 0 1 0
vn 0 1 0
vn 0 1 0
vn 0 1 0
vn 0 1 0
vn 0 1 0
vn 0 1 0
vn 0 1 0
vn 0 1 0
vn 0 1 0
vn 0 1 0
vn 0 1 0
vn 0 1 0
vn 0 1 0
vn 0 1 0
vn 0 1 0
vn 0 1 0
vn 0 1 0
vn 0 1 0
vn 0 1 0
vn 0 1 0
vn 0 1 0
vn 0 1 0
vn 0 1 0
vn 0 1 0
vn 0 1 0
vn 0 1 0
vn 0 1 0
vn 0 1 0
vn 0 1 0
vn 0 1 0
vn 0 1 0
vn 0 1 0
vn 0 1 0
vn 0 1 0
vn 0 1 0
vn 0 1 0
vn 0 1 0
vn 0 1 0
vn 0 1 0
vn 0 1 0
vn 0 1 0
vn 0 1 0
vn 0 1 0
vn 0 1 0
vn 0 1 0
vn 0 1 0
vn 0 1 0
vn 0 1 0
vn 0 1 0
vn 0 1 0
vn 0 1 0
vn 0 1 0
vn 0 1 0
vn 0 1 0
vn 0 1 0
vn 0 1 0
vn 0 1 0
vn 0 1 0
vn 0 1 0
vn 0 1 0
vn 0 1 0
vn 0 1 0
vn 0 1 0
vn 0 1 0
vn 0 1 0
vn 0 1 0
vn 0 1 0
vn 0 1 0
vn 0 1 0
vn 0 1 0
vn 0 1 0
vn 0 1 0
vn 0 1 0
vn 0 1 0
vn 0 1 0
vn 0 1 0
vn 0 1 0
vn 0 1 0
vn 0 1 0
vn 0 1 0
vn 0 1 0
vn 0 1 0
vn 0 1 0
vn 0 1 0
vn 0 1 0
vn 0 1 0
vn 0 1 0
vn 0 1 0
vn 0 1 0
vn 0 1 0
vn 0 1 0
vn 0 1 0
vn 0 1 0
vn 0 1 0
vn 0 1 0
vn 0 1 0
vn 0 1 0
vn 0 1 0
vn 0 1 0
vn 0 1 0
vn 0 1 0
vn 0 1 0
vn 0 1 0
vn 0 1 0
vn 0 1 0
vn 0 1 0
vn 0 1 0
vn 0 1 0
vn 0 1 0
vn 0 1 0
vn 0 1 0
vn 0 1 0
vn 0 1 0
vn 0 1 0
vn 0 1 0
vn 0 1 0
vn 0 1 0
vn 0 1 0
vn 0 1 0
vn 0 1 0
vn 0 1 0
vn 0 1 0
vn 0 1 0
vn 0 1 0
vn 0 1 0
vn 0 1 0
vn 0 1 0
vn 0 1 0
vn 0 1 0
vn 0 1 0
vn 0 1 0
vn 0 1 0
vn 0 1 0
vn 0 1 0
vn 0 1 0
vn 0 1 0
vn 0 1 0
vn 0 1 0
vn 0 1 0
vn 0 1 0
vn 0 1 0
vn 0 1 0
vn 0 1 0
vn 0 1 0
vn 0 1 0
vn 0 1 0
vn 0 1 0
vn 0 1 0
vn 0 1 0
vn 0 1 0
vn 0 1 0
vn 0 1 0
vn 0 1 0
vn 0 1 0
vn 0 1 0
vn 0 1 0
vn 0 1 0
vn 0 1 0
vn 0 1 0
vn 0 1 0
vn 0 1 0
vn 0 1 0
vn 0 1 0
vn 0 1 0
vn 0 1 0
vn 0 1 0
vn 0 1 0
vn 0 1 0
vn 0 1 0
vn 0 1 0
vn 0 1 0
vn 0 1 0
vn 0 1 0
vn 0 1 0
vn 0 1 0
vn 0 1 0
vn 0 1 0
vn 0 1 0
vn 0 1 0
vn 0 1 0
vn 0 1 0
vn 0 1 0
vn 0 1 0
vn 0 1 0
vn 0 1 0
vn 0 1 0
vn 0 1 0
vn 0 1 0
vn 0 1 0
vn 0 1 0
vn 0 1 0
vn 0 1 0
vn 0 1 0
vn 0 1 0
vn 0 1 0
vn 0 1 0
vn 0 1 0
vn 0 1 0
vn 0 1 0
vn 0 1 0
vn 0 1 0
vn 0 1 0
vn 0 1 0
vn 0 1 0
vn 0 1 0
vn 0 1 0
vn 0 1 0
vn 0 1 0
vn 0 1 0
vn 0 1 0
vn 0 1 0
vn 0 1 0
vn 0 1 0
vn 0 1 0
vn 0 1 0
vn 0 1 0
vn 0 1 0
vn 0 1 0
vn 0 1 0
vn 0 1 0
vn 0 1 0
vn 0 1 0
vn 0 1 0
vn 0 1 0
vn 0 1 0
vn 0 1 0
vn 0 1 0
vn 0 1 0
vn 0 1 0
vn 0 1 0
vn 0 1 0
vn 0 1 0
vn 0 1 0
vn 0 1 0
vn 0 1 0
vn 0 1 0
vn 0 1 0
vn 0 1 0
vn 0 1 0
vn 0 1 0
vn 0 1 0
vn 0 1 0
vn 0 1 0
vn 0 1 0
vn 0 1 0
vn 0 1 0
vn 0 1 0
vn 0 1 0
vn 0 1 0
vn 0 1 0
vn 0 1 0
vn 0 1 0
vn 0 1 0
vn 0 1 0
vn 0 1 0
vn 0 1 0
vn 0 1 0
vn 0 1 0
vn 0 1 0
vn 0 1 0
vn 0 1 0
vn 0 1 0
vn 0 1 0
vn 0 1 0
vn 0 1 0
vn 0 1 0
vn 0 1 0
f 12//12 2//2 1//1 11//11
f 13//13 3//3 2//2 12//12
f 14//14 4//4 3//3 13//13
f 132//132 5//5 4//4
f 14//14 15//15 132//132
f 4//4 14//14 132//132
f 133//133 131//131 5//5 132//132
f 130//130 133//133 132//132 15//15
f 18//18 120//120 122//122 119//119
f 120//120 6//6 121//121 122//122
f 120//120 18//18 19//19
f 7//7 6//6 120//120
f 19//19 7//7 120//120
f 20//20 8//8 7//7 19//19
f 21//21 9//9 8//8 20//20
f 22//22 10//10 9//9 21//21
f 24//24 12//12 11//11 23//23
f 25//25 13//13 12//12 24//24
f 26//26 14//14 13//13 25//25
f 241//241 15//15 14//14
f 26//26 27//27 241//241
f 14//14 26//26 241//241
f 250//250 240//240 251//251 253//253
f 253//253 251//251 245//245 252//252
f 251//251 240//240 257//257
f 260//260 245//245 251//251
f 257//257 260//260 251//251
f 257//257 16//16 258//258 260//260
f 260//260 258//258 130//130 259//259
f 245//245 260//260 259//259 242//242
f 259//259 130//130 15//15
f 241//241 242//242 259//259
f 15//15 241//241 259//259
f 246//246 242//242 241//241
f 27//27 235//235 246//246
f 241//241 27//27 246//246
f 280//280 247//247 274//274
f 275//275 271//271 280//280
f 274//274 275//275 280//280
f 275//275 274//274 249//249
f 274//274 247//247 284//284
f 284//284 17//17 248//248
f 248//248 249//249 274//274
f 274//274 284//284 248//248
f 257//257 240//240 254//254
f 254//254 249//249 248//248
f 248//248 16//16 257//257
f 257//257 254//254 248//248
f 249//249 254//254 255//255
f 250//250 244//244 255//255
f 254//254 240//240 250//250
f 255//255 254//254 250//250
f 269//269 266//266 28//28
f 267//267 268//268 269//269
f 28//28 267//267 269//269
f 282//282 268//268 267//267
f 18//18 119//119 282//282
f 267//267 18//18 282//282
f 268//268 282//282 285//285 270//270
f 282//282 119//119 283//283 285//285
f 285//285 283//283 17//17 284//284
f 279//279 270//270 285//285
f 284//284 247//247 279//279
f 285//285 284//284 279//279
f 278//278 270//270 279//279 281//281
f 281//281 279//279 247//247 280//280
f 267//267 28//28 29//29
f 19//19 18//18 267//267
f 29//29 19//19 267//267
f 30//30 20//20 19//19 29//29
f 31//31 21//21 20//20 30//30
f 32//32 22//22 21//21 31//31
f 34//34 24//24 23//23 33//33
f 35//35 25//25 24//24 34//34
f 36//36 26//26 25//25 35//35
f 236//236 27//27 26//26
f 36//36 37//37 236//236
f 26//26 36//36 236//236
f 261//261 237//237 215//215
f 38//38 234//234 261//261
f 215//215 38//38 261//261
f 262//262 235//235 27//27
f 236//236 237//237 262//262
f 27//27 236//236 262//262
f 215//215 237//237 236//236 37//37
f 40//40 272//272 273//273 203//203
f 277//277 273//273 272//272
f 28//28 266//266 277//277
f 272//272 28//28 277//277
f 276//276 256//256 39//39
f 203//203 273//273 276//276
f 39//39 203//203 276//276
f 272//272 40//40 41//41
f 29//29 28//28 272//272
f 41//41 29//29 272//272
f 42//42 30//30 29//29 41//41
f 43//43 31//31 30//30 42//42
f 44//44 32//32 31//31 43//43
f 156//156 46//46 34//34
f 33//33 45//45 156//156
f 34//34 33//33 156//156
f 318//318 47//47 35//35
f 34//34 46//46 318//318
f 35//35 34//34 318//318
f 333//333 48//48 36//36
f 35//35 47//47 333//333
f 36//36 35//35 333//333
f 324//324 49//49 216//216
f 216//216 37//37 36//36
f 36//36 48//48 324//324
f 324//324 216//216 36//36
f 214//214 38//38 215//215 217//217
f 217//217 215//215 37//37 216//216
f 212//212 217//217 216//216 49//49
f 50//50 202//202 205//205 200//200
f 202//202 40//40 203//203 205//205
f 205//205 203//203 39//39 204//204
f 202//202 50//50 298//298
f 298//298 51//51 41//41
f 41//41 40//40 202//202
f 202//202 298//298 41//41
f 306//306 52//52 42//42
f 41//41 51//51 306//306
f 42//42 41//41 306//306
f 53//53 43//43 42//42 52//52
f 312//312 54//54 44//44
f 43//43 53//53 312//312
f 44//44 43//43 312//312
f 319//319 318//318 46//46 155//155
f 317//317 319//319 155//155 56//56
f 323//323 328//328 331//331 327//327
f 328//328 325//325 329//329 331//331
f 327//327 331//331 330//330 58//58
f 206//206 219//219 221//221 218//218
f 220//220 221//221 219//219
f 213//213 221//221 220//220
f 299//299 297//297 59//59
f 51//51 298//298 299//299
f 154//154 55//55 61//61
f 62//62 56//56 154//154
f 61//61 62//62 154//154
f 337//337 57//57 317//317
f 317//317 56//56 62//62
f 62//62 63//63 337//337
f 337//337 317//317 62//62
f 336//336 332//332 338//338
f 334//334 58//58 336//336
f 338//338 334//334 336//336
f 338//338 332//332 57//57 337//337
f 171//171 338//338 337//337 63//63
f 327//327 58//58 334//334
f 335//335 323//323 327//327
f 334//334 335//335 327//327
f 179//179 335//335 334//334
f 71//71 349//349 350//350 90//90
f 349//349 60//60 311//311 350//350
f 173//173 171//171 63//63 172//172
f 178//178 64//64 179//179 180//180
f 170//170 180//180 179//179
f 182//182 65//65 183//183 184//184
f 184//184 183//183 64//64 178//178
f 76//76 67//67 190//190 192//192
f 192//192 190//190 66//66 191//191
f 74//74 68//68 75//75 77//77
f 77//77 75//75 67//67 76//76
f 84//84 70//70 85//85 87//87
f 87//87 85//85 69//69 86//86
f 89//89 71//71 90//90 91//91
f 91//91 90//90 70//70 84//84
f 144//144 142//142 143//143
f 141//141 142//142 1//1
f 144//144 1//1 142//142
f 144//144 145//145 11//11 1//1
f 2//2 140//140 141//141
f 139//139 140//140 2//2 3//3
f 138//138 4//4 137//137
f 136//136 137//137 4//4 5//5
f 3//3 138//138 139//139
f 1//1 2//2 141//141
f 23//23 11//11 145//145 146//146
f 146//146 147//147 33//33 23//23
f 138//138 3//3 4//4
f 129//129 131//131 133//133
f 136//136 5//5 131//131
f 134//134 136//136 131//131
f 134//134 135//135 136//136
f 258//258 129//129 133//133
f 130//130 258//258 133//133
f 131//131 129//129 134//134
f 126//126 127//127 125//125
f 258//258 16//16 128//128 129//129
f 118//118 127//127 128//128
f 248//248 128//128 16//16
f 252//252 245//245 242//242
f 253//253 252//252 238//238 239//239
f 246//246 238//238 252//252
f 252//252 242//242 246//246
f 244//244 250//250 239//239
f 253//253 239//239 250//250
f 255//255 244//244 243//243
f 239//239 243//243 244//244
f 246//246 235//235 238//238
f 148//148 33//33 147//147
f 150//150 45//45 148//148
f 156//156 45//45 151//151 152//152
f 148//148 45//45 33//33
f 319//319 316//316 318//318
f 320//320 333//333 47//47
f 48//48 333//333 320//320 321//321
f 47//47 318//318 316//316
f 46//46 156//156 152//152
f 150//150 151//151 45//45
f 152//152 155//155 46//46
f 316//316 320//320 47//47
f 225//225 49//49 324//324
f 48//48 321//321 324//324
f 321//321 329//329 324//324
f 225//225 324//324 325//325
f 212//212 49//49 225//225 226//226
f 149//149 150//150 148//148
f 233//233 235//235 262//262
f 237//237 261//261 233//233
f 262//262 237//237 233//233
f 232//232 230//230 231//231
f 38//38 229//229 234//234
f 261//261 234//234 232//232 233//233
f 235//235 233//233 238//238
f 226//226 227//227 212//212
f 212//212 227//227 217//217
f 213//213 209//209 210//210
f 38//38 214//214 228//228 229//229
f 208//208 209//209 220//220
f 221//221 213//213 211//211
f 210//210 211//211 213//213
f 220//220 209//209 213//213
f 217//217 227//227 214//214
f 234//234 230//230 232//232
f 123//123 124//124 125//125
f 118//118 123//123 127//127
f 127//127 123//123 125//125
f 17//17 118//118 248//248
f 116//116 114//114 115//115
f 121//121 116//116 117//117
f 118//118 283//283 117//117
f 121//121 117//117 122//122
f 121//121 114//114 116//116
f 17//17 283//283 118//118
f 265//265 280//280 271//271
f 263//263 264//264 271//271 275//275
f 275//275 249//249 263//263
f 281//281 280//280 265//265
f 278//278 281//281 265//265 286//286
f 268//268 270//270 278//278
f 122//122 117//117 283//283
f 286//286 269//269 278//278
f 128//128 248//248 118//118
f 268//268 278//278 269//269
f 6//6 113//113 114//114
f 8//8 111//111 112//112
f 112//112 113//113 7//7
f 8//8 110//110 111//111
f 114//114 121//121 6//6
f 109//109 10//10 108//108
f 107//107 108//108 106//106
f 108//108 10//10 106//106
f 110//110 9//9 109//109
f 7//7 113//113 6//6
f 112//112 7//7 8//8
f 283//283 119//119 122//122
f 109//109 9//9 10//10
f 104//104 105//105 22//22
f 10//10 22//22 105//105
f 22//22 32//32 104//104
f 106//106 10//10 105//105
f 110//110 8//8 9//9
f 271//271 264//264 265//265
f 290//290 291//291 256//256
f 263//263 249//249 255//255
f 256//256 288//288 290//290
f 276//276 287//287 288//288
f 256//256 276//276 288//288
f 276//276 273//273 287//287
f 288//288 289//289 290//290
f 266//266 287//287 277//277
f 39//39 256//256 291//291
f 214//214 227//227 228//228
f 219//219 207//207 208//208
f 208//208 220//220 219//219
f 291//291 292//292 204//204 39//39
f 201//201 207//207 199//199
f 293//293 204//204 292//292
f 207//207 219//219 199//199
f 206//206 199//199 219//219
f 229//229 230//230 234//234
f 269//269 286//286 266//266
f 277//277 287//287 273//273
f 266//266 286//286 287//287
f 205//205 204//204 293//293
f 104//104 32//32 103//103
f 44//44 103//103 32//32
f 54//54 102//102 44//44
f 103//103 44//44 102//102
f 293//293 200//200 205//205
f 50//50 200//200 295//295 296//296
f 298//298 50//50 296//296
f 306//306 51//51 305//305 307//307
f 306//306 307//307 52//52
f 312//312 53//53 309//309 310//310
f 312//312 310//310 54//54
f 53//53 52//52 308//308 309//309
f 294//294 295//295 200//200
f 293//293 294//294 200//200
f 100//100 102//102 54//54
f 263//263 255//255 243//243
f 211//211 218//218 221//221
f 55//55 157//157 158//158
f 153//153 157//157 55//55 154//154
f 152//152 153//153 155//155
f 158//158 159//159 160//160
f 314//314 332//332 313//313
f 315//315 57//57 314//314
f 317//317 315//315 319//319
f 56//56 155//155 153//153
f 316//316 319//319 315//315
f 154//154 56//56 153//153
f 317//317 57//57 315//315
f 160//160 55//55 158//158
f 340//340 313//313 332//332
f 332//332 314//314 57//57
f 340//340 332//332 336//336
f 61//61 55//55 160//160 161//161
f 339//339 340//340 336//336 58//58
f 225//225 325//325 224//224
f 331//331 322//322 330//330
f 330//330 322//322 326//326
f 329//329 322//322 331//331
f 329//329 321//321 322//322
f 328//328 224//224 325//325
f 206//206 198//198 199//199
f 218//218 365//365 206//206
f 323//323 365//365 223//223 224//224
f 223//223 365//365 222//222
f 211//211 222//222 218//218
f 222//222 365//365 218//218
f 339//339 58//58 330//330
f 360//360 361//361 365//365
f 365//365 366//366 206//206
f 362//362 366//366 365//365
f 366//366 362//362 363//363
f 323//323 335//335 360//360
f 365//365 361//361 362//362
f 363//363 364//364 366//366
f 323//323 224//224 328//328
f 330//330 326//326 339//339
f 198//198 206//206 366//366
f 171//171 334//334 338//338
f 329//329 325//325 324//324
f 165//165 172//172 62//62
f 63//63 62//62 172//172
f 62//62 61//61 163//163 164//164
f 161//161 163//163 61//61
f 335//335 179//179 359//359
f 179//179 334//334 169//169
f 171//171 173//173 168//168
f 179//179 169//169 170//170
f 168//168 169//169 334//334
f 173//173 167//167 168//168
f 173//173 172//172 166//166
f 168//168 334//334 171//171
f 165//165 166//166 172//172
f 166//166 167//167 173//173
f 164//164 165//165 62//62
f 180//180 170//170 174//174 175//175
f 169//169 174//174 170//170
f 177//177 180//180 175//175
f 162//162 163//163 161//161
f 323//323 360//360 365//365
f 183//183 359//359 64//64
f 64//64 359//359 179//179
f 335//335 359//359 360//360
f 183//183 358//358 359//359
f 65//65 357//357 358//358
f 356//356 357//357 66//66
f 65//65 66//66 357//357
f 66//66 65//65 182//182 191//191
f 65//65 358//358 183//183
f 181//181 178//178 177//177
f 184//184 181//181 185//185
f 176//176 177//177 175//175
f 184//184 178//178 181//181
f 186//186 182//182 184//184
f 191//191 182//182 186//186 187//187
f 188//188 191//191 187//187
f 186//186 184//184 185//185
f 177//177 178//178 180//180
f 356//356 66//66 355//355
f 366//366 367//367 197//197 198//198
f 367//367 196//196 197//197
f 304//304 305//305 299//299
f 299//299 305//305 51//51
f 299//299 196//196 297//297
f 304//304 59//59 303//303
f 196//196 299//299 296//296
f 196//196 367//367 297//297
f 296//296 299//299 298//298
f 342//342 343//343 297//297
f 342//342 297//297 367//367
f 364//364 355//355 341//341 342//342
f 367//367 366//366 364//364
f 75//75 354//354 341//341
f 342//342 367//367 364//364
f 344//344 59//59 343//343
f 297//297 343//343 59//59
f 354//354 68//68 353//353
f 346//346 368//368 345//345
f 59//59 344//344 345//345
f 355//355 190//190 341//341
f 299//299 59//59 304//304
f 52//52 307//307 308//308
f 368//368 301//301 302//302
f 60//60 54//54 310//310 300//300
f 54//54 60//60 99//99 100//100
f 102//102 100//100 101//101
f 300//300 301//301 368//368 311//311
f 311//311 60//60 300//300
f 347//347 311//311 368//368
f 368//368 346//346 347//347
f 302//302 303//303 368//368
f 345//345 368//368 59//59
f 350//350 311//311 347//347
f 98//98 99//99 97//97
f 97//97 99//99 60//60
f 97//97 60//60 349//349
f 347//347 348//348 350//350
f 71//71 97//97 349//349
f 59//59 368//368 303//303
f 67//67 75//75 341//341
f 76//76 192//192 193//193 72//72
f 75//75 68//68 354//354
f 352//352 353//353 69//69
f 69//69 353//353 68//68
f 69//69 68//68 74//74 86//86
f 79//79 74//74 77//77
f 351//351 352//352 69//69
f 77//77 76//76 73//73
f 190//190 67//67 341//341
f 72//72 193//193 194//194 195//195
f 189//189 192//192 191//191
f 76//76 72//72 73//73
f 78//78 79//79 77//77
f 79//79 80//80 74//74
f 78//78 77//77 73//73
f 189//189 193//193 192//192
f 190//190 355//355 66//66
f 80//80 86//86 74//74
f 70//70 351//351 85//85
f 85//85 351//351 69//69
f 81//81 87//87 86//86
f 348//348 351//351 70//70
f 90//90 348//348 70//70
f 89//89 96//96 71//71
f 71//71 96//96 97//97
f 90//90 350//350 348//348
f 84//84 87//87 83//83
f 84//84 88//88 91//91
f 87//87 82//82 83//83
f 88//88 84//84 83//83
f 93//93 88//88 92//92
f 93//93 89//89 91//91
f 89//89 93//93 94//94
f 94//94 95//95 96//96
f 93//93 91//91 88//88
f 89//89 94//94 96//96
f 82//82 87//87 81//81
f 81//81 86//86 80//80
f 189//189 191//191 188//188
