# Rhino

g object_1
v 13.258800000000001 0 -7.3152011627197275
v 4.4704015502929693 0 -7.3152011627197275
v 4.4704015502929693 0 -6.5532011627197271
v 4.2672000000000025 0 -6.5532011627197271
v 4.2672000000000025 0 -7.3152011627197275
v 0 0 -7.3152011627197275
v 0 0 -4.9276003875732428
v 4.2672000000000025 0 -4.9276003875732428
v 4.2672000000000025 0 -5.6896003875732397
v 5.1308007751464828 0 -5.6896003875732397
v 5.1308007751464828 0 -5.5372003875732396
v 4.4704015502929693 0 -5.5372003875732396
v 4.4704015502929693 0 -1.7779996124267576
v 5.1308007751464828 0 -1.7779996124267576
v 5.1308007751464828 0 -1.6255996124267575
v 3.6576000000000022 0 -1.6255996124267575
v 3.6576000000000022 0 -1.7779996124267576
v 4.2672000000000025 0 -1.7779996124267576
v 4.2672000000000025 0 -3.556000387573242
v 3.352800000000002 0 -3.556000387573242
v 3.352800000000002 0 -3.7084003875732421
v 4.2672000000000025 0 -3.7084003875732421
v 4.2672000000000025 0 -4.7752003875732427
v 1.7272015502929712 0 -4.7752003875732427
v 1.7272015502929712 0 -3.7084003875732421
v 2.5400007751464848 0 -3.7084003875732421
v 2.5400007751464848 0 -3.556000387573242
v 1.7272015502929712 0 -3.556000387573242
v 1.7272015502929712 0 -1.7779996124267576
v 2.3368015502929715 0 -1.7779996124267576
v 2.3368015502929715 0 -1.6255996124267575
v 1.7272015502929712 0 -1.6255996124267575
v 1.7272015502929712 0 -1.4731996124267575
v 1.4732007751464842 0 -1.4731996124267575
v 1.4732007751464842 0 -4.7752003875732427
v 0 0 -4.7752003875732427
v 0 0 0
v 23.1648 0 0
v 23.1648 0 3.6576000000000004
v 29.00680155029297 0 3.6576000000000004
v 29.00680155029297 0 3.2512003875732418
v 29.15920155029297 0 3.2512003875732418
v 29.15920155029297 0 3.6576000000000004
v 30.480000000000004 0 3.6576000000000004
v 30.480000000000004 0 2.3368003875732448
v 29.15920155029297 0 2.3368003875732448
v 29.15920155029297 0 2.4384000000000015
v 29.00680155029297 0 2.4384000000000015
v 29.00680155029297 0 1.5748003875732444
v 29.15920155029297 0 1.5748003875732444
v 29.15920155029297 0 2.1844003875732447
v 30.480000000000004 0 2.1844003875732447
v 30.480000000000004 0 0.17779961242676023
v 29.15920155029297 0 0.17779961242676023
v 29.15920155029297 0 0.81280038757324391
v 29.00680155029297 0 0.81280038757324391
v 29.00680155029297 0 0
v 30.480000000000004 0 0
v 30.480000000000004 0 -1.8288011627197243
v 24.333203100585941 0 -1.8288011627197243
v 24.333203100585941 0 -2.6923996124267582
v 24.485603100585941 0 -2.6923996124267582
v 24.485603100585941 0 -1.9812011627197244
v 26.924003100585942 0 -1.9812011627197244
v 26.924003100585942 0 -2.5908011627197247
v 27.076403100585942 0 -2.5908011627197247
v 27.076403100585942 0 -1.9812011627197244
v 30.480000000000004 0 -1.9812011627197244
v 30.480000000000004 0 -5.232400387573243
v 27.076403100585942 0 -5.232400387573243
v 27.076403100585942 0 -3.556000387573242
v 26.873201550292968 0 -3.556000387573242
v 26.873201550292968 0 -3.7084003875732421
v 26.924003100585942 0 -3.7084003875732421
v 26.924003100585942 0 -5.232400387573243
v 24.485603100585941 0 -5.232400387573243
v 24.485603100585941 0 -3.7084003875732421
v 26.060400000000001 0 -3.7084003875732421
v 26.060400000000001 0 -3.556000387573242
v 24.485603100585941 0 -3.556000387573242
v 24.485603100585941 0 -3.5052011627197253
v 24.333203100585941 0 -3.5052011627197253
v 24.333203100585941 0 -7.1119996124267573
v 24.485603100585941 0 -7.1119996124267573
v 24.485603100585941 0 -7.0612003875732405
v 26.060400000000001 0 -7.0612003875732405
v 26.060400000000001 0 -6.9088003875732404
v 24.485603100585941 0 -6.9088003875732404
v 24.485603100585941 0 -5.3848003875732431
v 26.924003100585942 0 -5.3848003875732431
v 26.924003100585942 0 -6.9088003875732404
v 26.873201550292968 0 -6.9088003875732404
v 26.873201550292968 0 -7.0612003875732405
v 27.076403100585942 0 -7.0612003875732405
v 27.076403100585942 0 -5.3848003875732431
v 30.480000000000004 0 -5.3848003875732431
v 30.480000000000004 0 -8.5852003875732414
v 27.076403100585942 0 -8.5852003875732414
v 27.076403100585942 0 -7.8739996124267577
v 26.924003100585942 0 -7.8739996124267577
v 26.924003100585942 0 -8.5852003875732414
v 24.485603100585941 0 -8.5852003875732414
v 24.485603100585941 0 -7.9248011627197243
v 24.333203100585941 0 -7.9248011627197243
v 24.333203100585941 0 -10.464799612426756
v 24.485603100585941 0 -10.464799612426756
v 24.485603100585941 0 -10.414000387573243
v 26.060400000000001 0 -10.414000387573243
v 26.060400000000001 0 -10.261600387573242
v 24.485603100585941 0 -10.261600387573242
v 24.485603100585941 0 -8.7376003875732415
v 26.924003100585942 0 -8.7376003875732415
v 26.924003100585942 0 -10.261600387573242
v 26.873201550292968 0 -10.261600387573242
v 26.873201550292968 0 -10.414000387573243
v 27.076403100585942 0 -10.414000387573243
v 27.076403100585942 0 -8.7376003875732415
v 30.480000000000004 0 -8.7376003875732415
v 30.480000000000004 0 -12.192001162719727
v 27.076403100585942 0 -12.192001162719727
v 27.076403100585942 0 -11.328400387573243
v 26.924003100585942 0 -11.328400387573243
v 26.924003100585942 0 -12.192001162719727
v 24.485603100585941 0 -12.192001162719727
v 24.485603100585941 0 -11.277601162719726
v 24.333203100585941 0 -11.277601162719726
v 24.333203100585941 0 -12.192001162719727
v 23.1648 0 -12.192001162719727
v 23.1648 0 -1.9812011627197244
v 19.507200000000005 0 -1.9812011627197244
v 19.507200000000005 0 -7.3152011627197275
v 13.411199999999997 0 -7.3152011627197275
v 13.411200000000001 0 -1.8288011627197243
v 12.3444 0 -1.8288011627197243
v 12.3444 0 -1.9812011627197244
v 13.258800000000001 0 -1.9812011627197244
l 1 2 3 4 5 6 7 8 9 10 11 12 13 14 15 16 17 18 19 20 21 22 23 24 25 26 27 28 29 30 31 32 33 34 35 36 37 38 39 40 41 42 43 44 45 46 47 48 49 50 51 52 53 54 55 56 57 58 59 60 61 62 63 64 65 66 67 68 69 70 71 72 73 74 75 76 77 78 79 80 81 82 83 84 85 86 87 88 89 90 91 92 93 94 95 96 97 98 99 100 101 102 103 104 105 106 107 108 109 110 111 112 113 114 115 116 117 118 119 120 121 122 123 124 125 126 127 128 129 130 131 132 133 134 135 136 1
