# Rhino

mtllib GroungFloor_01.mtl
usemtl Default
v -2.3533940315246582 -11.84190845489502 5.5022263526916504
v -2.3533940315246582 -11.84190845489502 3.3013358116149902
v -2.3533940315246582 -11.84190845489502 -1.1004452705383301
v -2.3533940315246582 -11.84190845489502 -3.3013358116149902
v -2.3533940315246582 -11.84190845489502 -5.5022263526916504
v -1.4830770492553711 -11.84190845489502 5.5022263526916504
v -1.4830770492553711 -11.84190845489502 3.3013358116149902
v -1.4830770492553711 -11.84190845489502 -1.1004452705383301
v -1.4830770492553711 -11.84190845489502 -3.3013358116149902
v -1.4830770492553711 -11.84190845489502 -5.5022263526916504
v -0.61276000738143921 -11.84190845489502 5.5022263526916504
v -0.61276000738143921 -11.84190845489502 3.3013358116149902
v -0.61276000738143921 -11.84190845489502 1.1004452705383301
v -0.61276000738143921 -11.84190845489502 -1.1004452705383301
v -0.61276000738143921 -11.84190845489502 -3.3013358116149902
v -0.61276000738143921 -11.84190845489502 -5.5022263526916504
v 0.25755709409713745 -11.84190845489502 5.5022263526916504
v 0.25755709409713745 -11.84190845489502 3.3013358116149902
v 0.25755709409713745 -11.84190845489502 -1.1004452705383301
v 0.25755709409713745 -11.84190845489502 -3.3013358116149902
v 0.25755709409713745 -11.84190845489502 -5.5022263526916504
v 1.1278741359710693 -11.84190845489502 5.5022263526916504
v 1.1278741359710693 -11.84190845489502 3.3013358116149902
v 1.1278741359710693 -11.84190845489502 1.1004452705383301
v 1.1278741359710693 -11.84190845489502 -1.1004452705383301
v 1.1278741359710693 -11.84190845489502 -3.3013358116149902
v 1.1278741359710693 -11.84190845489502 -5.5022263526916504
v 1.998191237449646 -11.84190845489502 5.5022263526916504
v 1.998191237449646 -11.84190845489502 3.3013358116149902
v 1.998191237449646 -11.84190845489502 -1.1004452705383301
v 1.998191237449646 -11.84190845489502 -3.3013358116149902
v 1.998191237449646 -11.84190845489502 -5.5022263526916504
v -3.1639835834503174 -11.84190845489502 7.5520753860473633
v -1.6707925796508789 -11.84190845489502 7.5520753860473633
v -0.17760145664215088 -11.84190845489502 7.5520753860473633
v 1.3155896663665771 -11.84190845489502 7.5520753860473633
v 2.8087806701660156 -11.84190845489502 7.5520753860473633
v 2.8087806701660156 -11.84190845489502 5.9836864471435547
v 2.8087806701660156 -11.84190845489502 4.4152975082397461
v 2.8087806701660156 -11.84190845489502 2.8469083309173584
v 2.8087806701660156 -11.84190845489502 1.2785193920135498
v 1.8173694610595703 -11.84190845489502 1.2785193920135498
v 1.8173694610595703 -11.84190845489502 1.1261193752288818
v 1.998191237449646 -11.84190845489502 2.2008905410766602
v 1.5630327463150024 -11.84190845489502 1.1004452705383301
v 1.1278741359710693 -11.84190845489502 2.2008905410766602
v 1.5630327463150024 -11.84190845489502 3.3013358116149902
v 1.5630327463150024 -11.84190845489502 2.2008905410766602
v 1.998191237449646 -11.84190845489502 1.6506679058074951
v 1.5630327463150024 -11.84190845489502 1.6506679058074951
v 1.7806119918823242 -11.84190845489502 2.2008905410766602
v 1.7806119918823242 -11.84190845489502 1.6506679058074951
v 2.4333498477935791 -11.84190845489502 3.3013358116149902
v 2.4333498477935791 -11.84190845489502 2.2008905410766602
v 1.998191237449646 -11.84190845489502 0
v 1.5630327463150024 -11.84190845489502 -1.1004452705383301
v 1.1278741359710693 -11.84190845489502 0
v 1.5630327463150024 -11.84190845489502 0
v 2.8087806701660156 -11.84190845489502 1.1261193752288818
v 2.8087806701660156 -11.84190845489502 -0.3202463686466217
v 2.8087806701660156 -11.84190845489502 -1.76661217212677
v 2.8087806701660156 -11.84190845489502 -3.2129778861999512
v 2.8087806701660156 -11.84190845489502 -4.6593437194824219
v 2.8087806701660156 -11.84190845489502 -6.1057095527648926
v 2.8087806701660156 -11.84190845489502 -7.5520753860473633
v 1.3155896663665771 -11.84190845489502 -7.5520753860473633
v -0.17760145664215088 -11.84190845489502 -7.5520753860473633
v -1.6707925796508789 -11.84190845489502 -7.5520753860473633
v -3.1639835834503174 -11.84190845489502 -7.5520753860473633
v -3.1639835834503174 -11.84190845489502 -6.1057095527648926
v -3.1639835834503174 -11.84190845489502 -4.6593437194824219
v -3.1639835834503174 -11.84190845489502 -3.2129778861999512
v -3.1639835834503174 -11.84190845489502 -1.76661217212677
v -3.1639835834503174 -11.84190845489502 -0.3202463686466217
v -3.1639835834503174 -11.84190845489502 1.1261193752288818
v -2.2614071369171143 -11.84190845489502 1.1261193752288818
v -1.3588305711746216 -11.84190845489502 1.1261193752288818
v -1.3588305711746216 -11.84190845489502 -0.17513072490692139
v -1.3588305711746216 -11.84190845489502 -1.4763808250427246
v -1.3588305711746216 -11.84190845489502 -2.7776308059692383
v -1.3588305711746216 -11.84190845489502 -4.0788812637329102
v -1.2064305543899536 -11.84190845489502 -4.0788812637329102
v -0.61276000738143921 -11.84190845489502 -4.4017810821533203
v -1.0479185581207275 -11.84190845489502 -5.5022263526916504
v -1.4830770492553711 -11.84190845489502 -4.4017810821533203
v -1.0479185581207275 -11.84190845489502 -3.3013358116149902
v -1.0479185581207275 -11.84190845489502 -4.4017810821533203
v -1.0479185581207275 -11.84190845489502 -3.8515582084655762
v -1.2654978036880493 -11.84190845489502 -4.4017810821533203
v -1.4830770492553711 -11.84190845489502 -3.8515582084655762
v -1.9182356595993042 -11.84190845489502 -5.5022263526916504
v -2.3533940315246582 -11.84190845489502 -4.4017810821533203
v -1.9182356595993042 -11.84190845489502 -3.3013358116149902
v -1.9182356595993042 -11.84190845489502 -4.4017810821533203
v -0.61276000738143921 -11.84190845489502 -2.2008905410766602
v -1.4830770492553711 -11.84190845489502 -2.2008905410766602
v -1.0479185581207275 -11.84190845489502 -1.1004452705383301
v -1.0479185581207275 -11.84190845489502 -2.2008905410766602
v -1.2064305543899536 -11.84190845489502 -2.7776308059692383
v -1.2064305543899536 -11.84190845489502 -1.4763808250427246
v -1.2064305543899536 -11.84190845489502 -0.17513072490692139
v -1.2064305543899536 -11.84190845489502 1.1261193752288818
v -1.0610306262969971 -11.84190845489502 1.1261193752288818
v -0.61276000738143921 -11.84190845489502 2.2008905410766602
v -1.4830770492553711 -11.84190845489502 2.2008905410766602
v -1.0479185581207275 -11.84190845489502 3.3013358116149902
v -1.0479185581207275 -11.84190845489502 2.2008905410766602
v -1.0479185581207275 -11.84190845489502 1.6506679058074951
v -1.4830770492553711 -11.84190845489502 1.6506679058074951
v -1.2654978036880493 -11.84190845489502 2.2008905410766602
v -1.2654978036880493 -11.84190845489502 1.6506679058074951
v -0.61276000738143921 -11.84190845489502 0
v -1.0479185581207275 -11.84190845489502 0
v -1.9182356595993042 -11.84190845489502 3.3013358116149902
v -1.0610306262969971 -11.84190845489502 1.2785193920135498
v -2.1125071048736572 -11.84190845489502 1.2785193920135498
v -3.1639835834503174 -11.84190845489502 1.2785193920135498
v -3.1639835834503174 -11.84190845489502 2.7785193920135498
v -1.5495071411132812 -11.84190845489502 2.7785193920135498
v 0.064969420433044434 -11.84190845489502 2.7785193920135498
v 0.064969420433044434 -11.84190845489502 1.2785193920135498
v -0.33503055572509766 -11.84190845489502 1.2785193920135498
v -0.17760145664215088 -11.84190845489502 3.3013358116149902
v -0.17760145664215088 -11.84190845489502 2.2008905410766602
v -0.33503055572509766 -11.84190845489502 1.1261193752288818
v -0.17760145664215088 -11.84190845489502 1.6506679058074951
v -0.39518073201179504 -11.84190845489502 1.1004452705383301
v -0.61276000738143921 -11.84190845489502 1.6506679058074951
v -0.39518073201179504 -11.84190845489502 2.2008905410766602
v -0.39518073201179504 -11.84190845489502 1.6506679058074951
v 0.25755709409713745 -11.84190845489502 0
v -0.17760145664215088 -11.84190845489502 -1.1004452705383301
v -0.17760145664215088 -11.84190845489502 0
v 0.61736941337585449 -11.84190845489502 1.1261193752288818
v 0.61736941337585449 -11.84190845489502 1.2785193920135498
v 0.69271564483642578 -11.84190845489502 1.1004452705383301
v 0.69271564483642578 -11.84190845489502 3.3013358116149902
v 0.69271564483642578 -11.84190845489502 2.2008905410766602
v 0.69271564483642578 -11.84190845489502 1.6506679058074951
v 0.25755709409713745 -11.84190845489502 1.6506679058074951
v 0.47513633966445923 -11.84190845489502 2.2008905410766602
v 0.47513633966445923 -11.84190845489502 1.6506679058074951
v 0.69271564483642578 -11.84190845489502 -1.1004452705383301
v 0.69271564483642578 -11.84190845489502 0
v 0.21736942231655121 -11.84190845489502 1.2785193920135498
v 0.21736942231655121 -11.84190845489502 2.1047194004058838
v 0.21736942231655121 -11.84190845489502 2.9309194087982178
v -0.90974825620651245 -11.84190845489502 2.9309194087982178
v -2.0368659496307373 -11.84190845489502 2.9309194087982178
v -3.1639835834503174 -11.84190845489502 2.9309194087982178
v -3.1639835834503174 -11.84190845489502 4.4713048934936523
v -3.1639835834503174 -11.84190845489502 6.0116901397705078
vn 0 1 0
vn 0 1 0
vn 0 1 0
vn 0 1 0
vn 0 1 0
vn 0 1 0
vn 0 1 0
vn 0 1 0
vn 0 1 0
vn 0 1 0
vn 0 1 0
vn 0 1 0
vn 0 1 0
vn 0 1 0
vn 0 1 0
vn 0 1 0
vn 0 1 0
vn 0 1 0
vn 0 1 0
vn 0 1 0
vn 0 1 0
vn 0 1 0
vn 0 1 0
vn 0 1 0
vn 0 1 0
vn 0 1 0
vn 0 1 0
vn 0 1 0
vn 0 1 0
vn 0 1 0
vn 0 1 0
vn 0 1 0
vn 0 1 0
vn 0 1 0
vn 0 1 0
vn 0 1 0
vn 0 1 0
vn 0 1 0
vn 0 1 0
vn 0 1 0
vn 0 1 0
vn 0 1 0
vn 0 1 0
vn 0 1 0
vn 0 1 0
vn 0 1 0
vn 0 1 0
vn 0 1 0
vn 0 1 0
vn 0 1 0
vn 0 1 0
vn 0 1 0
vn 0 1 0
vn 0 1 0
vn 0 1 0
vn 0 1 0
vn 0 1 0
vn 0 1 0
vn 0 1 0
vn 0 1 0
vn 0 1 0
vn 0 1 0
vn 0 1 0
vn 0 1 0
vn 0 1 0
vn 0 1 0
vn 0 1 0
vn 0 1 0
vn 0 1 0
vn 0 1 0
vn 0 1 0
vn 0 1 0
vn 0 1 0
vn 0 1 0
vn 0 1 0
vn 0 1 0
vn 0 1 0
vn 0 1 0
vn 0 1 0
vn 0 1 0
vn 0 1 0
vn 0 1 0
vn 0 1 0
vn 0 1 0
vn 0 1 0
vn 0 1 0
vn 0 1 0
vn 0 1 0
vn 0 1 0
vn 0 1 0
vn 0 1 0
vn 0 1 0
vn 0 1 0
vn 0 1 0
vn 0 1 0
vn 0 1 0
vn 0 1 0
vn 0 1 0
vn 0 1 0
vn 0 1 0
vn 0 1 0
vn 0 1 0
vn 0 1 0
vn 0 1 0
vn 0 1 0
vn 0 1 0
vn 0 1 0
vn 0 1 0
vn 0 1 0
vn 0 1 0
vn 0 1 0
vn 0 1 0
vn 0 1 0
vn 0 1 0
vn 0 1 0
vn 0 1 0
vn 0 1 0
vn 0 1 0
vn 0 1 0
vn 0 1 0
vn 0 1 0
vn 0 1 0
vn 0 1 0
vn 0 1 0
vn 0 1 0
vn 0 1 0
vn 0 1 0
vn 0 1 0
vn 0 1 0
vn 0 1 0
vn 0 1 0
vn 0 1 0
vn 0 1 0
vn 0 1 0
vn 0 1 0
vn 0 1 0
vn 0 1 0
vn 0 1 0
vn 0 1 0
vn 0 1 0
vn 0 1 0
vn 0 1 0
vn 0 1 0
vn 0 1 0
vn 0 1 0
vn 0 1 0
vn 0 1 0
vn 0 1 0
vn 0 1 0
vn 0 1 0
vn 0 1 0
vn 0 1 0
f 114//114 2//2 1//1
f 6//6 7//7 114//114
f 1//1 6//6 114//114
f 96//96 9//9 93//93
f 93//93 4//4 3//3
f 3//3 8//8 96//96
f 96//96 93//93 3//3
f 10//10 91//91 94//94 85//85
f 91//91 5//5 92//92 94//94
f 94//94 92//92 4//4 93//93
f 90//90 85//85 94//94
f 93//93 9//9 90//90
f 94//94 93//93 90//90
f 106//106 7//7 6//6
f 11//11 12//12 106//106
f 6//6 11//11 106//106
f 107//107 104//104 128//128
f 128//128 13//13 107//107
f 111//111 109//109 105//105 110//110
f 108//108 111//111 110//110 107//107
f 14//14 97//97 113//113 112//112
f 13//13 112//112 113//113
f 15//15 86//86 98//98 95//95
f 95//95 98//98 97//97 14//14
f 16//16 84//84 87//87 83//83
f 89//89 87//87 84//84
f 10//10 85//85 89//89
f 84//84 10//10 89//89
f 88//88 86//86 15//15
f 83//83 87//87 88//88
f 15//15 83//83 88//88
f 123//123 12//12 11//11
f 17//17 18//18 123//123
f 11//11 17//17 123//123
f 127//127 13//13 128//128 130//130
f 130//130 128//128 104//104 129//129
f 126//126 130//130 129//129 124//124
f 19//19 132//132 133//133 131//131
f 132//132 14//14 112//112 133//133
f 95//95 14//14 132//132
f 132//132 19//19 20//20
f 20//20 15//15 95//95
f 95//95 132//132 20//20
f 83//83 15//15 20//20
f 21//21 16//16 83//83
f 20//20 21//21 83//83
f 137//137 18//18 17//17
f 22//22 23//23 137//137
f 17//17 22//22 137//137
f 139//139 138//138 46//46
f 24//24 136//136 139//139
f 46//46 24//24 139//139
f 141//141 142//142 140//140
f 139//139 142//142 141//141 138//138
f 46//46 138//138 137//137 23//23
f 25//25 143//143 144//144 57//57
f 143//143 19//19 131//131 144//144
f 57//57 144//144 136//136 24//24
f 143//143 25//25 26//26
f 20//20 19//19 143//143
f 26//26 20//20 143//143
f 27//27 21//21 20//20 26//26
f 47//47 23//23 22//22
f 28//28 29//29 47//47
f 22//22 28//28 47//47
f 52//52 50//50 48//48 51//51
f 49//49 52//52 51//51 44//44
f 50//50 45//45 24//24
f 46//46 48//48 50//50
f 24//24 46//46 50//50
f 48//48 46//46 23//23 47//47
f 51//51 48//48 47//47
f 29//29 44//44 51//51
f 47//47 29//29 51//51
f 30//30 56//56 58//58 55//55
f 56//56 25//25 57//57 58//58
f 58//58 57//57 24//24 45//45
f 56//56 30//30 31//31
f 26//26 25//25 56//56
f 31//31 26//26 56//56
f 32//32 27//27 26//26 31//31
f 54//54 44//44 29//29 53//53
f 1//1 152//152 33//33
f 1//1 2//2 150//150 151//151
f 152//152 1//1 151//151
f 1//1 33//33 34//34
f 11//11 6//6 34//34 35//35
f 149//149 2//2 114//114
f 148//148 149//149 7//7 106//106
f 34//34 6//6 1//1
f 150//150 2//2 149//149
f 118//118 119//119 116//116 117//117
f 149//149 114//114 7//7
f 119//119 105//105 116//116
f 76//76 74//74 75//75
f 110//110 105//105 119//119
f 119//119 107//107 110//110
f 106//106 12//12 148//148
f 104//104 107//107 119//119
f 147//147 148//148 12//12 123//123
f 109//109 111//111 115//115
f 109//109 115//115 116//116
f 13//13 115//115 108//108
f 111//111 108//108 115//115
f 102//102 103//103 113//113
f 13//13 103//103 115//115
f 113//113 103//103 13//13
f 76//76 77//77 78//78
f 116//116 105//105 109//109
f 113//113 101//101 102//102
f 73//73 74//74 3//3
f 78//78 8//8 3//3
f 72//72 73//73 3//3 4//4
f 79//79 96//96 8//8
f 9//9 96//96 80//80
f 3//3 74//74 76//76
f 4//4 92//92 71//71 72//72
f 70//70 71//71 92//92 5//5
f 70//70 5//5 69//69
f 5//5 91//91 68//68
f 91//91 10//10 68//68
f 69//69 5//5 68//68
f 90//90 9//9 81//81
f 82//82 99//99 86//86 88//88
f 99//99 100//100 97//97 98//98
f 78//78 79//79 8//8
f 86//86 99//99 98//98
f 80//80 96//96 79//79
f 113//113 97//97 100//100 101//101
f 89//89 85//85 81//81
f 81//81 85//85 90//90
f 89//89 81//81 82//82
f 88//88 87//87 82//82
f 82//82 87//87 89//89
f 80//80 81//81 9//9
f 68//68 10//10 84//84
f 76//76 78//78 3//3
f 67//67 68//68 84//84 16//16
f 119//119 120//120 104//104
f 120//120 129//129 104//104
f 17//17 11//11 35//35
f 18//18 147//147 123//123
f 18//18 137//137 147//147
f 129//129 120//120 124//124
f 141//141 147//147 137//137
f 35//35 36//36 22//22 17//17
f 121//121 122//122 126//126
f 130//130 126//126 122//122
f 120//120 121//121 126//126 124//124
f 140//140 146//146 141//141
f 140//140 145//145 146//146
f 146//146 147//147 141//141
f 140//140 142//142 145//145
f 122//122 127//127 130//130
f 28//28 22//22 36//36
f 28//28 36//36 37//37
f 38//38 39//39 28//28
f 39//39 53//53 28//28
f 28//28 53//53 29//29
f 37//37 38//38 28//28
f 139//139 135//135 142//142
f 54//54 53//53 40//40
f 39//39 40//40 53//53
f 49//49 44//44 54//54
f 49//49 54//54 41//41
f 54//54 40//40 41//41
f 52//52 42//42 50//50
f 141//141 137//137 138//138
f 49//49 42//42 52//52
f 125//125 127//127 122//122
f 112//112 13//13 127//127
f 142//142 135//135 145//145
f 136//136 127//127 125//125 134//134
f 135//135 136//136 134//134
f 135//135 139//139 136//136
f 131//131 136//136 144//144
f 127//127 133//133 112//112
f 16//16 21//21 67//67
f 127//127 136//136 131//131 133//133
f 66//66 67//67 21//21 27//27
f 45//45 42//42 43//43
f 42//42 49//49 41//41
f 43//43 58//58 45//45
f 58//58 43//43 55//55
f 59//59 60//60 55//55
f 55//55 43//43 59//59
f 60//60 30//30 55//55
f 31//31 30//30 61//61 62//62
f 65//65 66//66 32//32
f 32//32 66//66 27//27
f 32//32 31//31 62//62 63//63
f 32//32 63//63 64//64
f 32//32 64//64 65//65
f 61//61 30//30 60//60
f 45//45 50//50 42//42
f 107//107 13//13 108//108
