# Rhino

o Floors - Concrete Slab - 10"
v 2.8087805900573732 -0.25000000190734867 -19.393983654785156
v 2.8087805900573732 -0.25000000190734867 -13.120428213500977
v 1.8173694477081299 -0.25000000190734867 -13.120428213500977
v 1.8173694477081299 -0.25000000190734867 -12.968028213500977
v 2.8087805900573732 -0.25000000190734867 -12.968028213500977
v 2.8087805900573732 -0.25000000190734867 -4.2898335021972658
v -3.1639836181640626 -0.25000000190734867 -4.2898335021972658
v -3.1639836181640626 -0.25000000190734867 -12.968028213500977
v -1.3588305759429933 -0.25000000190734867 -12.968028213500977
v -1.3588305759429933 -0.25000000190734867 -7.7630278976440437
v -1.2064305759429932 -0.25000000190734867 -7.7630278976440437
v -1.2064305759429932 -0.25000000190734867 -12.968028213500977
v -1.0610305847167969 -0.25000000190734867 -12.968028213500977
v -1.0610305847167969 -0.25000000190734867 -13.120428213500977
v -3.1639836181640626 -0.25000000190734867 -13.120428213500977
v -3.1639836181640626 -0.25000000190734867 -13.333983782958985
v -3.1639836181640626 -0.25000000190734867 -14.620428515625001
v 0.064969421875476843 -0.25000000190734867 -14.620428515625001
v 0.064969421875476843 -0.25000000190734867 -13.120428213500977
v -0.33503056755065919 -0.25000000190734867 -13.120428213500977
v -0.33503056755065919 -0.25000000190734867 -12.968028213500977
v 0.61736943855285653 -0.25000000190734867 -12.968028213500977
v 0.61736943855285653 -0.25000000190734867 -13.120428213500977
v 0.2173694173336029 -0.25000000190734867 -13.120428213500977
v 0.2173694173336029 -0.25000000190734867 -14.772828515625001
v -3.1639836181640626 -0.25000000190734867 -14.772828515625001
v -3.1639836181640626 -0.25000000190734867 -19.393983654785156
v 2.8087805900573732 0 -19.393983654785156
v -3.1639836181640626 0 -19.393983654785156
v -3.1639836181640626 0 -14.772828515625001
v 0.2173694173336029 0 -14.772828515625001
v 0.2173694173336029 0 -13.120428213500977
v 0.61736943855285653 0 -13.120428213500977
v 0.61736943855285653 0 -12.968028213500977
v -0.33503056755065919 0 -12.968028213500977
v -0.33503056755065919 0 -13.120428213500977
v 0.064969421875476843 0 -13.120428213500977
v 0.064969421875476843 0 -14.620428515625001
v -3.1639836181640626 0 -14.620428515625001
v -3.1639836181640626 0 -13.333983782958985
v -3.1639836181640626 0 -13.120428213500977
v -1.0610305847167969 0 -13.120428213500977
v -1.0610305847167969 0 -12.968028213500977
v -1.2064305759429932 0 -12.968028213500977
v -1.2064305759429932 0 -7.7630278976440437
v -1.3588305759429933 0 -7.7630278976440437
v -1.3588305759429933 0 -12.968028213500977
v -3.1639836181640626 0 -12.968028213500977
v -3.1639836181640626 0 -4.2898335021972658
v 2.8087805900573732 0 -4.2898335021972658
v 2.8087805900573732 0 -12.968028213500977
v 1.8173694477081299 0 -12.968028213500977
v 1.8173694477081299 0 -13.120428213500977
v 2.8087805900573732 0 -13.120428213500977
f 1 2 3 4 5 6 7 8 9 10 11 12 13 14 15 16 17 18 19 20 21 22 23 24 25 26 27
f 34 35 36 37 38 39 40 41 42 43 44 45 46 47 48 49 50 51 52 53 54 28 29 30 31 32 33
f 1 28 54 2
f 6 50 49 7
f 7 49 48 8
f 27 29 28 1
f 2 54 53 3
f 3 53 52 4
f 4 52 51 5
f 5 51 50 6
f 8 48 47 9
f 9 47 46 10
f 10 46 45 11
f 11 45 44 12
f 12 44 43 13
f 13 43 42 14
f 14 42 41 15
f 15 41 40 16
f 16 40 39 17
f 17 39 38 18
f 18 38 37 19
f 19 37 36 20
f 20 36 35 21
f 21 35 34 22
f 22 34 33 23
f 23 33 32 24
f 24 32 31 25
f 25 31 30 26
f 26 30 29 27
