# Rhino

o Floors - Interior Floor Framing
v 2.8087805900573732 8.4833804397583013 -19.393983654785156
v -3.1639836181640626 8.4833804397583013 -19.393983654785156
v -3.1639836181640626 8.4833804397583013 -14.120427639770508
v -2.6237837425231936 8.4833804397583013 -14.120427639770508
v -2.6237837425231936 8.4833804397583013 -13.968027639770508
v -3.1639836181640626 8.4833804397583013 -13.968027639770508
v -3.1639836181640626 8.4833804397583013 -7.9154278976440438
v -1.3588305759429933 8.4833804397583013 -7.9154278976440438
v -1.3588305759429933 8.4833804397583013 -12.968028213500977
v -1.2064305759429932 8.4833804397583013 -12.968028213500977
v -1.2064305759429932 8.4833804397583013 -7.7630278976440437
v -3.1639836181640626 8.4833804397583013 -7.7630278976440437
v -3.1639836181640626 8.4833804397583013 -4.2898335021972658
v 2.8087805900573732 8.4833804397583013 -4.2898335021972658
v 2.8087805900573732 8.4833804397583013 -8.7655283340454098
v 1.7055806316375732 8.4833804397583013 -8.7655283340454098
v 1.7055806316375732 8.4833804397583013 -8.9179283340454099
v 2.8087805900573732 8.4833804397583013 -8.9179283340454099
v 2.8087805900573732 8.4833804397583013 -10.365527764892578
v -0.20643056831359866 8.4833804397583013 -10.365527764892578
v -0.20643056831359866 8.4833804397583013 -8.9179283340454099
v 0.97958061447143563 8.4833804397583013 -8.9179283340454099
v 0.97958061447143563 8.4833804397583013 -8.7655283340454098
v -0.35883056831359866 8.4833804397583013 -8.7655283340454098
v -0.35883056831359866 8.4833804397583013 -13.968027639770508
v -1.697783578491211 8.4833804397583013 -13.968027639770508
v -1.697783578491211 8.4833804397583013 -14.120427639770508
v -0.20643056831359866 8.4833804397583013 -14.120427639770508
v -0.20643056831359866 8.4833804397583013 -12.117927777099609
v 0.97958061447143563 8.4833804397583013 -12.117927777099609
v 0.97958061447143563 8.4833804397583013 -11.965527777099609
v -0.20643056831359866 8.4833804397583013 -11.965527777099609
v -0.20643056831359866 8.4833804397583013 -10.517927764892578
v 2.8087805900573732 8.4833804397583013 -10.517927764892578
v 2.8087805900573732 8.4833804397583013 -11.965527777099609
v 1.7055806316375732 8.4833804397583013 -11.965527777099609
v 1.7055806316375732 8.4833804397583013 -12.117927777099609
v 2.8087805900573732 8.4833804397583013 -12.117927777099609
f 14 15 16 17 18 19 20 21 22 23 24 25 26 27 28 29 30 31 32 33 34 35 36 37 38 1 2 3 4 5 6 7 8 9 10 11 12 13
o Floors - Interior Floor Framing
v 2.8087805900573732 8.1333802917480469 -19.393983654785156
v 2.8087805900573732 8.1333802917480469 -12.117927777099609
v 1.7055806316375732 8.1333802917480469 -12.117927777099609
v 1.7055806316375732 8.1333802917480469 -11.965527777099609
v 2.8087805900573732 8.1333802917480469 -11.965527777099609
v 2.8087805900573732 8.1333802917480469 -10.517927764892578
v -0.20643056831359866 8.1333802917480469 -10.517927764892578
v -0.20643056831359866 8.1333802917480469 -11.965527777099609
v 0.97958061447143563 8.1333802917480469 -11.965527777099609
v 0.97958061447143563 8.1333802917480469 -12.117927777099609
v -0.20643056831359866 8.1333802917480469 -12.117927777099609
v -0.20643056831359866 8.1333802917480469 -14.120427639770508
v -1.697783578491211 8.1333802917480469 -14.120427639770508
v -1.697783578491211 8.1333802917480469 -13.968027639770508
v -0.35883056831359866 8.1333802917480469 -13.968027639770508
v -0.35883056831359866 8.1333802917480469 -8.7655283340454098
v 0.97958061447143563 8.1333802917480469 -8.7655283340454098
v 0.97958061447143563 8.1333802917480469 -8.9179283340454099
v -0.20643056831359866 8.1333802917480469 -8.9179283340454099
v -0.20643056831359866 8.1333802917480469 -10.365527764892578
v 2.8087805900573732 8.1333802917480469 -10.365527764892578
v 2.8087805900573732 8.1333802917480469 -8.9179283340454099
v 1.7055806316375732 8.1333802917480469 -8.9179283340454099
v 1.7055806316375732 8.1333802917480469 -8.7655283340454098
v 2.8087805900573732 8.1333802917480469 -8.7655283340454098
v 2.8087805900573732 8.1333802917480469 -4.2898335021972658
v -3.1639836181640626 8.1333802917480469 -4.2898335021972658
v -3.1639836181640626 8.1333802917480469 -7.7630278976440437
v -1.2064305759429932 8.1333802917480469 -7.7630278976440437
v -1.2064305759429932 8.1333802917480469 -12.968028213500977
v -1.3588305759429933 8.1333802917480469 -12.968028213500977
v -1.3588305759429933 8.1333802917480469 -7.9154278976440438
v -3.1639836181640626 8.1333802917480469 -7.9154278976440438
v -3.1639836181640626 8.1333802917480469 -13.968027639770508
v -2.6237837425231936 8.1333802917480469 -13.968027639770508
v -2.6237837425231936 8.1333802917480469 -14.120427639770508
v -3.1639836181640626 8.1333802917480469 -14.120427639770508
v -3.1639836181640626 8.1333802917480469 -19.393983654785156
v 2.8087805900573732 8.4833804397583013 -19.393983654785156
v 2.8087805900573732 8.4833804397583013 -12.117927777099609
v 2.8087805900573732 8.4833804397583013 -4.2898335021972658
v -3.1639836181640626 8.4833804397583013 -4.2898335021972658
v -3.1639836181640626 8.4833804397583013 -7.7630278976440437
v -3.1639836181640626 8.4833804397583013 -19.393983654785156
v 1.7055806316375732 8.4833804397583013 -12.117927777099609
v 1.7055806316375732 8.4833804397583013 -11.965527777099609
v 2.8087805900573732 8.4833804397583013 -11.965527777099609
v 2.8087805900573732 8.4833804397583013 -10.517927764892578
v -0.20643056831359866 8.4833804397583013 -10.517927764892578
v -0.20643056831359866 8.4833804397583013 -11.965527777099609
v 0.97958061447143563 8.4833804397583013 -11.965527777099609
v 0.97958061447143563 8.4833804397583013 -12.117927777099609
v -0.20643056831359866 8.4833804397583013 -12.117927777099609
v -0.20643056831359866 8.4833804397583013 -14.120427639770508
v -1.697783578491211 8.4833804397583013 -14.120427639770508
v -1.697783578491211 8.4833804397583013 -13.968027639770508
v -0.35883056831359866 8.4833804397583013 -13.968027639770508
v -0.35883056831359866 8.4833804397583013 -8.7655283340454098
v 0.97958061447143563 8.4833804397583013 -8.7655283340454098
v 0.97958061447143563 8.4833804397583013 -8.9179283340454099
v -0.20643056831359866 8.4833804397583013 -8.9179283340454099
v -0.20643056831359866 8.4833804397583013 -10.365527764892578
v 2.8087805900573732 8.4833804397583013 -10.365527764892578
v 2.8087805900573732 8.4833804397583013 -8.9179283340454099
v 1.7055806316375732 8.4833804397583013 -8.9179283340454099
v 1.7055806316375732 8.4833804397583013 -8.7655283340454098
v 2.8087805900573732 8.4833804397583013 -8.7655283340454098
v -1.2064305759429932 8.4833804397583013 -7.7630278976440437
v -1.2064305759429932 8.4833804397583013 -12.968028213500977
v -1.3588305759429933 8.4833804397583013 -12.968028213500977
v -1.3588305759429933 8.4833804397583013 -7.9154278976440438
v -3.1639836181640626 8.4833804397583013 -7.9154278976440438
v -3.1639836181640626 8.4833804397583013 -13.968027639770508
v -2.6237837425231936 8.4833804397583013 -13.968027639770508
v -2.6237837425231936 8.4833804397583013 -14.120427639770508
v -3.1639836181640626 8.4833804397583013 -14.120427639770508
f 39 40 41 42 43 44 45 46 47 48 49 50 51 52 53 54 55 56 57 58 59 60 61 62 63 64 65 66 67 68 69 70 71 72 73 74 75 76
f 39 77 78 40
f 64 79 80 65
f 65 80 81 66
f 76 82 77 39
f 40 78 83 41
f 41 83 84 42
f 42 84 85 43
f 43 85 86 44
f 44 86 87 45
f 45 87 88 46
f 46 88 89 47
f 47 89 90 48
f 48 90 91 49
f 49 91 92 50
f 50 92 93 51
f 51 93 94 52
f 52 94 95 53
f 53 95 96 54
f 54 96 97 55
f 55 97 98 56
f 56 98 99 57
f 57 99 100 58
f 58 100 101 59
f 59 101 102 60
f 60 102 103 61
f 61 103 104 62
f 62 104 105 63
f 63 105 79 64
f 66 81 106 67
f 67 106 107 68
f 68 107 108 69
f 69 108 109 70
f 70 109 110 71
f 71 110 111 72
f 72 111 112 73
f 73 112 113 74
f 74 113 114 75
f 75 114 82 76
