# Rhino

o Floors - Interior Floor Framing
v 2.8087805900573732 5.7100933227539068 -19.393983654785156
v -3.1639836181640626 5.7100933227539068 -19.393983654785156
v -3.1639836181640626 5.7100933227539068 -14.120427639770508
v -2.6237837425231936 5.7100933227539068 -14.120427639770508
v -2.6237837425231936 5.7100933227539068 -13.968027639770508
v -3.1639836181640626 5.7100933227539068 -13.968027639770508
v -3.1639836181640626 5.7100933227539068 -4.2898335021972658
v -1.3588305759429933 5.7100933227539068 -4.2898335021972658
v -1.3588305759429933 5.7100933227539068 -5.5370277236938481
v -1.2064305759429932 5.7100933227539068 -5.5370277236938481
v -1.2064305759429932 5.7100933227539068 -4.2898335021972658
v 2.8087805900573732 5.7100933227539068 -4.2898335021972658
v 2.8087805900573732 5.7100933227539068 -8.7655283340454098
v 1.7055806316375732 5.7100933227539068 -8.7655283340454098
v 1.7055806316375732 5.7100933227539068 -8.9179283340454099
v 2.8087805900573732 5.7100933227539068 -8.9179283340454099
v 2.8087805900573732 5.7100933227539068 -10.365527764892578
v -0.20643056831359866 5.7100933227539068 -10.365527764892578
v -0.20643056831359866 5.7100933227539068 -8.9179283340454099
v 0.97958061447143563 5.7100933227539068 -8.9179283340454099
v 0.97958061447143563 5.7100933227539068 -8.7655283340454098
v -0.20643056831359866 5.7100933227539068 -8.7655283340454098
v -0.20643056831359866 5.7100933227539068 -6.7630278900146488
v -1.2064305759429932 5.7100933227539068 -6.7630278900146488
v -1.2064305759429932 5.7100933227539068 -6.4630281784057617
v -1.3588305759429933 5.7100933227539068 -6.4630281784057617
v -1.3588305759429933 5.7100933227539068 -6.9154278900146489
v -0.35883056831359866 5.7100933227539068 -6.9154278900146489
v -0.35883056831359866 5.7100933227539068 -13.968027639770508
v -1.697783578491211 5.7100933227539068 -13.968027639770508
v -1.697783578491211 5.7100933227539068 -14.120427639770508
v -0.20643056831359866 5.7100933227539068 -14.120427639770508
v -0.20643056831359866 5.7100933227539068 -12.117927777099609
v 0.97958061447143563 5.7100933227539068 -12.117927777099609
v 0.97958061447143563 5.7100933227539068 -11.965527777099609
v -0.20643056831359866 5.7100933227539068 -11.965527777099609
v -0.20643056831359866 5.7100933227539068 -10.517927764892578
v 2.8087805900573732 5.7100933227539068 -10.517927764892578
v 2.8087805900573732 5.7100933227539068 -11.965527777099609
v 1.7055806316375732 5.7100933227539068 -11.965527777099609
v 1.7055806316375732 5.7100933227539068 -12.117927777099609
v 2.8087805900573732 5.7100933227539068 -12.117927777099609
v -1.2064305759429932 5.7100933227539068 -12.968028213500977
v -1.2064305759429932 5.7100933227539068 -7.7630278976440437
v -1.3588305759429933 5.7100933227539068 -7.7630278976440437
v -1.3588305759429933 5.7100933227539068 -12.968028213500977
f 12 13 14
f 23 14 21
f 14 23 12
f 21 14 15
f 23 21 22
f 12 23 10
f 16 17 15
f 15 17 20
f 20 21 15
f 18 19 20
f 20 17 18
f 11 12 10
f 26 10 25
f 9 10 26
f 7 8 9
f 7 9 26
f 26 27 7
f 24 25 23
f 27 28 44
f 27 44 45
f 27 45 7
f 44 28 43
f 25 10 23
f 7 45 6
f 38 40 35
f 40 38 39
f 37 35 36
f 35 37 38
f 40 34 35
f 41 42 32
f 40 41 34
f 32 34 41
f 33 34 32
f 1 32 42
f 29 43 28
f 43 29 30
f 46 30 5
f 30 46 43
f 31 5 30
f 46 6 45
f 6 46 5
f 31 2 4
f 2 31 32
f 4 5 31
f 3 4 2
f 32 1 2
o Floors - Interior Floor Framing
v 2.8087805900573732 5.3600931747436524 -19.393983654785156
v 2.8087805900573732 5.3600931747436524 -12.117927777099609
v 1.7055806316375732 5.3600931747436524 -12.117927777099609
v 1.7055806316375732 5.3600931747436524 -11.965527777099609
v 2.8087805900573732 5.3600931747436524 -11.965527777099609
v 2.8087805900573732 5.3600931747436524 -10.517927764892578
v -0.20643056831359866 5.3600931747436524 -10.517927764892578
v -0.20643056831359866 5.3600931747436524 -11.965527777099609
v 0.97958061447143563 5.3600931747436524 -11.965527777099609
v 0.97958061447143563 5.3600931747436524 -12.117927777099609
v -0.20643056831359866 5.3600931747436524 -12.117927777099609
v -0.20643056831359866 5.3600931747436524 -14.120427639770508
v -1.697783578491211 5.3600931747436524 -14.120427639770508
v -1.697783578491211 5.3600931747436524 -13.968027639770508
v -0.35883056831359866 5.3600931747436524 -13.968027639770508
v -0.35883056831359866 5.3600931747436524 -6.9154278900146489
v -1.3588305759429933 5.3600931747436524 -6.9154278900146489
v -1.3588305759429933 5.3600931747436524 -6.4630281784057617
v -1.2064305759429932 5.3600931747436524 -6.4630281784057617
v -1.2064305759429932 5.3600931747436524 -6.7630278900146488
v -0.20643056831359866 5.3600931747436524 -6.7630278900146488
v -0.20643056831359866 5.3600931747436524 -8.7655283340454098
v 0.97958061447143563 5.3600931747436524 -8.7655283340454098
v 0.97958061447143563 5.3600931747436524 -8.9179283340454099
v -0.20643056831359866 5.3600931747436524 -8.9179283340454099
v -0.20643056831359866 5.3600931747436524 -10.365527764892578
v 2.8087805900573732 5.3600931747436524 -10.365527764892578
v 2.8087805900573732 5.3600931747436524 -8.9179283340454099
v 1.7055806316375732 5.3600931747436524 -8.9179283340454099
v 1.7055806316375732 5.3600931747436524 -8.7655283340454098
v 2.8087805900573732 5.3600931747436524 -8.7655283340454098
v 2.8087805900573732 5.3600931747436524 -4.2898335021972658
v -1.2064305759429932 5.3600931747436524 -4.2898335021972658
v -1.2064305759429932 5.3600931747436524 -5.5370277236938481
v -1.3588305759429933 5.3600931747436524 -5.5370277236938481
v -1.3588305759429933 5.3600931747436524 -4.2898335021972658
v -3.1639836181640626 5.3600931747436524 -4.2898335021972658
v -3.1639836181640626 5.3600931747436524 -13.968027639770508
v -2.6237837425231936 5.3600931747436524 -13.968027639770508
v -2.6237837425231936 5.3600931747436524 -14.120427639770508
v -3.1639836181640626 5.3600931747436524 -14.120427639770508
v -3.1639836181640626 5.3600931747436524 -19.393983654785156
v -1.2064305759429932 5.3600931747436524 -12.968028213500977
v -1.3588305759429933 5.3600931747436524 -12.968028213500977
v -1.3588305759429933 5.3600931747436524 -7.7630278976440437
v -1.2064305759429932 5.3600931747436524 -7.7630278976440437
v 2.8087805900573732 5.7100933227539068 -19.393983654785156
v 2.8087805900573732 5.7100933227539068 -12.117927777099609
v 2.8087805900573732 5.7100933227539068 -4.2898335021972658
v -1.2064305759429932 5.7100933227539068 -4.2898335021972658
v -3.1639836181640626 5.7100933227539068 -4.2898335021972658
v -3.1639836181640626 5.7100933227539068 -13.968027639770508
v -3.1639836181640626 5.7100933227539068 -19.393983654785156
v 1.7055806316375732 5.7100933227539068 -12.117927777099609
v 1.7055806316375732 5.7100933227539068 -11.965527777099609
v 2.8087805900573732 5.7100933227539068 -11.965527777099609
v 2.8087805900573732 5.7100933227539068 -10.517927764892578
v -0.20643056831359866 5.7100933227539068 -10.517927764892578
v -0.20643056831359866 5.7100933227539068 -11.965527777099609
v 0.97958061447143563 5.7100933227539068 -11.965527777099609
v 0.97958061447143563 5.7100933227539068 -12.117927777099609
v -0.20643056831359866 5.7100933227539068 -12.117927777099609
v -0.20643056831359866 5.7100933227539068 -14.120427639770508
v -1.697783578491211 5.7100933227539068 -14.120427639770508
v -1.697783578491211 5.7100933227539068 -13.968027639770508
v -0.35883056831359866 5.7100933227539068 -13.968027639770508
v -0.35883056831359866 5.7100933227539068 -6.9154278900146489
v -1.3588305759429933 5.7100933227539068 -6.9154278900146489
v -1.3588305759429933 5.7100933227539068 -6.4630281784057617
v -1.2064305759429932 5.7100933227539068 -6.4630281784057617
v -1.2064305759429932 5.7100933227539068 -6.7630278900146488
v -0.20643056831359866 5.7100933227539068 -6.7630278900146488
v -0.20643056831359866 5.7100933227539068 -8.7655283340454098
v 0.97958061447143563 5.7100933227539068 -8.7655283340454098
v 0.97958061447143563 5.7100933227539068 -8.9179283340454099
v -0.20643056831359866 5.7100933227539068 -8.9179283340454099
v -0.20643056831359866 5.7100933227539068 -10.365527764892578
v 2.8087805900573732 5.7100933227539068 -10.365527764892578
v 2.8087805900573732 5.7100933227539068 -8.9179283340454099
v 1.7055806316375732 5.7100933227539068 -8.9179283340454099
v 1.7055806316375732 5.7100933227539068 -8.7655283340454098
v 2.8087805900573732 5.7100933227539068 -8.7655283340454098
v -1.2064305759429932 5.7100933227539068 -5.5370277236938481
v -1.3588305759429933 5.7100933227539068 -5.5370277236938481
v -1.3588305759429933 5.7100933227539068 -4.2898335021972658
v -2.6237837425231936 5.7100933227539068 -13.968027639770508
v -2.6237837425231936 5.7100933227539068 -14.120427639770508
v -3.1639836181640626 5.7100933227539068 -14.120427639770508
v -1.2064305759429932 5.7100933227539068 -12.968028213500977
v -1.3588305759429933 5.7100933227539068 -12.968028213500977
v -1.3588305759429933 5.7100933227539068 -7.7630278976440437
v -1.2064305759429932 5.7100933227539068 -7.7630278976440437
f 47 93 94 48
f 78 95 96 79
f 83 97 98 84
f 88 99 93 47
f 48 94 100 49
f 49 100 101 50
f 50 101 102 51
f 51 102 103 52
f 52 103 104 53
f 53 104 105 54
f 54 105 106 55
f 55 106 107 56
f 56 107 108 57
f 57 108 109 58
f 58 109 110 59
f 59 110 111 60
f 60 111 112 61
f 61 112 113 62
f 62 113 114 63
f 63 114 115 64
f 64 115 116 65
f 65 116 117 66
f 66 117 118 67
f 67 118 119 68
f 68 119 120 69
f 69 120 121 70
f 70 121 122 71
f 71 122 123 72
f 72 123 124 73
f 73 124 125 74
f 74 125 126 75
f 75 126 127 76
f 76 127 128 77
f 77 128 95 78
f 79 96 129 80
f 80 129 130 81
f 81 130 131 82
f 82 131 97 83
f 84 98 132 85
f 85 132 133 86
f 86 133 134 87
f 87 134 99 88
f 89 135 136 90
f 90 136 137 91
f 91 137 138 92
f 92 138 135 89
f 58 47 48
f 49 50 56
f 58 49 56
f 58 48 49
f 51 52 50
f 50 52 55
f 55 53 54
f 53 55 52
f 50 55 56
f 59 88 58
f 88 59 86
f 85 86 59
f 86 87 88
f 58 88 47
f 58 56 57
f 62 89 61
f 61 89 60
f 85 60 90
f 85 59 60
f 90 60 89
f 84 90 91
f 84 85 90
f 73 74 75
f 71 72 70
f 75 70 73
f 75 69 70
f 70 72 73
f 76 77 78
f 76 78 67
f 68 69 67
f 67 69 76
f 78 80 67
f 76 69 75
f 63 92 62
f 89 62 92
f 92 63 91
f 91 63 83
f 65 66 67
f 81 64 80
f 80 64 65
f 65 67 80
f 81 82 83
f 81 83 64
f 64 83 63
f 78 79 80
f 91 83 84
