# Rhino

mtllib Level2_01.mtl
usemtl Default
v -2.3533940315246582 -11.84190845489502 -0.2078673243522644
v -2.3533940315246582 -11.84190845489502 -2.4087576866149902
v -2.3533940315246582 -11.84190845489502 -4.6096482276916504
v -2.3533940315246582 -11.84190845489502 -6.8105387687683105
v -2.3533940315246582 -11.84190845489502 -9.0114288330078125
v -2.3533940315246582 -11.84190845489502 -11.212319374084473
v -1.4830770492553711 -11.84190845489502 -0.2078673243522644
v -1.4830770492553711 -11.84190845489502 -2.4087576866149902
v -1.4830770492553711 -11.84190845489502 -4.6096482276916504
v -1.4830770492553711 -11.84190845489502 -6.8105387687683105
v -1.4830770492553711 -11.84190845489502 -9.0114288330078125
v -1.4830770492553711 -11.84190845489502 -11.212319374084473
v -0.61276000738143921 -11.84190845489502 -0.2078673243522644
v -0.61276000738143921 -11.84190845489502 -2.4087576866149902
v -0.61276000738143921 -11.84190845489502 -4.6096482276916504
v -0.61276000738143921 -11.84190845489502 -6.8105387687683105
v -0.61276000738143921 -11.84190845489502 -9.0114288330078125
v -0.61276000738143921 -11.84190845489502 -11.212319374084473
v 0.25755709409713745 -11.84190845489502 -0.2078673243522644
v 0.25755709409713745 -11.84190845489502 -2.4087576866149902
v 0.25755709409713745 -11.84190845489502 -4.6096482276916504
v 0.25755709409713745 -11.84190845489502 -9.0114288330078125
v 0.25755709409713745 -11.84190845489502 -11.212319374084473
v 1.1278741359710693 -11.84190845489502 -0.2078673243522644
v 1.1278741359710693 -11.84190845489502 -2.4087576866149902
v 1.1278741359710693 -11.84190845489502 -4.6096482276916504
v 1.1278741359710693 -11.84190845489502 -9.0114288330078125
v 1.1278741359710693 -11.84190845489502 -11.212319374084473
v 1.998191237449646 -11.84190845489502 -0.2078673243522644
v 1.998191237449646 -11.84190845489502 -2.4087576866149902
v 1.998191237449646 -11.84190845489502 -4.6096482276916504
v 1.998191237449646 -11.84190845489502 -9.0114288330078125
v 1.998191237449646 -11.84190845489502 -11.212319374084473
v -2.6237838268280029 -11.84190845489502 -3.5839741230010986
v -2.6237838268280029 -11.84190845489502 -3.4315741062164307
v -2.3533940315246582 -11.84190845489502 -3.5092029571533203
v -2.7885527610778809 -11.84190845489502 -4.6096482276916504
v -2.7885527610778809 -11.84190845489502 -2.4087576866149902
v -2.3533940315246582 -11.84190845489502 -4.0594258308410645
v -2.5709733963012695 -11.84190845489502 -4.6096482276916504
v -2.7885527610778809 -11.84190845489502 -4.0594258308410645
v -2.5709733963012695 -11.84190845489502 -4.0594258308410645
v -1.9182356595993042 -11.84190845489502 -4.6096482276916504
v -1.9182356595993042 -11.84190845489502 -2.4087576866149902
v -1.9182356595993042 -11.84190845489502 -3.5092029571533203
v -2.3533940315246582 -11.84190845489502 -5.7100934982299805
v -2.7885527610778809 -11.84190845489502 -6.8105387687683105
v -2.7885527610778809 -11.84190845489502 -5.7100934982299805
v -2.3533940315246582 -11.84190845489502 -2.9589803218841553
v -2.7885527610778809 -11.84190845489502 -2.9589803218841553
v -2.5709733963012695 -11.84190845489502 -2.4087576866149902
v -2.5709733963012695 -11.84190845489502 -2.9589803218841553
v -2.3533940315246582 -11.84190845489502 -1.3083125352859497
v -2.7885527610778809 -11.84190845489502 -0.2078673243522644
v -2.7885527610778809 -11.84190845489502 -1.3083125352859497
v -3.1639835834503174 -11.84190845489502 -3.4315741062164307
v -3.1639835834503174 -11.84190845489502 -2.1131851673126221
v -3.1639835834503174 -11.84190845489502 -0.79479622840881348
v -3.1639835834503174 -11.84190845489502 0.52359271049499512
v -3.1639835834503174 -11.84190845489502 1.8419816493988037
v -1.6707925796508789 -11.84190845489502 1.8419816493988037
v -0.17760145664215088 -11.84190845489502 1.8419816493988037
v 1.3155896663665771 -11.84190845489502 1.8419816493988037
v 2.8087806701660156 -11.84190845489502 1.8419816493988037
v 2.8087806701660156 -11.84190845489502 0.38677039742469788
v 2.8087806701660156 -11.84190845489502 -1.0684409141540527
v 2.8087806701660156 -11.84190845489502 -2.5236520767211914
v 2.8087806701660156 -11.84190845489502 -3.9788634777069092
v 2.8087806701660156 -11.84190845489502 -5.4340744018554688
v 1.7055805921554565 -11.84190845489502 -5.4340744018554688
v 1.7055805921554565 -11.84190845489502 -5.5864744186401367
v 1.1278741359710693 -11.84190845489502 -5.7100934982299805
v 1.5630327463150024 -11.84190845489502 -4.6096482276916504
v 1.5630327463150024 -11.84190845489502 -5.7100934982299805
v 1.998191237449646 -11.84190845489502 -5.1598711013793945
v 1.5630327463150024 -11.84190845489502 -5.1598711013793945
v 1.7806119918823242 -11.84190845489502 -4.6096482276916504
v 1.7806119918823242 -11.84190845489502 -5.1598711013793945
v 1.998191237449646 -11.84190845489502 -3.5092029571533203
v 1.1278741359710693 -11.84190845489502 -3.5092029571533203
v 1.5630327463150024 -11.84190845489502 -2.4087576866149902
v 1.5630327463150024 -11.84190845489502 -3.5092029571533203
v 2.8087806701660156 -11.84190845489502 -5.5864744186401367
v 2.8087806701660156 -11.84190845489502 -7.0340738296508789
v 1.3011749982833862 -11.84190845489502 -7.0340738296508789
v -0.20643056929111481 -11.84190845489502 -7.0340738296508789
v -0.20643056929111481 -11.84190845489502 -5.5864744186401367
v 0.97958064079284668 -11.84190845489502 -5.5864744186401367
v 0.97958064079284668 -11.84190845489502 -5.4340744018554688
v 0.69271564483642578 -11.84190845489502 -4.6096482276916504
v 1.1278741359710693 -11.84190845489502 -5.1598711013793945
v 0.69271564483642578 -11.84190845489502 -5.1598711013793945
v 0.91029489040374756 -11.84190845489502 -4.6096482276916504
v 0.91029489040374756 -11.84190845489502 -5.1598711013793945
v 0.25755709409713745 -11.84190845489502 -3.5092029571533203
v 0.69271564483642578 -11.84190845489502 -2.4087576866149902
v 0.69271564483642578 -11.84190845489502 -3.5092029571533203
v -0.20643056929111481 -11.84190845489502 -5.4340744018554688
v -0.20643056929111481 -11.84190845489502 -4.4328241348266602
v -0.20643056929111481 -11.84190845489502 -3.4315741062164307
v -1.6977835893630981 -11.84190845489502 -3.4315741062164307
v -1.6977835893630981 -11.84190845489502 -3.5839741230010986
v -1.4830770492553711 -11.84190845489502 -2.9589803218841553
v -1.9182356595993042 -11.84190845489502 -2.9589803218841553
v -1.7006562948226929 -11.84190845489502 -2.4087576866149902
v -1.7006562948226929 -11.84190845489502 -2.9589803218841553
v -1.4830770492553711 -11.84190845489502 -1.3083125352859497
v -1.9182356595993042 -11.84190845489502 -0.2078673243522644
v -1.9182356595993042 -11.84190845489502 -1.3083125352859497
v -1.0479185581207275 -11.84190845489502 -4.6096482276916504
v -1.0479185581207275 -11.84190845489502 -2.4087576866149902
v -1.4830770492553711 -11.84190845489502 -4.0594258308410645
v -1.7006562948226929 -11.84190845489502 -4.6096482276916504
v -1.9182356595993042 -11.84190845489502 -4.0594258308410645
v -1.7006562948226929 -11.84190845489502 -4.0594258308410645
v -1.4830770492553711 -11.84190845489502 -5.7100934982299805
v -1.9182356595993042 -11.84190845489502 -6.8105387687683105
v -1.9182356595993042 -11.84190845489502 -5.7100934982299805
v -0.35883057117462158 -11.84190845489502 -3.5839741230010986
v -0.35883057117462158 -11.84190845489502 -4.9944944381713867
v -0.35883057117462158 -11.84190845489502 -6.4050140380859375
v -0.35883057117462158 -11.84190845489502 -7.8155345916748047
v -0.35883057117462158 -11.84190845489502 -9.2260541915893555
v -0.35883057117462158 -11.84190845489502 -10.636574745178223
v -1.3588305711746216 -11.84190845489502 -10.636574745178223
v -1.3588305711746216 -11.84190845489502 -11.088973999023438
v -0.61276000738143921 -11.84190845489502 -10.111874580383301
v -1.0479185581207275 -11.84190845489502 -11.212319374084473
v -1.4830770492553711 -11.84190845489502 -10.111874580383301
v -1.0479185581207275 -11.84190845489502 -9.0114288330078125
v -1.0479185581207275 -11.84190845489502 -10.111874580383301
v -1.2064305543899536 -11.84190845489502 -11.088973999023438
v -1.4830770492553711 -11.84190845489502 -10.662096977233887
v -0.61276000738143921 -11.84190845489502 -12.312765121459961
v -1.4830770492553711 -11.84190845489502 -12.312765121459961
v -1.0479185581207275 -11.84190845489502 -12.312765121459961
v -1.9182356595993042 -11.84190845489502 -11.212319374084473
v -2.3533940315246582 -11.84190845489502 -10.111874580383301
v -1.9182356595993042 -11.84190845489502 -9.0114288330078125
v -1.9182356595993042 -11.84190845489502 -10.111874580383301
v -1.2064305543899536 -11.84190845489502 -10.788974761962891
v -0.20643056929111481 -11.84190845489502 -10.788974761962891
v -0.20643056929111481 -11.84190845489502 -9.7877235412597656
v -0.20643056929111481 -11.84190845489502 -8.786473274230957
v 0.97958064079284668 -11.84190845489502 -8.786473274230957
v 0.97958064079284668 -11.84190845489502 -8.6340732574462891
v 1.1278741359710693 -11.84190845489502 -7.9109840393066406
v 0.69271564483642578 -11.84190845489502 -9.0114288330078125
v 0.69271564483642578 -11.84190845489502 -7.9109840393066406
v 1.1278741359710693 -11.84190845489502 -8.4612064361572266
v 0.91029489040374756 -11.84190845489502 -9.0114288330078125
v 0.69271564483642578 -11.84190845489502 -8.4612064361572266
v 0.91029489040374756 -11.84190845489502 -7.9109840393066406
v 0.91029489040374756 -11.84190845489502 -8.4612064361572266
v 1.998191237449646 -11.84190845489502 -7.9109840393066406
v 1.5630327463150024 -11.84190845489502 -9.0114288330078125
v 1.5630327463150024 -11.84190845489502 -7.9109840393066406
v 1.1278741359710693 -11.84190845489502 -10.111874580383301
v 0.69271564483642578 -11.84190845489502 -11.212319374084473
v 0.25755709409713745 -11.84190845489502 -10.111874580383301
v 0.69271564483642578 -11.84190845489502 -10.111874580383301
v -0.20643056929111481 -11.84190845489502 -8.6340732574462891
v -0.20643056929111481 -11.84190845489502 -7.1864738464355469
v 1.3011749982833862 -11.84190845489502 -7.1864738464355469
v 2.8087806701660156 -11.84190845489502 -7.1864738464355469
v 2.8087806701660156 -11.84190845489502 -8.6340732574462891
v 1.7055805921554565 -11.84190845489502 -8.6340732574462891
v 1.7055805921554565 -11.84190845489502 -8.786473274230957
v 1.998191237449646 -11.84190845489502 -8.4612064361572266
v 1.7806119918823242 -11.84190845489502 -9.0114288330078125
v 1.5630327463150024 -11.84190845489502 -8.4612064361572266
v 1.7806119918823242 -11.84190845489502 -7.9109840393066406
v 1.7806119918823242 -11.84190845489502 -8.4612064361572266
v 1.998191237449646 -11.84190845489502 -10.111874580383301
v 1.5630327463150024 -11.84190845489502 -11.212319374084473
v 1.5630327463150024 -11.84190845489502 -10.111874580383301
v 2.8087806701660156 -11.84190845489502 -8.786473274230957
v 2.8087806701660156 -11.84190845489502 -10.278371810913086
v 2.8087806701660156 -11.84190845489502 -11.770270347595215
v 2.8087806701660156 -11.84190845489502 -13.262168884277344
v 1.4703769683837891 -11.84190845489502 -13.262168884277344
v 0.13197319209575653 -11.84190845489502 -13.262168884277344
v -1.2064305543899536 -11.84190845489502 -13.262168884277344
v -1.2064305543899536 -11.84190845489502 -12.014974594116211
v -1.3588305711746216 -11.84190845489502 -12.014974594116211
v -1.0479185581207275 -11.84190845489502 -11.762542724609375
v -1.4830770492553711 -11.84190845489502 -11.762542724609375
v -2.3533940315246582 -11.84190845489502 -12.312765121459961
v -1.9182356595993042 -11.84190845489502 -12.312765121459961
v -1.3588305711746216 -11.84190845489502 -13.262168884277344
v -2.2614071369171143 -11.84190845489502 -13.262168884277344
v -3.1639835834503174 -11.84190845489502 -13.262168884277344
v -3.1639835834503174 -11.84190845489502 -11.649136543273926
v -3.1639835834503174 -11.84190845489502 -10.036104202270508
v -3.1639835834503174 -11.84190845489502 -8.4230709075927734
v -3.1639835834503174 -11.84190845489502 -6.8100390434265137
v -3.1639835834503174 -11.84190845489502 -5.1970067024230957
v -3.1639835834503174 -11.84190845489502 -3.5839741230010986
v -1.2064305543899536 -11.84190845489502 -9.7889747619628906
v -1.2064305543899536 -11.84190845489502 -8.4877243041992188
v -1.2064305543899536 -11.84190845489502 -7.1864743232727051
v -1.2064305543899536 -11.84190845489502 -5.8852243423461914
v -1.2064305543899536 -11.84190845489502 -4.5839738845825195
v -1.3588305711746216 -11.84190845489502 -4.5839738845825195
v -0.61276000738143921 -11.84190845489502 -5.7100934982299805
v -1.0479185581207275 -11.84190845489502 -6.8105387687683105
v -1.0479185581207275 -11.84190845489502 -5.7100934982299805
v -1.3588305711746216 -11.84190845489502 -5.8852243423461914
v -1.3588305711746216 -11.84190845489502 -7.1864743232727051
v -1.3588305711746216 -11.84190845489502 -8.4877243041992188
v -1.3588305711746216 -11.84190845489502 -9.7889747619628906
v -1.0479185581207275 -11.84190845489502 -9.5616521835327148
v -1.4830770492553711 -11.84190845489502 -9.5616521835327148
v -0.61276000738143921 -11.84190845489502 -7.9109840393066406
v -1.4830770492553711 -11.84190845489502 -7.9109840393066406
v -1.0479185581207275 -11.84190845489502 -7.9109840393066406
vn 0 1 0
vn 0 1 0
vn 0 1 0
vn 0 1 0
vn 0 1 0
vn 0 1 0
vn 0 1 0
vn 0 1 0
vn 0 1 0
vn 0 1 0
vn 0 1 0
vn 0 1 0
vn 0 1 0
vn 0 1 0
vn 0 1 0
vn 0 1 0
vn 0 1 0
vn 0 1 0
vn 0 1 0
vn 0 1 0
vn 0 1 0
vn 0 1 0
vn 0 1 0
vn 0 1 0
vn 0 1 0
vn 0 1 0
vn 0 1 0
vn 0 1 0
vn 0 1 0
vn 0 1 0
vn 0 1 0
vn 0 1 0
vn 0 1 0
vn 0 1 0
vn 0 1 0
vn 0 1 0
vn 0 1 0
vn 0 1 0
vn 0 1 0
vn 0 1 0
vn 0 1 0
vn 0 1 0
vn 0 1 0
vn 0 1 0
vn 0 1 0
vn 0 1 0
vn 0 1 0
vn 0 1 0
vn 0 1 0
vn 0 1 0
vn 0 1 0
vn 0 1 0
vn 0 1 0
vn 0 1 0
vn 0 1 0
vn 0 1 0
vn 0 1 0
vn 0 1 0
vn 0 1 0
vn 0 1 0
vn 0 1 0
vn 0 1 0
vn 0 1 0
vn 0 1 0
vn 0 1 0
vn 0 1 0
vn 0 1 0
vn 0 1 0
vn 0 1 0
vn 0 1 0
vn 0 1 0
vn 0 1 0
vn 0 1 0
vn 0 1 0
vn 0 1 0
vn 0 1 0
vn 0 1 0
vn 0 1 0
vn 0 1 0
vn 0 1 0
vn 0 1 0
vn 0 1 0
vn 0 1 0
vn 0 1 0
vn 0 1 0
vn 0 1 0
vn 0 1 0
vn 0 1 0
vn 0 1 0
vn 0 1 0
vn 0 1 0
vn 0 1 0
vn 0 1 0
vn 0 1 0
vn 0 1 0
vn 0 1 0
vn 0 1 0
vn 0 1 0
vn 0 1 0
vn 0 1 0
vn 0 1 0
vn 0 1 0
vn 0 1 0
vn 0 1 0
vn 0 1 0
vn 0 1 0
vn 0 1 0
vn 0 1 0
vn 0 1 0
vn 0 1 0
vn 0 1 0
vn 0 1 0
vn 0 1 0
vn 0 1 0
vn 0 1 0
vn 0 1 0
vn 0 1 0
vn 0 1 0
vn 0 1 0
vn 0 1 0
vn 0 1 0
vn 0 1 0
vn 0 1 0
vn 0 1 0
vn 0 1 0
vn 0 1 0
vn 0 1 0
vn 0 1 0
vn 0 1 0
vn 0 1 0
vn 0 1 0
vn 0 1 0
vn 0 1 0
vn 0 1 0
vn 0 1 0
vn 0 1 0
vn 0 1 0
vn 0 1 0
vn 0 1 0
vn 0 1 0
vn 0 1 0
vn 0 1 0
vn 0 1 0
vn 0 1 0
vn 0 1 0
vn 0 1 0
vn 0 1 0
vn 0 1 0
vn 0 1 0
vn 0 1 0
vn 0 1 0
vn 0 1 0
vn 0 1 0
vn 0 1 0
vn 0 1 0
vn 0 1 0
vn 0 1 0
vn 0 1 0
vn 0 1 0
vn 0 1 0
vn 0 1 0
vn 0 1 0
vn 0 1 0
vn 0 1 0
vn 0 1 0
vn 0 1 0
vn 0 1 0
vn 0 1 0
vn 0 1 0
vn 0 1 0
vn 0 1 0
vn 0 1 0
vn 0 1 0
vn 0 1 0
vn 0 1 0
vn 0 1 0
vn 0 1 0
vn 0 1 0
vn 0 1 0
vn 0 1 0
vn 0 1 0
vn 0 1 0
vn 0 1 0
vn 0 1 0
vn 0 1 0
vn 0 1 0
vn 0 1 0
vn 0 1 0
vn 0 1 0
vn 0 1 0
vn 0 1 0
vn 0 1 0
vn 0 1 0
vn 0 1 0
vn 0 1 0
vn 0 1 0
vn 0 1 0
vn 0 1 0
vn 0 1 0
vn 0 1 0
vn 0 1 0
vn 0 1 0
vn 0 1 0
vn 0 1 0
vn 0 1 0
vn 0 1 0
vn 0 1 0
vn 0 1 0
vn 0 1 0
vn 0 1 0
vn 0 1 0
vn 0 1 0
vn 0 1 0
vn 0 1 0
vn 0 1 0
vn 0 1 0
f 51//51 38//38 55//55
f 53//53 2//2 51//51
f 55//55 53//53 51//51
f 53//53 55//55 54//54 1//1
f 3//3 40//40 42//42 39//39
f 40//40 37//37 41//41 42//42
f 36//36 39//39 42//42
f 52//52 49//49 36//36
f 52//52 50//50 38//38 51//51
f 49//49 52//52 51//51 2//2
f 4//4 47//47 48//48 46//46
f 40//40 3//3 46//46
f 48//48 37//37 40//40
f 46//46 48//48 40//40
f 105//105 44//44 109//109
f 107//107 8//8 105//105
f 109//109 107//107 105//105
f 44//44 2//2 53//53 109//109
f 109//109 53//53 1//1 108//108
f 107//107 109//109 108//108 7//7
f 9//9 113//113 115//115 112//112
f 113//113 43//43 114//114 115//115
f 114//114 43//43 3//3 39//39
f 39//39 36//36 45//45 114//114
f 104//104 45//45 36//36 49//49
f 49//49 2//2 44//44 104//104
f 106//106 104//104 44//44 105//105
f 103//103 106//106 105//105 8//8
f 10//10 117//117 118//118 116//116
f 117//117 4//4 46//46 118//118
f 118//118 46//46 3//3 43//43
f 113//113 9//9 116//116
f 118//118 43//43 113//113
f 116//116 118//118 113//113
f 139//139 117//117 215//215
f 117//117 10//10 215//215
f 215//215 11//11 139//139
f 139//139 5//5 4//4 117//117
f 133//133 12//12 137//137
f 140//140 129//129 133//133
f 137//137 140//140 133//133
f 137//137 6//6 138//138 140//140
f 140//140 138//138 5//5 139//139
f 213//213 129//129 140//140
f 139//139 11//11 213//213
f 140//140 139//139 213//213
f 189//189 188//188 6//6 137//137
f 187//187 135//135 189//189
f 137//137 12//12 187//187
f 189//189 137//137 187//187
f 111//111 8//8 107//107
f 107//107 7//7 13//13
f 13//13 14//14 111//111
f 111//111 107//107 13//13
f 16//16 206//206 207//207 205//205
f 205//205 207//207 110//110 15//15
f 17//17 130//130 216//216 214//214
f 214//214 216//216 206//206 16//16
f 212//212 130//130 17//17
f 127//127 131//131 212//212
f 17//17 127//127 212//212
f 186//186 128//128 18//18
f 134//134 136//136 186//186
f 18//18 134//134 186//186
f 20//20 14//14 13//13 19//19
f 96//96 20//20 19//19
f 24//24 25//25 96//96
f 19//19 24//24 96//96
f 93//93 90//90 97//97
f 80//80 26//26 93//93
f 97//97 80//80 93//93
f 90//90 21//21 95//95 97//97
f 97//97 95//95 20//20 96//96
f 80//80 97//97 96//96 25//25
f 94//94 92//92 90//90 93//93
f 91//91 94//94 93//93 26//26
f 154//154 152//152 149//149 153//153
f 150//150 154//154 153//153 147//147
f 28//28 159//159 161//161 158//158
f 159//159 23//23 160//160 161//161
f 161//161 160//160 22//22 148//148
f 151//151 27//27 158//158
f 161//161 148//148 151//151
f 158//158 161//161 151//151
f 81//81 25//25 24//24
f 29//29 30//30 81//81
f 24//24 29//29 81//81
f 77//77 73//73 82//82
f 79//79 31//31 77//77
f 82//82 79//79 77//77
f 73//73 26//26 80//80 82//82
f 82//82 80//80 25//25 81//81
f 79//79 82//82 81//81 30//30
f 76//76 74//74 72//72 91//91
f 91//91 26//26 73//73 76//76
f 78//78 76//76 73//73 77//77
f 75//75 78//78 77//77 31//31
f 173//173 171//171 157//157 172//172
f 169//169 173//173 172//172 155//155
f 171//171 156//156 27//27 150//150
f 150//150 147//147 157//157 171//171
f 33//33 175//175 176//176 174//174
f 175//175 28//28 158//158 176//176
f 176//176 158//158 27//27 156//156
f 170//170 32//32 174//174
f 176//176 156//156 170//170
f 174//174 176//176 170//170
f 54//54 59//59 60//60
f 57//57 58//58 55//55 38//38
f 59//59 54//54 58//58
f 54//54 55//55 58//58
f 54//54 60//60 1//1
f 1//1 61//61 108//108
f 35//35 50//50 52//52
f 57//57 38//38 50//50
f 61//61 1//1 60//60
f 56//56 57//57 50//50
f 50//50 35//35 56//56
f 37//37 198//198 41//41
f 48//48 197//197 37//37
f 198//198 37//37 197//197
f 196//196 197//197 48//48 47//47
f 35//35 52//52 36//36
f 198//198 34//34 41//41
f 34//34 35//35 36//36
f 34//34 36//36 42//42
f 41//41 34//34 42//42
f 45//45 104//104 101//101
f 103//103 101//101 106//106
f 106//106 101//101 104//104
f 114//114 45//45 102//102
f 102//102 45//45 101//101
f 103//103 100//100 101//101
f 102//102 115//115 114//114
f 7//7 108//108 61//61
f 13//13 7//7 61//61 62//62
f 100//100 103//103 111//111
f 8//8 111//111 103//103
f 119//119 110//110 112//112
f 102//102 112//112 115//115
f 203//203 204//204 112//112
f 204//204 9//9 112//112
f 116//116 9//9 204//204 208//208
f 119//119 112//112 102//102
f 110//110 207//207 202//202 203//203
f 207//207 206//206 201//201 202//202
f 205//205 15//15 120//120
f 15//15 110//110 119//119
f 111//111 14//14 100//100
f 10//10 116//116 208//208 209//209
f 195//195 196//196 47//47
f 194//194 195//195 5//5 138//138
f 195//195 47//47 5//5
f 47//47 4//4 5//5
f 215//215 10//10 209//209
f 210//210 11//11 215//215
f 11//11 211//211 213//213
f 129//129 213//213 211//211
f 193//193 194//194 138//138 6//6
f 188//188 193//193 6//6
f 191//191 192//192 188//188
f 193//193 188//188 192//192
f 188//188 189//189 191//191
f 129//129 125//125 133//133
f 12//12 133//133 125//125 126//126
f 187//187 185//185 135//135
f 190//190 191//191 189//189 135//135
f 12//12 126//126 132//132
f 210//210 215//215 209//209
f 200//200 201//201 206//206 216//216
f 211//211 11//11 210//210
f 199//199 200//200 130//130 212//212
f 125//125 211//211 199//199
f 214//214 16//16 121//121 122//122
f 200//200 216//216 130//130
f 131//131 199//199 212//212
f 124//124 125//125 131//131 127//127
f 136//136 183//183 184//184
f 132//132 128//128 12//12
f 184//184 185//185 12//12
f 132//132 141//141 128//128
f 12//12 185//185 187//187
f 184//184 128//128 186//186
f 184//184 12//12 128//128
f 186//186 136//136 184//184
f 134//134 183//183 136//136
f 185//185 190//190 135//135
f 131//131 125//125 199//199
f 129//129 211//211 125//125
f 16//16 205//205 121//121
f 99//99 100//100 95//95 21//21
f 110//110 203//203 112//112
f 119//119 120//120 15//15
f 24//24 19//19 62//62 63//63
f 14//14 20//20 100//100
f 21//21 98//98 99//99
f 100//100 20//20 95//95
f 90//90 92//92 21//21
f 120//120 121//121 205//205
f 21//21 92//92 98//98
f 92//92 94//94 89//89
f 89//89 94//94 91//91
f 85//85 86//86 87//87 88//88
f 89//89 72//72 88//88
f 91//91 72//72 89//89
f 92//92 89//89 98//98
f 152//152 146//146 162//162
f 64//64 29//29 63//63
f 79//79 30//30 67//67 68//68
f 30//30 29//29 66//66 67//67
f 65//65 66//66 29//29
f 31//31 79//79 68//68
f 64//64 65//65 29//29
f 68//68 69//69 75//75 31//31
f 74//74 76//76 70//70 71//71
f 70//70 78//78 75//75
f 74//74 71//71 85//85
f 72//72 74//74 85//85
f 164//164 149//149 163//163
f 84//84 85//85 71//71 83//83
f 72//72 85//85 88//88
f 155//155 172//172 164//164
f 69//69 70//70 75//75
f 70//70 76//76 78//78
f 149//149 164//164 153//153
f 29//29 24//24 63//63
f 164//164 165//165 155//155
f 162//162 149//149 152//152
f 152//152 154//154 146//146
f 122//122 123//123 17//17 214//214
f 149//149 162//162 163//163
f 143//143 144//144 22//22 160//160
f 144//144 145//145 148//148 22//22
f 164//164 147//147 153//153
f 150//150 146//146 154//154
f 146//146 150//150 145//145
f 148//148 145//145 151//151
f 27//27 151//151 145//145
f 127//127 17//17 123//123 124//124
f 23//23 18//18 142//142
f 18//18 128//128 141//141
f 141//141 142//142 18//18
f 142//142 143//143 160//160 23//23
f 159//159 182//182 23//23
f 23//23 182//182 134//134
f 181//181 182//182 159//159 28//28
f 23//23 134//134 18//18
f 183//183 134//134 182//182
f 168//168 171//171 167//167
f 171//171 173//173 167//167
f 167//167 173//173 169//169
f 168//168 156//156 171//171
f 168//168 177//177 32//32
f 155//155 166//166 169//169
f 169//169 166//166 167//167
f 166//166 155//155 165//165
f 157//157 164//164 172//172
f 168//168 170//170 156//156
f 181//181 28//28 175//175
f 175//175 33//33 181//181
f 174//174 32//32 177//177 178//178
f 33//33 174//174 178//178
f 180//180 33//33 179//179
f 178//178 179//179 33//33
f 181//181 33//33 180//180
f 168//168 32//32 170//170
f 145//145 150//150 27//27
f 157//157 147//147 164//164
f 19//19 13//13 62//62
