# Rhino

mtllib Level1_01.mtl
usemtl Default
v -2.3533940315246582 -11.84190845489502 3.4236867427825928
v -2.3533940315246582 -11.84190845489502 1.2227963209152222
v -2.3533940315246582 -11.84190845489502 -0.97809416055679321
v -2.3533940315246582 -11.84190845489502 -3.1789846420288086
v -2.3533940315246582 -11.84190845489502 -5.3798751831054688
v -2.3533940315246582 -11.84190845489502 -7.5807657241821289
v -1.4830770492553711 -11.84190845489502 3.4236867427825928
v -1.4830770492553711 -11.84190845489502 1.2227963209152222
v -1.4830770492553711 -11.84190845489502 -3.1789846420288086
v -1.4830770492553711 -11.84190845489502 -5.3798751831054688
v -1.4830770492553711 -11.84190845489502 -7.5807657241821289
v -0.61276000738143921 -11.84190845489502 3.4236867427825928
v -0.61276000738143921 -11.84190845489502 1.2227963209152222
v -0.61276000738143921 -11.84190845489502 -3.1789846420288086
v -0.61276000738143921 -11.84190845489502 -5.3798751831054688
v -0.61276000738143921 -11.84190845489502 -7.5807657241821289
v 0.25755709409713745 -11.84190845489502 3.4236867427825928
v 0.25755709409713745 -11.84190845489502 -3.1789846420288086
v 0.25755709409713745 -11.84190845489502 -5.3798751831054688
v 0.25755709409713745 -11.84190845489502 -7.5807657241821289
v 1.1278741359710693 -11.84190845489502 3.4236867427825928
v 1.1278741359710693 -11.84190845489502 1.2227963209152222
v 1.1278741359710693 -11.84190845489502 -0.97809416055679321
v 1.1278741359710693 -11.84190845489502 -3.1789846420288086
v 1.1278741359710693 -11.84190845489502 -5.3798751831054688
v 1.1278741359710693 -11.84190845489502 -7.5807657241821289
v 1.998191237449646 -11.84190845489502 3.4236867427825928
v 1.998191237449646 -11.84190845489502 1.2227963209152222
v 1.998191237449646 -11.84190845489502 -0.97809416055679321
v 1.998191237449646 -11.84190845489502 -3.1789846420288086
v 1.998191237449646 -11.84190845489502 -5.3798751831054688
v 1.998191237449646 -11.84190845489502 -7.5807657241821289
v -3.1639835834503174 -11.84190845489502 -0.80001997947692871
v -3.1639835834503174 -11.84190845489502 0.76836895942687988
v -3.1639835834503174 -11.84190845489502 2.3367578983306885
v -3.1639835834503174 -11.84190845489502 3.9051468372344971
v -3.1639835834503174 -11.84190845489502 5.4735355377197266
v -1.6707925796508789 -11.84190845489502 5.4735355377197266
v -0.17760145664215088 -11.84190845489502 5.4735355377197266
v 1.3155896663665771 -11.84190845489502 5.4735355377197266
v 2.8087806701660156 -11.84190845489502 5.4735355377197266
v 2.8087806701660156 -11.84190845489502 3.963120698928833
v 2.8087806701660156 -11.84190845489502 2.4527056217193604
v 2.8087806701660156 -11.84190845489502 0.94229066371917725
v 2.8087806701660156 -11.84190845489502 -0.56812435388565063
v 2.8087806701660156 -11.84190845489502 -2.0785393714904785
v 2.8087806701660156 -11.84190845489502 -3.5889544486999512
v 2.8087806701660156 -11.84190845489502 -5.0993695259094238
v 2.8087806701660156 -11.84190845489502 -6.6097846031188965
v 2.8087806701660156 -11.84190845489502 -8.1201992034912109
v 2.8087806701660156 -11.84190845489502 -9.6306142807006836
v 1.4703769683837891 -11.84190845489502 -9.6306142807006836
v 0.13197319209575653 -11.84190845489502 -9.6306142807006836
v -1.2064305543899536 -11.84190845489502 -9.6306142807006836
v -1.2064305543899536 -11.84190845489502 -8.4274148941040039
v -1.3588305711746216 -11.84190845489502 -8.4274148941040039
v -0.61276000738143921 -11.84190845489502 -8.6812105178833008
v -1.4830770492553711 -11.84190845489502 -8.6812105178833008
v -1.0479185581207275 -11.84190845489502 -7.5807657241821289
v -1.0479185581207275 -11.84190845489502 -8.6812105178833008
v -1.0479185581207275 -11.84190845489502 -8.1309881210327148
v -1.4830770492553711 -11.84190845489502 -8.1309881210327148
v -1.2654978036880493 -11.84190845489502 -7.5807657241821289
v -1.2654978036880493 -11.84190845489502 -8.1309881210327148
v -2.3533940315246582 -11.84190845489502 -8.6812105178833008
v -1.9182356595993042 -11.84190845489502 -7.5807657241821289
v -1.9182356595993042 -11.84190845489502 -8.6812105178833008
v -0.61276000738143921 -11.84190845489502 -6.4803204536437988
v -1.4830770492553711 -11.84190845489502 -6.4803204536437988
v -1.0479185581207275 -11.84190845489502 -5.3798751831054688
v -1.0479185581207275 -11.84190845489502 -6.4803204536437988
v -1.3588305711746216 -11.84190845489502 -9.6306142807006836
v -2.2614071369171143 -11.84190845489502 -9.6306142807006836
v -3.1639835834503174 -11.84190845489502 -9.6306142807006836
v -3.1639835834503174 -11.84190845489502 -8.1842489242553711
v -3.1639835834503174 -11.84190845489502 -6.7378830909729004
v -3.1639835834503174 -11.84190845489502 -5.2915172576904297
v -3.1639835834503174 -11.84190845489502 -3.845151424407959
v -3.1639835834503174 -11.84190845489502 -2.3987858295440674
v -3.1639835834503174 -11.84190845489502 -0.95241999626159668
v -2.6237838268280029 -11.84190845489502 -0.95241999626159668
v -2.3533940315246582 -11.84190845489502 0.12235110253095627
v -2.7885527610778809 -11.84190845489502 1.2227963209152222
v -2.7885527610778809 -11.84190845489502 0.12235110253095627
v -2.6237838268280029 -11.84190845489502 -0.80001997947692871
v -2.3533940315246582 -11.84190845489502 -0.42787152528762817
v -2.7885527610778809 -11.84190845489502 -0.42787152528762817
v -2.5709733963012695 -11.84190845489502 0.12235110253095627
v -2.5709733963012695 -11.84190845489502 -0.42787152528762817
v -1.4830770492553711 -11.84190845489502 0.12235110253095627
v -1.9182356595993042 -11.84190845489502 -0.97809416055679321
v -1.9182356595993042 -11.84190845489502 1.2227963209152222
v -1.9182356595993042 -11.84190845489502 0.12235110253095627
v -2.3533940315246582 -11.84190845489502 -2.0785393714904785
v -2.7885527610778809 -11.84190845489502 -3.1789846420288086
v -2.7885527610778809 -11.84190845489502 -2.0785393714904785
v -1.3588305711746216 -11.84190845489502 -0.95241999626159668
v -1.3588305711746216 -11.84190845489502 -2.5211687088012695
v -1.3588305711746216 -11.84190845489502 -4.0899171829223633
v -1.3588305711746216 -11.84190845489502 -5.6586661338806152
v -1.3588305711746216 -11.84190845489502 -7.2274150848388672
v -1.2064305543899536 -11.84190845489502 -7.2274150848388672
v -1.0479185581207275 -11.84190845489502 -7.0305428504943848
v -1.4830770492553711 -11.84190845489502 -7.0305428504943848
v -2.3533940315246582 -11.84190845489502 -6.4803204536437988
v -1.9182356595993042 -11.84190845489502 -5.3798751831054688
v -1.9182356595993042 -11.84190845489502 -6.4803204536437988
v -1.2064305543899536 -11.84190845489502 -5.6586661338806152
v -1.2064305543899536 -11.84190845489502 -4.0899171829223633
v -1.2064305543899536 -11.84190845489502 -2.5211687088012695
v -1.2064305543899536 -11.84190845489502 -0.95241999626159668
v 0.21736942231655121 -11.84190845489502 -0.95241999626159668
v 0.21736942231655121 -11.84190845489502 -0.050019979476928711
v 0.21736942231655121 -11.84190845489502 0.85238003730773926
v -1.3588305711746216 -11.84190845489502 0.85238003730773926
v -1.3588305711746216 -11.84190845489502 0.31297993659973145
v -1.0479185581207275 -11.84190845489502 1.2227963209152222
v -1.2064305543899536 -11.84190845489502 0.31297993659973145
v -1.4830770492553711 -11.84190845489502 0.6725737452507019
v -1.2654978036880493 -11.84190845489502 1.2227963209152222
v -0.61276000738143921 -11.84190845489502 2.3232414722442627
v -1.4830770492553711 -11.84190845489502 2.3232414722442627
v -1.0479185581207275 -11.84190845489502 3.4236867427825928
v -1.0479185581207275 -11.84190845489502 2.3232414722442627
v -1.2064305543899536 -11.84190845489502 0.69998002052307129
v 0.064969420433044434 -11.84190845489502 0.69998002052307129
v 0.064969420433044434 -11.84190845489502 -0.80001997947692871
v -1.2064305543899536 -11.84190845489502 -0.80001997947692871
v -1.2064305543899536 -11.84190845489502 -0.41301989555358887
v -1.3588305711746216 -11.84190845489502 -0.41301989555358887
v -1.4830770492553711 -11.84190845489502 -0.42787152528762817
v -0.61276000738143921 -11.84190845489502 -2.0785393714904785
v -1.0479185581207275 -11.84190845489502 -3.1789846420288086
v -1.4830770492553711 -11.84190845489502 -2.0785393714904785
v -1.0479185581207275 -11.84190845489502 -2.0785393714904785
v -1.3588305711746216 -11.84190845489502 -0.80001997947692871
v -1.6977835893630981 -11.84190845489502 -0.80001997947692871
v -1.6977835893630981 -11.84190845489502 -0.95241999626159668
v -1.9182356595993042 -11.84190845489502 -0.42787152528762817
v -1.7006562948226929 -11.84190845489502 0.12235110253095627
v -1.7006562948226929 -11.84190845489502 -0.42787152528762817
v -1.9182356595993042 -11.84190845489502 -3.1789846420288086
v -1.9182356595993042 -11.84190845489502 -2.0785393714904785
v -0.61276000738143921 -11.84190845489502 -0.97809416055679321
vn 0 1 0
vn 0 1 0
vn 0 1 0
vn 0 1 0
vn 0 1 0
vn 0 1 0
vn 0 1 0
vn 0 1 0
vn 0 1 0
vn 0 1 0
vn 0 1 0
vn 0 1 0
vn 0 1 0
vn 0 1 0
vn 0 1 0
vn 0 1 0
vn 0 1 0
vn 0 1 0
vn 0 1 0
vn 0 1 0
vn 0 1 0
vn 0 1 0
vn 0 1 0
vn 0 1 0
vn 0 1 0
vn 0 1 0
vn 0 1 0
vn 0 1 0
vn 0 1 0
vn 0 1 0
vn 0 1 0
vn 0 1 0
vn 0 1 0
vn 0 1 0
vn 0 1 0
vn 0 1 0
vn 0 1 0
vn 0 1 0
vn 0 1 0
vn 0 1 0
vn 0 1 0
vn 0 1 0
vn 0 1 0
vn 0 1 0
vn 0 1 0
vn 0 1 0
vn 0 1 0
vn 0 1 0
vn 0 1 0
vn 0 1 0
vn 0 1 0
vn 0 1 0
vn 0 1 0
vn 0 1 0
vn 0 1 0
vn 0 1 0
vn 0 1 0
vn 0 1 0
vn 0 1 0
vn 0 1 0
vn 0 1 0
vn 0 1 0
vn 0 1 0
vn 0 1 0
vn 0 1 0
vn 0 1 0
vn 0 1 0
vn 0 1 0
vn 0 1 0
vn 0 1 0
vn 0 1 0
vn 0 1 0
vn 0 1 0
vn 0 1 0
vn 0 1 0
vn 0 1 0
vn 0 1 0
vn 0 1 0
vn 0 1 0
vn 0 1 0
vn 0 1 0
vn 0 1 0
vn 0 1 0
vn 0 1 0
vn 0 1 0
vn 0 1 0
vn 0 1 0
vn 0 1 0
vn 0 1 0
vn 0 1 0
vn 0 1 0
vn 0 1 0
vn 0 1 0
vn 0 1 0
vn 0 1 0
vn 0 1 0
vn 0 1 0
vn 0 1 0
vn 0 1 0
vn 0 1 0
vn 0 1 0
vn 0 1 0
vn 0 1 0
vn 0 1 0
vn 0 1 0
vn 0 1 0
vn 0 1 0
vn 0 1 0
vn 0 1 0
vn 0 1 0
vn 0 1 0
vn 0 1 0
vn 0 1 0
vn 0 1 0
vn 0 1 0
vn 0 1 0
vn 0 1 0
vn 0 1 0
vn 0 1 0
vn 0 1 0
vn 0 1 0
vn 0 1 0
vn 0 1 0
vn 0 1 0
vn 0 1 0
vn 0 1 0
vn 0 1 0
vn 0 1 0
vn 0 1 0
vn 0 1 0
vn 0 1 0
vn 0 1 0
vn 0 1 0
vn 0 1 0
vn 0 1 0
vn 0 1 0
vn 0 1 0
vn 0 1 0
vn 0 1 0
vn 0 1 0
vn 0 1 0
vn 0 1 0
vn 0 1 0
vn 0 1 0
f 89//89 87//87 84//84 88//88
f 86//86 89//89 88//88 82//82
f 88//88 84//84 83//83
f 2//2 82//82 88//88
f 83//83 2//2 88//88
f 4//4 95//95 96//96 94//94
f 122//122 8//8 92//92
f 92//92 2//2 1//1
f 1//1 7//7 122//122
f 122//122 92//92 1//1
f 141//141 139//139 93//93 140//140
f 131//131 141//141 140//140 90//90
f 139//139 91//91 3//3 86//86
f 86//86 82//82 93//93 139//139
f 93//93 82//82 2//2 92//92
f 119//119 90//90 140//140
f 140//140 93//93 92//92
f 92//92 8//8 119//119
f 119//119 140//140 92//92
f 9//9 142//142 143//143 134//134
f 142//142 4//4 94//94 143//143
f 143//143 94//94 3//3 91//91
f 104//104 11//11 66//66
f 107//107 69//69 104//104
f 66//66 107//107 104//104
f 66//66 6//6 105//105 107//107
f 107//107 105//105 5//5 106//106
f 69//69 107//107 106//106 10//10
f 67//67 65//65 6//6 66//66
f 62//62 58//58 67//67
f 66//66 11//11 62//62
f 67//67 66//66 62//62
f 13//13 117//117 124//124 121//121
f 120//120 8//8 122//122
f 124//124 117//117 120//120
f 122//122 124//124 120//120
f 124//124 122//122 7//7 123//123
f 121//121 124//124 123//123 12//12
f 14//14 133//133 135//135 132//132
f 103//103 71//71 68//68
f 16//16 59//59 103//103
f 68//68 16//16 103//103
f 68//68 71//71 70//70 15//15
f 64//64 62//62 11//11 63//63
f 61//61 64//64 63//63 59//59
f 61//61 59//59 16//16
f 57//57 60//60 61//61
f 16//16 57//57 61//61
f 13//13 121//121 17//17
f 121//121 12//12 17//17
f 19//19 15//15 14//14 18//18
f 68//68 15//15 19//19
f 20//20 16//16 68//68
f 19//19 20//20 68//68
f 17//17 21//21 22//22
f 23//23 24//24 18//18
f 25//25 19//19 18//18 24//24
f 26//26 20//20 19//19 25//25
f 28//28 22//22 21//21 27//27
f 29//29 23//23 22//22 28//28
f 30//30 24//24 23//23 29//29
f 31//31 25//25 24//24 30//30
f 32//32 26//26 25//25 31//31
f 1//1 36//36 37//37
f 83//83 34//34 35//35
f 35//35 36//36 1//1
f 2//2 83//83 1//1
f 35//35 1//1 83//83
f 34//34 83//83 84//84
f 1//1 37//37 38//38
f 33//33 34//34 84//84 87//87
f 33//33 87//87 85//85
f 85//85 87//87 89//89
f 3//3 89//89 86//86
f 96//96 80//80 81//81
f 3//3 81//81 85//85
f 89//89 3//3 85//85
f 3//3 94//94 81//81
f 123//123 7//7 38//38
f 115//115 119//119 8//8
f 115//115 8//8 120//120
f 90//90 119//119 115//115 116//116
f 131//131 90//90 116//116 130//130
f 130//130 116//116 118//118 129//129
f 137//137 139//139 141//141
f 138//138 91//91 137//137
f 139//139 137//137 91//91
f 137//137 141//141 131//131
f 130//130 136//136 131//131
f 143//143 91//91 138//138
f 131//131 136//136 137//137
f 97//97 134//134 138//138
f 38//38 7//7 1//1
f 78//78 79//79 96//96 95//95
f 80//80 96//96 79//79
f 77//77 78//78 5//5
f 95//95 5//5 78//78
f 5//5 95//95 4//4
f 94//94 96//96 81//81
f 5//5 4//4 142//142 106//106
f 75//75 76//76 105//105 6//6
f 5//5 105//105 76//76 77//77
f 75//75 65//65 74//74
f 74//74 65//65 73//73
f 65//65 67//67 73//73
f 75//75 6//6 65//65
f 10//10 9//9 99//99 100//100
f 106//106 142//142 9//9 10//10
f 9//9 134//134 98//98
f 133//133 109//109 110//110
f 108//108 109//109 70//70
f 98//98 99//99 9//9
f 98//98 134//134 97//97
f 100//100 69//69 10//10
f 101//101 104//104 69//69
f 11//11 104//104 101//101
f 56//56 62//62 64//64
f 72//72 58//58 56//56
f 62//62 56//56 58//58
f 67//67 58//58 72//72
f 63//63 11//11 101//101
f 101//101 69//69 100//100
f 73//73 67//67 72//72
f 102//102 108//108 70//70 71//71
f 134//134 143//143 138//138
f 110//110 111//111 135//135
f 115//115 117//117 13//13
f 123//123 39//39 12//12
f 115//115 13//13 114//114
f 22//22 13//13 17//17
f 17//17 12//12 39//39
f 39//39 123//123 38//38
f 118//118 126//126 129//129
f 118//118 125//125 126//126
f 112//112 144//144 111//111
f 128//128 129//129 127//127
f 144//144 132//132 135//135
f 132//132 144//144 18//18
f 111//111 144//144 135//135
f 21//21 17//17 40//40
f 39//39 40//40 17//17
f 27//27 21//21 40//40
f 13//13 22//22 114//114
f 27//27 41//41 42//42
f 42//42 43//43 27//27
f 40//40 41//41 27//27
f 28//28 27//27 43//43 44//44
f 113//113 114//114 22//22
f 144//144 112//112 23//23
f 113//113 23//23 112//112
f 22//22 23//23 113//113
f 44//44 45//45 29//29 28//28
f 46//46 29//29 45//45
f 18//18 144//144 23//23
f 126//126 127//127 129//129
f 133//133 110//110 135//135
f 14//14 109//109 133//133
f 70//70 109//109 15//15
f 103//103 102//102 71//71
f 102//102 63//63 101//101
f 64//64 61//61 55//55
f 59//59 63//63 102//102
f 61//61 60//60 55//55
f 57//57 54//54 60//60
f 60//60 54//54 55//55
f 59//59 102//102 103//103
f 64//64 55//55 56//56
f 109//109 14//14 15//15
f 31//31 30//30 47//47 48//48
f 30//30 46//46 47//47
f 31//31 48//48 49//49
f 14//14 132//132 18//18
f 49//49 32//32 31//31
f 57//57 16//16 20//20
f 54//54 57//57 53//53
f 20//20 53//53 57//57
f 20//20 26//26 52//52 53//53
f 52//52 26//26 32//32
f 52//52 32//32 51//51
f 50//50 51//51 32//32
f 50//50 32//32 49//49
f 29//29 46//46 30//30
f 117//117 115//115 120//120
