# Rhino

o Floors - Interior Floor Framing
v 2.8087805900573732 2.0785394073486327 -19.393983654785156
v -3.1639836181640626 2.0785394073486327 -19.393983654785156
v -3.1639836181640626 2.0785394073486327 -13.120428213500977
v -2.6237837425231936 2.0785394073486327 -13.120428213500977
v -2.6237837425231936 2.0785394073486327 -12.968028213500977
v -3.1639836181640626 2.0785394073486327 -12.968028213500977
v -3.1639836181640626 2.0785394073486327 -4.2898335021972658
v -1.3588305759429933 2.0785394073486327 -4.2898335021972658
v -1.3588305759429933 2.0785394073486327 -5.4930333160400391
v -1.2064305759429932 2.0785394073486327 -5.4930333160400391
v -1.2064305759429932 2.0785394073486327 -4.2898335021972658
v 2.8087805900573732 2.0785394073486327 -4.2898335021972658
v -1.3588305759429933 2.0785394073486327 -14.772828515625001
v 0.2173694173336029 2.0785394073486327 -14.772828515625001
v 0.2173694173336029 2.0785394073486327 -12.968028213500977
v -1.2064305759429932 2.0785394073486327 -12.968028213500977
v -1.2064305759429932 2.0785394073486327 -6.6930333251953131
v -1.3588305759429933 2.0785394073486327 -6.6930333251953131
v -1.3588305759429933 2.0785394073486327 -12.968028213500977
v -1.697783578491211 2.0785394073486327 -12.968028213500977
v -1.697783578491211 2.0785394073486327 -13.120428213500977
v -1.3588305759429933 2.0785394073486327 -13.120428213500977
v -1.3588305759429933 2.0785394073486327 -13.507427847290039
v -1.2064305759429932 2.0785394073486327 -13.507427847290039
v -1.2064305759429932 2.0785394073486327 -13.120428213500977
v 0.064969421875476843 2.0785394073486327 -13.120428213500977
v 0.064969421875476843 2.0785394073486327 -14.620428515625001
v -1.2064305759429932 2.0785394073486327 -14.620428515625001
v -1.2064305759429932 2.0785394073486327 -14.233427719116211
v -1.3588305759429933 2.0785394073486327 -14.233427719116211
f 12 10 11
f 10 12 17
f 16 17 15
f 15 17 12
f 12 1 15
f 10 17 18
f 9 18 7
f 18 9 10
f 7 8 9
f 18 6 7
f 20 5 18
f 6 18 5
f 5 20 21
f 18 19 20
f 24 27 29
f 24 25 26
f 24 29 23
f 1 14 15
f 27 28 29
f 14 1 2
f 24 26 27
f 21 4 5
f 21 22 23
f 3 4 13
f 21 23 4
f 13 4 30
f 2 3 13
f 2 13 14
f 30 23 29
f 30 4 23
o Floors - Interior Floor Framing
v 2.8087805900573732 1.7285394046783449 -19.393983654785156
v 2.8087805900573732 1.7285394046783449 -4.2898335021972658
v -1.2064305759429932 1.7285394046783449 -4.2898335021972658
v -1.2064305759429932 1.7285394046783449 -5.4930333160400391
v -1.3588305759429933 1.7285394046783449 -5.4930333160400391
v -1.3588305759429933 1.7285394046783449 -4.2898335021972658
v -3.1639836181640626 1.7285394046783449 -4.2898335021972658
v -3.1639836181640626 1.7285394046783449 -12.968028213500977
v -2.6237837425231936 1.7285394046783449 -12.968028213500977
v -2.6237837425231936 1.7285394046783449 -13.120428213500977
v -3.1639836181640626 1.7285394046783449 -13.120428213500977
v -3.1639836181640626 1.7285394046783449 -19.393983654785156
v -1.3588305759429933 1.7285394046783449 -14.772828515625001
v -1.3588305759429933 1.7285394046783449 -14.233427719116211
v -1.2064305759429932 1.7285394046783449 -14.233427719116211
v -1.2064305759429932 1.7285394046783449 -14.620428515625001
v 0.064969421875476843 1.7285394046783449 -14.620428515625001
v 0.064969421875476843 1.7285394046783449 -13.120428213500977
v -1.2064305759429932 1.7285394046783449 -13.120428213500977
v -1.2064305759429932 1.7285394046783449 -13.507427847290039
v -1.3588305759429933 1.7285394046783449 -13.507427847290039
v -1.3588305759429933 1.7285394046783449 -13.120428213500977
v -1.697783578491211 1.7285394046783449 -13.120428213500977
v -1.697783578491211 1.7285394046783449 -12.968028213500977
v -1.3588305759429933 1.7285394046783449 -12.968028213500977
v -1.3588305759429933 1.7285394046783449 -6.6930333251953131
v -1.2064305759429932 1.7285394046783449 -6.6930333251953131
v -1.2064305759429932 1.7285394046783449 -12.968028213500977
v 0.2173694173336029 1.7285394046783449 -12.968028213500977
v 0.2173694173336029 1.7285394046783449 -14.772828515625001
v 2.8087805900573732 2.0785394073486327 -19.393983654785156
v 2.8087805900573732 2.0785394073486327 -4.2898335021972658
v -1.2064305759429932 2.0785394073486327 -4.2898335021972658
v -3.1639836181640626 2.0785394073486327 -4.2898335021972658
v -3.1639836181640626 2.0785394073486327 -12.968028213500977
v -3.1639836181640626 2.0785394073486327 -19.393983654785156
v -1.2064305759429932 2.0785394073486327 -5.4930333160400391
v -1.3588305759429933 2.0785394073486327 -5.4930333160400391
v -1.3588305759429933 2.0785394073486327 -4.2898335021972658
v -2.6237837425231936 2.0785394073486327 -12.968028213500977
v -2.6237837425231936 2.0785394073486327 -13.120428213500977
v -3.1639836181640626 2.0785394073486327 -13.120428213500977
v -1.3588305759429933 2.0785394073486327 -14.772828515625001
v -1.3588305759429933 2.0785394073486327 -14.233427719116211
v -1.2064305759429932 2.0785394073486327 -14.233427719116211
v -1.2064305759429932 2.0785394073486327 -14.620428515625001
v 0.064969421875476843 2.0785394073486327 -14.620428515625001
v 0.064969421875476843 2.0785394073486327 -13.120428213500977
v -1.2064305759429932 2.0785394073486327 -13.120428213500977
v -1.2064305759429932 2.0785394073486327 -13.507427847290039
v -1.3588305759429933 2.0785394073486327 -13.507427847290039
v -1.3588305759429933 2.0785394073486327 -13.120428213500977
v -1.697783578491211 2.0785394073486327 -13.120428213500977
v -1.697783578491211 2.0785394073486327 -12.968028213500977
v -1.3588305759429933 2.0785394073486327 -12.968028213500977
v -1.3588305759429933 2.0785394073486327 -6.6930333251953131
v -1.2064305759429932 2.0785394073486327 -6.6930333251953131
v -1.2064305759429932 2.0785394073486327 -12.968028213500977
v 0.2173694173336029 2.0785394073486327 -12.968028213500977
v 0.2173694173336029 2.0785394073486327 -14.772828515625001
f 31 61 62 32
f 32 62 63 33
f 37 64 65 38
f 42 66 61 31
f 33 63 67 34
f 34 67 68 35
f 35 68 69 36
f 36 69 64 37
f 38 65 70 39
f 39 70 71 40
f 40 71 72 41
f 41 72 66 42
f 43 73 74 44
f 44 74 75 45
f 45 75 76 46
f 46 76 77 47
f 47 77 78 48
f 48 78 79 49
f 49 79 80 50
f 50 80 81 51
f 51 81 82 52
f 52 82 83 53
f 53 83 84 54
f 54 84 85 55
f 55 85 86 56
f 56 86 87 57
f 57 87 88 58
f 58 88 89 59
f 59 89 90 60
f 60 90 73 43
f 42 31 60
f 60 31 59
f 50 48 49
f 47 48 50
f 45 50 51
f 50 45 47
f 47 45 46
f 40 43 44
f 51 44 45
f 41 42 43
f 43 42 60
f 44 51 40
f 40 53 39
f 52 53 51
f 40 41 43
f 53 40 51
f 58 59 57
f 57 32 34
f 32 57 59
f 33 34 32
f 57 34 56
f 59 31 32
f 39 54 56
f 56 38 39
f 56 54 55
f 39 53 54
f 56 35 37
f 36 37 35
f 35 56 34
f 56 37 38
