# Rhino

mtllib Level3_01.mtl
usemtl Default
v -2.3533940315246582 -11.84190845489502 -2.981154203414917
v -2.3533940315246582 -11.84190845489502 -5.182044506072998
v -2.3533940315246582 -11.84190845489502 -7.3829350471496582
v -2.3533940315246582 -11.84190845489502 -9.5838251113891602
v -2.3533940315246582 -11.84190845489502 -13.98560619354248
v -1.4830770492553711 -11.84190845489502 -2.981154203414917
v -1.4830770492553711 -11.84190845489502 -5.182044506072998
v -1.4830770492553711 -11.84190845489502 -7.3829350471496582
v -1.4830770492553711 -11.84190845489502 -13.98560619354248
v -0.61276000738143921 -11.84190845489502 -2.981154203414917
v -0.61276000738143921 -11.84190845489502 -5.182044506072998
v -0.61276000738143921 -11.84190845489502 -7.3829350471496582
v -0.61276000738143921 -11.84190845489502 -9.5838251113891602
v -0.61276000738143921 -11.84190845489502 -11.78471565246582
v -0.61276000738143921 -11.84190845489502 -13.98560619354248
v 0.25755709409713745 -11.84190845489502 -2.981154203414917
v 0.25755709409713745 -11.84190845489502 -5.182044506072998
v 0.25755709409713745 -11.84190845489502 -7.3829350471496582
v 0.25755709409713745 -11.84190845489502 -11.78471565246582
v 0.25755709409713745 -11.84190845489502 -13.98560619354248
v 1.1278741359710693 -11.84190845489502 -2.981154203414917
v 1.1278741359710693 -11.84190845489502 -5.182044506072998
v 1.1278741359710693 -11.84190845489502 -7.3829350471496582
v 1.1278741359710693 -11.84190845489502 -11.78471565246582
v 1.1278741359710693 -11.84190845489502 -13.98560619354248
v 1.998191237449646 -11.84190845489502 -2.981154203414917
v 1.998191237449646 -11.84190845489502 -5.182044506072998
v 1.998191237449646 -11.84190845489502 -7.3829350471496582
v 1.998191237449646 -11.84190845489502 -11.78471565246582
v 1.998191237449646 -11.84190845489502 -13.98560619354248
v -3.1639835834503174 -11.84190845489502 -0.9313051700592041
v -1.6707925796508789 -11.84190845489502 -0.9313051700592041
v -0.17760145664215088 -11.84190845489502 -0.9313051700592041
v 1.3155896663665771 -11.84190845489502 -0.9313051700592041
v 2.8087806701660156 -11.84190845489502 -0.9313051700592041
v 2.8087806701660156 -11.84190845489502 -2.3865163326263428
v 2.8087806701660156 -11.84190845489502 -3.8417277336120605
v 2.8087806701660156 -11.84190845489502 -5.2969388961791992
v 2.8087806701660156 -11.84190845489502 -6.7521500587463379
v 2.8087806701660156 -11.84190845489502 -8.2073612213134766
v 1.7055805921554565 -11.84190845489502 -8.2073612213134766
v 1.7055805921554565 -11.84190845489502 -8.3597612380981445
v 1.1278741359710693 -11.84190845489502 -8.4833803176879883
v 1.5630327463150024 -11.84190845489502 -7.3829350471496582
v 1.5630327463150024 -11.84190845489502 -8.4833803176879883
v 1.998191237449646 -11.84190845489502 -7.9331579208374023
v 1.5630327463150024 -11.84190845489502 -7.9331579208374023
v 1.7806119918823242 -11.84190845489502 -7.3829350471496582
v 1.7806119918823242 -11.84190845489502 -7.9331579208374023
v 1.998191237449646 -11.84190845489502 -6.2824897766113281
v 1.1278741359710693 -11.84190845489502 -6.2824897766113281
v 1.5630327463150024 -11.84190845489502 -5.182044506072998
v 1.5630327463150024 -11.84190845489502 -6.2824897766113281
v 2.8087806701660156 -11.84190845489502 -8.3597612380981445
v 2.8087806701660156 -11.84190845489502 -9.8073606491088867
v 1.3011749982833862 -11.84190845489502 -9.8073606491088867
v -0.20643056929111481 -11.84190845489502 -9.8073606491088867
v -0.20643056929111481 -11.84190845489502 -8.3597612380981445
v 0.97958064079284668 -11.84190845489502 -8.3597612380981445
v 0.97958064079284668 -11.84190845489502 -8.2073612213134766
v 0.69271564483642578 -11.84190845489502 -7.3829350471496582
v 1.1278741359710693 -11.84190845489502 -7.9331579208374023
v 0.69271564483642578 -11.84190845489502 -7.9331579208374023
v 0.91029489040374756 -11.84190845489502 -7.3829350471496582
v 0.91029489040374756 -11.84190845489502 -7.9331579208374023
v 0.25755709409713745 -11.84190845489502 -6.2824897766113281
v 0.69271564483642578 -11.84190845489502 -5.182044506072998
v 0.69271564483642578 -11.84190845489502 -6.2824897766113281
v -0.20643056929111481 -11.84190845489502 -8.2073612213134766
v -0.20643056929111481 -11.84190845489502 -7.2061114311218262
v -0.20643056929111481 -11.84190845489502 -6.2048611640930176
v -1.6977835893630981 -11.84190845489502 -6.2048611640930176
v -1.6977835893630981 -11.84190845489502 -6.3572611808776855
v -1.9182356595993042 -11.84190845489502 -7.3829350471496582
v -2.3533940315246582 -11.84190845489502 -6.2824897766113281
v -1.9182356595993042 -11.84190845489502 -5.182044506072998
v -1.9182356595993042 -11.84190845489502 -6.2824897766113281
v -1.4830770492553711 -11.84190845489502 -5.7322673797607422
v -1.9182356595993042 -11.84190845489502 -5.7322673797607422
v -1.7006562948226929 -11.84190845489502 -5.182044506072998
v -1.7006562948226929 -11.84190845489502 -5.7322673797607422
v -1.4830770492553711 -11.84190845489502 -4.081599235534668
v -2.3533940315246582 -11.84190845489502 -4.081599235534668
v -1.9182356595993042 -11.84190845489502 -2.981154203414917
v -1.9182356595993042 -11.84190845489502 -4.081599235534668
v -1.0479185581207275 -11.84190845489502 -7.3829350471496582
v -1.0479185581207275 -11.84190845489502 -5.182044506072998
v -1.4830770492553711 -11.84190845489502 -6.8327126502990723
v -1.7006562948226929 -11.84190845489502 -7.3829350471496582
v -1.9182356595993042 -11.84190845489502 -6.8327126502990723
v -1.7006562948226929 -11.84190845489502 -6.8327126502990723
v -1.4830770492553711 -11.84190845489502 -8.4833803176879883
v -1.9182356595993042 -11.84190845489502 -9.5838251113891602
v -2.3533940315246582 -11.84190845489502 -8.4833803176879883
v -1.9182356595993042 -11.84190845489502 -8.4833803176879883
v -0.35883057117462158 -11.84190845489502 -6.3572611808776855
v -0.35883057117462158 -11.84190845489502 -7.7677812576293945
v -0.35883057117462158 -11.84190845489502 -9.1783008575439453
v -0.35883057117462158 -11.84190845489502 -10.588821411132812
v -0.35883057117462158 -11.84190845489502 -11.999341011047363
v -0.35883057117462158 -11.84190845489502 -13.40986156463623
v -1.3588305711746216 -11.84190845489502 -13.40986156463623
v -1.3588305711746216 -11.84190845489502 -13.862260818481445
v -0.61276000738143921 -11.84190845489502 -12.885161399841309
v -1.0479185581207275 -11.84190845489502 -13.98560619354248
v -1.4830770492553711 -11.84190845489502 -12.885161399841309
v -1.0479185581207275 -11.84190845489502 -12.885161399841309
v -1.2064305543899536 -11.84190845489502 -13.862260818481445
v -1.4830770492553711 -11.84190845489502 -13.435383796691895
v -0.61276000738143921 -11.84190845489502 -15.086051940917969
v -1.4830770492553711 -11.84190845489502 -15.086051940917969
v -1.0479185581207275 -11.84190845489502 -15.086051940917969
v -1.9182356595993042 -11.84190845489502 -13.98560619354248
v -2.3533940315246582 -11.84190845489502 -12.885161399841309
v -1.9182356595993042 -11.84190845489502 -12.885161399841309
v -1.2064305543899536 -11.84190845489502 -13.562261581420898
v -0.20643056929111481 -11.84190845489502 -13.562261581420898
v -0.20643056929111481 -11.84190845489502 -12.56101131439209
v -0.20643056929111481 -11.84190845489502 -11.559760093688965
v 0.97958064079284668 -11.84190845489502 -11.559760093688965
v 0.97958064079284668 -11.84190845489502 -11.407360076904297
v 1.1278741359710693 -11.84190845489502 -10.684270858764648
v 0.69271564483642578 -11.84190845489502 -11.78471565246582
v 0.69271564483642578 -11.84190845489502 -10.684270858764648
v 1.1278741359710693 -11.84190845489502 -11.234493255615234
v 0.91029489040374756 -11.84190845489502 -11.78471565246582
v 0.69271564483642578 -11.84190845489502 -11.234493255615234
v 0.91029489040374756 -11.84190845489502 -10.684270858764648
v 0.91029489040374756 -11.84190845489502 -11.234493255615234
v 1.998191237449646 -11.84190845489502 -10.684270858764648
v 1.5630327463150024 -11.84190845489502 -11.78471565246582
v 1.5630327463150024 -11.84190845489502 -10.684270858764648
v 1.1278741359710693 -11.84190845489502 -12.885161399841309
v 0.69271564483642578 -11.84190845489502 -13.98560619354248
v 0.25755709409713745 -11.84190845489502 -12.885161399841309
v 0.69271564483642578 -11.84190845489502 -12.885161399841309
v -0.20643056929111481 -11.84190845489502 -11.407360076904297
v -0.20643056929111481 -11.84190845489502 -9.9597606658935547
v 1.3011749982833862 -11.84190845489502 -9.9597606658935547
v 2.8087806701660156 -11.84190845489502 -9.9597606658935547
v 2.8087806701660156 -11.84190845489502 -11.407360076904297
v 1.7055805921554565 -11.84190845489502 -11.407360076904297
v 1.7055805921554565 -11.84190845489502 -11.559760093688965
v 1.998191237449646 -11.84190845489502 -11.234493255615234
v 1.7806119918823242 -11.84190845489502 -11.78471565246582
v 1.5630327463150024 -11.84190845489502 -11.234493255615234
v 1.7806119918823242 -11.84190845489502 -10.684270858764648
v 1.7806119918823242 -11.84190845489502 -11.234493255615234
v 1.998191237449646 -11.84190845489502 -12.885161399841309
v 1.5630327463150024 -11.84190845489502 -13.98560619354248
v 1.5630327463150024 -11.84190845489502 -12.885161399841309
v 2.8087806701660156 -11.84190845489502 -11.559760093688965
v 2.8087806701660156 -11.84190845489502 -13.051658630371094
v 2.8087806701660156 -11.84190845489502 -14.543557167053223
v 2.8087806701660156 -11.84190845489502 -16.035455703735352
v 1.4703769683837891 -11.84190845489502 -16.035455703735352
v 0.13197319209575653 -11.84190845489502 -16.035455703735352
v -1.2064305543899536 -11.84190845489502 -16.035455703735352
v -1.2064305543899536 -11.84190845489502 -14.788261413574219
v -1.3588305711746216 -11.84190845489502 -14.788261413574219
v -1.0479185581207275 -11.84190845489502 -14.535829544067383
v -1.4830770492553711 -11.84190845489502 -14.535829544067383
v -2.3533940315246582 -11.84190845489502 -15.086051940917969
v -1.9182356595993042 -11.84190845489502 -15.086051940917969
v -1.3588305711746216 -11.84190845489502 -16.035455703735352
v -2.2614071369171143 -11.84190845489502 -16.035455703735352
v -3.1639835834503174 -11.84190845489502 -16.035455703735352
v -3.1639835834503174 -11.84190845489502 -14.877723693847656
v -3.1639835834503174 -11.84190845489502 -13.719992637634277
v -3.1639835834503174 -11.84190845489502 -12.562261581420898
v -2.1852071285247803 -11.84190845489502 -12.562261581420898
v -1.2064305543899536 -11.84190845489502 -12.562261581420898
v -1.2064305543899536 -11.84190845489502 -11.261011123657227
v -1.2064305543899536 -11.84190845489502 -9.9597616195678711
v -1.2064305543899536 -11.84190845489502 -8.6585111618041992
v -1.2064305543899536 -11.84190845489502 -7.3572611808776855
v -1.3588305711746216 -11.84190845489502 -7.3572611808776855
v -0.61276000738143921 -11.84190845489502 -8.4833803176879883
v -1.0479185581207275 -11.84190845489502 -8.4833803176879883
v -1.3588305711746216 -11.84190845489502 -8.6204109191894531
v -1.3588305711746216 -11.84190845489502 -9.8835611343383789
v -1.3588305711746216 -11.84190845489502 -11.146711349487305
v -1.3588305711746216 -11.84190845489502 -12.40986156463623
v -2.2614071369171143 -11.84190845489502 -12.40986156463623
v -3.1639835834503174 -11.84190845489502 -12.40986156463623
v -3.1639835834503174 -11.84190845489502 -10.896711349487305
v -3.1639835834503174 -11.84190845489502 -9.3835611343383789
v -3.1639835834503174 -11.84190845489502 -7.8704109191894531
v -3.1639835834503174 -11.84190845489502 -6.3572611808776855
v -2.6237838268280029 -11.84190845489502 -6.3572611808776855
v -2.7885527610778809 -11.84190845489502 -7.3829350471496582
v -2.7885527610778809 -11.84190845489502 -5.182044506072998
v -2.6237838268280029 -11.84190845489502 -6.2048611640930176
v -2.3533940315246582 -11.84190845489502 -6.8327126502990723
v -2.5709733963012695 -11.84190845489502 -7.3829350471496582
v -2.7885527610778809 -11.84190845489502 -6.8327126502990723
v -2.5709733963012695 -11.84190845489502 -6.8327126502990723
v -2.7885527610778809 -11.84190845489502 -9.5838251113891602
v -2.7885527610778809 -11.84190845489502 -8.4833803176879883
v -2.3533940315246582 -11.84190845489502 -5.7322673797607422
v -2.7885527610778809 -11.84190845489502 -5.7322673797607422
v -2.5709733963012695 -11.84190845489502 -5.182044506072998
v -2.5709733963012695 -11.84190845489502 -5.7322673797607422
v -2.7885527610778809 -11.84190845489502 -2.981154203414917
v -2.7885527610778809 -11.84190845489502 -4.081599235534668
v -3.1639835834503174 -11.84190845489502 -6.2048611640930176
v -3.1639835834503174 -11.84190845489502 -4.886472225189209
v -3.1639835834503174 -11.84190845489502 -3.5680830478668213
v -3.1639835834503174 -11.84190845489502 -2.2496941089630127
vn 0 1 0
vn 0 1 0
vn 0 1 0
vn 0 1 0
vn 0 1 0
vn 0 1 0
vn 0 1 0
vn 0 1 0
vn 0 1 0
vn 0 1 0
vn 0 1 0
vn 0 1 0
vn 0 1 0
vn 0 1 0
vn 0 1 0
vn 0 1 0
vn 0 1 0
vn 0 1 0
vn 0 1 0
vn 0 1 0
vn 0 1 0
vn 0 1 0
vn 0 1 0
vn 0 1 0
vn 0 1 0
vn 0 1 0
vn 0 1 0
vn 0 1 0
vn 0 1 0
vn 0 1 0
vn 0 1 0
vn 0 1 0
vn 0 1 0
vn 0 1 0
vn 0 1 0
vn 0 1 0
vn 0 1 0
vn 0 1 0
vn 0 1 0
vn 0 1 0
vn 0 1 0
vn 0 1 0
vn 0 1 0
vn 0 1 0
vn 0 1 0
vn 0 1 0
vn 0 1 0
vn 0 1 0
vn 0 1 0
vn 0 1 0
vn 0 1 0
vn 0 1 0
vn 0 1 0
vn 0 1 0
vn 0 1 0
vn 0 1 0
vn 0 1 0
vn 0 1 0
vn 0 1 0
vn 0 1 0
vn 0 1 0
vn 0 1 0
vn 0 1 0
vn 0 1 0
vn 0 1 0
vn 0 1 0
vn 0 1 0
vn 0 1 0
vn 0 1 0
vn 0 1 0
vn 0 1 0
vn 0 1 0
vn 0 1 0
vn 0 1 0
vn 0 1 0
vn 0 1 0
vn 0 1 0
vn 0 1 0
vn 0 1 0
vn 0 1 0
vn 0 1 0
vn 0 1 0
vn 0 1 0
vn 0 1 0
vn 0 1 0
vn 0 1 0
vn 0 1 0
vn 0 1 0
vn 0 1 0
vn 0 1 0
vn 0 1 0
vn 0 1 0
vn 0 1 0
vn 0 1 0
vn 0 1 0
vn 0 1 0
vn 0 1 0
vn 0 1 0
vn 0 1 0
vn 0 1 0
vn 0 1 0
vn 0 1 0
vn 0 1 0
vn 0 1 0
vn 0 1 0
vn 0 1 0
vn 0 1 0
vn 0 1 0
vn 0 1 0
vn 0 1 0
vn 0 1 0
vn 0 1 0
vn 0 1 0
vn 0 1 0
vn 0 1 0
vn 0 1 0
vn 0 1 0
vn 0 1 0
vn 0 1 0
vn 0 1 0
vn 0 1 0
vn 0 1 0
vn 0 1 0
vn 0 1 0
vn 0 1 0
vn 0 1 0
vn 0 1 0
vn 0 1 0
vn 0 1 0
vn 0 1 0
vn 0 1 0
vn 0 1 0
vn 0 1 0
vn 0 1 0
vn 0 1 0
vn 0 1 0
vn 0 1 0
vn 0 1 0
vn 0 1 0
vn 0 1 0
vn 0 1 0
vn 0 1 0
vn 0 1 0
vn 0 1 0
vn 0 1 0
vn 0 1 0
vn 0 1 0
vn 0 1 0
vn 0 1 0
vn 0 1 0
vn 0 1 0
vn 0 1 0
vn 0 1 0
vn 0 1 0
vn 0 1 0
vn 0 1 0
vn 0 1 0
vn 0 1 0
vn 0 1 0
vn 0 1 0
vn 0 1 0
vn 0 1 0
vn 0 1 0
vn 0 1 0
vn 0 1 0
vn 0 1 0
vn 0 1 0
vn 0 1 0
vn 0 1 0
vn 0 1 0
vn 0 1 0
vn 0 1 0
vn 0 1 0
vn 0 1 0
vn 0 1 0
vn 0 1 0
vn 0 1 0
vn 0 1 0
vn 0 1 0
vn 0 1 0
vn 0 1 0
vn 0 1 0
vn 0 1 0
vn 0 1 0
vn 0 1 0
vn 0 1 0
vn 0 1 0
vn 0 1 0
vn 0 1 0
vn 0 1 0
vn 0 1 0
vn 0 1 0
vn 0 1 0
vn 0 1 0
vn 0 1 0
vn 0 1 0
vn 0 1 0
vn 0 1 0
vn 0 1 0
vn 0 1 0
vn 0 1 0
vn 0 1 0
vn 0 1 0
vn 0 1 0
vn 0 1 0
vn 0 1 0
vn 0 1 0
vn 0 1 0
vn 0 1 0
f 202//202 192//192 205//205
f 83//83 2//2 202//202
f 205//205 83//83 202//202
f 83//83 205//205 204//204 1//1
f 3//3 195//195 197//197 194//194
f 195//195 191//191 196//196 197//197
f 75//75 194//194 197//197
f 203//203 200//200 75//75
f 203//203 201//201 192//192 202//202
f 200//200 203//203 202//202 2//2
f 4//4 198//198 199//199 94//94
f 195//195 3//3 94//94
f 199//199 191//191 195//195
f 94//94 199//199 195//195
f 80//80 76//76 85//85
f 82//82 7//7 80//80
f 85//85 82//82 80//80
f 76//76 2//2 83//83 85//85
f 85//85 83//83 1//1 84//84
f 82//82 85//85 84//84 6//6
f 8//8 89//89 91//91 88//88
f 89//89 74//74 90//90 91//91
f 90//90 74//74 3//3 194//194
f 194//194 75//75 77//77 90//90
f 79//79 77//77 75//75 200//200
f 200//200 2//2 76//76 79//79
f 81//81 79//79 76//76 80//80
f 78//78 81//81 80//80 7//7
f 93//93 95//95 92//92
f 93//93 4//4 94//94 95//95
f 95//95 94//94 3//3 74//74
f 89//89 8//8 92//92
f 95//95 74//74 89//89
f 92//92 95//95 89//89
f 109//109 9//9 113//113
f 115//115 106//106 109//109
f 113//113 115//115 109//109
f 113//113 5//5 114//114 115//115
f 164//164 163//163 5//5 113//113
f 162//162 111//111 164//164
f 113//113 9//9 162//162
f 164//164 113//113 162//162
f 87//87 7//7 82//82
f 82//82 6//6 10//10
f 10//10 11//11 87//87
f 87//87 82//82 10//10
f 179//179 178//178 13//13
f 178//178 179//179 86//86 12//12
f 14//14 104//104 107//107
f 161//161 105//105 15//15
f 110//110 112//112 161//161
f 15//15 110//110 161//161
f 17//17 11//11 10//10 16//16
f 67//67 17//17 16//16
f 21//21 22//22 67//67
f 16//16 21//21 67//67
f 64//64 61//61 68//68
f 51//51 23//23 64//64
f 68//68 51//51 64//64
f 61//61 18//18 66//66 68//68
f 68//68 66//66 17//17 67//67
f 51//51 68//68 67//67 22//22
f 65//65 63//63 61//61 64//64
f 62//62 65//65 64//64 23//23
f 129//129 127//127 124//124 128//128
f 125//125 129//129 128//128 122//122
f 25//25 134//134 136//136 133//133
f 134//134 20//20 135//135 136//136
f 136//136 135//135 19//19 123//123
f 126//126 24//24 133//133
f 136//136 123//123 126//126
f 133//133 136//136 126//126
f 52//52 22//22 21//21
f 26//26 27//27 52//52
f 21//21 26//26 52//52
f 48//48 44//44 53//53
f 50//50 28//28 48//48
f 53//53 50//50 48//48
f 44//44 23//23 51//51 53//53
f 53//53 51//51 22//22 52//52
f 50//50 53//53 52//52 27//27
f 47//47 45//45 43//43 62//62
f 62//62 23//23 44//44 47//47
f 49//49 47//47 44//44 48//48
f 46//46 49//49 48//48 28//28
f 148//148 146//146 132//132 147//147
f 144//144 148//148 147//147 130//130
f 146//146 131//131 24//24 125//125
f 125//125 122//122 132//132 146//146
f 30//30 150//150 151//151 149//149
f 150//150 25//25 133//133 151//151
f 151//151 133//133 24//24 131//131
f 145//145 29//29 149//149
f 151//151 131//131 145//145
f 149//149 151//151 145//145
f 204//204 209//209 31//31
f 207//207 208//208 205//205 192//192
f 209//209 204//204 208//208
f 204//204 205//205 208//208
f 204//204 31//31 1//1
f 1//1 32//32 84//84
f 193//193 201//201 203//203
f 207//207 192//192 201//201
f 32//32 1//1 31//31
f 206//206 207//207 201//201
f 206//206 201//201 193//193
f 188//188 189//189 196//196 191//191
f 199//199 188//188 191//191
f 193//193 203//203 75//75
f 190//190 193//193 75//75
f 197//197 196//196 190//190
f 75//75 197//197 190//190
f 196//196 189//189 190//190
f 187//187 188//188 199//199 198//198
f 78//78 72//72 81//81
f 79//79 81//81 72//72
f 73//73 77//77 72//72
f 72//72 77//77 79//79
f 78//78 71//71 72//72
f 90//90 77//77 73//73
f 32//32 6//6 84//84
f 10//10 6//6 32//32 33//33
f 71//71 78//78 87//87
f 7//7 87//87 78//78
f 86//86 88//88 96//96
f 73//73 91//91 90//90
f 73//73 88//88 91//91
f 92//92 8//8 177//177 180//180
f 88//88 177//177 8//8
f 177//177 88//88 176//176
f 96//96 88//88 73//73
f 86//86 179//179 175//175 176//176
f 178//178 12//12 97//97
f 12//12 86//86 96//96
f 87//87 11//11 71//71
f 180//180 181//181 92//92
f 186//186 187//187 198//198
f 186//186 184//184 185//185
f 198//198 4//4 186//186
f 184//184 4//4 93//93
f 183//183 184//184 182//182
f 115//115 114//114 171//171
f 171//171 114//114 170//170
f 115//115 171//171 106//106
f 4//4 184//184 186//186
f 169//169 170//170 114//114 5//5
f 168//168 169//169 5//5 163//163
f 167//167 168//168 163//163
f 166//166 167//167 163//163
f 102//102 109//109 106//106
f 9//9 109//109 102//102 103//103
f 165//165 166//166 164//164 111//111
f 164//164 166//166 163//163
f 103//103 108//108 9//9
f 184//184 93//93 182//182
f 92//92 181//181 93//93
f 106//106 171//171 172//172
f 175//175 179//179 174//174
f 13//13 14//14 173//173 174//174
f 14//14 13//13 99//99 100//100
f 172//172 173//173 14//14
f 172//172 14//14 107//107
f 107//107 104//104 101//101
f 106//106 172//172 102//102
f 104//104 14//14 100//100 101//101
f 174//174 179//179 13//13
f 107//107 102//102 172//172
f 101//101 102//102 107//107
f 105//105 9//9 108//108
f 160//160 162//162 9//9
f 165//165 111//111 160//160
f 160//160 111//111 162//162
f 105//105 161//161 159//159
f 116//116 105//105 108//108
f 9//9 105//105 159//159 160//160
f 161//161 112//112 159//159
f 112//112 110//110 158//158
f 112//112 158//158 159//159
f 181//181 182//182 93//93
f 13//13 178//178 98//98
f 70//70 71//71 66//66 18//18
f 86//86 176//176 88//88
f 96//96 97//97 12//12
f 33//33 16//16 10//10
f 16//16 34//34 21//21
f 11//11 17//17 71//71
f 18//18 69//69 70//70
f 71//71 17//17 66//66
f 34//34 16//16 33//33
f 61//61 63//63 18//18
f 98//98 178//178 97//97
f 18//18 63//63 69//69
f 13//13 98//98 99//99
f 63//63 65//65 60//60
f 60//60 65//65 62//62
f 60//60 43//43 59//59
f 43//43 60//60 62//62
f 58//58 59//59 56//56 57//57
f 63//63 60//60 69//69
f 35//35 26//26 34//34
f 50//50 27//27 38//38 39//39
f 27//27 26//26 37//37 38//38
f 36//36 37//37 26//26
f 28//28 50//50 39//39
f 35//35 36//36 26//26
f 39//39 40//40 46//46 28//28
f 45//45 47//47 41//41 42//42
f 41//41 49//49 46//46
f 45//45 42//42 56//56
f 43//43 45//45 56//56
f 124//124 138//138 139//139
f 55//55 56//56 42//42 54//54
f 43//43 56//56 59//59
f 130//130 147//147 139//139
f 40//40 41//41 46//46
f 41//41 47//47 49//49
f 139//139 128//128 124//124
f 26//26 21//21 34//34
f 139//139 140//140 130//130
f 127//127 129//129 121//121
f 138//138 124//124 137//137
f 127//127 137//137 124//124
f 118//118 119//119 19//19 135//135
f 119//119 120//120 123//123 19//19
f 127//127 121//121 137//137
f 139//139 122//122 128//128
f 125//125 121//121 129//129
f 121//121 125//125 120//120
f 123//123 120//120 126//126
f 24//24 126//126 120//120
f 20//20 15//15 117//117
f 105//105 116//116 15//15
f 116//116 117//117 15//15
f 117//117 118//118 135//135 20//20
f 134//134 157//157 20//20
f 20//20 157//157 110//110
f 156//156 157//157 134//134 25//25
f 20//20 110//110 15//15
f 158//158 110//110 157//157
f 143//143 146//146 142//142
f 146//146 148//148 142//142
f 142//142 148//148 144//144
f 143//143 131//131 146//146
f 143//143 152//152 29//29
f 130//130 141//141 144//144
f 144//144 141//141 142//142
f 141//141 130//130 140//140
f 132//132 139//139 147//147
f 143//143 145//145 131//131
f 156//156 25//25 150//150
f 150//150 30//30 156//156
f 149//149 29//29 152//152 153//153
f 30//30 149//149 153//153
f 155//155 30//30 154//154
f 153//153 154//154 30//30
f 156//156 30//30 155//155
f 143//143 29//29 145//145
f 120//120 125//125 24//24
f 132//132 122//122 139//139
